<?xml version="1.0" encoding="UTF-8" standalone="no"?>
<!-- Created with matplotlib (http://matplotlib.org/) -->

<svg
   xmlns:dc="http://purl.org/dc/elements/1.1/"
   xmlns:cc="http://creativecommons.org/ns#"
   xmlns:rdf="http://www.w3.org/1999/02/22-rdf-syntax-ns#"
   xmlns:svg="http://www.w3.org/2000/svg"
   xmlns="http://www.w3.org/2000/svg"
   xmlns:xlink="http://www.w3.org/1999/xlink"
   xmlns:sodipodi="http://sodipodi.sourceforge.net/DTD/sodipodi-0.dtd"
   xmlns:inkscape="http://www.inkscape.org/namespaces/inkscape"
   height="396pt"
   version="1.1"
   viewBox="0 0 576 396"
   width="576pt"
   id="svg2"
   inkscape:version="0.48.4 r9939"
   sodipodi:docname="incons-analytic.svg">
  <metadata
     id="metadata389">
    <rdf:RDF>
      <cc:Work
         rdf:about="">
        <dc:format>image/svg+xml</dc:format>
        <dc:type
           rdf:resource="http://purl.org/dc/dcmitype/StillImage" />
        <dc:title></dc:title>
      </cc:Work>
    </rdf:RDF>
  </metadata>
  <sodipodi:namedview
     pagecolor="#ffffff"
     bordercolor="#666666"
     borderopacity="1"
     objecttolerance="10"
     gridtolerance="10"
     guidetolerance="10"
     inkscape:pageopacity="0"
     inkscape:pageshadow="2"
     inkscape:window-width="779"
     inkscape:window-height="480"
     id="namedview387"
     showgrid="false"
     inkscape:zoom="0.47676768"
     inkscape:cx="505.77331"
     inkscape:cy="247.5"
     inkscape:window-x="65"
     inkscape:window-y="24"
     inkscape:window-maximized="0"
     inkscape:current-layer="svg2" />
  <defs
     id="defs4">
    <pattern
       inkscape:stockid="Wavy"
       id="Wavy"
       height="5.1805778"
       width="30.066020"
       patternUnits="userSpaceOnUse"
       inkscape:collect="always">
      <path
         id="path5483"
         d="M 7.597,0.061 C 5.079,-0.187 2.656,0.302 -0.01,1.788 L -0.01,3.061 C 2.773,1.431 5.173,1.052 7.472,1.280 C 9.770,1.508 11.969,2.361 14.253,3.218 C 18.820,4.931 23.804,6.676 30.066,3.061 L 30.062,1.788 C 23.622,5.497 19.246,3.770 14.691,2.061 C 12.413,1.207 10.115,0.311 7.597,0.061 z "
         style="fill:black;stroke:none;" />
    </pattern>
    <style
       type="text/css"
       id="style6">
*{stroke-linecap:butt;stroke-linejoin:round;}
  </style>
  </defs>
  <g
     id="figure_1">
    <g
       id="patch_1">
      <path
         d="M 0 396  L 576 396  L 576 0  L 0 0  z "
         style="fill:#ffffff;"
         id="path10" />
    </g>
    <g
       id="axes_1">
      <g
         id="patch_2">
        <path
           d="M 144.748561 335.929571  L 431.251439 335.929571  L 431.251439 49.426693  L 144.748561 49.426693  z "
           style="fill:#ffffff;"
           id="path14" />
      </g>
      <g
         id="matplotlib.axis_1">
        <g
           id="xtick_1">
          <g
             id="line2d_1">
            <defs
               id="defs19">
              <path
                 d="M 0 0  L 0 6  "
                 id="md1cbbf66f1"
                 style="stroke:#262626;" />
            </defs>
            <g
               id="g22">
              <use
                 style="fill:#262626;stroke:#262626;"
                 x="144.748561"
                 xlink:href="#md1cbbf66f1"
                 y="335.929571"
                 id="use24" />
            </g>
          </g>
          <g
             id="text_1">
            <!-- $0.0$ -->
            <defs
               id="defs27">
              <path
                 d="M 42 31.640625  C 42 37.75 41.90625 48.125 37.703125 56.109375  C 34 63.109375 28.09375 65.59375 22.90625 65.59375  C 18.09375 65.59375 12 63.40625 8.203125 56.203125  C 4.203125 48.71875 3.796875 39.4375 3.796875 31.640625  C 3.796875 25.953125 3.90625 17.28125 7 9.671875  C 11.296875 -0.609375 19 -2 22.90625 -2  C 27.5 -2 34.5 -0.109375 38.59375 9.375  C 41.59375 16.28125 42 24.359375 42 31.640625  M 22.90625 -0.40625  C 16.5 -0.40625 12.703125 5.078125 11.296875 12.6875  C 10.203125 18.5625 10.203125 27.15625 10.203125 32.75  C 10.203125 40.4375 10.203125 46.828125 11.5 52.921875  C 13.40625 61.390625 19 64 22.90625 64  C 27 64 32.296875 61.296875 34.203125 53.125  C 35.5 47.4375 35.59375 40.734375 35.59375 32.75  C 35.59375 26.25 35.59375 18.265625 34.40625 12.375  C 32.296875 1.484375 26.40625 -0.40625 22.90625 -0.40625  "
                 id="CMR17-48" />
              <path
                 d="M 18.40625 4.796875  C 18.40625 7.6875 16 9.671875 13.59375 9.671875  C 10.703125 9.671875 8.703125 7.28125 8.703125 4.890625  C 8.703125 2 11.09375 0 13.5 0  C 16.40625 0 18.40625 2.390625 18.40625 4.796875  "
                 id="CMMI12-58" />
            </defs>
            <g
               style="fill:#262626;"
               transform="translate(134.085529 361.382871)scale(0.18 -0.18)"
               id="g31">
              <use
                 transform="scale(0.996264)"
                 xlink:href="#CMR17-48"
                 id="use33" />
              <use
                 transform="translate(45.690477 0)scale(0.996264)"
                 xlink:href="#CMMI12-58"
                 id="use35" />
              <use
                 transform="translate(72.787654 0)scale(0.996264)"
                 xlink:href="#CMR17-48"
                 id="use37" />
            </g>
          </g>
        </g>
        <g
           id="xtick_2">
          <g
             id="line2d_2">
            <g
               id="g41">
              <use
                 style="fill:#262626;stroke:#262626;"
                 x="202.049137"
                 xlink:href="#md1cbbf66f1"
                 y="335.929571"
                 id="use43" />
            </g>
          </g>
          <g
             id="text_2">
            <!-- $0.1$ -->
            <defs
               id="defs46">
              <path
                 d="M 26.59375 63.40625  C 26.59375 65.5 26.5 65.5 25.09375 65.5  C 21.203125 61.1875 15.296875 59.796875 9.703125 59.796875  C 9.40625 59.796875 8.90625 59.796875 8.796875 59.5  C 8.703125 59.296875 8.703125 59.09375 8.703125 57  C 11.796875 57 17 57.59375 21 59.984375  L 21 7.203125  C 21 3.6875 20.796875 2.5 12.203125 2.5  L 9.203125 2.5  L 9.203125 0  C 14 0 19 0 23.796875 0  C 28.59375 0 33.59375 0 38.40625 0  L 38.40625 2.5  L 35.40625 2.5  C 26.796875 2.5 26.59375 3.59375 26.59375 7.15625  z "
                 id="CMR17-49" />
            </defs>
            <g
               style="fill:#262626;"
               transform="translate(191.386105 361.382871)scale(0.18 -0.18)"
               id="g49">
              <use
                 transform="scale(0.996264)"
                 xlink:href="#CMR17-48"
                 id="use51" />
              <use
                 transform="translate(45.690477 0)scale(0.996264)"
                 xlink:href="#CMMI12-58"
                 id="use53" />
              <use
                 transform="translate(72.787654 0)scale(0.996264)"
                 xlink:href="#CMR17-49"
                 id="use55" />
            </g>
          </g>
        </g>
        <g
           id="xtick_3">
          <g
             id="line2d_3">
            <g
               id="g59">
              <use
                 style="fill:#262626;stroke:#262626;"
                 x="259.349712"
                 xlink:href="#md1cbbf66f1"
                 y="335.929571"
                 id="use61" />
            </g>
          </g>
          <g
             id="text_3">
            <!-- $0.2$ -->
            <defs
               id="defs64">
              <path
                 d="M 41.703125 15.453125  L 39.90625 15.453125  C 38.90625 8.375 38.09375 7.171875 37.703125 6.5625  C 37.203125 5.765625 30 5.765625 28.59375 5.765625  L 9.40625 5.765625  C 13 9.671875 20 16.75 28.5 24.953125  C 34.59375 30.734375 41.703125 37.53125 41.703125 47.421875  C 41.703125 59.21875 32.296875 66 21.796875 66  C 10.796875 66 4.09375 56.3125 4.09375 47.34375  C 4.09375 43.4375 7 42.9375 8.203125 42.9375  C 9.203125 42.9375 12.203125 43.546875 12.203125 47.03125  C 12.203125 50.109375 9.59375 51 8.203125 51  C 7.59375 51 7 50.90625 6.59375 50.703125  C 8.5 59.21875 14.296875 63.40625 20.40625 63.40625  C 29.09375 63.40625 34.796875 56.515625 34.796875 47.421875  C 34.796875 38.734375 29.703125 31.25 24 24.75  L 4.09375 2.28125  L 4.09375 0  L 39.296875 0  z "
                 id="CMR17-50" />
            </defs>
            <g
               style="fill:#262626;"
               transform="translate(248.68668 361.382871)scale(0.18 -0.18)"
               id="g67">
              <use
                 transform="scale(0.996264)"
                 xlink:href="#CMR17-48"
                 id="use69" />
              <use
                 transform="translate(45.690477 0)scale(0.996264)"
                 xlink:href="#CMMI12-58"
                 id="use71" />
              <use
                 transform="translate(72.787654 0)scale(0.996264)"
                 xlink:href="#CMR17-50"
                 id="use73" />
            </g>
          </g>
        </g>
        <g
           id="xtick_4">
          <g
             id="line2d_4">
            <g
               id="g77">
              <use
                 style="fill:#262626;stroke:#262626;"
                 x="316.650288"
                 xlink:href="#md1cbbf66f1"
                 y="335.929571"
                 id="use79" />
            </g>
          </g>
          <g
             id="text_4">
            <!-- $0.3$ -->
            <defs
               id="defs82">
              <path
                 d="M 22.09375 33.703125  C 31 33.703125 34.90625 25.96875 34.90625 17.03125  C 34.90625 5 28.5 0.390625 22.703125 0.390625  C 17.40625 0.390625 8.796875 3.03125 6.09375 10.828125  C 6.59375 10.625 7.09375 10.625 7.59375 10.625  C 10 10.625 11.796875 12.21875 11.796875 14.8125  C 11.796875 17.703125 9.59375 19 7.59375 19  C 5.90625 19 3.296875 18.203125 3.296875 14.46875  C 3.296875 5.234375 12.296875 -2 22.90625 -2  C 34 -2 42.5 6.71875 42.5 16.953125  C 42.5 26.671875 34.5 33.703125 25 34.796875  C 32.59375 36.375 39.90625 43.0625 39.90625 52.015625  C 39.90625 59.6875 32 65.296875 23 65.296875  C 13.90625 65.296875 5.90625 59.828125 5.90625 52.015625  C 5.90625 48.59375 8.5 48 9.796875 48  C 11.90625 48 13.703125 49.296875 13.703125 51.890625  C 13.703125 54.46875 11.90625 55.765625 9.796875 55.765625  C 9.40625 55.765625 8.90625 55.765625 8.5 55.578125  C 11.40625 61.859375 19.296875 63 22.796875 63  C 26.296875 63 32.90625 61.328125 32.90625 51.875  C 32.90625 49.109375 32.5 44.1875 29.09375 39.84375  C 26.09375 36 22.703125 36 19.40625 35.6875  C 18.90625 35.6875 16.59375 35.453125 16.203125 35.453125  C 15.5 35.359375 15.09375 35.265625 15.09375 34.5  C 15.09375 33.796875 15.203125 33.703125 17.203125 33.703125  z "
                 id="CMR17-51" />
            </defs>
            <g
               style="fill:#262626;"
               transform="translate(305.987256 361.382871)scale(0.18 -0.18)"
               id="g85">
              <use
                 transform="scale(0.996264)"
                 xlink:href="#CMR17-48"
                 id="use87" />
              <use
                 transform="translate(45.690477 0)scale(0.996264)"
                 xlink:href="#CMMI12-58"
                 id="use89" />
              <use
                 transform="translate(72.787654 0)scale(0.996264)"
                 xlink:href="#CMR17-51"
                 id="use91" />
            </g>
          </g>
        </g>
        <g
           id="xtick_5">
          <g
             id="line2d_5">
            <g
               id="g95">
              <use
                 style="fill:#262626;stroke:#262626;"
                 x="373.950863"
                 xlink:href="#md1cbbf66f1"
                 y="335.929571"
                 id="use97" />
            </g>
          </g>
          <g
             id="text_5">
            <!-- $0.4$ -->
            <defs
               id="defs100">
              <path
                 d="M 33.59375 64.40625  C 33.59375 66.5 33.5 66.5 31.703125 66.5  L 2 19.59375  L 2 17  L 27.796875 17  L 27.796875 7.140625  C 27.796875 3.5 27.59375 2.5 20.59375 2.5  L 18.703125 2.5  L 18.703125 0  C 21.90625 0 27.296875 0 30.703125 0  C 34.09375 0 39.5 0 42.703125 0  L 42.703125 2.5  L 40.796875 2.5  C 33.796875 2.5 33.59375 3.5 33.59375 7.140625  L 33.59375 17  L 43.796875 17  L 43.796875 19.59375  L 33.59375 19.59375  z M 28.09375 57.859375  L 28.09375 19.59375  L 4 19.59375  z "
                 id="CMR17-52" />
            </defs>
            <g
               style="fill:#262626;"
               transform="translate(363.287832 361.382871)scale(0.18 -0.18)"
               id="g103">
              <use
                 transform="scale(0.996264)"
                 xlink:href="#CMR17-48"
                 id="use105" />
              <use
                 transform="translate(45.690477 0)scale(0.996264)"
                 xlink:href="#CMMI12-58"
                 id="use107" />
              <use
                 transform="translate(72.787654 0)scale(0.996264)"
                 xlink:href="#CMR17-52"
                 id="use109" />
            </g>
          </g>
        </g>
        <g
           id="xtick_6">
          <g
             id="line2d_6">
            <g
               id="g113">
              <use
                 style="fill:#262626;stroke:#262626;"
                 x="431.251439"
                 xlink:href="#md1cbbf66f1"
                 y="335.929571"
                 id="use115" />
            </g>
          </g>
          <g
             id="text_6">
            <!-- $0.5$ -->
            <defs
               id="defs118">
              <path
                 d="M 11.40625 57.6875  C 12.40625 57.28125 16.5 56 20.703125 56  C 30 56 35.09375 61.109375 38 64.0625  C 38 64.953125 38 65.5 37.40625 65.5  C 37.296875 65.5 37.09375 65.5 36.296875 65.046875  C 32.796875 63.40625 28.703125 62.078125 23.703125 62.078125  C 20.703125 62.078125 16.203125 62.484375 11.296875 64.671875  C 10.203125 65.171875 10 65.171875 9.90625 65.171875  C 9.40625 65.171875 9.296875 65.0625 9.296875 63.078125  L 9.296875 34.421875  C 9.296875 32.640625 9.296875 32.140625 10.296875 32.140625  C 10.796875 32.140625 11 32.34375 11.5 33.03125  C 14.703125 37.515625 19.09375 39.40625 24.09375 39.40625  C 27.59375 39.40625 35.09375 37.21875 35.09375 20.140625  C 35.09375 16.953125 35.09375 11.171875 32.09375 6.578125  C 29.59375 2.484375 25.703125 0.390625 21.40625 0.390625  C 14.796875 0.390625 8.09375 5 6.296875 12.71875  C 6.703125 12.609375 7.5 12.421875 7.90625 12.421875  C 9.203125 12.421875 11.703125 13.125 11.703125 16.21875  C 11.703125 18.90625 9.796875 20 7.90625 20  C 5.59375 20 4.09375 18.59375 4.09375 15.796875  C 4.09375 7.09375 11 -2 21.59375 -2  C 31.90625 -2 41.703125 6.875 41.703125 19.75  C 41.703125 31.71875 33.90625 41 24.203125 41  C 19.09375 41 14.796875 39.109375 11.40625 35.53125  z "
                 id="CMR17-53" />
            </defs>
            <g
               style="fill:#262626;"
               transform="translate(420.588407 361.382871)scale(0.18 -0.18)"
               id="g121">
              <use
                 transform="scale(0.996264)"
                 xlink:href="#CMR17-48"
                 id="use123" />
              <use
                 transform="translate(45.690477 0)scale(0.996264)"
                 xlink:href="#CMMI12-58"
                 id="use125" />
              <use
                 transform="translate(72.787654 0)scale(0.996264)"
                 xlink:href="#CMR17-53"
                 id="use127" />
            </g>
          </g>
        </g>
        <g
           id="text_7">
          <!-- $p_{x^*}$ -->
          <defs
             id="defs130">
            <path
               d="M 4.296875 -12.328125  C 3.59375 -15.3125 3.203125 -16.109375 -0.90625 -16.109375  C -2.09375 -16.109375 -3.09375 -16.109375 -3.09375 -18  C -3.09375 -18.203125 -3 -19 -1.90625 -19  C -0.59375 -19 0.796875 -19 2.09375 -19  L 6.40625 -19  C 8.5 -19 13.59375 -19 15.703125 -19  C 16.296875 -19 17.5 -19 17.5 -17.203125  C 17.5 -16.109375 16.796875 -16.109375 15.09375 -16.109375  C 10.5 -16.109375 10.203125 -15.421875 10.203125 -14.640625  C 10.203125 -13.453125 14.703125 3.421875 15.296875 5.6875  C 16.40625 2.890625 19.09375 -1 24.296875 -1  C 35.59375 -1 47.796875 13.671875 47.796875 28.34375  C 47.796875 37.515625 42.59375 44 35.09375 44  C 28.703125 44 23.296875 37.8125 22.203125 36.421875  C 21.40625 41.40625 17.5 44 13.5 44  C 10.59375 44 8.296875 42.609375 6.40625 38.8125  C 4.59375 35.21875 3.203125 29.140625 3.203125 28.734375  C 3.203125 28.34375 3.59375 27.84375 4.296875 27.84375  C 5.09375 27.84375 5.203125 27.9375 5.796875 30.234375  C 7.296875 36.125 9.203125 42.015625 13.203125 42.015625  C 15.5 42.015625 16.296875 40.421875 16.296875 37.453125  C 16.296875 35.078125 16 34.078125 15.59375 32.296875  z M 21.59375 31.140625  C 22.296875 33.921875 25.09375 36.828125 26.703125 38.21875  C 27.796875 39.21875 31.09375 42.015625 34.90625 42.015625  C 39.296875 42.015625 41.296875 37.625 41.296875 32.4375  C 41.296875 27.640625 38.5 16.359375 36 11.171875  C 33.5 5.78125 28.90625 1 24.296875 1  C 17.5 1 16.40625 9.578125 16.40625 9.984375  C 16.40625 10.28125 16.59375 11.078125 16.703125 11.578125  z "
               id="CMMI12-112" />
            <path
               d="M 47.40625 40.71875  C 44.203125 40.109375 43 37.71875 43 35.828125  C 43 33.421875 44.90625 32.625 46.296875 32.625  C 49.296875 32.625 51.40625 35.21875 51.40625 37.921875  C 51.40625 42.109375 46.59375 44 42.40625 44  C 36.296875 44 32.90625 38.015625 32 36.125  C 29.703125 44 23.5 44 21.703125 44  C 11.5 44 6.09375 30.9375 6.09375 28.734375  C 6.09375 28.34375 6.5 27.84375 7.203125 27.84375  C 8 27.84375 8.203125 28.4375 8.40625 28.84375  C 11.796875 39.921875 18.5 42.015625 21.40625 42.015625  C 25.90625 42.015625 26.796875 37.8125 26.796875 35.421875  C 26.796875 33.234375 26.203125 30.9375 25 26.140625  L 21.59375 12.46875  C 20.09375 6.484375 17.203125 1 11.90625 1  C 11.40625 1 8.90625 1 6.796875 2.296875  C 10.40625 3 11.203125 5.984375 11.203125 7.1875  C 11.203125 9.1875 9.703125 10.375 7.796875 10.375  C 5.40625 10.375 2.796875 8.28125 2.796875 5.09375  C 2.796875 0.890625 7.5 -1 11.796875 -1  C 16.59375 -1 20 2.796875 22.09375 6.890625  C 23.703125 1 28.703125 -1 32.40625 -1  C 42.59375 -1 48 12.078125 48 14.265625  C 48 14.765625 47.59375 15.171875 47 15.171875  C 46.09375 15.171875 46 14.671875 45.703125 13.875  C 43 5.09375 37.203125 1 32.703125 1  C 29.203125 1 27.296875 3.59375 27.296875 7.6875  C 27.296875 9.875 27.703125 11.46875 29.296875 18.0625  L 32.796875 31.625  C 34.296875 37.625 37.703125 42.015625 42.296875 42.015625  C 42.5 42.015625 45.296875 42.015625 47.40625 40.71875  "
               id="CMMI12-120" />
            <path
               d="M 27.5 42.484375  C 27.59375 43.875 27.59375 46.28125 25 46.28125  C 23.40625 46.28125 22.09375 44.984375 22.40625 43.671875  L 22.40625 42.375  L 23.796875 26.875  L 11 36.1875  C 10.09375 36.6875 9.90625 36.875 9.203125 36.875  C 7.796875 36.875 6.5 35.484375 6.5 34.078125  C 6.5 32.484375 7.5 32.078125 8.5 31.578125  L 22.703125 24.78125  L 8.90625 18.09375  C 7.296875 17.296875 6.5 16.890625 6.5 15.390625  C 6.5 13.890625 7.796875 12.59375 9.203125 12.59375  C 9.90625 12.59375 10.09375 12.59375 12.59375 14.5  L 23.796875 22.59375  L 22.296875 5.796875  C 22.296875 3.6875 24.09375 3.1875 24.90625 3.1875  C 26.09375 3.1875 27.59375 3.875 27.59375 5.796875  L 26.09375 22.59375  L 38.90625 13.296875  C 39.796875 12.796875 40 12.59375 40.703125 12.59375  C 42.09375 12.59375 43.40625 14 43.40625 15.390625  C 43.40625 16.890625 42.5 17.390625 41.296875 18  C 35.296875 20.984375 35.09375 20.984375 27.203125 24.6875  L 41 31.375  C 42.59375 32.1875 43.40625 32.578125 43.40625 34.078125  C 43.40625 35.578125 42.09375 36.875 40.703125 36.875  C 40 36.875 39.796875 36.875 37.296875 34.984375  L 26.09375 26.875  z "
               id="CMSY10-3" />
          </defs>
          <g
             style="fill:#262626;"
             transform="translate(278.777565 379.940524)scale(0.16 -0.16)"
             id="g135">
            <use
               transform="translate(0 14.943915)scale(0.996264)"
               xlink:href="#CMMI12-112"
               id="use137" />
            <use
               transform="translate(48.959514 0)scale(0.697382)"
               xlink:href="#CMMI12-120"
               id="use139" />
            <use
               transform="translate(87.763173 20.146573)scale(0.498132)"
               xlink:href="#CMSY10-3"
               id="use141" />
          </g>
        </g>
      </g>
      <g
         id="matplotlib.axis_2">
        <g
           id="ytick_1">
          <g
             id="line2d_7">
            <defs
               id="defs146">
              <path
                 d="M 0 0  L -6 0  "
                 id="m8b5d69d052"
                 style="stroke:#262626;" />
            </defs>
            <g
               id="g149">
              <use
                 style="fill:#262626;stroke:#262626;"
                 x="144.748561"
                 xlink:href="#m8b5d69d052"
                 y="335.929571"
                 id="use151" />
            </g>
          </g>
          <g
             id="text_8">
            <!-- $0.0$ -->
            <g
               style="fill:#262626;"
               transform="translate(110.422497 342.156221)scale(0.18 -0.18)"
               id="g154">
              <use
                 transform="scale(0.996264)"
                 xlink:href="#CMR17-48"
                 id="use156" />
              <use
                 transform="translate(45.690477 0)scale(0.996264)"
                 xlink:href="#CMMI12-58"
                 id="use158" />
              <use
                 transform="translate(72.787654 0)scale(0.996264)"
                 xlink:href="#CMR17-48"
                 id="use160" />
            </g>
          </g>
        </g>
        <g
           id="ytick_2">
          <g
             id="line2d_8">
            <g
               id="g164">
              <use
                 style="fill:#262626;stroke:#262626;"
                 x="144.748561"
                 xlink:href="#m8b5d69d052"
                 y="278.628996"
                 id="use166" />
            </g>
          </g>
          <g
             id="text_9">
            <!-- $0.1$ -->
            <g
               style="fill:#262626;"
               transform="translate(110.422497 284.855646)scale(0.18 -0.18)"
               id="g169">
              <use
                 transform="scale(0.996264)"
                 xlink:href="#CMR17-48"
                 id="use171" />
              <use
                 transform="translate(45.690477 0)scale(0.996264)"
                 xlink:href="#CMMI12-58"
                 id="use173" />
              <use
                 transform="translate(72.787654 0)scale(0.996264)"
                 xlink:href="#CMR17-49"
                 id="use175" />
            </g>
          </g>
        </g>
        <g
           id="ytick_3">
          <g
             id="line2d_9">
            <g
               id="g179">
              <use
                 style="fill:#262626;stroke:#262626;"
                 x="144.748561"
                 xlink:href="#m8b5d69d052"
                 y="221.32842"
                 id="use181" />
            </g>
          </g>
          <g
             id="text_10">
            <!-- $0.2$ -->
            <g
               style="fill:#262626;"
               transform="translate(110.422497 227.55507)scale(0.18 -0.18)"
               id="g184">
              <use
                 transform="scale(0.996264)"
                 xlink:href="#CMR17-48"
                 id="use186" />
              <use
                 transform="translate(45.690477 0)scale(0.996264)"
                 xlink:href="#CMMI12-58"
                 id="use188" />
              <use
                 transform="translate(72.787654 0)scale(0.996264)"
                 xlink:href="#CMR17-50"
                 id="use190" />
            </g>
          </g>
        </g>
        <g
           id="ytick_4">
          <g
             id="line2d_10">
            <g
               id="g194">
              <use
                 style="fill:#262626;stroke:#262626;"
                 x="144.748561"
                 xlink:href="#m8b5d69d052"
                 y="164.027845"
                 id="use196" />
            </g>
          </g>
          <g
             id="text_11">
            <!-- $0.3$ -->
            <g
               style="fill:#262626;"
               transform="translate(110.422497 170.254495)scale(0.18 -0.18)"
               id="g199">
              <use
                 transform="scale(0.996264)"
                 xlink:href="#CMR17-48"
                 id="use201" />
              <use
                 transform="translate(45.690477 0)scale(0.996264)"
                 xlink:href="#CMMI12-58"
                 id="use203" />
              <use
                 transform="translate(72.787654 0)scale(0.996264)"
                 xlink:href="#CMR17-51"
                 id="use205" />
            </g>
          </g>
        </g>
        <g
           id="ytick_5">
          <g
             id="line2d_11">
            <g
               id="g209">
              <use
                 style="fill:#262626;stroke:#262626;"
                 x="144.748561"
                 xlink:href="#m8b5d69d052"
                 y="106.727269"
                 id="use211" />
            </g>
          </g>
          <g
             id="text_12">
            <!-- $0.4$ -->
            <g
               style="fill:#262626;"
               transform="translate(110.422497 112.953919)scale(0.18 -0.18)"
               id="g214">
              <use
                 transform="scale(0.996264)"
                 xlink:href="#CMR17-48"
                 id="use216" />
              <use
                 transform="translate(45.690477 0)scale(0.996264)"
                 xlink:href="#CMMI12-58"
                 id="use218" />
              <use
                 transform="translate(72.787654 0)scale(0.996264)"
                 xlink:href="#CMR17-52"
                 id="use220" />
            </g>
          </g>
        </g>
        <g
           id="ytick_6">
          <g
             id="line2d_12">
            <g
               id="g224">
              <use
                 style="fill:#262626;stroke:#262626;"
                 x="144.748561"
                 xlink:href="#m8b5d69d052"
                 y="49.426693"
                 id="use226" />
            </g>
          </g>
          <g
             id="text_13">
            <!-- $0.5$ -->
            <g
               style="fill:#262626;"
               transform="translate(110.422497 55.653343)scale(0.18 -0.18)"
               id="g229">
              <use
                 transform="scale(0.996264)"
                 xlink:href="#CMR17-48"
                 id="use231" />
              <use
                 transform="translate(45.690477 0)scale(0.996264)"
                 xlink:href="#CMMI12-58"
                 id="use233" />
              <use
                 transform="translate(72.787654 0)scale(0.996264)"
                 xlink:href="#CMR17-53"
                 id="use235" />
            </g>
          </g>
        </g>
        <g
           id="text_14">
          <!-- $p_{y^*}$ -->
          <defs
             id="defs238">
            <path
               d="M 26.296875 -10.9375  C 23.59375 -14.671875 19.703125 -18 14.796875 -18  C 13.59375 -18 8.796875 -18 7.296875 -13.890625  C 7.59375 -13.984375 8.09375 -13.984375 8.296875 -13.984375  C 11.296875 -13.984375 13.296875 -11.390625 13.296875 -9.09375  C 13.296875 -6.796875 11.40625 -6 9.90625 -6  C 8.296875 -6 4.796875 -7.15625 4.796875 -11.859375  C 4.796875 -16.734375 9.09375 -20.09375 14.796875 -20.09375  C 24.796875 -20.09375 34.90625 -10.9375 37.703125 0.09375  L 47.5 38.828125  C 47.59375 39.328125 47.796875 39.9375 47.796875 40.53125  C 47.796875 42.015625 46.59375 43.015625 45.09375 43.015625  C 44.203125 43.015625 42.09375 42.609375 41.296875 39.609375  L 33.90625 10.28125  C 33.40625 8.484375 33.40625 8.28125 32.59375 7.1875  C 30.59375 4.390625 27.296875 1 22.5 1  C 16.90625 1 16.40625 6.484375 16.40625 9.1875  C 16.40625 14.875 19.09375 22.546875 21.796875 29.734375  C 22.90625 32.625 23.5 34.03125 23.5 36.015625  C 23.5 40.21875 20.5 44 15.59375 44  C 6.40625 44 2.703125 29.53125 2.703125 28.734375  C 2.703125 28.34375 3.09375 27.84375 3.796875 27.84375  C 4.703125 27.84375 4.796875 28.234375 5.203125 29.640625  C 7.59375 38.015625 11.40625 42.015625 15.296875 42.015625  C 16.203125 42.015625 17.90625 42.015625 17.90625 38.71875  C 17.90625 36.125 16.796875 33.234375 15.296875 29.4375  C 10.40625 16.359375 10.40625 13.078125 10.40625 10.671875  C 10.40625 1.203125 17.203125 -1 22.203125 -1  C 25.09375 -1 28.703125 -0.09375 32.203125 3.59375  L 32.296875 3.5  C 30.796875 -2.296875 29.796875 -6.125 26.296875 -10.9375  "
               id="CMMI12-121" />
          </defs>
          <g
             style="fill:#262626;"
             transform="translate(103.323021 201.647465)rotate(-90)scale(0.16 -0.16)"
             id="g241">
            <use
               transform="translate(0 14.943915)scale(0.996264)"
               xlink:href="#CMMI12-112"
               id="use243" />
            <use
               transform="translate(48.959514 0)scale(0.697382)"
               xlink:href="#CMMI12-121"
               id="use245" />
            <use
               transform="translate(84.756489 20.146573)scale(0.498132)"
               xlink:href="#CMSY10-3"
               id="use247" />
          </g>
        </g>
      </g>
      <g
         id="LineCollection_1">
        <path
           clip-path="url(#p2e35dcef5f)"
           d="M 430.678433 334.497057  L 430.39193 334.210554  L 430.39193 333.637548  L 429.818925 333.064542  L 429.818925 332.491537  L 429.245919 331.918531  L 429.245919 331.345525  L 428.672913 330.772519  L 428.672913 330.199514  L 428.099907 329.626508  L 428.099907 329.053502  L 427.526901 328.480496  L 427.526901 327.907491  L 426.953896 327.334485  L 426.953896 326.761479  L 426.38089 326.188473  L 426.38089 325.615468  L 425.807884 325.042462  L 425.807884 324.469456  L 425.234878 323.89645  L 425.234878 323.323445  L 424.661873 322.750439  L 424.661873 322.177433  L 424.088867 321.604427  L 424.088867 321.031422  L 423.515861 320.458416  L 423.515861 319.88541  L 422.942855 319.312404  L 422.942855 318.739399  L 422.36985 318.166393  L 422.36985 317.020381  L 421.796844 316.447376  L 421.796844 315.87437  L 421.223838 315.301364  L 421.223838 314.728358  L 420.650832 314.155352  L 420.650832 313.582347  L 420.077827 313.009341  L 420.077827 312.436335  L 419.504821 311.863329  L 419.504821 311.290324  L 418.931815 310.717318  L 418.931815 309.571306  L 418.358809 308.998301  L 418.358809 308.425295  L 417.785804 307.852289  L 417.785804 307.279283  L 417.212798 306.706278  L 417.212798 306.133272  L 416.639792 305.560266  L 416.639792 304.98726  L 416.066786 304.414255  L 416.066786 303.268243  L 415.493781 302.695237  L 415.493781 302.122232  L 414.920775 301.549226  L 414.920775 300.97622  L 414.347769 300.403214  L 414.347769 299.830209  L 413.774763 299.257203  L 413.774763 298.111191  L 413.201758 297.538186  L 413.201758 296.96518  L 412.628752 296.392174  L 412.628752 295.819168  L 412.055746 295.246163  L 412.055746 294.100151  L 411.48274 293.527145  L 411.48274 292.95414  L 410.909735 292.381134  L 410.909735 291.808128  L 410.336729 291.235122  L 410.336729 290.089111  L 409.763723 289.516105  L 409.763723 288.943099  L 409.190717 288.370093  L 409.190717 287.797088  L 408.617712 287.224082  L 408.617712 286.07807  L 408.044706 285.505065  L 408.044706 284.932059  L 407.4717 284.359053  L 407.4717 283.786047  L 406.898694 283.213042  L 406.898694 282.06703  L 406.325689 281.494024  L 406.325689 280.921019  L 405.752683 280.348013  L 405.752683 279.202001  L 405.179677 278.628996  L 405.179677 278.05599  L 404.606671 277.482984  L 404.606671 276.336973  L 404.033666 275.763967  L 404.033666 275.190961  L 403.46066 274.617955  L 403.46066 273.471944  L 402.887654 272.898938  L 402.887654 272.325932  L 402.314648 271.752927  L 402.314648 270.606915  L 401.741642 270.033909  L 401.741642 269.460904  L 401.168637 268.887898  L 401.168637 267.741886  L 400.595631 267.168881  L 400.595631 266.595875  L 400.022625 266.022869  L 400.022625 264.876858  L 399.449619 264.303852  L 399.449619 263.730846  L 398.876614 263.15784  L 398.876614 262.011829  L 398.303608 261.438823  L 398.303608 260.865817  L 397.730602 260.292811  L 397.730602 259.1468  L 397.157596 258.573794  L 397.157596 257.427783  L 396.584591 256.854777  L 396.584591 256.281771  L 396.011585 255.708765  L 396.011585 254.562754  L 395.438579 253.989748  L 395.438579 252.843737  L 394.865573 252.270731  L 394.865573 251.697725  L 394.292568 251.124719  L 394.292568 249.978708  L 393.719562 249.405702  L 393.719562 248.259691  L 393.146556 247.686685  L 393.146556 247.113679  L 392.57355 246.540673  L 392.57355 245.394662  L 392.000545 244.821656  L 392.000545 243.675645  L 391.427539 243.102639  L 391.427539 242.529633  L 390.854533 241.956627  L 390.854533 240.810616  L 390.281527 240.23761  L 390.281527 239.091599  L 389.708522 238.518593  L 389.708522 237.372581  L 389.135516 236.799575  L 389.135516 236.22657  L 389.995025 235.367061  L 390.56803 235.367061  L 391.714042 234.22105  L 392.287048 234.22105  L 393.433059 233.075038  L 394.006065 233.075038  L 395.152076 231.929027  L 395.725082 231.929027  L 396.871094 230.783015  L 397.444099 230.783015  L 398.590111 229.637004  L 399.163117 229.637004  L 400.309128 228.490992  L 400.882134 228.490992  L 402.028145 227.344981  L 402.601151 227.344981  L 403.747163 226.198969  L 404.320168 226.198969  L 405.46618 225.052957  L 406.039186 225.052957  L 406.612191 224.479952  L 407.185197 224.479952  L 408.331209 223.33394  L 408.904214 223.33394  L 410.050226 222.187929  L 410.623232 222.187929  L 411.196237 221.614923  L 411.769243 221.614923  L 412.342249 221.041917  L 412.915255 221.041917  L 414.061266 219.895906  L 414.634272 219.895906  L 415.207278 219.3229  L 415.780284 219.3229  L 416.353289 218.749894  L 416.926295 218.749894  L 417.499301 218.176888  L 418.072307 218.176888  L 418.645312 217.603883  L 419.791324 217.603883  L 420.36433 217.030877  L 420.937335 217.030877  L 421.510341 216.457871  L 422.656353 216.457871  L 423.229358 215.884865  L 424.948376 215.884865  L 425.521381 215.31186  L 427.813404 215.31186  L 428.38641 214.738854  L 430.678433 214.738854  L 430.678433 214.738854  "
           style="fill:none;stroke:#000000;"
           id="path250" />
      </g>
      <g
         id="line2d_13">
        <path
           clip-path="url(#p2e35dcef5f)"
           d="M 144.748561 49.426693  L 431.251439 49.426693  L 431.251439 335.929571  "
           style="fill:none;opacity:0.15;stroke:#4c72b0;stroke-linecap:round;stroke-width:0.5;"
           id="path253" />
      </g>
      <g
         id="patch_3">
        <path
           d="M 144.748561 335.929571  L 144.748561 49.426693  "
           style="fill:none;stroke:#262626;stroke-linecap:square;stroke-linejoin:miter;stroke-width:1.25;"
           id="path256" />
      </g>
      <g
         id="patch_4">
        <path
           d="M 144.748561 335.929571  L 431.251439 335.929571  "
           style="fill:none;stroke:#262626;stroke-linecap:square;stroke-linejoin:miter;stroke-width:1.25;"
           id="path259" />
      </g>
      <g
         id="text_15">
        <!-- Region of inconsistency -->
        <defs
           id="defs262">
          <path
             d="M 39.40625 32.953125  L 39.59375 33.046875  C 55.203125 38.421875 55.296875 49.171875 55.296875 51.0625  C 55.296875 60.515625 45.703125 69.578125 31.296875 69.578125  L 8.90625 69.578125  L 8.90625 0.5  L 17.09375 0.5  L 17.09375 32  L 31.796875 32  L 49.5 0.5  L 57.90625 0.5  z M 17.09375 38.078125  L 17.09375 64  L 30.203125 64  C 42.90625 64 47.40625 56.828125 47.40625 51.046875  C 47.40625 45.65625 43.40625 38.078125 30.203125 38.078125  z "
             id="CMSS17-82" />
          <path
             d="M 39.09375 21.515625  C 39.09375 24.84375 38.90625 31.296875 35.703125 36.640625  C 32.203125 42.390625 26.5 44 22.203125 44  C 11.796875 44 3 34.1875 3 21.484375  C 3 9.09375 12.09375 -1 23.59375 -1  C 28.09375 -1 33.59375 0.296875 38.59375 3.875  C 38.59375 4.28125 38.40625 6.46875 38.296875 6.5625  C 38.296875 6.765625 38 9.84375 38 10.25  C 33.203125 6.359375 27.703125 5.078125 23.703125 5.078125  C 17.296875 5.078125 10.40625 10.421875 10.09375 21.515625  z M 10.90625 27  C 12.203125 32.5625 16.59375 37.828125 22.203125 37.828125  C 23.703125 37.828125 30.703125 37.828125 32.5 27  z "
             id="CMSS17-101" />
          <path
             d="M 44.5 43.875  C 38.796875 43.875 33.90625 42.78125 29.90625 40.890625  C 26.59375 43.390625 23.203125 43.875 20.90625 43.875  C 12.203125 43.875 5.59375 36.703125 5.59375 28.34375  C 5.59375 22.9375 8.59375 18.859375 8.796875 18.671875  C 7 16.171875 6 13.484375 6 10.5  C 6 7 7.40625 4.515625 8.5 3.125  C 3.296875 -0.046875 2.59375 -4.90625 2.59375 -6.796875  C 2.59375 -14.03125 11.703125 -20 23.40625 -20  C 35.203125 -20 44.296875 -14.03125 44.296875 -6.6875  C 44.296875 7 29 7 24.796875 7  L 16.703125 7  C 15.203125 7 11.203125 7 11.203125 12.359375  C 11.203125 14.390625 12.09375 15.6875 12.203125 15.78125  C 13.703125 14.6875 16.796875 13 20.90625 13  C 29.203125 13 36.09375 19.96875 36.09375 28.546875  C 36.09375 33.3125 33.90625 36.796875 33 38  L 33.296875 38  C 33.59375 38 37.796875 38 39.296875 38  C 42.5 38 42.796875 37.953125 45.59375 37.796875  z M 20.90625 18.46875  C 17.5 18.46875 12.703125 20.546875 12.703125 28.484375  C 12.703125 37.109375 18.203125 38.5 20.796875 38.5  C 24.203125 38.5 29 36.421875 29 28.484375  C 29 19.859375 23.5 18.46875 20.90625 18.46875  M 24.703125 -0.15625  C 27.09375 -0.15625 37.203125 -0.15625 37.203125 -6.90625  C 37.203125 -11.15625 31 -14.515625 23.5 -14.515625  C 15.90625 -14.515625 9.703125 -11.25 9.703125 -6.796875  C 9.703125 -6.296875 9.703125 -0.15625 16.59375 -0.15625  z "
             id="CMSS17-103" />
          <path
             d="M 15.296875 65.359375  L 6.90625 65.359375  L 6.90625 57  L 15.296875 57  z M 14.796875 42.796875  L 7.40625 42.796875  L 7.40625 0  L 14.796875 0  z "
             id="CMSS17-105" />
          <path
             d="M 44.203125 21.1875  C 44.203125 34 34.703125 44 23.5 44  C 12 44 2.703125 33.703125 2.703125 21.1875  C 2.703125 8.5 12.296875 -1 23.40625 -1  C 34.796875 -1 44.203125 8.796875 44.203125 21.1875  M 23.5 5.265625  C 16.40625 5.265625 10.296875 11.078125 10.296875 22  C 10.296875 33.609375 17.40625 37.921875 23.40625 37.921875  C 29.90625 37.921875 36.59375 33.21875 36.59375 22  C 36.59375 10.671875 30.09375 5.265625 23.5 5.265625  "
             id="CMSS17-111" />
          <path
             d="M 40.90625 29.328125  C 40.90625 35.671875 39.40625 44 28.09375 44  C 21.703125 44 17.5 40.71875 14.703125 37.328125  L 14.703125 43.09375  L 7.40625 43.09375  L 7.40625 0  L 15 0  L 15 24.359375  C 15 30.6875 17.40625 37.9375 24.203125 37.9375  C 33 37.9375 33.296875 32 33.296875 28.578125  L 33.296875 0  L 40.90625 0  z "
             id="CMSS17-110" />
          <path
             d="M 16.796875 37  L 26.90625 37  L 26.90625 42.765625  L 16.59375 42.765625  L 16.59375 55.609375  C 16.59375 62.71875 22 63.9375 25.09375 63.9375  C 26.09375 63.9375 28.90625 63.9375 32.5 62.640625  L 32.5 69.203125  C 30.203125 69.703125 27.40625 70 25.203125 70  C 15.90625 70 9.40625 62.390625 9.40625 52.484375  L 9.40625 42.765625  L 2.5 42.765625  L 2.5 37  L 9.40625 37  L 9.40625 0  L 16.796875 0  z "
             id="CMSS17-102" />
          <path
             d="M 38.5 39.703125  C 38.5 40.390625 33.90625 42.40625 32.703125 42.796875  C 29.40625 44 25.203125 44 24.09375 44  C 11.09375 44 3.296875 32.703125 3.296875 21.296875  C 3.296875 9.296875 12 -1 23.703125 -1  C 30.40625 -1 35.203125 1.1875 39.09375 3.78125  L 38.5 10.375  C 34.203125 7.078125 29.203125 5.265625 23.796875 5.265625  C 16 5.265625 10.90625 12.09375 10.90625 21.390625  C 10.90625 28.609375 14.203125 37.71875 24.203125 37.71875  C 29.703125 37.71875 32.796875 36.609375 37.40625 33.515625  z "
             id="CMSS17-99" />
          <path
             d="M 32.203125 41.046875  C 26.296875 43.859375 21.703125 43.859375 18.703125 43.859375  C 11.59375 43.859375 3.09375 41.375 3.09375 31.296875  C 3.09375 21.234375 14.09375 19.03125 17.09375 18.421875  C 21.703125 17.53125 26.796875 16.53125 26.796875 11.5625  C 26.796875 5.265625 19.59375 5.265625 18.296875 5.265625  C 14.296875 5.265625 8.796875 6.359375 3.796875 9.96875  L 2.59375 3.28125  C 8.296875 0 13.796875 -1 18.40625 -1  C 30.703125 -1 33.796875 6.5 33.796875 12.203125  C 33.796875 17.09375 31 20.390625 29.09375 21.890625  C 25.796875 24.5 24.59375 24.796875 16.40625 26.5  C 15 26.703125 10.09375 27.796875 10.09375 32.28125  C 10.09375 38 16.40625 38 17.796875 38  C 24.296875 38 28.296875 35.984375 31 34.5  z "
             id="CMSS17-115" />
          <path
             d="M 16.703125 37  L 29.703125 37  L 29.703125 42.765625  L 16.703125 42.765625  L 16.703125 55  L 9.59375 55  L 9.59375 42.765625  L 1.703125 42.765625  L 1.703125 37  L 9.40625 37  L 9.40625 11.703125  C 9.40625 6 10.703125 -1 17.296875 -1  C 22.296875 -1 26.90625 0.390625 31.296875 2.6875  L 29.703125 8.5625  C 27.296875 6.46875 24.40625 5.265625 21.296875 5.265625  C 16.90625 5.265625 16.703125 10.875 16.703125 13.375  z "
             id="CMSS17-116" />
          <path
             d="M 41.796875 43  L 34 43  C 25.5 20.21875 22.59375 10.96875 22.40625 5.984375  L 22.296875 5.984375  C 22 10.875 17.59375 22.8125 14.09375 31.359375  L 9.40625 43  L 1.296875 43  L 19 0.203125  C 17.90625 -2.78125 16.296875 -7.265625 15.796875 -8.265625  C 13.59375 -13.828125 12.09375 -13.828125 10.5 -13.828125  C 10.09375 -13.828125 6.90625 -13.828125 3.296875 -12.640625  L 3.90625 -19.203125  C 6.40625 -19.703125 8.90625 -20 10.703125 -20  C 13.203125 -20 18.203125 -20 22.796875 -7.765625  z "
             id="CMSS17-121" />
        </defs>
        <g
           style="fill:#262626;"
           transform="translate(187.520391 29.10155)scale(0.22 -0.22)"
           id="g275">
          <use
             transform="scale(0.996264)"
             xlink:href="#CMSS17-82"
             id="use277" />
          <use
             transform="translate(60.416155 0)scale(0.996264)"
             xlink:href="#CMSS17-101"
             id="use279" />
          <use
             transform="translate(102.054977 0)scale(0.996264)"
             xlink:href="#CMSS17-103"
             id="use281" />
          <use
             transform="translate(148.8986 0)scale(0.996264)"
             xlink:href="#CMSS17-105"
             id="use283" />
          <use
             transform="translate(171.079324 0)scale(0.996264)"
             xlink:href="#CMSS17-111"
             id="use285" />
          <use
             transform="translate(217.922947 0)scale(0.996264)"
             xlink:href="#CMSS17-110"
             id="use287" />
          <use
             transform="translate(297.357003 0)scale(0.996264)"
             xlink:href="#CMSS17-111"
             id="use289" />
          <use
             transform="translate(344.200626 0)scale(0.996264)"
             xlink:href="#CMSS17-102"
             id="use291" />
          <use
             transform="translate(404.056398 0)scale(0.996264)"
             xlink:href="#CMSS17-105"
             id="use293" />
          <use
             transform="translate(426.237121 0)scale(0.996264)"
             xlink:href="#CMSS17-110"
             id="use295" />
          <use
             transform="translate(474.442064 0)scale(0.996264)"
             xlink:href="#CMSS17-99"
             id="use297" />
          <use
             transform="translate(516.080886 0)scale(0.996264)"
             xlink:href="#CMSS17-111"
             id="use299" />
          <use
             transform="translate(562.92451 0)scale(0.996264)"
             xlink:href="#CMSS17-110"
             id="use301" />
          <use
             transform="translate(611.129453 0)scale(0.996264)"
             xlink:href="#CMSS17-115"
             id="use303" />
          <use
             transform="translate(647.042995 0)scale(0.996264)"
             xlink:href="#CMSS17-105"
             id="use305" />
          <use
             transform="translate(669.223718 0)scale(0.996264)"
             xlink:href="#CMSS17-115"
             id="use307" />
          <use
             transform="translate(705.13726 0)scale(0.996264)"
             xlink:href="#CMSS17-116"
             id="use309" />
          <use
             transform="translate(738.968827 0)scale(0.996264)"
             xlink:href="#CMSS17-101"
             id="use311" />
          <use
             transform="translate(780.607649 0)scale(0.996264)"
             xlink:href="#CMSS17-110"
             id="use313" />
          <use
             transform="translate(828.812592 0)scale(0.996264)"
             xlink:href="#CMSS17-99"
             id="use315" />
          <use
             transform="translate(870.451414 0)scale(0.996264)"
             xlink:href="#CMSS17-121"
             id="use317" />
        </g>
      </g>
      <g
         id="legend_1">
        <g
           id="patch_5">
          <path
             d="M 159.148561 75.026693  L 191.148561 75.026693  L 191.148561 63.826693  L 159.148561 63.826693  z "
             style="fill:#ffffff;stroke:#000000;stroke-linejoin:miter;"
             id="path321" />
        </g>
        <g
           id="text_16">
          <!-- joint inference inconsistent -->
          <defs
             id="defs324">
            <path
               d="M 17.40625 66  L 9 66  L 9 57.640625  L 17.40625 57.640625  z M -5.796875 -16.625  C -2.59375 -18.609375 1.296875 -20 5.5 -20  C 11.796875 -20 17.40625 -14.609375 17.40625 -5.71875  L 17.40625 43.234375  L 10 43.234375  L 10 -6.640625  C 10 -12.734375 5.40625 -13.640625 2.796875 -13.640625  C 0.59375 -13.640625 -2 -12.9375 -4.296875 -10.546875  z "
               id="CMSS17-106" />
            <path
               d="M 14.90625 21.296875  C 14.90625 30.703125 21.796875 37 30.59375 37  L 30.59375 43.578125  C 24.203125 43.578125 18.203125 40.390625 14.59375 35.203125  L 14.59375 43.09375  L 7.5 43.09375  L 7.5 0  L 14.90625 0  z "
               id="CMSS17-114" />
          </defs>
          <g
             style="fill:#262626;"
             transform="translate(203.948561 75.026693)scale(0.16 -0.16)"
             id="g328">
            <use
               transform="scale(0.996264)"
               xlink:href="#CMSS17-106"
               id="use330" />
            <use
               transform="translate(24.783086 0)scale(0.996264)"
               xlink:href="#CMSS17-111"
               id="use332" />
            <use
               transform="translate(71.626709 0)scale(0.996264)"
               xlink:href="#CMSS17-105"
               id="use334" />
            <use
               transform="translate(93.807432 0)scale(0.996264)"
               xlink:href="#CMSS17-110"
               id="use336" />
            <use
               transform="translate(142.012375 0)scale(0.996264)"
               xlink:href="#CMSS17-116"
               id="use338" />
            <use
               transform="translate(207.073055 0)scale(0.996264)"
               xlink:href="#CMSS17-105"
               id="use340" />
            <use
               transform="translate(229.253778 0)scale(0.996264)"
               xlink:href="#CMSS17-110"
               id="use342" />
            <use
               transform="translate(277.458721 0)scale(0.996264)"
               xlink:href="#CMSS17-102"
               id="use344" />
            <use
               transform="translate(306.08538 0)scale(0.996264)"
               xlink:href="#CMSS17-101"
               id="use346" />
            <use
               transform="translate(347.724202 0)scale(0.996264)"
               xlink:href="#CMSS17-114"
               id="use348" />
            <use
               transform="translate(379.633975 0)scale(0.996264)"
               xlink:href="#CMSS17-101"
               id="use350" />
            <use
               transform="translate(421.272797 0)scale(0.996264)"
               xlink:href="#CMSS17-110"
               id="use352" />
            <use
               transform="translate(469.47774 0)scale(0.996264)"
               xlink:href="#CMSS17-99"
               id="use354" />
            <use
               transform="translate(511.116562 0)scale(0.996264)"
               xlink:href="#CMSS17-101"
               id="use356" />
            <use
               transform="translate(583.984497 0)scale(0.996264)"
               xlink:href="#CMSS17-105"
               id="use358" />
            <use
               transform="translate(606.16522 0)scale(0.996264)"
               xlink:href="#CMSS17-110"
               id="use360" />
            <use
               transform="translate(654.370163 0)scale(0.996264)"
               xlink:href="#CMSS17-99"
               id="use362" />
            <use
               transform="translate(696.008985 0)scale(0.996264)"
               xlink:href="#CMSS17-111"
               id="use364" />
            <use
               transform="translate(742.852608 0)scale(0.996264)"
               xlink:href="#CMSS17-110"
               id="use366" />
            <use
               transform="translate(791.057552 0)scale(0.996264)"
               xlink:href="#CMSS17-115"
               id="use368" />
            <use
               transform="translate(826.971094 0)scale(0.996264)"
               xlink:href="#CMSS17-105"
               id="use370" />
            <use
               transform="translate(849.151817 0)scale(0.996264)"
               xlink:href="#CMSS17-115"
               id="use372" />
            <use
               transform="translate(885.065359 0)scale(0.996264)"
               xlink:href="#CMSS17-116"
               id="use374" />
            <use
               transform="translate(918.896925 0)scale(0.996264)"
               xlink:href="#CMSS17-101"
               id="use376" />
            <use
               transform="translate(960.535747 0)scale(0.996264)"
               xlink:href="#CMSS17-110"
               id="use378" />
            <use
               transform="translate(1008.74069 0)scale(0.996264)"
               xlink:href="#CMSS17-116"
               id="use380" />
          </g>
        </g>
      </g>
    </g>
  </g>
  <defs
     id="defs382">
    <clipPath
       id="p2e35dcef5f">
      <rect
         height="286.502878"
         width="286.502878"
         x="144.748561"
         y="49.426693"
         id="rect385" />
    </clipPath>
  </defs>
  <path
     style="opacity:0.20000000000000001;fill:url(#Wavy);fill-opacity:1.0;stroke-width:6;stroke-linecap:butt;stroke-linejoin:round;stroke-miterlimit:4;stroke-dasharray:none"
     d="m 523.30336,382.05191 c -15.13603,-34.27762 -33.68048,-80.78923 -33.68048,-84.47449 0,-4.25537 29.60163,-22.62518 42.35098,-26.28165 l 5.89055,-1.68938 0,71.16714 c 0,39.14193 -0.30668,71.16715 -0.68151,71.16715 -0.37483,0 -6.62062,-13.44995 -13.87954,-29.88877 z"
     id="path3366"
     inkscape:connector-curvature="0"
     transform="scale(0.8,0.8)" />
  <path
     style="opacity:0.20000000000000001;fill:url(#Wavy);fill-opacity:1.0;stroke-width:6;stroke-linecap:butt;stroke-linejoin:round;stroke-miterlimit:4;stroke-dasharray:none"
     d="m 201.01271,86.834746 0,-6.292373 17.82839,0 17.82839,0 0,6.292373 0,6.292373 -17.82839,0 -17.82839,0 0,-6.292373 z"
     id="path5572"
     inkscape:connector-curvature="0"
     transform="scale(0.8,0.8)" />
</svg>
