<?xml version="1.0" encoding="UTF-8" standalone="no"?>
<!-- Created with Inkscape (http://www.inkscape.org/) -->

<svg
   xmlns:dc="http://purl.org/dc/elements/1.1/"
   xmlns:cc="http://creativecommons.org/ns#"
   xmlns:rdf="http://www.w3.org/1999/02/22-rdf-syntax-ns#"
   xmlns:svg="http://www.w3.org/2000/svg"
   xmlns="http://www.w3.org/2000/svg"
   xmlns:sodipodi="http://sodipodi.sourceforge.net/DTD/sodipodi-0.dtd"
   xmlns:inkscape="http://www.inkscape.org/namespaces/inkscape"
   id="svg2"
   version="1.1"
   inkscape:version="0.48.4 r9939"
   width="470.1375"
   height="112.575"
   xml:space="preserve"
   sodipodi:docname="FredHutch_h_tag_4col_CMYK_tm.eps"><metadata
     id="metadata8"><rdf:RDF><cc:Work
         rdf:about=""><dc:format>image/svg+xml</dc:format><dc:type
           rdf:resource="http://purl.org/dc/dcmitype/StillImage" /><dc:title></dc:title></cc:Work></rdf:RDF></metadata><defs
     id="defs6" /><sodipodi:namedview
     pagecolor="#ffffff"
     bordercolor="#666666"
     borderopacity="1"
     objecttolerance="10"
     gridtolerance="10"
     guidetolerance="10"
     inkscape:pageopacity="0"
     inkscape:pageshadow="2"
     inkscape:window-width="640"
     inkscape:window-height="480"
     id="namedview4"
     showgrid="false"
     inkscape:zoom="0.89122861"
     inkscape:cx="235.06876"
     inkscape:cy="54.043405"
     inkscape:window-x="0"
     inkscape:window-y="0"
     inkscape:window-maximized="0"
     inkscape:current-layer="g10" /><g
     id="g10"
     inkscape:groupmode="layer"
     inkscape:label="ink_ext_XXXXXX"
     transform="matrix(1.25,0,0,-1.25,0,112.575)"><g
       id="g12"
       transform="scale(0.1,0.1)"><path
         d="M 0,450.34 C 0.015625,395.156 9.99609,342.305 28.1602,293.418 l 72.4488,199.141 c 10.059,27.754 -4.2535,58.418 -31.9371,68.566 C 47.3984,568.789 24.457,562.168 10.332,546.152 3.64063,515.273 0,483.242 0,450.34"
         style="fill:#7aca2a;fill-opacity:1;fill-rule:nonzero;stroke:none"
         id="path14" /><path
         d="m 77.6172,585.613 c 27.4768,-9.988 58.3908,4.231 68.5038,31.965 l 81.543,224.11 C 147.352,795.879 82.4883,726.113 42.8594,642.07 40.0664,618.016 54.0859,594.199 77.6172,585.613"
         style="fill:#337878;fill-opacity:1;fill-rule:nonzero;stroke:none"
         id="path16" /><path
         d="m 713.793,243.613 c -10.105,-27.746 -40.781,-42.031 -68.516,-31.953 -27.757,10.098 -42.05,40.742 -31.984,68.535 10.086,27.715 40.789,42.032 68.527,31.914 27.754,-10.078 42.008,-40.781 31.973,-68.496"
         style="fill:#4ebbb8;fill-opacity:1;fill-rule:nonzero;stroke:none"
         id="path18" /><path
         d="M 647.105,60.4766 C 636.996,32.6563 606.09,18.4453 578.594,28.5039 551.098,38.4766 536.57,69.2383 546.684,96.9727 l 21.148,58.1643 c 10.113,27.773 40.758,42.031 68.477,31.98 27.757,-10.105 42.05,-40.801 31.933,-68.554 L 647.105,60.4766"
         style="fill:#7aca2a;fill-opacity:1;fill-rule:nonzero;stroke:none"
         id="path20" /><path
         d="m 759.262,368.691 c -10.082,-27.753 -40.969,-41.992 -68.446,-32.011 -27.531,10.019 -42.105,40.8 -32.015,68.523 l 92.351,253.684 c 10.094,27.715 40.782,42.031 68.532,31.953 27.714,-10.117 42.019,-40.781 31.957,-68.535 L 759.262,368.691"
         style="fill:#7aca2a;fill-opacity:1;fill-rule:nonzero;stroke:none"
         id="path22" /><path
         d="m 900.629,450.293 c 0,54.902 -9.859,107.488 -27.836,156.152 L 810.785,435.977 c -10.058,-27.723 4.445,-58.438 31.934,-68.477 18.074,-6.582 37.597,-2.664 51.722,8.641 4.012,24.132 6.188,48.898 6.188,74.152"
         style="fill:#337878;fill-opacity:1;fill-rule:nonzero;stroke:none"
         id="path24" /><path
         d="m 867.652,281.086 c 5.766,25.828 -8.371,52.547 -33.839,61.844 -27.754,10.097 -58.442,-4.219 -68.532,-31.946 L 673.637,59.3438 C 760.742,109.18 829.555,187.215 867.652,281.086"
         style="fill:#4ebbb8;fill-opacity:1;fill-rule:nonzero;stroke:none"
         id="path26" /><path
         d="m 556.754,585.625 c -10.137,-27.734 -41.051,-41.953 -68.547,-31.992 -27.519,10.039 -42.039,40.82 -31.934,68.555 l 80.247,220.48 c 10.082,27.73 40.793,42.059 68.562,31.949 27.68,-10.066 41.996,-40.808 31.856,-68.515 L 556.754,585.625"
         style="fill:#7aca2a;fill-opacity:1;fill-rule:nonzero;stroke:none"
         id="path28" /><path
         d="m 424.379,378.203 c -27.754,10.137 -58.434,-4.18 -68.535,-31.933 L 247.41,48.3477 C 278.965,32.4023 312.621,20.0586 347.898,11.8555 L 456.332,309.707 c 10.086,27.773 -4.262,58.457 -31.953,68.496"
         style="fill:#7aca2a;fill-opacity:1;fill-rule:nonzero;stroke:none"
         id="path30" /><path
         d="m 272.945,735.469 c 27.485,-10 58.356,4.199 68.477,31.961 l 46.879,128.859 c -44.883,-6.184 -87.66,-18.984 -127.305,-37.383 L 241,803.984 c -10.062,-27.773 4.469,-58.476 31.945,-68.515"
         style="fill:#7aca2a;fill-opacity:1;fill-rule:nonzero;stroke:none"
         id="path32" /><path
         d="m 295.98,642.422 c -10.164,-27.774 -40.796,-42.07 -68.503,-31.961 -27.754,10.105 -42.106,40.769 -32.043,68.504 10.121,27.785 40.832,42.058 68.531,31.973 27.769,-10.118 42.082,-40.77 32.015,-68.516"
         style="fill:#4ebbb8;fill-opacity:1;fill-rule:nonzero;stroke:none"
         id="path34" /><path
         d="m 153.441,407.215 c -27.461,9.941 -41.98,40.656 -31.972,68.371 L 48.9336,276.238 c -10.0664,-27.734 4.4492,-58.445 31.9687,-68.504 27.4027,-9.961 58.3207,4.258 68.4497,31.954 l 72.582,199.433 C 211.82,411.406 180.945,397.215 153.441,407.215"
         style="fill:#4ebbb8;fill-opacity:1;fill-rule:nonzero;stroke:none"
         id="path36" /><path
         d="m 221.949,439.129 c -10.109,-27.723 -41.004,-41.922 -68.492,-31.922 -27.519,9.981 -42.008,40.742 -31.957,68.477 l 28.48,78.242 c 10.094,27.754 40.805,42.031 68.461,31.933 27.793,-10.129 42.036,-40.742 31.985,-68.515 l -28.477,-78.215"
         style="fill:#7aca2a;fill-opacity:1;fill-rule:nonzero;stroke:none"
         id="path38" /><path
         d="m 747.895,724.102 17.437,47.871 c -26.676,26.132 -56.605,48.945 -89.098,67.8 l -28.754,-79.05 c -10.07,-27.762 4.512,-58.489 31.938,-68.516 27.457,-10 58.402,4.211 68.477,31.895"
         style="fill:#337878;fill-opacity:1;fill-rule:nonzero;stroke:none"
         id="path40" /><path
         d="m 450.344,0 c 11.644,0 23.129,0.585938 34.535,1.44531 l 11.336,31.12109 c 10.07,27.7539 -4.203,58.4297 -31.953,68.5276 -27.77,10.086 -58.442,-4.1799 -68.524,-31.9338 L 373.012,6.75781 C 398.152,2.41016 423.953,0 450.344,0"
         style="fill:#4ebbb8;fill-opacity:1;fill-rule:nonzero;stroke:none"
         id="path42" /><path
         d="m 541.949,158.152 c -10.074,-27.73 -41.043,-41.914 -68.496,-31.863 -27.523,9.922 -42.109,40.684 -31.926,68.465 l 160.387,440.898 c 10.141,27.735 40.82,42.043 68.551,31.965 27.742,-10.097 42.015,-40.801 31.957,-68.535 L 541.949,158.152"
         style="fill:#213861;fill-opacity:1;fill-rule:nonzero;stroke:none"
         id="path44" /><path
         d="m 416.648,899.246 c -7.082,-26.414 7.325,-54.461 33.34,-63.933 27.453,-9.981 58.356,4.167 68.508,31.914 l 9.649,26.562 c -25.286,4.434 -51.266,6.836 -77.817,6.836 -11.34,0 -22.551,-0.547 -33.68,-1.379"
         style="fill:#4ebbb8;fill-opacity:1;fill-rule:nonzero;stroke:none"
         id="path46" /><path
         d="m 224.922,60.5469 55.23,151.8361 c -10.281,-27.5 -40.757,-41.602 -68.347,-31.563 -27.774,10.078 -42.078,40.789 -31.946,68.524 l 0,0.031 -44.105,-121.133 c 26.703,-26.094 56.633,-48.867 89.168,-67.6951"
         style="fill:#337878;fill-opacity:1;fill-rule:nonzero;stroke:none"
         id="path48" /><path
         d="m 280.305,212.793 c -10.184,-27.832 -40.797,-42.07 -68.551,-31.973 -27.77,10.098 -42.051,40.801 -31.91,68.524 10.047,27.765 40.73,42.062 68.445,31.984 27.77,-10.117 42.078,-40.801 32.016,-68.535"
         style="fill:#7aca2a;fill-opacity:1;fill-rule:nonzero;stroke:none"
         id="path50" /><path
         d="m 475.203,528.711 c -10.687,3.918 -21.762,4.824 -32.265,3.184 -14.094,-1.739 -44.54,-1.192 -30.372,44.062 -0.011,0 -0.043,0 -0.043,0 l 60.961,167.598 c 10.086,27.715 -4.203,58.449 -31.925,68.523 -27.766,10.11 -58.411,-4.246 -68.547,-31.961 L 225.035,373.445 c -10.125,-27.722 4.453,-58.543 31.922,-68.523 27.484,-10.012 58.371,4.18 68.535,31.933 l 26.793,73.614 c 0.035,0 0.035,0 0.055,0 18.297,43.945 42.109,24.453 51.707,14.121 6.969,-7.961 15.992,-14.317 26.598,-18.184 33.808,-12.324 71.199,5.078 83.472,38.875 12.301,33.762 -5.137,71.164 -38.914,83.43"
         style="fill:#213861;fill-opacity:1;fill-rule:nonzero;stroke:none"
         id="path52" /><path
         d="m 1170.16,710.527 c 0,3.836 3.08,7.293 7.3,7.293 l 159.01,0 c 4.21,0 7.3,-3.457 7.3,-7.293 l 0,-41.867 c 0,-3.836 -3.09,-7.293 -7.3,-7.293 l -106.39,0 0,-55.304 87.56,0 c 3.84,0 7.3,-3.458 7.3,-7.305 l 0,-41.856 c 0,-3.847 -3.46,-7.304 -7.3,-7.304 l -87.56,0 0,-93.321 c 0,-3.847 -3.46,-7.304 -7.31,-7.304 l -45.31,0 c -4.22,0 -7.3,3.457 -7.3,7.304 l 0,254.25"
         style="fill:#213861;fill-opacity:1;fill-rule:nonzero;stroke:none"
         id="path54" /><path
         d="m 1542.42,602.988 c 15.76,0 29.2,14.598 29.2,30.731 0,16.125 -13.44,29.179 -29.2,29.179 l -56.83,0 0,-59.91 56.83,0 z m -117.13,107.539 c 0,3.836 3.07,7.293 7.29,7.293 l 114.84,0 c 46.1,0 83.73,-37.246 83.73,-82.945 0,-35.344 -23.43,-63.762 -56.83,-77.207 l 52.59,-97.551 c 2.7,-4.988 0,-11.144 -6.52,-11.144 l -51.07,0 c -3.07,0 -5.37,1.925 -6.16,3.457 l -51.07,101.781 -26.5,0 0,-97.934 c 0,-3.847 -3.46,-7.304 -7.29,-7.304 l -45.72,0 c -4.22,0 -7.29,3.457 -7.29,7.304 l 0,254.25"
         style="fill:#213861;fill-opacity:1;fill-rule:nonzero;stroke:none"
         id="path56" /><path
         d="m 1710.59,710.527 c 0,3.836 3.06,7.293 7.28,7.293 l 159.01,0 c 4.23,0 7.3,-3.457 7.3,-7.293 l 0,-41.867 c 0,-3.836 -3.07,-7.293 -7.3,-7.293 l -106.39,0 0,-47.629 87.58,0 c 3.84,0 7.28,-3.457 7.28,-7.293 l 0,-41.867 c 0,-4.219 -3.44,-7.293 -7.28,-7.293 l -87.58,0 0,-51.847 106.39,0 c 4.23,0 7.3,-3.458 7.3,-7.305 l 0,-41.856 c 0,-3.847 -3.07,-7.304 -7.3,-7.304 l -159.01,0 c -4.22,0 -7.28,3.457 -7.28,7.304 l 0,254.25"
         style="fill:#213861;fill-opacity:1;fill-rule:nonzero;stroke:none"
         id="path58" /><path
         d="m 2072.62,505.82 c 43.4,0 74.88,34.188 74.88,77.957 0,43.399 -31.48,77.59 -74.88,77.59 l -36.88,0 0,-155.547 36.88,0 z m -96.8,204.707 c 0,3.836 3.09,7.293 6.91,7.293 l 93.72,0 c 74.14,0 134.8,-60.293 134.8,-134.043 0,-74.5 -60.66,-134.804 -134.8,-134.804 l -93.72,0 c -3.82,0 -6.91,3.457 -6.91,7.304 l 0,254.25"
         style="fill:#213861;fill-opacity:1;fill-rule:nonzero;stroke:none"
         id="path60" /><path
         d="m 2398.59,710.527 c 0,3.836 3.46,7.293 7.31,7.293 l 45.7,0 c 4.22,0 7.31,-3.457 7.31,-7.293 l 0,-96.789 109.84,0 0,96.789 c 0,3.836 3.07,7.293 7.29,7.293 l 45.7,0 c 3.85,0 7.3,-3.457 7.3,-7.293 l 0,-254.25 c 0,-3.847 -3.45,-7.304 -7.3,-7.304 l -45.7,0 c -4.22,0 -7.29,3.457 -7.29,7.304 l 0,101.008 -109.84,0 0,-101.008 c 0,-3.847 -3.09,-7.304 -7.31,-7.304 l -45.7,0 c -3.85,0 -7.31,3.457 -7.31,7.304 l 0,254.25"
         style="fill:#213861;fill-opacity:1;fill-rule:nonzero;stroke:none"
         id="path62" /><path
         d="m 2715.39,710.527 c 0,3.836 3.46,7.293 7.31,7.293 l 47.24,0 c 4.22,0 7.29,-3.457 7.29,-7.293 l 0,-155.547 c 0,-26.886 19.98,-48.39 47.24,-48.39 27.66,0 48.01,21.504 48.01,48.39 l 0,155.547 c 0,3.836 3.07,7.293 7.29,7.293 l 47.24,0 c 3.85,0 7.31,-3.457 7.31,-7.293 l 0,-158.625 c 0,-58.379 -49.16,-106.765 -109.85,-106.765 -60.29,0 -109.08,48.386 -109.08,106.765 l 0,158.625"
         style="fill:#213861;fill-opacity:1;fill-rule:nonzero;stroke:none"
         id="path64" /><path
         d="m 3063.3,661.367 -54.92,0 c -4.22,0 -7.29,3.457 -7.29,7.293 l 0,41.867 c 0,3.836 3.07,7.293 7.29,7.293 l 170.53,0 c 4.22,0 7.3,-3.457 7.3,-7.293 l 0,-41.867 c 0,-3.836 -3.08,-7.293 -7.3,-7.293 l -54.93,0 0,-205.09 c 0,-3.847 -3.45,-7.304 -7.3,-7.304 l -46.07,0 c -3.85,0 -7.31,3.457 -7.31,7.304 l 0,205.09"
         style="fill:#213861;fill-opacity:1;fill-rule:nonzero;stroke:none"
         id="path66" /><path
         d="m 3368.59,721.672 c 38.42,0 66.84,-11.918 92.95,-35.727 3.46,-3.066 3.46,-7.675 0.39,-10.75 l -29.96,-31.113 c -2.69,-2.687 -6.91,-2.687 -9.61,0 -14.2,12.676 -33.02,19.59 -51.83,19.59 -43.4,0 -75.3,-36.106 -75.3,-79.113 0,-42.637 32.27,-77.969 75.67,-77.969 18.05,0 37.64,6.523 51.46,18.437 2.7,2.309 7.68,2.309 9.98,-0.39 l 29.96,-31.875 c 2.7,-2.696 2.31,-7.676 -0.37,-10.371 -26.13,-25.348 -59.16,-37.254 -93.34,-37.254 -76.81,0 -138.65,61.062 -138.65,137.879 0,76.82 61.84,138.656 138.65,138.656"
         style="fill:#213861;fill-opacity:1;fill-rule:nonzero;stroke:none"
         id="path68" /><path
         d="m 3530.63,710.527 c 0,3.836 3.45,7.293 7.28,7.293 l 45.72,0 c 4.22,0 7.29,-3.457 7.29,-7.293 l 0,-96.789 109.84,0 0,96.789 c 0,3.836 3.07,7.293 7.31,7.293 l 45.7,0 c 3.83,0 7.28,-3.457 7.28,-7.293 l 0,-254.25 c 0,-3.847 -3.45,-7.304 -7.28,-7.304 l -45.7,0 c -4.24,0 -7.31,3.457 -7.31,7.304 l 0,101.008 -109.84,0 0,-101.008 c 0,-3.847 -3.07,-7.304 -7.29,-7.304 l -45.72,0 c -3.83,0 -7.28,3.457 -7.28,7.304 l 0,254.25"
         style="fill:#213861;fill-opacity:1;fill-rule:nonzero;stroke:none"
         id="path70" /><path
         d="m 1225.74,318.055 c 19.4,0 33.4,-6.153 46.47,-17.852 1.72,-1.543 1.72,-3.848 0.19,-5.379 l -11.72,-12.101 c -1.34,-1.524 -3.26,-1.524 -4.8,0 -8.05,7.113 -18.81,11.328 -29.55,11.328 -24.57,0 -42.81,-20.535 -42.81,-44.727 0,-23.984 18.43,-44.336 43,-44.336 11.51,0 21.31,4.414 29.36,10.938 1.54,1.347 3.65,1.152 4.8,0 l 11.9,-12.285 c 1.54,-1.344 1.15,-3.828 -0.18,-5.176 -13.06,-12.672 -29.57,-18.629 -46.66,-18.629 -38.38,0 -69.29,30.523 -69.29,68.922 0,38.39 30.91,69.297 69.29,69.297"
         style="fill:#213861;fill-opacity:1;fill-rule:nonzero;stroke:none"
         id="path72" /><path
         d="m 1313.18,312.488 c 0,1.914 1.72,3.645 3.66,3.645 l 18.22,0 c 2.11,0 3.65,-1.731 3.65,-3.645 l 0,-78.515 c 0,-16.305 11.13,-29.176 27.83,-29.176 16.7,0 28.03,12.871 28.03,28.98 l 0,78.711 c 0,1.914 1.54,3.645 3.65,3.645 l 18.23,0 c 1.93,0 3.65,-1.731 3.65,-3.645 l 0,-79.859 c 0,-29.184 -23.22,-52.793 -53.56,-52.793 -30.13,0 -53.36,23.609 -53.36,52.793 l 0,79.859"
         style="fill:#213861;fill-opacity:1;fill-rule:nonzero;stroke:none"
         id="path74" /><path
         d="m 1521.81,254.891 c 10.17,0 19,8.828 19,19.589 0,10.176 -8.83,18.614 -19,18.614 l -31.29,0 0,-38.203 31.29,0 z m -56.43,57.597 c 0,1.914 1.52,3.645 3.63,3.645 l 54.91,0 c 23.04,0 41.85,-18.43 41.85,-41.27 0,-17.668 -11.72,-32.062 -28.42,-38.777 l 26.31,-48.75 c 1.33,-2.5 0,-5.57 -3.26,-5.57 l -20.16,0 c -1.73,0 -2.69,0.957 -3.08,1.718 l -25.53,50.879 -21.31,0 0,-48.965 c 0,-1.914 -1.72,-3.632 -3.63,-3.632 l -17.68,0 c -2.11,0 -3.63,1.718 -3.63,3.632 l 0,127.09"
         style="fill:#213861;fill-opacity:1;fill-rule:nonzero;stroke:none"
         id="path76" /><path
         d="m 1610.65,312.488 c 0,1.914 1.53,3.645 3.64,3.645 l 78.12,0 c 2.11,0 3.65,-1.731 3.65,-3.645 l 0,-15.742 c 0,-1.922 -1.54,-3.652 -3.65,-3.652 l -56.81,0 0,-31.485 47.42,0 c 1.91,0 3.65,-1.718 3.65,-3.632 l 0,-15.934 c 0,-2.113 -1.74,-3.656 -3.65,-3.656 l -47.42,0 0,-33.59 56.81,0 c 2.11,0 3.65,-1.723 3.65,-3.656 l 0,-15.743 c 0,-1.914 -1.54,-3.632 -3.65,-3.632 l -78.12,0 c -2.11,0 -3.64,1.718 -3.64,3.632 l 0,127.09"
         style="fill:#213861;fill-opacity:1;fill-rule:nonzero;stroke:none"
         id="path78" /><path
         d="m 1736.92,200.574 6.92,11.895 c 1.54,2.699 4.8,2.699 6.52,1.347 0.96,-0.562 16.51,-11.894 28.99,-11.894 9.98,0 17.48,6.523 17.48,14.766 0,9.804 -8.27,16.523 -24.4,23.046 -18.03,7.286 -36.07,18.813 -36.07,41.465 0,17.082 12.65,36.856 43.18,36.856 19.57,0 34.55,-9.981 38.4,-12.871 1.91,-1.153 2.48,-4.414 1.15,-6.329 l -7.3,-10.933 c -1.55,-2.309 -4.42,-3.852 -6.72,-2.309 -1.52,0.957 -16.11,10.547 -26.68,10.547 -10.94,0 -16.9,-7.281 -16.9,-13.437 0,-9.012 7.11,-15.157 22.66,-21.493 18.61,-7.492 40.12,-18.625 40.12,-43.39 0,-19.766 -17.09,-38.004 -44.16,-38.004 -24.18,0 -38.38,11.324 -42.23,14.977 -1.72,1.738 -2.67,2.695 -0.96,5.761"
         style="fill:#213861;fill-opacity:1;fill-rule:nonzero;stroke:none"
         id="path80" /><path
         d="m 1929.5,200.574 6.9,11.895 c 1.54,2.699 4.8,2.699 6.54,1.347 0.96,-0.562 16.5,-11.894 28.98,-11.894 9.98,0 17.47,6.523 17.47,14.766 0,9.804 -8.27,16.523 -24.38,23.046 -18.05,7.286 -36.09,18.813 -36.09,41.465 0,17.082 12.67,36.856 43.18,36.856 19.59,0 34.57,-9.981 38.4,-12.871 1.91,-1.153 2.5,-4.414 1.15,-6.329 l -7.28,-10.933 c -1.55,-2.309 -4.42,-3.852 -6.72,-2.309 -1.55,0.957 -16.14,10.547 -26.68,10.547 -10.96,0 -16.9,-7.281 -16.9,-13.437 0,-9.012 7.09,-15.157 22.64,-21.493 18.63,-7.492 40.12,-18.625 40.12,-43.39 0,-19.766 -17.07,-38.004 -44.14,-38.004 -24.18,0 -38.4,11.324 -42.23,14.977 -1.74,1.738 -2.7,2.695 -0.96,5.761"
         style="fill:#213861;fill-opacity:1;fill-rule:nonzero;stroke:none"
         id="path82" /><path
         d="m 2080.79,293.094 -29.37,0 c -2.11,0 -3.64,1.73 -3.64,3.652 l 0,15.742 c 0,1.914 1.53,3.645 3.64,3.645 l 83.88,0 c 2.11,0 3.66,-1.731 3.66,-3.645 l 0,-15.742 c 0,-1.922 -1.55,-3.652 -3.66,-3.652 l -29.37,0 0,-107.696 c 0,-1.914 -1.72,-3.632 -3.63,-3.632 l -17.86,0 c -1.93,0 -3.65,1.718 -3.65,3.632 l 0,107.696"
         style="fill:#213861;fill-opacity:1;fill-rule:nonzero;stroke:none"
         id="path84" /><path
         d="m 2234.39,227.645 -19.18,42.226 -0.59,0 -18.81,-42.226 38.58,0 z m -82.92,-40.899 59.69,129.192 c 0.59,1.152 1.55,2.117 3.26,2.117 l 1.94,0 c 1.91,0 2.67,-0.965 3.26,-2.117 l 59.12,-129.192 c 1.15,-2.48 -0.39,-4.98 -3.26,-4.98 l -16.7,0 c -2.89,0 -4.24,1.156 -5.57,3.828 l -9.41,20.742 -57.4,0 -9.4,-20.742 c -0.76,-1.914 -2.5,-3.828 -5.56,-3.828 l -16.7,0 c -2.89,0 -4.42,2.5 -3.27,4.98"
         style="fill:#213861;fill-opacity:1;fill-rule:nonzero;stroke:none"
         id="path86" /><path
         d="m 2369.11,254.891 c 10.16,0 19.01,8.828 19.01,19.589 0,10.176 -8.85,18.614 -19.01,18.614 l -31.29,0 0,-38.203 31.29,0 z m -56.44,57.597 c 0,1.914 1.54,3.645 3.65,3.645 l 54.9,0 c 23.03,0 41.84,-18.43 41.84,-41.27 0,-17.668 -11.7,-32.062 -28.4,-38.777 l 26.29,-48.75 c 1.35,-2.5 0,-5.57 -3.26,-5.57 l -20.16,0 c -1.72,0 -2.7,0.957 -3.07,1.718 l -25.52,50.879 -21.31,0 0,-48.965 c 0,-1.914 -1.74,-3.632 -3.66,-3.632 l -17.65,0 c -2.11,0 -3.65,1.718 -3.65,3.632 l 0,127.09"
         style="fill:#213861;fill-opacity:1;fill-rule:nonzero;stroke:none"
         id="path88" /><path
         d="m 2478.57,293.094 -29.38,0 c -2.12,0 -3.67,1.73 -3.67,3.652 l 0,15.742 c 0,1.914 1.55,3.645 3.67,3.645 l 83.91,0 c 2.11,0 3.63,-1.731 3.63,-3.645 l 0,-15.742 c 0,-1.922 -1.52,-3.652 -3.63,-3.652 l -29.38,0 0,-107.696 c 0,-1.914 -1.74,-3.632 -3.65,-3.632 l -17.85,0 c -1.92,0 -3.65,1.718 -3.65,3.632 l 0,107.696"
         style="fill:#213861;fill-opacity:1;fill-rule:nonzero;stroke:none"
         id="path90" /><path
         d="m 2645.52,312.488 c 0,1.914 1.74,3.645 3.65,3.645 l 17.85,0 c 2.11,0 3.65,-1.731 3.65,-3.645 l 0,-50.879 62.58,0 0,50.879 c 0,1.914 1.53,3.645 3.64,3.645 l 17.65,0 c 1.93,0 3.65,-1.731 3.65,-3.645 l 0,-127.09 c 0,-1.914 -1.72,-3.632 -3.65,-3.632 l -17.65,0 c -2.11,0 -3.64,1.718 -3.64,3.632 l 0,52.989 -62.58,0 0,-52.989 c 0,-1.914 -1.54,-3.632 -3.65,-3.632 l -17.85,0 c -1.91,0 -3.65,1.718 -3.65,3.632 l 0,127.09"
         style="fill:#213861;fill-opacity:1;fill-rule:nonzero;stroke:none"
         id="path92" /><path
         d="m 2811.36,312.488 c 0,1.914 1.54,3.645 3.65,3.645 l 78.13,0 c 2.1,0 3.65,-1.731 3.65,-3.645 l 0,-15.742 c 0,-1.922 -1.55,-3.652 -3.65,-3.652 l -56.82,0 0,-31.485 47.4,0 c 1.93,0 3.65,-1.718 3.65,-3.632 l 0,-15.934 c 0,-2.113 -1.72,-3.656 -3.65,-3.656 l -47.4,0 0,-33.59 56.82,0 c 2.1,0 3.65,-1.723 3.65,-3.656 l 0,-15.743 c 0,-1.914 -1.55,-3.632 -3.65,-3.632 l -78.13,0 c -2.11,0 -3.65,1.718 -3.65,3.632 l 0,127.09"
         style="fill:#213861;fill-opacity:1;fill-rule:nonzero;stroke:none"
         id="path94" /><path
         d="m 3003.39,254.891 c 10.16,0 19,8.828 19,19.589 0,10.176 -8.84,18.614 -19,18.614 l -31.29,0 0,-38.203 31.29,0 z m -56.45,57.597 c 0,1.914 1.55,3.645 3.66,3.645 l 54.9,0 c 23.03,0 41.83,-18.43 41.83,-41.27 0,-17.668 -11.69,-32.062 -28.39,-38.777 l 26.28,-48.75 c 1.35,-2.5 0,-5.57 -3.26,-5.57 l -20.15,0 c -1.72,0 -2.7,0.957 -3.07,1.718 l -25.53,50.879 -21.31,0 0,-48.965 c 0,-1.914 -1.73,-3.632 -3.65,-3.632 l -17.65,0 c -2.11,0 -3.66,1.718 -3.66,3.632 l 0,127.09"
         style="fill:#213861;fill-opacity:1;fill-rule:nonzero;stroke:none"
         id="path96" /><path
         d="m 3091.3,312.488 c 0,1.914 1.52,3.645 3.63,3.645 l 78.13,0 c 2.11,0 3.65,-1.731 3.65,-3.645 l 0,-15.742 c 0,-1.922 -1.54,-3.652 -3.65,-3.652 l -56.82,0 0,-31.485 47.42,0 c 1.92,0 3.65,-1.718 3.65,-3.632 l 0,-15.934 c 0,-2.113 -1.73,-3.656 -3.65,-3.656 l -47.42,0 0,-33.59 56.82,0 c 2.11,0 3.65,-1.723 3.65,-3.656 l 0,-15.743 c 0,-1.914 -1.54,-3.632 -3.65,-3.632 l -78.13,0 c -2.11,0 -3.63,1.718 -3.63,3.632 l 0,127.09"
         style="fill:#213861;fill-opacity:1;fill-rule:nonzero;stroke:none"
         id="path98" /><path
         d="m 3213.25,309.355 -10.4,0 c -0.7,0 -1.21,0.575 -1.21,1.211 l 0,3.575 c 0,0.644 0.51,1.211 1.21,1.211 l 27.44,0 c 0.71,0 1.21,-0.567 1.21,-1.211 l 0,-3.575 c 0,-0.636 -0.5,-1.211 -1.21,-1.211 l -10.4,0 0,-37.46 c 0,-0.633 -0.57,-1.211 -1.21,-1.211 l -4.22,0 c -0.63,0 -1.21,0.578 -1.21,1.211 l 0,37.46"
         style="fill:#213861;fill-opacity:1;fill-rule:nonzero;stroke:none"
         id="path100" /><path
         d="m 3246.99,315.039 c 0.12,0.508 0.63,0.957 1.14,0.957 l 1.03,0 c 0.38,0 0.95,-0.32 1.07,-0.703 l 13.34,-32.617 0.27,0 13.27,32.617 c 0.13,0.383 0.64,0.703 1.08,0.703 l 1.03,0 c 0.51,0 1.01,-0.449 1.15,-0.957 l 7.84,-42.891 c 0.2,-0.886 -0.25,-1.464 -1.14,-1.464 l -4.16,0 c -0.57,0 -1.08,0.449 -1.21,0.886 l -4.72,28.535 c -0.07,0 -0.19,0 -0.19,0 l -11.49,-29.363 c -0.13,-0.383 -0.51,-0.703 -1.08,-0.703 l -1.15,0 c -0.51,0 -0.96,0.32 -1.09,0.703 l -11.55,29.363 c -0.06,0 -0.2,0 -0.26,0 l -4.59,-28.535 c -0.06,-0.437 -0.64,-0.886 -1.15,-0.886 l -4.15,0 c -0.9,0 -1.34,0.578 -1.21,1.464 l 7.92,42.891"
         style="fill:#213861;fill-opacity:1;fill-rule:nonzero;stroke:none"
         id="path102" /></g></g></svg>