<?xml version="1.0" encoding="UTF-8" standalone="no"?>
<!-- Created with matplotlib (http://matplotlib.org/) -->

<svg
   xmlns:dc="http://purl.org/dc/elements/1.1/"
   xmlns:cc="http://creativecommons.org/ns#"
   xmlns:rdf="http://www.w3.org/1999/02/22-rdf-syntax-ns#"
   xmlns:svg="http://www.w3.org/2000/svg"
   xmlns="http://www.w3.org/2000/svg"
   xmlns:xlink="http://www.w3.org/1999/xlink"
   xmlns:sodipodi="http://sodipodi.sourceforge.net/DTD/sodipodi-0.dtd"
   xmlns:inkscape="http://www.inkscape.org/namespaces/inkscape"
   height="345pt"
   version="1.1"
   viewBox="0 0 460 345"
   width="460pt"
   id="svg2"
   inkscape:version="0.48.4 r9939"
   sodipodi:docname="analytic-inconsistency.svg">
  <metadata
     id="metadata358">
    <rdf:RDF>
      <cc:Work
         rdf:about="">
        <dc:format>image/svg+xml</dc:format>
        <dc:type
           rdf:resource="http://purl.org/dc/dcmitype/StillImage" />
      </cc:Work>
    </rdf:RDF>
  </metadata>
  <sodipodi:namedview
     pagecolor="#ffffff"
     bordercolor="#666666"
     borderopacity="1"
     objecttolerance="10"
     gridtolerance="10"
     guidetolerance="10"
     inkscape:pageopacity="0"
     inkscape:pageshadow="2"
     inkscape:window-width="1371"
     inkscape:window-height="1103"
     id="namedview356"
     showgrid="false"
     inkscape:zoom="1.5478465"
     inkscape:cx="207.0197"
     inkscape:cy="215.625"
     inkscape:window-x="0"
     inkscape:window-y="24"
     inkscape:window-maximized="0"
     inkscape:current-layer="svg2" />
  <defs
     id="defs4">
    <style
       type="text/css"
       id="style6">
*{stroke-linecap:butt;stroke-linejoin:round;}
  </style>
  </defs>
  <g
     id="figure_1">
    <g
       id="patch_1">
      <path
         d="M 0 345.6  L 460.8 345.6  L 460.8 0  L 0 0  z "
         style="fill:#ffffff;"
         id="path10" />
    </g>
    <g
       id="axes_1">
      <g
         id="patch_2">
        <path
           d="M 57.6 307.584  L 414.72 307.584  L 414.72 41.472  L 57.6 41.472  z "
           style="fill:#ffffff;"
           id="path14" />
      </g>
      <g
         id="matplotlib.axis_1">
        <g
           id="xtick_1">
          <g
             id="line2d_1">
            <defs
               id="defs19">
              <path
                 d="M 0 0  L 0 3.5  "
                 id="m7fa3a2e88c"
                 style="stroke:#000000;stroke-width:0.8;" />
            </defs>
            <g
               id="g22">
              <use
                 style="stroke:#000000;stroke-width:0.8;"
                 x="57.6"
                 xlink:href="#m7fa3a2e88c"
                 y="307.584"
                 id="use24" />
            </g>
          </g>
          <g
             id="text_1">
            <!-- 0.0 -->
            <defs
               id="defs27">
              <path
                 d="M 31.78125 66.40625  Q 24.171875 66.40625 20.328125 58.90625  Q 16.5 51.421875 16.5 36.375  Q 16.5 21.390625 20.328125 13.890625  Q 24.171875 6.390625 31.78125 6.390625  Q 39.453125 6.390625 43.28125 13.890625  Q 47.125 21.390625 47.125 36.375  Q 47.125 51.421875 43.28125 58.90625  Q 39.453125 66.40625 31.78125 66.40625  M 31.78125 74.21875  Q 44.046875 74.21875 50.515625 64.515625  Q 56.984375 54.828125 56.984375 36.375  Q 56.984375 17.96875 50.515625 8.265625  Q 44.046875 -1.421875 31.78125 -1.421875  Q 19.53125 -1.421875 13.0625 8.265625  Q 6.59375 17.96875 6.59375 36.375  Q 6.59375 54.828125 13.0625 64.515625  Q 19.53125 74.21875 31.78125 74.21875  "
                 id="DejaVuSans-30" />
              <path
                 d="M 10.6875 12.40625  L 21 12.40625  L 21 0  L 10.6875 0  z "
                 id="DejaVuSans-2e" />
            </defs>
            <g
               transform="translate(49.648438 322.182437)scale(0.1 -0.1)"
               id="g31">
              <use
                 xlink:href="#DejaVuSans-30"
                 id="use33" />
              <use
                 x="63.623047"
                 xlink:href="#DejaVuSans-2e"
                 id="use35" />
              <use
                 x="95.410156"
                 xlink:href="#DejaVuSans-30"
                 id="use37" />
            </g>
          </g>
        </g>
        <g
           id="xtick_2">
          <g
             id="line2d_2">
            <g
               id="g41">
              <use
                 style="stroke:#000000;stroke-width:0.8;"
                 x="130.855385"
                 xlink:href="#m7fa3a2e88c"
                 y="307.584"
                 id="use43" />
            </g>
          </g>
          <g
             id="text_2">
            <!-- 0.2 -->
            <defs
               id="defs46">
              <path
                 d="M 19.1875 8.296875  L 53.609375 8.296875  L 53.609375 0  L 7.328125 0  L 7.328125 8.296875  Q 12.9375 14.109375 22.625 23.890625  Q 32.328125 33.6875 34.8125 36.53125  Q 39.546875 41.84375 41.421875 45.53125  Q 43.3125 49.21875 43.3125 52.78125  Q 43.3125 58.59375 39.234375 62.25  Q 35.15625 65.921875 28.609375 65.921875  Q 23.96875 65.921875 18.8125 64.3125  Q 13.671875 62.703125 7.8125 59.421875  L 7.8125 69.390625  Q 13.765625 71.78125 18.9375 73  Q 24.125 74.21875 28.421875 74.21875  Q 39.75 74.21875 46.484375 68.546875  Q 53.21875 62.890625 53.21875 53.421875  Q 53.21875 48.921875 51.53125 44.890625  Q 49.859375 40.875 45.40625 35.40625  Q 44.1875 33.984375 37.640625 27.21875  Q 31.109375 20.453125 19.1875 8.296875  "
                 id="DejaVuSans-32" />
            </defs>
            <g
               transform="translate(122.903822 322.182437)scale(0.1 -0.1)"
               id="g49">
              <use
                 xlink:href="#DejaVuSans-30"
                 id="use51" />
              <use
                 x="63.623047"
                 xlink:href="#DejaVuSans-2e"
                 id="use53" />
              <use
                 x="95.410156"
                 xlink:href="#DejaVuSans-32"
                 id="use55" />
            </g>
          </g>
        </g>
        <g
           id="xtick_3">
          <g
             id="line2d_3">
            <g
               id="g59">
              <use
                 style="stroke:#000000;stroke-width:0.8;"
                 x="204.110769"
                 xlink:href="#m7fa3a2e88c"
                 y="307.584"
                 id="use61" />
            </g>
          </g>
          <g
             id="text_3">
            <!-- 0.4 -->
            <defs
               id="defs64">
              <path
                 d="M 37.796875 64.3125  L 12.890625 25.390625  L 37.796875 25.390625  z M 35.203125 72.90625  L 47.609375 72.90625  L 47.609375 25.390625  L 58.015625 25.390625  L 58.015625 17.1875  L 47.609375 17.1875  L 47.609375 0  L 37.796875 0  L 37.796875 17.1875  L 4.890625 17.1875  L 4.890625 26.703125  z "
                 id="DejaVuSans-34" />
            </defs>
            <g
               transform="translate(196.159207 322.182437)scale(0.1 -0.1)"
               id="g67">
              <use
                 xlink:href="#DejaVuSans-30"
                 id="use69" />
              <use
                 x="63.623047"
                 xlink:href="#DejaVuSans-2e"
                 id="use71" />
              <use
                 x="95.410156"
                 xlink:href="#DejaVuSans-34"
                 id="use73" />
            </g>
          </g>
        </g>
        <g
           id="xtick_4">
          <g
             id="line2d_4">
            <g
               id="g77">
              <use
                 style="stroke:#000000;stroke-width:0.8;"
                 x="277.366154"
                 xlink:href="#m7fa3a2e88c"
                 y="307.584"
                 id="use79" />
            </g>
          </g>
          <g
             id="text_4">
            <!-- 0.6 -->
            <defs
               id="defs82">
              <path
                 d="M 33.015625 40.375  Q 26.375 40.375 22.484375 35.828125  Q 18.609375 31.296875 18.609375 23.390625  Q 18.609375 15.53125 22.484375 10.953125  Q 26.375 6.390625 33.015625 6.390625  Q 39.65625 6.390625 43.53125 10.953125  Q 47.40625 15.53125 47.40625 23.390625  Q 47.40625 31.296875 43.53125 35.828125  Q 39.65625 40.375 33.015625 40.375  M 52.59375 71.296875  L 52.59375 62.3125  Q 48.875 64.0625 45.09375 64.984375  Q 41.3125 65.921875 37.59375 65.921875  Q 27.828125 65.921875 22.671875 59.328125  Q 17.53125 52.734375 16.796875 39.40625  Q 19.671875 43.65625 24.015625 45.921875  Q 28.375 48.1875 33.59375 48.1875  Q 44.578125 48.1875 50.953125 41.515625  Q 57.328125 34.859375 57.328125 23.390625  Q 57.328125 12.15625 50.6875 5.359375  Q 44.046875 -1.421875 33.015625 -1.421875  Q 20.359375 -1.421875 13.671875 8.265625  Q 6.984375 17.96875 6.984375 36.375  Q 6.984375 53.65625 15.1875 63.9375  Q 23.390625 74.21875 37.203125 74.21875  Q 40.921875 74.21875 44.703125 73.484375  Q 48.484375 72.75 52.59375 71.296875  "
                 id="DejaVuSans-36" />
            </defs>
            <g
               transform="translate(269.414591 322.182437)scale(0.1 -0.1)"
               id="g85">
              <use
                 xlink:href="#DejaVuSans-30"
                 id="use87" />
              <use
                 x="63.623047"
                 xlink:href="#DejaVuSans-2e"
                 id="use89" />
              <use
                 x="95.410156"
                 xlink:href="#DejaVuSans-36"
                 id="use91" />
            </g>
          </g>
        </g>
        <g
           id="xtick_5">
          <g
             id="line2d_5">
            <g
               id="g95">
              <use
                 style="stroke:#000000;stroke-width:0.8;"
                 x="350.621538"
                 xlink:href="#m7fa3a2e88c"
                 y="307.584"
                 id="use97" />
            </g>
          </g>
          <g
             id="text_5">
            <!-- 0.8 -->
            <defs
               id="defs100">
              <path
                 d="M 31.78125 34.625  Q 24.75 34.625 20.71875 30.859375  Q 16.703125 27.09375 16.703125 20.515625  Q 16.703125 13.921875 20.71875 10.15625  Q 24.75 6.390625 31.78125 6.390625  Q 38.8125 6.390625 42.859375 10.171875  Q 46.921875 13.96875 46.921875 20.515625  Q 46.921875 27.09375 42.890625 30.859375  Q 38.875 34.625 31.78125 34.625  M 21.921875 38.8125  Q 15.578125 40.375 12.03125 44.71875  Q 8.5 49.078125 8.5 55.328125  Q 8.5 64.0625 14.71875 69.140625  Q 20.953125 74.21875 31.78125 74.21875  Q 42.671875 74.21875 48.875 69.140625  Q 55.078125 64.0625 55.078125 55.328125  Q 55.078125 49.078125 51.53125 44.71875  Q 48 40.375 41.703125 38.8125  Q 48.828125 37.15625 52.796875 32.3125  Q 56.78125 27.484375 56.78125 20.515625  Q 56.78125 9.90625 50.3125 4.234375  Q 43.84375 -1.421875 31.78125 -1.421875  Q 19.734375 -1.421875 13.25 4.234375  Q 6.78125 9.90625 6.78125 20.515625  Q 6.78125 27.484375 10.78125 32.3125  Q 14.796875 37.15625 21.921875 38.8125  M 18.3125 54.390625  Q 18.3125 48.734375 21.84375 45.5625  Q 25.390625 42.390625 31.78125 42.390625  Q 38.140625 42.390625 41.71875 45.5625  Q 45.3125 48.734375 45.3125 54.390625  Q 45.3125 60.0625 41.71875 63.234375  Q 38.140625 66.40625 31.78125 66.40625  Q 25.390625 66.40625 21.84375 63.234375  Q 18.3125 60.0625 18.3125 54.390625  "
                 id="DejaVuSans-38" />
            </defs>
            <g
               transform="translate(342.669976 322.182437)scale(0.1 -0.1)"
               id="g103">
              <use
                 xlink:href="#DejaVuSans-30"
                 id="use105" />
              <use
                 x="63.623047"
                 xlink:href="#DejaVuSans-2e"
                 id="use107" />
              <use
                 x="95.410156"
                 xlink:href="#DejaVuSans-38"
                 id="use109" />
            </g>
          </g>
        </g>
        <g
           id="text_6">
          <!-- x -->
          <defs
             id="defs112">
            <path
               d="M 54.890625 54.6875  L 35.109375 28.078125  L 55.90625 0  L 45.3125 0  L 29.390625 21.484375  L 13.484375 0  L 2.875 0  L 24.125 28.609375  L 4.6875 54.6875  L 15.28125 54.6875  L 29.78125 35.203125  L 44.28125 54.6875  z "
               id="DejaVuSans-78" />
          </defs>
          <g
             transform="translate(231.425 340.419625)scale(0.16 -0.16)"
             id="g115">
            <use
               xlink:href="#DejaVuSans-78"
               id="use117" />
          </g>
        </g>
      </g>
      <g
         id="matplotlib.axis_2">
        <g
           id="ytick_1">
          <g
             id="line2d_6">
            <defs
               id="defs122">
              <path
                 d="M 0 0  L -3.5 0  "
                 id="m06b82a06d9"
                 style="stroke:#000000;stroke-width:0.8;" />
            </defs>
            <g
               id="g125">
              <use
                 style="stroke:#000000;stroke-width:0.8;"
                 x="57.6"
                 xlink:href="#m06b82a06d9"
                 y="307.584"
                 id="use127" />
            </g>
          </g>
          <g
             id="text_7">
            <!-- 0.0 -->
            <g
               transform="translate(34.696875 311.383219)scale(0.1 -0.1)"
               id="g130">
              <use
                 xlink:href="#DejaVuSans-30"
                 id="use132" />
              <use
                 x="63.623047"
                 xlink:href="#DejaVuSans-2e"
                 id="use134" />
              <use
                 x="95.410156"
                 xlink:href="#DejaVuSans-30"
                 id="use136" />
            </g>
          </g>
        </g>
        <g
           id="ytick_2">
          <g
             id="line2d_7">
            <g
               id="g140">
              <use
                 style="stroke:#000000;stroke-width:0.8;"
                 x="57.6"
                 xlink:href="#m06b82a06d9"
                 y="252.996923"
                 id="use142" />
            </g>
          </g>
          <g
             id="text_8">
            <!-- 0.2 -->
            <g
               transform="translate(34.696875 256.796142)scale(0.1 -0.1)"
               id="g145">
              <use
                 xlink:href="#DejaVuSans-30"
                 id="use147" />
              <use
                 x="63.623047"
                 xlink:href="#DejaVuSans-2e"
                 id="use149" />
              <use
                 x="95.410156"
                 xlink:href="#DejaVuSans-32"
                 id="use151" />
            </g>
          </g>
        </g>
        <g
           id="ytick_3">
          <g
             id="line2d_8">
            <g
               id="g155">
              <use
                 style="stroke:#000000;stroke-width:0.8;"
                 x="57.6"
                 xlink:href="#m06b82a06d9"
                 y="198.409846"
                 id="use157" />
            </g>
          </g>
          <g
             id="text_9">
            <!-- 0.4 -->
            <g
               transform="translate(34.696875 202.209065)scale(0.1 -0.1)"
               id="g160">
              <use
                 xlink:href="#DejaVuSans-30"
                 id="use162" />
              <use
                 x="63.623047"
                 xlink:href="#DejaVuSans-2e"
                 id="use164" />
              <use
                 x="95.410156"
                 xlink:href="#DejaVuSans-34"
                 id="use166" />
            </g>
          </g>
        </g>
        <g
           id="ytick_4">
          <g
             id="line2d_9">
            <g
               id="g170">
              <use
                 style="stroke:#000000;stroke-width:0.8;"
                 x="57.6"
                 xlink:href="#m06b82a06d9"
                 y="143.822769"
                 id="use172" />
            </g>
          </g>
          <g
             id="text_10">
            <!-- 0.6 -->
            <g
               transform="translate(34.696875 147.621988)scale(0.1 -0.1)"
               id="g175">
              <use
                 xlink:href="#DejaVuSans-30"
                 id="use177" />
              <use
                 x="63.623047"
                 xlink:href="#DejaVuSans-2e"
                 id="use179" />
              <use
                 x="95.410156"
                 xlink:href="#DejaVuSans-36"
                 id="use181" />
            </g>
          </g>
        </g>
        <g
           id="ytick_5">
          <g
             id="line2d_10">
            <g
               id="g185">
              <use
                 style="stroke:#000000;stroke-width:0.8;"
                 x="57.6"
                 xlink:href="#m06b82a06d9"
                 y="89.235692"
                 id="use187" />
            </g>
          </g>
          <g
             id="text_11">
            <!-- 0.8 -->
            <g
               transform="translate(34.696875 93.034911)scale(0.1 -0.1)"
               id="g190">
              <use
                 xlink:href="#DejaVuSans-30"
                 id="use192" />
              <use
                 x="63.623047"
                 xlink:href="#DejaVuSans-2e"
                 id="use194" />
              <use
                 x="95.410156"
                 xlink:href="#DejaVuSans-38"
                 id="use196" />
            </g>
          </g>
        </g>
        <g
           id="text_12">
          <!-- y -->
          <defs
             id="defs199">
            <path
               d="M 32.171875 -5.078125  Q 28.375 -14.84375 24.75 -17.8125  Q 21.140625 -20.796875 15.09375 -20.796875  L 7.90625 -20.796875  L 7.90625 -13.28125  L 13.1875 -13.28125  Q 16.890625 -13.28125 18.9375 -11.515625  Q 21 -9.765625 23.484375 -3.21875  L 25.09375 0.875  L 2.984375 54.6875  L 12.5 54.6875  L 29.59375 11.921875  L 46.6875 54.6875  L 56.203125 54.6875  z "
               id="DejaVuSans-79" />
          </defs>
          <g
             transform="translate(27.369375 179.263)rotate(-90)scale(0.16 -0.16)"
             id="g202">
            <use
               xlink:href="#DejaVuSans-79"
               id="use204" />
          </g>
        </g>
      </g>
      <g
         id="LineCollection_1">
        <path
           clip-path="url(#p88be2d7539)"
           d="M 57.6 206.684443  L 66.756923 206.476465  L 75.913846 206.497322  L 85.070769 206.756056  L 94.227692 207.262556  L 103.384615 208.027528  L 112.541538 209.062457  L 121.698462 210.379564  L 130.855385 211.991759  L 131.166342 212.056615  L 140.012308 214.10205  L 149.169231 216.574021  L 156.604422 218.88  L 158.326154 219.473565  L 167.483077 223.044139  L 173.557776 225.703385  L 176.64 227.20782  L 185.796923 232.174534  L 186.38557 232.526769  L 194.953846 238.264466  L 196.4328 239.350154  L 204.110769 245.694915  L 204.642207 246.173538  L 211.319917 252.996923  L 213.267692 255.281789  L 216.837147 259.820308  L 221.44377 266.643692  L 222.424615 268.374939  L 225.09646 273.467077  L 228.009772 280.290462  L 230.267035 287.113846  L 231.581538 292.692914  L 231.853693 293.937231  L 232.747063 300.760615  L 233.044639 307.584  "
           style="fill:none;stroke:#440154;stroke-width:1.5;"
           id="path207" />
      </g>
      <g
         id="patch_3">
        <path
           d="M 57.6 307.584  L 57.6 41.472  "
           style="fill:none;stroke:#000000;stroke-linecap:square;stroke-linejoin:miter;stroke-width:0.8;"
           id="path210" />
      </g>
      <g
         id="patch_4">
        <path
           d="M 414.72 307.584  L 414.72 41.472  "
           style="fill:none;stroke:#000000;stroke-linecap:square;stroke-linejoin:miter;stroke-width:0.8;"
           id="path213" />
      </g>
      <g
         id="patch_5">
        <path
           d="M 57.6 307.584  L 414.72 307.584  "
           style="fill:none;stroke:#000000;stroke-linecap:square;stroke-linejoin:miter;stroke-width:0.8;"
           id="path216" />
      </g>
      <g
         id="patch_6">
        <path
           d="M 57.6 41.472  L 414.72 41.472  "
           style="fill:none;stroke:#000000;stroke-linecap:square;stroke-linejoin:miter;stroke-width:0.8;"
           id="path219" />
      </g>
      <g
         id="text_13">
        <!-- Region of inconsistency for Farris-generating topology -->
        <defs
           id="defs222">
          <path
             d="M 44.390625 34.1875  Q 47.5625 33.109375 50.5625 29.59375  Q 53.5625 26.078125 56.59375 19.921875  L 66.609375 0  L 56 0  L 46.6875 18.703125  Q 43.0625 26.03125 39.671875 28.421875  Q 36.28125 30.8125 30.421875 30.8125  L 19.671875 30.8125  L 19.671875 0  L 9.8125 0  L 9.8125 72.90625  L 32.078125 72.90625  Q 44.578125 72.90625 50.734375 67.671875  Q 56.890625 62.453125 56.890625 51.90625  Q 56.890625 45.015625 53.6875 40.46875  Q 50.484375 35.9375 44.390625 34.1875  M 19.671875 64.796875  L 19.671875 38.921875  L 32.078125 38.921875  Q 39.203125 38.921875 42.84375 42.21875  Q 46.484375 45.515625 46.484375 51.90625  Q 46.484375 58.296875 42.84375 61.546875  Q 39.203125 64.796875 32.078125 64.796875  z "
             id="DejaVuSans-52" />
          <path
             d="M 56.203125 29.59375  L 56.203125 25.203125  L 14.890625 25.203125  Q 15.484375 15.921875 20.484375 11.0625  Q 25.484375 6.203125 34.421875 6.203125  Q 39.59375 6.203125 44.453125 7.46875  Q 49.3125 8.734375 54.109375 11.28125  L 54.109375 2.78125  Q 49.265625 0.734375 44.1875 -0.34375  Q 39.109375 -1.421875 33.890625 -1.421875  Q 20.796875 -1.421875 13.15625 6.1875  Q 5.515625 13.8125 5.515625 26.8125  Q 5.515625 40.234375 12.765625 48.109375  Q 20.015625 56 32.328125 56  Q 43.359375 56 49.78125 48.890625  Q 56.203125 41.796875 56.203125 29.59375  M 47.21875 32.234375  Q 47.125 39.59375 43.09375 43.984375  Q 39.0625 48.390625 32.421875 48.390625  Q 24.90625 48.390625 20.390625 44.140625  Q 15.875 39.890625 15.1875 32.171875  z "
             id="DejaVuSans-65" />
          <path
             d="M 45.40625 27.984375  Q 45.40625 37.75 41.375 43.109375  Q 37.359375 48.484375 30.078125 48.484375  Q 22.859375 48.484375 18.828125 43.109375  Q 14.796875 37.75 14.796875 27.984375  Q 14.796875 18.265625 18.828125 12.890625  Q 22.859375 7.515625 30.078125 7.515625  Q 37.359375 7.515625 41.375 12.890625  Q 45.40625 18.265625 45.40625 27.984375  M 54.390625 6.78125  Q 54.390625 -7.171875 48.1875 -13.984375  Q 42 -20.796875 29.203125 -20.796875  Q 24.46875 -20.796875 20.265625 -20.09375  Q 16.0625 -19.390625 12.109375 -17.921875  L 12.109375 -9.1875  Q 16.0625 -11.328125 19.921875 -12.34375  Q 23.78125 -13.375 27.78125 -13.375  Q 36.625 -13.375 41.015625 -8.765625  Q 45.40625 -4.15625 45.40625 5.171875  L 45.40625 9.625  Q 42.625 4.78125 38.28125 2.390625  Q 33.9375 0 27.875 0  Q 17.828125 0 11.671875 7.65625  Q 5.515625 15.328125 5.515625 27.984375  Q 5.515625 40.671875 11.671875 48.328125  Q 17.828125 56 27.875 56  Q 33.9375 56 38.28125 53.609375  Q 42.625 51.21875 45.40625 46.390625  L 45.40625 54.6875  L 54.390625 54.6875  z "
             id="DejaVuSans-67" />
          <path
             d="M 9.421875 54.6875  L 18.40625 54.6875  L 18.40625 0  L 9.421875 0  z M 9.421875 75.984375  L 18.40625 75.984375  L 18.40625 64.59375  L 9.421875 64.59375  z "
             id="DejaVuSans-69" />
          <path
             d="M 30.609375 48.390625  Q 23.390625 48.390625 19.1875 42.75  Q 14.984375 37.109375 14.984375 27.296875  Q 14.984375 17.484375 19.15625 11.84375  Q 23.34375 6.203125 30.609375 6.203125  Q 37.796875 6.203125 41.984375 11.859375  Q 46.1875 17.53125 46.1875 27.296875  Q 46.1875 37.015625 41.984375 42.703125  Q 37.796875 48.390625 30.609375 48.390625  M 30.609375 56  Q 42.328125 56 49.015625 48.375  Q 55.71875 40.765625 55.71875 27.296875  Q 55.71875 13.875 49.015625 6.21875  Q 42.328125 -1.421875 30.609375 -1.421875  Q 18.84375 -1.421875 12.171875 6.21875  Q 5.515625 13.875 5.515625 27.296875  Q 5.515625 40.765625 12.171875 48.375  Q 18.84375 56 30.609375 56  "
             id="DejaVuSans-6f" />
          <path
             d="M 54.890625 33.015625  L 54.890625 0  L 45.90625 0  L 45.90625 32.71875  Q 45.90625 40.484375 42.875 44.328125  Q 39.84375 48.1875 33.796875 48.1875  Q 26.515625 48.1875 22.3125 43.546875  Q 18.109375 38.921875 18.109375 30.90625  L 18.109375 0  L 9.078125 0  L 9.078125 54.6875  L 18.109375 54.6875  L 18.109375 46.1875  Q 21.34375 51.125 25.703125 53.5625  Q 30.078125 56 35.796875 56  Q 45.21875 56 50.046875 50.171875  Q 54.890625 44.34375 54.890625 33.015625  "
             id="DejaVuSans-6e" />
          <path
             id="DejaVuSans-20" />
          <path
             d="M 37.109375 75.984375  L 37.109375 68.5  L 28.515625 68.5  Q 23.6875 68.5 21.796875 66.546875  Q 19.921875 64.59375 19.921875 59.515625  L 19.921875 54.6875  L 34.71875 54.6875  L 34.71875 47.703125  L 19.921875 47.703125  L 19.921875 0  L 10.890625 0  L 10.890625 47.703125  L 2.296875 47.703125  L 2.296875 54.6875  L 10.890625 54.6875  L 10.890625 58.5  Q 10.890625 67.625 15.140625 71.796875  Q 19.390625 75.984375 28.609375 75.984375  z "
             id="DejaVuSans-66" />
          <path
             d="M 48.78125 52.59375  L 48.78125 44.1875  Q 44.96875 46.296875 41.140625 47.34375  Q 37.3125 48.390625 33.40625 48.390625  Q 24.65625 48.390625 19.8125 42.84375  Q 14.984375 37.3125 14.984375 27.296875  Q 14.984375 17.28125 19.8125 11.734375  Q 24.65625 6.203125 33.40625 6.203125  Q 37.3125 6.203125 41.140625 7.25  Q 44.96875 8.296875 48.78125 10.40625  L 48.78125 2.09375  Q 45.015625 0.34375 40.984375 -0.53125  Q 36.96875 -1.421875 32.421875 -1.421875  Q 20.0625 -1.421875 12.78125 6.34375  Q 5.515625 14.109375 5.515625 27.296875  Q 5.515625 40.671875 12.859375 48.328125  Q 20.21875 56 33.015625 56  Q 37.15625 56 41.109375 55.140625  Q 45.0625 54.296875 48.78125 52.59375  "
             id="DejaVuSans-63" />
          <path
             d="M 44.28125 53.078125  L 44.28125 44.578125  Q 40.484375 46.53125 36.375 47.5  Q 32.28125 48.484375 27.875 48.484375  Q 21.1875 48.484375 17.84375 46.4375  Q 14.5 44.390625 14.5 40.28125  Q 14.5 37.15625 16.890625 35.375  Q 19.28125 33.59375 26.515625 31.984375  L 29.59375 31.296875  Q 39.15625 29.25 43.1875 25.515625  Q 47.21875 21.78125 47.21875 15.09375  Q 47.21875 7.46875 41.1875 3.015625  Q 35.15625 -1.421875 24.609375 -1.421875  Q 20.21875 -1.421875 15.453125 -0.5625  Q 10.6875 0.296875 5.421875 2  L 5.421875 11.28125  Q 10.40625 8.6875 15.234375 7.390625  Q 20.0625 6.109375 24.8125 6.109375  Q 31.15625 6.109375 34.5625 8.28125  Q 37.984375 10.453125 37.984375 14.40625  Q 37.984375 18.0625 35.515625 20.015625  Q 33.0625 21.96875 24.703125 23.78125  L 21.578125 24.515625  Q 13.234375 26.265625 9.515625 29.90625  Q 5.8125 33.546875 5.8125 39.890625  Q 5.8125 47.609375 11.28125 51.796875  Q 16.75 56 26.8125 56  Q 31.78125 56 36.171875 55.265625  Q 40.578125 54.546875 44.28125 53.078125  "
             id="DejaVuSans-73" />
          <path
             d="M 18.3125 70.21875  L 18.3125 54.6875  L 36.8125 54.6875  L 36.8125 47.703125  L 18.3125 47.703125  L 18.3125 18.015625  Q 18.3125 11.328125 20.140625 9.421875  Q 21.96875 7.515625 27.59375 7.515625  L 36.8125 7.515625  L 36.8125 0  L 27.59375 0  Q 17.1875 0 13.234375 3.875  Q 9.28125 7.765625 9.28125 18.015625  L 9.28125 47.703125  L 2.6875 47.703125  L 2.6875 54.6875  L 9.28125 54.6875  L 9.28125 70.21875  z "
             id="DejaVuSans-74" />
          <path
             d="M 41.109375 46.296875  Q 39.59375 47.171875 37.8125 47.578125  Q 36.03125 48 33.890625 48  Q 26.265625 48 22.1875 43.046875  Q 18.109375 38.09375 18.109375 28.8125  L 18.109375 0  L 9.078125 0  L 9.078125 54.6875  L 18.109375 54.6875  L 18.109375 46.1875  Q 20.953125 51.171875 25.484375 53.578125  Q 30.03125 56 36.53125 56  Q 37.453125 56 38.578125 55.875  Q 39.703125 55.765625 41.0625 55.515625  z "
             id="DejaVuSans-72" />
          <path
             d="M 9.8125 72.90625  L 51.703125 72.90625  L 51.703125 64.59375  L 19.671875 64.59375  L 19.671875 43.109375  L 48.578125 43.109375  L 48.578125 34.8125  L 19.671875 34.8125  L 19.671875 0  L 9.8125 0  z "
             id="DejaVuSans-46" />
          <path
             d="M 34.28125 27.484375  Q 23.390625 27.484375 19.1875 25  Q 14.984375 22.515625 14.984375 16.5  Q 14.984375 11.71875 18.140625 8.90625  Q 21.296875 6.109375 26.703125 6.109375  Q 34.1875 6.109375 38.703125 11.40625  Q 43.21875 16.703125 43.21875 25.484375  L 43.21875 27.484375  z M 52.203125 31.203125  L 52.203125 0  L 43.21875 0  L 43.21875 8.296875  Q 40.140625 3.328125 35.546875 0.953125  Q 30.953125 -1.421875 24.3125 -1.421875  Q 15.921875 -1.421875 10.953125 3.296875  Q 6 8.015625 6 15.921875  Q 6 25.140625 12.171875 29.828125  Q 18.359375 34.515625 30.609375 34.515625  L 43.21875 34.515625  L 43.21875 35.40625  Q 43.21875 41.609375 39.140625 45  Q 35.0625 48.390625 27.6875 48.390625  Q 23 48.390625 18.546875 47.265625  Q 14.109375 46.140625 10.015625 43.890625  L 10.015625 52.203125  Q 14.9375 54.109375 19.578125 55.046875  Q 24.21875 56 28.609375 56  Q 40.484375 56 46.34375 49.84375  Q 52.203125 43.703125 52.203125 31.203125  "
             id="DejaVuSans-61" />
          <path
             d="M 4.890625 31.390625  L 31.203125 31.390625  L 31.203125 23.390625  L 4.890625 23.390625  z "
             id="DejaVuSans-2d" />
          <path
             d="M 18.109375 8.203125  L 18.109375 -20.796875  L 9.078125 -20.796875  L 9.078125 54.6875  L 18.109375 54.6875  L 18.109375 46.390625  Q 20.953125 51.265625 25.265625 53.625  Q 29.59375 56 35.59375 56  Q 45.5625 56 51.78125 48.09375  Q 58.015625 40.1875 58.015625 27.296875  Q 58.015625 14.40625 51.78125 6.484375  Q 45.5625 -1.421875 35.59375 -1.421875  Q 29.59375 -1.421875 25.265625 0.953125  Q 20.953125 3.328125 18.109375 8.203125  M 48.6875 27.296875  Q 48.6875 37.203125 44.609375 42.84375  Q 40.53125 48.484375 33.40625 48.484375  Q 26.265625 48.484375 22.1875 42.84375  Q 18.109375 37.203125 18.109375 27.296875  Q 18.109375 17.390625 22.1875 11.75  Q 26.265625 6.109375 33.40625 6.109375  Q 40.53125 6.109375 44.609375 11.75  Q 48.6875 17.390625 48.6875 27.296875  "
             id="DejaVuSans-70" />
          <path
             d="M 9.421875 75.984375  L 18.40625 75.984375  L 18.40625 0  L 9.421875 0  z "
             id="DejaVuSans-6c" />
        </defs>
        <g
           transform="translate(72.947812 35.472)scale(0.12 -0.12)"
           id="g241">
          <use
             xlink:href="#DejaVuSans-52"
             id="use243" />
          <use
             x="69.419922"
             xlink:href="#DejaVuSans-65"
             id="use245" />
          <use
             x="130.943359"
             xlink:href="#DejaVuSans-67"
             id="use247" />
          <use
             x="194.419922"
             xlink:href="#DejaVuSans-69"
             id="use249" />
          <use
             x="222.203125"
             xlink:href="#DejaVuSans-6f"
             id="use251" />
          <use
             x="283.384766"
             xlink:href="#DejaVuSans-6e"
             id="use253" />
          <use
             x="346.763672"
             xlink:href="#DejaVuSans-20"
             id="use255" />
          <use
             x="378.550781"
             xlink:href="#DejaVuSans-6f"
             id="use257" />
          <use
             x="439.732422"
             xlink:href="#DejaVuSans-66"
             id="use259" />
          <use
             x="474.9375"
             xlink:href="#DejaVuSans-20"
             id="use261" />
          <use
             x="506.724609"
             xlink:href="#DejaVuSans-69"
             id="use263" />
          <use
             x="534.507812"
             xlink:href="#DejaVuSans-6e"
             id="use265" />
          <use
             x="597.886719"
             xlink:href="#DejaVuSans-63"
             id="use267" />
          <use
             x="652.867188"
             xlink:href="#DejaVuSans-6f"
             id="use269" />
          <use
             x="714.048828"
             xlink:href="#DejaVuSans-6e"
             id="use271" />
          <use
             x="777.427734"
             xlink:href="#DejaVuSans-73"
             id="use273" />
          <use
             x="829.527344"
             xlink:href="#DejaVuSans-69"
             id="use275" />
          <use
             x="857.310547"
             xlink:href="#DejaVuSans-73"
             id="use277" />
          <use
             x="909.410156"
             xlink:href="#DejaVuSans-74"
             id="use279" />
          <use
             x="948.619141"
             xlink:href="#DejaVuSans-65"
             id="use281" />
          <use
             x="1010.142578"
             xlink:href="#DejaVuSans-6e"
             id="use283" />
          <use
             x="1073.521484"
             xlink:href="#DejaVuSans-63"
             id="use285" />
          <use
             x="1128.501953"
             xlink:href="#DejaVuSans-79"
             id="use287" />
          <use
             x="1187.681641"
             xlink:href="#DejaVuSans-20"
             id="use289" />
          <use
             x="1219.46875"
             xlink:href="#DejaVuSans-66"
             id="use291" />
          <use
             x="1254.673828"
             xlink:href="#DejaVuSans-6f"
             id="use293" />
          <use
             x="1315.855469"
             xlink:href="#DejaVuSans-72"
             id="use295" />
          <use
             x="1356.96875"
             xlink:href="#DejaVuSans-20"
             id="use297" />
          <use
             x="1388.755859"
             xlink:href="#DejaVuSans-46"
             id="use299" />
          <use
             x="1446.134766"
             xlink:href="#DejaVuSans-61"
             id="use301" />
          <use
             x="1507.414062"
             xlink:href="#DejaVuSans-72"
             id="use303" />
          <use
             x="1548.511719"
             xlink:href="#DejaVuSans-72"
             id="use305" />
          <use
             x="1589.625"
             xlink:href="#DejaVuSans-69"
             id="use307" />
          <use
             x="1617.408203"
             xlink:href="#DejaVuSans-73"
             id="use309" />
          <use
             x="1669.507812"
             xlink:href="#DejaVuSans-2d"
             id="use311" />
          <use
             x="1705.591797"
             xlink:href="#DejaVuSans-67"
             id="use313" />
          <use
             x="1769.068359"
             xlink:href="#DejaVuSans-65"
             id="use315" />
          <use
             x="1830.591797"
             xlink:href="#DejaVuSans-6e"
             id="use317" />
          <use
             x="1893.970703"
             xlink:href="#DejaVuSans-65"
             id="use319" />
          <use
             x="1955.494141"
             xlink:href="#DejaVuSans-72"
             id="use321" />
          <use
             x="1996.607422"
             xlink:href="#DejaVuSans-61"
             id="use323" />
          <use
             x="2057.886719"
             xlink:href="#DejaVuSans-74"
             id="use325" />
          <use
             x="2097.095703"
             xlink:href="#DejaVuSans-69"
             id="use327" />
          <use
             x="2124.878906"
             xlink:href="#DejaVuSans-6e"
             id="use329" />
          <use
             x="2188.257812"
             xlink:href="#DejaVuSans-67"
             id="use331" />
          <use
             x="2251.734375"
             xlink:href="#DejaVuSans-20"
             id="use333" />
          <use
             x="2283.521484"
             xlink:href="#DejaVuSans-74"
             id="use335" />
          <use
             x="2322.730469"
             xlink:href="#DejaVuSans-6f"
             id="use337" />
          <use
             x="2383.912109"
             xlink:href="#DejaVuSans-70"
             id="use339" />
          <use
             x="2447.388672"
             xlink:href="#DejaVuSans-6f"
             id="use341" />
          <use
             x="2508.570312"
             xlink:href="#DejaVuSans-6c"
             id="use343" />
          <use
             x="2536.353516"
             xlink:href="#DejaVuSans-6f"
             id="use345" />
          <use
             x="2597.535156"
             xlink:href="#DejaVuSans-67"
             id="use347" />
          <use
             x="2661.011719"
             xlink:href="#DejaVuSans-79"
             id="use349" />
        </g>
      </g>
    </g>
  </g>
  <defs
     id="defs351">
    <clipPath
       id="p88be2d7539">
      <rect
         height="266.112"
         width="357.12"
         x="57.6"
         y="41.472"
         id="rect354" />
    </clipPath>
  </defs>
  <path
     style="fill:#cccccc;stroke-linecap:butt;stroke-linejoin:round"
     d="m 73.11864,321.88851 0,-61.97024 4.352759,-0.46614 c 9.317441,-0.99781 45.029981,0.8296 63.806451,3.26498 59.96711,7.77796 105.30594,30.26407 129.70353,64.32738 9.58363,13.38042 16.93662,32.0136 18.21331,46.15428 0.22457,2.48732 0.56866,5.90336 0.76465,7.59119 l 0.35634,3.06878 -108.59852,0 -108.59852,0 0,-61.97023 z"
     id="path3341"
     inkscape:connector-curvature="0"
     transform="scale(0.8,0.8)" />
  <rect
     style="fill:#cccccc;stroke-linecap:butt;stroke-linejoin:round"
     id="rect3343"
     width="13.438025"
     height="6.7190123"
     x="275.52896"
     y="57.632999" />
  <text
     xml:space="preserve"
     style="font-size:8px;font-style:normal;font-weight:normal;line-height:125%;letter-spacing:0px;word-spacing:0px;fill:#000000;fill-opacity:1;stroke:none;font-family:Sans"
     x="296.15338"
     y="63.835163"
     id="text3345"
     sodipodi:linespacing="125%"><tspan
       sodipodi:role="line"
       id="tspan3347"
       x="296.15338"
       y="63.835163">Joint inference inconsistent</tspan></text>
</svg>
