<?xml version="1.0" encoding="utf-8" standalone="no"?>
<!DOCTYPE svg PUBLIC "-//W3C//DTD SVG 1.1//EN"
  "http://www.w3.org/Graphics/SVG/1.1/DTD/svg11.dtd">
<!-- Created with matplotlib (http://matplotlib.org/) -->
<svg height="396pt" version="1.1" viewBox="0 0 576 396" width="576pt" xmlns="http://www.w3.org/2000/svg" xmlns:xlink="http://www.w3.org/1999/xlink">
 <defs>
  <style type="text/css">
*{stroke-linecap:butt;stroke-linejoin:round;}
  </style>
 </defs>
 <g id="figure_1">
  <g id="patch_1">
   <path d="M 0 396 
L 576 396 
L 576 0 
L 0 0 
z
" style="fill:#ffffff;"/>
  </g>
  <g id="axes_1">
   <g id="patch_2">
    <path d="M 72 352.44 
L 518.4 352.44 
L 518.4 47.52 
L 72 47.52 
z
" style="fill:#ffffff;"/>
   </g>
   <g id="matplotlib.axis_1">
    <g id="xtick_1">
     <g id="line2d_1">
      <defs>
       <path d="M 0 0 
L 0 6 
" id="m17aa225f60" style="stroke:#262626;"/>
      </defs>
      <g>
       <use style="fill:#262626;stroke:#262626;" x="71.552705" xlink:href="#m17aa225f60" y="352.44"/>
      </g>
     </g>
     <g id="text_1">
      <!-- $0.0$ -->
      <defs>
       <path d="M 42 31.640625 
C 42 37.75 41.90625 48.125 37.703125 56.109375 
C 34 63.109375 28.09375 65.59375 22.90625 65.59375 
C 18.09375 65.59375 12 63.40625 8.203125 56.203125 
C 4.203125 48.71875 3.796875 39.4375 3.796875 31.640625 
C 3.796875 25.953125 3.90625 17.28125 7 9.671875 
C 11.296875 -0.609375 19 -2 22.90625 -2 
C 27.5 -2 34.5 -0.109375 38.59375 9.375 
C 41.59375 16.28125 42 24.359375 42 31.640625 
M 22.90625 -0.40625 
C 16.5 -0.40625 12.703125 5.078125 11.296875 12.6875 
C 10.203125 18.5625 10.203125 27.15625 10.203125 32.75 
C 10.203125 40.4375 10.203125 46.828125 11.5 52.921875 
C 13.40625 61.390625 19 64 22.90625 64 
C 27 64 32.296875 61.296875 34.203125 53.125 
C 35.5 47.4375 35.59375 40.734375 35.59375 32.75 
C 35.59375 26.25 35.59375 18.265625 34.40625 12.375 
C 32.296875 1.484375 26.40625 -0.40625 22.90625 -0.40625 
" id="CMR17-48"/>
       <path d="M 18.40625 4.796875 
C 18.40625 7.6875 16 9.671875 13.59375 9.671875 
C 10.703125 9.671875 8.703125 7.28125 8.703125 4.890625 
C 8.703125 2 11.09375 0 13.5 0 
C 16.40625 0 18.40625 2.390625 18.40625 4.796875 
" id="CMMI12-58"/>
      </defs>
      <g style="fill:#262626;" transform="translate(65.187666 372.358498)scale(0.1 -0.1)">
       <use transform="scale(0.996264)" xlink:href="#CMR17-48"/>
       <use transform="translate(45.690477 0)scale(0.996264)" xlink:href="#CMMI12-58"/>
       <use transform="translate(72.787654 0)scale(0.996264)" xlink:href="#CMR17-48"/>
      </g>
     </g>
    </g>
    <g id="xtick_2">
     <g id="line2d_2">
      <g>
       <use style="fill:#262626;stroke:#262626;" x="161.011623" xlink:href="#m17aa225f60" y="352.44"/>
      </g>
     </g>
     <g id="text_2">
      <!-- $0.2$ -->
      <defs>
       <path d="M 41.703125 15.453125 
L 39.90625 15.453125 
C 38.90625 8.375 38.09375 7.171875 37.703125 6.5625 
C 37.203125 5.765625 30 5.765625 28.59375 5.765625 
L 9.40625 5.765625 
C 13 9.671875 20 16.75 28.5 24.953125 
C 34.59375 30.734375 41.703125 37.53125 41.703125 47.421875 
C 41.703125 59.21875 32.296875 66 21.796875 66 
C 10.796875 66 4.09375 56.3125 4.09375 47.34375 
C 4.09375 43.4375 7 42.9375 8.203125 42.9375 
C 9.203125 42.9375 12.203125 43.546875 12.203125 47.03125 
C 12.203125 50.109375 9.59375 51 8.203125 51 
C 7.59375 51 7 50.90625 6.59375 50.703125 
C 8.5 59.21875 14.296875 63.40625 20.40625 63.40625 
C 29.09375 63.40625 34.796875 56.515625 34.796875 47.421875 
C 34.796875 38.734375 29.703125 31.25 24 24.75 
L 4.09375 2.28125 
L 4.09375 0 
L 39.296875 0 
z
" id="CMR17-50"/>
      </defs>
      <g style="fill:#262626;" transform="translate(154.646584 372.358498)scale(0.1 -0.1)">
       <use transform="scale(0.996264)" xlink:href="#CMR17-48"/>
       <use transform="translate(45.690477 0)scale(0.996264)" xlink:href="#CMMI12-58"/>
       <use transform="translate(72.787654 0)scale(0.996264)" xlink:href="#CMR17-50"/>
      </g>
     </g>
    </g>
    <g id="xtick_3">
     <g id="line2d_3">
      <g>
       <use style="fill:#262626;stroke:#262626;" x="250.470541" xlink:href="#m17aa225f60" y="352.44"/>
      </g>
     </g>
     <g id="text_3">
      <!-- $0.4$ -->
      <defs>
       <path d="M 33.59375 64.40625 
C 33.59375 66.5 33.5 66.5 31.703125 66.5 
L 2 19.59375 
L 2 17 
L 27.796875 17 
L 27.796875 7.140625 
C 27.796875 3.5 27.59375 2.5 20.59375 2.5 
L 18.703125 2.5 
L 18.703125 0 
C 21.90625 0 27.296875 0 30.703125 0 
C 34.09375 0 39.5 0 42.703125 0 
L 42.703125 2.5 
L 40.796875 2.5 
C 33.796875 2.5 33.59375 3.5 33.59375 7.140625 
L 33.59375 17 
L 43.796875 17 
L 43.796875 19.59375 
L 33.59375 19.59375 
z
M 28.09375 57.859375 
L 28.09375 19.59375 
L 4 19.59375 
z
" id="CMR17-52"/>
      </defs>
      <g style="fill:#262626;" transform="translate(244.105502 372.358498)scale(0.1 -0.1)">
       <use transform="scale(0.996264)" xlink:href="#CMR17-48"/>
       <use transform="translate(45.690477 0)scale(0.996264)" xlink:href="#CMMI12-58"/>
       <use transform="translate(72.787654 0)scale(0.996264)" xlink:href="#CMR17-52"/>
      </g>
     </g>
    </g>
    <g id="xtick_4">
     <g id="line2d_4">
      <g>
       <use style="fill:#262626;stroke:#262626;" x="339.929459" xlink:href="#m17aa225f60" y="352.44"/>
      </g>
     </g>
     <g id="text_4">
      <!-- $0.6$ -->
      <defs>
       <path d="M 10.59375 34 
C 10.59375 57.65625 21.796875 63 28.296875 63 
C 30.40625 63 35.5 62.640625 37.5 59 
C 35.90625 59 32.90625 59 32.90625 55.515625 
C 32.90625 52.828125 35.09375 51.921875 36.5 51.921875 
C 37.40625 51.921875 40.09375 52.3125 40.09375 55.625 
C 40.09375 61.78125 35.09375 65.296875 28.203125 65.296875 
C 16.296875 65.296875 3.796875 52.96875 3.796875 31 
C 3.796875 3.953125 15.09375 -2 23.09375 -2 
C 32.796875 -2 42 6.671875 42 20.046875 
C 42 32.515625 33.90625 41.59375 23.703125 41.59375 
C 17.59375 41.59375 13.09375 37.609375 10.59375 30.625 
z
M 23.09375 0.390625 
C 10.796875 0.390625 10.796875 18.75 10.796875 22.4375 
C 10.796875 29.625 14.203125 40 23.5 40 
C 25.203125 40 30.09375 40 33.40625 33.125 
C 35.203125 29.21875 35.203125 25.140625 35.203125 20.140625 
C 35.203125 14.75 35.203125 10.78125 33.09375 6.78125 
C 30.90625 2.671875 27.703125 0.390625 23.09375 0.390625 
" id="CMR17-54"/>
      </defs>
      <g style="fill:#262626;" transform="translate(333.564419 372.358498)scale(0.1 -0.1)">
       <use transform="scale(0.996264)" xlink:href="#CMR17-48"/>
       <use transform="translate(45.690477 0)scale(0.996264)" xlink:href="#CMMI12-58"/>
       <use transform="translate(72.787654 0)scale(0.996264)" xlink:href="#CMR17-54"/>
      </g>
     </g>
    </g>
    <g id="xtick_5">
     <g id="line2d_5">
      <g>
       <use style="fill:#262626;stroke:#262626;" x="429.388377" xlink:href="#m17aa225f60" y="352.44"/>
      </g>
     </g>
     <g id="text_5">
      <!-- $0.8$ -->
      <defs>
       <path d="M 27.203125 35.375 
C 33.5 38.546875 39.90625 43.328125 39.90625 50.984375 
C 39.90625 60.015625 31.09375 65.296875 23 65.296875 
C 13.90625 65.296875 5.90625 58.734375 5.90625 49.6875 
C 5.90625 47.203125 6.5 42.921875 10.40625 39.140625 
C 11.40625 38.15625 15.59375 35.171875 18.296875 33.28125 
C 13.796875 30.984375 3.296875 25.53125 3.296875 14.59375 
C 3.296875 4.359375 13.09375 -2 22.796875 -2 
C 33.5 -2 42.5 5.65625 42.5 15.78125 
C 42.5 24.84375 36.40625 29.015625 32.40625 31.703125 
z
M 14.09375 44.09375 
C 13.296875 44.59375 9.296875 47.671875 9.296875 52.359375 
C 9.296875 58.421875 15.59375 63 22.796875 63 
C 30.703125 63 36.5 57.4375 36.5 50.96875 
C 36.5 41.703125 26.09375 36.421875 25.59375 36.421875 
C 25.5 36.421875 25.40625 36.421875 24.59375 37.03125 
z
M 32.5 23.734375 
C 34 22.640625 38.796875 19.375 38.796875 13.296875 
C 38.796875 5.953125 31.40625 0.390625 23 0.390625 
C 13.90625 0.390625 7 6.84375 7 14.6875 
C 7 22.546875 13.09375 29.09375 20 32.1875 
z
" id="CMR17-56"/>
      </defs>
      <g style="fill:#262626;" transform="translate(423.023337 372.358498)scale(0.1 -0.1)">
       <use transform="scale(0.996264)" xlink:href="#CMR17-48"/>
       <use transform="translate(45.690477 0)scale(0.996264)" xlink:href="#CMMI12-58"/>
       <use transform="translate(72.787654 0)scale(0.996264)" xlink:href="#CMR17-56"/>
      </g>
     </g>
    </g>
    <g id="xtick_6">
     <g id="line2d_6">
      <g>
       <use style="fill:#262626;stroke:#262626;" x="518.847295" xlink:href="#m17aa225f60" y="352.44"/>
      </g>
     </g>
     <g id="text_6">
      <!-- $1.0$ -->
      <defs>
       <path d="M 26.59375 63.40625 
C 26.59375 65.5 26.5 65.5 25.09375 65.5 
C 21.203125 61.1875 15.296875 59.796875 9.703125 59.796875 
C 9.40625 59.796875 8.90625 59.796875 8.796875 59.5 
C 8.703125 59.296875 8.703125 59.09375 8.703125 57 
C 11.796875 57 17 57.59375 21 59.984375 
L 21 7.203125 
C 21 3.6875 20.796875 2.5 12.203125 2.5 
L 9.203125 2.5 
L 9.203125 0 
C 14 0 19 0 23.796875 0 
C 28.59375 0 33.59375 0 38.40625 0 
L 38.40625 2.5 
L 35.40625 2.5 
C 26.796875 2.5 26.59375 3.59375 26.59375 7.15625 
z
" id="CMR17-49"/>
      </defs>
      <g style="fill:#262626;" transform="translate(512.482255 372.358498)scale(0.1 -0.1)">
       <use transform="scale(0.996264)" xlink:href="#CMR17-49"/>
       <use transform="translate(45.690477 0)scale(0.996264)" xlink:href="#CMMI12-58"/>
       <use transform="translate(72.787654 0)scale(0.996264)" xlink:href="#CMR17-48"/>
      </g>
     </g>
    </g>
    <g id="text_7">
     <!-- $x$ -->
     <defs>
      <path d="M 47.40625 40.71875 
C 44.203125 40.109375 43 37.71875 43 35.828125 
C 43 33.421875 44.90625 32.625 46.296875 32.625 
C 49.296875 32.625 51.40625 35.21875 51.40625 37.921875 
C 51.40625 42.109375 46.59375 44 42.40625 44 
C 36.296875 44 32.90625 38.015625 32 36.125 
C 29.703125 44 23.5 44 21.703125 44 
C 11.5 44 6.09375 30.9375 6.09375 28.734375 
C 6.09375 28.34375 6.5 27.84375 7.203125 27.84375 
C 8 27.84375 8.203125 28.4375 8.40625 28.84375 
C 11.796875 39.921875 18.5 42.015625 21.40625 42.015625 
C 25.90625 42.015625 26.796875 37.8125 26.796875 35.421875 
C 26.796875 33.234375 26.203125 30.9375 25 26.140625 
L 21.59375 12.46875 
C 20.09375 6.484375 17.203125 1 11.90625 1 
C 11.40625 1 8.90625 1 6.796875 2.296875 
C 10.40625 3 11.203125 5.984375 11.203125 7.1875 
C 11.203125 9.1875 9.703125 10.375 7.796875 10.375 
C 5.40625 10.375 2.796875 8.28125 2.796875 5.09375 
C 2.796875 0.890625 7.5 -1 11.796875 -1 
C 16.59375 -1 20 2.796875 22.09375 6.890625 
C 23.703125 1 28.703125 -1 32.40625 -1 
C 42.59375 -1 48 12.078125 48 14.265625 
C 48 14.765625 47.59375 15.171875 47 15.171875 
C 46.09375 15.171875 46 14.671875 45.703125 13.875 
C 43 5.09375 37.203125 1 32.703125 1 
C 29.203125 1 27.296875 3.59375 27.296875 7.6875 
C 27.296875 9.875 27.703125 11.46875 29.296875 18.0625 
L 32.796875 31.625 
C 34.296875 37.625 37.703125 42.015625 42.296875 42.015625 
C 42.5 42.015625 45.296875 42.015625 47.40625 40.71875 
" id="CMMI12-120"/>
     </defs>
     <g style="fill:#262626;" transform="translate(290.765275 389.365265)scale(0.16 -0.16)">
      <use transform="scale(0.996264)" xlink:href="#CMMI12-120"/>
     </g>
    </g>
   </g>
   <g id="matplotlib.axis_2">
    <g id="ytick_1">
     <g id="line2d_7">
      <defs>
       <path d="M 0 0 
L -6 0 
" id="m633e5aa173" style="stroke:#262626;"/>
      </defs>
      <g>
       <use style="fill:#262626;stroke:#262626;" x="72" xlink:href="#m633e5aa173" y="352.745531"/>
      </g>
     </g>
     <g id="text_8">
      <!-- $0.0$ -->
      <g style="fill:#262626;" transform="translate(46.269921 356.20478)scale(0.1 -0.1)">
       <use transform="scale(0.996264)" xlink:href="#CMR17-48"/>
       <use transform="translate(45.690477 0)scale(0.996264)" xlink:href="#CMMI12-58"/>
       <use transform="translate(72.787654 0)scale(0.996264)" xlink:href="#CMR17-48"/>
      </g>
     </g>
    </g>
    <g id="ytick_2">
     <g id="line2d_8">
      <g>
       <use style="fill:#262626;stroke:#262626;" x="72" xlink:href="#m633e5aa173" y="291.639319"/>
      </g>
     </g>
     <g id="text_9">
      <!-- $0.2$ -->
      <g style="fill:#262626;" transform="translate(46.269921 295.098568)scale(0.1 -0.1)">
       <use transform="scale(0.996264)" xlink:href="#CMR17-48"/>
       <use transform="translate(45.690477 0)scale(0.996264)" xlink:href="#CMMI12-58"/>
       <use transform="translate(72.787654 0)scale(0.996264)" xlink:href="#CMR17-50"/>
      </g>
     </g>
    </g>
    <g id="ytick_3">
     <g id="line2d_9">
      <g>
       <use style="fill:#262626;stroke:#262626;" x="72" xlink:href="#m633e5aa173" y="230.533106"/>
      </g>
     </g>
     <g id="text_10">
      <!-- $0.4$ -->
      <g style="fill:#262626;" transform="translate(46.269921 233.992355)scale(0.1 -0.1)">
       <use transform="scale(0.996264)" xlink:href="#CMR17-48"/>
       <use transform="translate(45.690477 0)scale(0.996264)" xlink:href="#CMMI12-58"/>
       <use transform="translate(72.787654 0)scale(0.996264)" xlink:href="#CMR17-52"/>
      </g>
     </g>
    </g>
    <g id="ytick_4">
     <g id="line2d_10">
      <g>
       <use style="fill:#262626;stroke:#262626;" x="72" xlink:href="#m633e5aa173" y="169.426894"/>
      </g>
     </g>
     <g id="text_11">
      <!-- $0.6$ -->
      <g style="fill:#262626;" transform="translate(46.269921 172.886143)scale(0.1 -0.1)">
       <use transform="scale(0.996264)" xlink:href="#CMR17-48"/>
       <use transform="translate(45.690477 0)scale(0.996264)" xlink:href="#CMMI12-58"/>
       <use transform="translate(72.787654 0)scale(0.996264)" xlink:href="#CMR17-54"/>
      </g>
     </g>
    </g>
    <g id="ytick_5">
     <g id="line2d_11">
      <g>
       <use style="fill:#262626;stroke:#262626;" x="72" xlink:href="#m633e5aa173" y="108.320681"/>
      </g>
     </g>
     <g id="text_12">
      <!-- $0.8$ -->
      <g style="fill:#262626;" transform="translate(46.269921 111.779931)scale(0.1 -0.1)">
       <use transform="scale(0.996264)" xlink:href="#CMR17-48"/>
       <use transform="translate(45.690477 0)scale(0.996264)" xlink:href="#CMMI12-58"/>
       <use transform="translate(72.787654 0)scale(0.996264)" xlink:href="#CMR17-56"/>
      </g>
     </g>
    </g>
    <g id="ytick_6">
     <g id="line2d_12">
      <g>
       <use style="fill:#262626;stroke:#262626;" x="72" xlink:href="#m633e5aa173" y="47.214469"/>
      </g>
     </g>
     <g id="text_13">
      <!-- $1.0$ -->
      <g style="fill:#262626;" transform="translate(46.269921 50.673718)scale(0.1 -0.1)">
       <use transform="scale(0.996264)" xlink:href="#CMR17-49"/>
       <use transform="translate(45.690477 0)scale(0.996264)" xlink:href="#CMMI12-58"/>
       <use transform="translate(72.787654 0)scale(0.996264)" xlink:href="#CMR17-48"/>
      </g>
     </g>
    </g>
    <g id="text_14">
     <!-- $y$ -->
     <defs>
      <path d="M 26.296875 -10.9375 
C 23.59375 -14.671875 19.703125 -18 14.796875 -18 
C 13.59375 -18 8.796875 -18 7.296875 -13.890625 
C 7.59375 -13.984375 8.09375 -13.984375 8.296875 -13.984375 
C 11.296875 -13.984375 13.296875 -11.390625 13.296875 -9.09375 
C 13.296875 -6.796875 11.40625 -6 9.90625 -6 
C 8.296875 -6 4.796875 -7.15625 4.796875 -11.859375 
C 4.796875 -16.734375 9.09375 -20.09375 14.796875 -20.09375 
C 24.796875 -20.09375 34.90625 -10.9375 37.703125 0.09375 
L 47.5 38.828125 
C 47.59375 39.328125 47.796875 39.9375 47.796875 40.53125 
C 47.796875 42.015625 46.59375 43.015625 45.09375 43.015625 
C 44.203125 43.015625 42.09375 42.609375 41.296875 39.609375 
L 33.90625 10.28125 
C 33.40625 8.484375 33.40625 8.28125 32.59375 7.1875 
C 30.59375 4.390625 27.296875 1 22.5 1 
C 16.90625 1 16.40625 6.484375 16.40625 9.1875 
C 16.40625 14.875 19.09375 22.546875 21.796875 29.734375 
C 22.90625 32.625 23.5 34.03125 23.5 36.015625 
C 23.5 40.21875 20.5 44 15.59375 44 
C 6.40625 44 2.703125 29.53125 2.703125 28.734375 
C 2.703125 28.34375 3.09375 27.84375 3.796875 27.84375 
C 4.703125 27.84375 4.796875 28.234375 5.203125 29.640625 
C 7.59375 38.015625 11.40625 42.015625 15.296875 42.015625 
C 16.203125 42.015625 17.90625 42.015625 17.90625 38.71875 
C 17.90625 36.125 16.796875 33.234375 15.296875 29.4375 
C 10.40625 16.359375 10.40625 13.078125 10.40625 10.671875 
C 10.40625 1.203125 17.203125 -1 22.203125 -1 
C 25.09375 -1 28.703125 -0.09375 32.203125 3.59375 
L 32.296875 3.5 
C 30.796875 -2.296875 29.796875 -6.125 26.296875 -10.9375 
" id="CMMI12-121"/>
     </defs>
     <g style="fill:#262626;" transform="translate(39.170445 203.785135)rotate(-90)scale(0.16 -0.16)">
      <use transform="scale(0.996264)" xlink:href="#CMMI12-121"/>
     </g>
    </g>
   </g>
   <g id="PolyCollection_1">
    <defs>
     <path d="M 518.4 -43.56 
L 518.4 -190.21202 
L 518.376792 -190.21491 
L 517.952705 -190.267846 
L 517.505411 -190.323963 
L 517.058116 -190.380374 
L 516.610822 -190.437081 
L 516.163527 -190.494084 
L 515.957497 -190.520441 
L 515.716232 -190.551386 
L 515.268938 -190.60899 
L 514.821643 -190.666895 
L 514.374349 -190.725103 
L 513.927054 -190.783616 
L 513.604719 -190.825972 
L 513.47976 -190.842435 
L 513.032465 -190.901565 
L 512.58517 -190.961004 
L 512.137876 -191.020754 
L 511.690581 -191.080816 
L 511.314915 -191.131503 
L 511.243287 -191.141193 
L 510.795992 -191.20189 
L 510.348697 -191.262904 
L 509.901403 -191.324237 
L 509.454108 -191.385891 
L 509.084833 -191.437034 
L 509.006814 -191.447869 
L 508.559519 -191.510175 
L 508.112224 -191.572807 
L 507.66493 -191.635766 
L 507.217635 -191.699055 
L 506.911477 -191.742565 
L 506.770341 -191.762678 
L 506.323046 -191.826637 
L 505.875752 -191.890931 
L 505.428457 -191.955562 
L 504.981162 -192.020531 
L 504.792086 -192.048096 
L 504.533868 -192.085845 
L 504.086573 -192.151504 
L 503.639279 -192.217507 
L 503.191984 -192.283855 
L 502.744689 -192.350551 
L 502.724116 -192.353627 
L 502.297395 -192.417605 
L 501.8501 -192.485011 
L 501.402806 -192.55277 
L 500.955511 -192.620884 
L 500.705187 -192.659158 
L 500.508216 -192.68936 
L 500.060922 -192.7582 
L 499.613627 -192.827402 
L 499.166333 -192.896967 
L 498.733127 -192.964689 
L 498.719038 -192.966898 
L 498.271743 -193.037206 
L 497.824449 -193.107884 
L 497.377154 -193.178933 
L 496.92986 -193.250356 
L 496.805866 -193.27022 
L 496.482565 -193.322163 
L 496.035271 -193.394351 
L 495.587976 -193.466919 
L 495.140681 -193.53987 
L 494.921519 -193.575752 
L 494.693387 -193.613211 
L 494.246092 -193.686944 
L 493.798798 -193.761067 
L 493.351503 -193.83558 
L 493.078305 -193.881283 
L 492.904208 -193.910492 
L 492.456914 -193.985808 
L 492.009619 -194.061522 
L 491.562325 -194.137636 
L 491.274559 -194.186814 
L 491.11503 -194.214157 
L 490.667735 -194.291094 
L 490.220441 -194.368437 
L 489.773146 -194.446189 
L 489.50872 -194.492345 
L 489.325852 -194.52436 
L 488.878557 -194.602956 
L 488.431263 -194.681967 
L 487.983968 -194.761398 
L 487.779328 -194.797876 
L 487.536673 -194.841261 
L 487.089379 -194.921555 
L 486.642084 -195.002276 
L 486.19479 -195.083427 
L 486.08501 -195.103407 
L 485.747495 -195.165024 
L 485.3002 -195.247059 
L 484.852906 -195.329532 
L 484.424476 -195.408938 
L 484.405611 -195.412445 
L 483.958317 -195.495821 
L 483.511022 -195.579641 
L 483.063727 -195.663908 
L 482.79647 -195.714469 
L 482.616433 -195.748635 
L 482.169138 -195.833829 
L 481.721844 -195.919478 
L 481.274549 -196.005586 
L 481.199893 -196.02 
L 480.827255 -196.092175 
L 480.37996 -196.179233 
L 479.932665 -196.266757 
L 479.633617 -196.325531 
L 479.485371 -196.35476 
L 479.038076 -196.443253 
L 478.590782 -196.532222 
L 478.143487 -196.621669 
L 478.096646 -196.631062 
L 477.696192 -196.711623 
L 477.248898 -196.802065 
L 476.801603 -196.892994 
L 476.58796 -196.936593 
L 476.354309 -196.98443 
L 475.907014 -197.076374 
L 475.459719 -197.168815 
L 475.106684 -197.242124 
L 475.012425 -197.261762 
L 474.56513 -197.355238 
L 474.117836 -197.44922 
L 473.670541 -197.543712 
L 473.651924 -197.547655 
L 473.223246 -197.63875 
L 472.775952 -197.734305 
L 472.328657 -197.83038 
L 472.222811 -197.853186 
L 471.881363 -197.927005 
L 471.434068 -198.024165 
L 470.986774 -198.121854 
L 470.818591 -198.158717 
L 470.539479 -198.220101 
L 470.092184 -198.318899 
L 469.64489 -198.418236 
L 469.438504 -198.464248 
L 469.197595 -198.51814 
L 468.750301 -198.618609 
L 468.303006 -198.719629 
L 468.081827 -198.76978 
L 467.855711 -198.821225 
L 467.408417 -198.923401 
L 466.961122 -199.026139 
L 466.747875 -199.075311 
L 466.513828 -199.129466 
L 466.066533 -199.233384 
L 465.619238 -199.337875 
L 465.435994 -199.380842 
L 465.171944 -199.442972 
L 464.724649 -199.548669 
L 464.277355 -199.654951 
L 464.14556 -199.686373 
L 463.83006 -199.761858 
L 463.382766 -199.869372 
L 462.935471 -199.977484 
L 462.875981 -199.991904 
L 462.488176 -200.086242 
L 462.040882 -200.195613 
L 461.626673 -200.297435 
L 461.593587 -200.305597 
L 461.146293 -200.416247 
L 460.698998 -200.527515 
L 460.397068 -200.602966 
L 460.251703 -200.639424 
L 459.804409 -200.751999 
L 459.357114 -200.865204 
L 459.186685 -200.908497 
L 458.90982 -200.979084 
L 458.462525 -201.093626 
L 458.01523 -201.208813 
L 457.995034 -201.214028 
L 457.567936 -201.324711 
L 457.120641 -201.441265 
L 456.821551 -201.519559 
L 456.673347 -201.5585 
L 456.226052 -201.676443 
L 455.778758 -201.795053 
L 455.665858 -201.82509 
L 455.331463 -201.91439 
L 454.884168 -202.034421 
L 454.527477 -202.130621 
L 454.436874 -202.15515 
L 453.989579 -202.276625 
L 453.542285 -202.398793 
L 453.405973 -202.436152 
L 453.09499 -202.521711 
L 452.647695 -202.645357 
L 452.30096 -202.741683 
L 452.200401 -202.769727 
L 451.753106 -202.894874 
L 451.305812 -203.020739 
L 451.212025 -203.047214 
L 450.858517 -203.147395 
L 450.411222 -203.274797 
L 450.13878 -203.352745 
L 449.963928 -203.402969 
L 449.516633 -203.531934 
L 449.080917 -203.658277 
L 449.069339 -203.661647 
L 448.622044 -203.792201 
L 448.174749 -203.923513 
L 448.037975 -203.963808 
L 447.727455 -204.055654 
L 447.28016 -204.188593 
L 447.009702 -204.269339 
L 446.832866 -204.322346 
L 446.385571 -204.45694 
L 445.995771 -204.57487 
L 445.938277 -204.592335 
L 445.490982 -204.728613 
L 445.043687 -204.86569 
L 444.995823 -204.880401 
L 444.596393 -205.003669 
L 444.149098 -205.142471 
L 444.009546 -205.185932 
L 443.701804 -205.282169 
L 443.254509 -205.422726 
L 443.036684 -205.491463 
L 442.807214 -205.564175 
L 442.35992 -205.706519 
L 442.076945 -205.796994 
L 441.912625 -205.849752 
L 441.465331 -205.993913 
L 441.13005 -206.102525 
L 441.018036 -206.138965 
L 440.570741 -206.284976 
L 440.19573 -206.408056 
L 440.123447 -206.431881 
L 439.676152 -206.579775 
L 439.273725 -206.713587 
L 439.228858 -206.72857 
L 438.781563 -206.878381 
L 438.363782 -207.019118 
L 438.334269 -207.029104 
L 437.886974 -207.180866 
L 437.46566 -207.324649 
L 437.439679 -207.333555 
L 436.992385 -207.487304 
L 436.579124 -207.63018 
L 436.54509 -207.641999 
L 436.097796 -207.797773 
L 435.703949 -207.935711 
L 435.650501 -207.954514 
L 435.203206 -208.112349 
L 434.839916 -208.241242 
L 434.755912 -208.27118 
L 434.308617 -208.431115 
L 433.986813 -208.546774 
L 433.861323 -208.59208 
L 433.414028 -208.754154 
L 433.144437 -208.852305 
L 432.966733 -208.917297 
L 432.519439 -209.081552 
L 432.312592 -209.157836 
L 432.072144 -209.246919 
L 431.62485 -209.413396 
L 431.491085 -209.463367 
L 431.177555 -209.581037 
L 430.730261 -209.749778 
L 430.679734 -209.768898 
L 430.282966 -209.919742 
L 429.878322 -210.074429 
L 429.835671 -210.09081 
L 429.388377 -210.26313 
L 429.086661 -210.37996 
L 428.941082 -210.436599 
L 428.493788 -210.611298 
L 428.304627 -210.685491 
L 428.046493 -210.787222 
L 427.599198 -210.964349 
L 427.532061 -210.991022 
L 427.151904 -211.142784 
L 426.768748 -211.296553 
L 426.704609 -211.322419 
L 426.257315 -211.50339 
L 426.014524 -211.602084 
L 425.81002 -211.685623 
L 425.362725 -211.869149 
L 425.269303 -211.907615 
L 424.915431 -212.054042 
L 424.532885 -212.213146 
L 424.468136 -212.24021 
L 424.020842 -212.42779 
L 423.805097 -212.518677 
L 423.573547 -212.616714 
L 423.126253 -212.806986 
L 423.085892 -212.824208 
L 422.678958 -212.998732 
L 422.375005 -213.129739 
L 422.231663 -213.191838 
L 421.784369 -213.386388 
L 421.672401 -213.435271 
L 421.337074 -213.582421 
L 420.977913 -213.740802 
L 420.88978 -213.779868 
L 420.442485 -213.978844 
L 420.291392 -214.046333 
L 419.99519 -214.179329 
L 419.612768 -214.351864 
L 419.547896 -214.381286 
L 419.100601 -214.584842 
L 418.941841 -214.657395 
L 418.653307 -214.789955 
L 418.278577 -214.962926 
L 418.206012 -214.996601 
L 417.758717 -215.204899 
L 417.622782 -215.268457 
L 417.311423 -215.414825 
L 416.974401 -215.573988 
L 416.864128 -215.62635 
L 416.416834 -215.839559 
L 416.333303 -215.879519 
L 415.969539 -216.054496 
L 415.699352 -216.18505 
L 415.522244 -216.271102 
L 415.07495 -216.489402 
L 415.072541 -216.490581 
L 414.627655 -216.709561 
L 414.452592 -216.796112 
L 414.180361 -216.931462 
L 413.839573 -217.101643 
L 413.733066 -217.155132 
L 413.285772 -217.380643 
L 413.233326 -217.407174 
L 412.838477 -217.608068 
L 412.633701 -217.712705 
L 412.391182 -217.837344 
L 412.040705 -218.018236 
L 411.943888 -218.068497 
L 411.496593 -218.301599 
L 411.454197 -218.323768 
L 411.049299 -218.536728 
L 410.874033 -218.629299 
L 410.602004 -218.773825 
L 410.300218 -218.93483 
L 410.154709 -219.012922 
L 409.732663 -219.240361 
L 409.707415 -219.254049 
L 409.26012 -219.497334 
L 409.171187 -219.545892 
L 408.812826 -219.742742 
L 408.615774 -219.851423 
L 408.365531 -219.990282 
L 408.066369 -220.156954 
L 407.918236 -220.23999 
L 407.522887 -220.462485 
L 407.470942 -220.4919 
L 407.023647 -220.746096 
L 406.98521 -220.768016 
L 406.576353 -221.00263 
L 406.453249 -221.073547 
L 406.129058 -221.261481 
L 405.926983 -221.379078 
L 405.681764 -221.522689 
L 405.406337 -221.684609 
L 405.234469 -221.786295 
L 404.891239 -221.99014 
L 404.787174 -222.052343 
L 404.381617 -222.295671 
L 404.33988 -222.320876 
L 403.892585 -222.59196 
L 403.877385 -222.601202 
L 403.445291 -222.865673 
L 403.378453 -222.906733 
L 402.997996 -223.142006 
L 402.884798 -223.212265 
L 402.550701 -223.421009 
L 402.396356 -223.517796 
L 402.103407 -223.702731 
L 401.913063 -223.823327 
L 401.656112 -223.987225 
L 401.434858 -224.128858 
L 401.208818 -224.274542 
L 400.961679 -224.434389 
L 400.761523 -224.564739 
L 400.493468 -224.73992 
L 400.314228 -224.857871 
L 400.030167 -225.045451 
L 399.866934 -225.153996 
L 399.571719 -225.350982 
L 399.419639 -225.453174 
L 399.118069 -225.656513 
L 398.972345 -225.755468 
L 398.669162 -225.962044 
L 398.52505 -226.06094 
L 398.224947 -226.267575 
L 398.077756 -226.369655 
L 397.78537 -226.573106 
L 397.630461 -226.681682 
L 397.350383 -226.878637 
L 397.183166 -226.99709 
L 396.919935 -227.184168 
L 396.735872 -227.315951 
L 396.493978 -227.489699 
L 396.288577 -227.638338 
L 396.072465 -227.79523 
L 395.841283 -227.964328 
L 395.655349 -228.100762 
L 395.393988 -228.294 
L 395.242586 -228.406293 
L 394.946693 -228.627435 
L 394.834132 -228.711824 
L 394.499399 -228.964717 
L 394.429942 -229.017355 
L 394.052104 -229.305933 
L 394.029976 -229.322886 
L 393.634157 -229.628417 
L 393.60481 -229.651244 
L 393.242449 -229.933948 
L 393.157515 -230.00074 
L 392.854838 -230.239479 
L 392.71022 -230.354466 
L 392.471285 -230.54501 
L 392.262926 -230.712521 
L 392.091752 -230.850541 
L 391.815631 -231.075008 
L 391.716203 -231.156072 
L 391.368337 -231.442034 
L 391.3446 -231.461603 
L 390.976844 -231.767134 
L 390.921042 -231.813872 
L 390.612933 -232.072665 
L 390.473747 -232.190564 
L 390.252861 -232.378196 
L 390.026453 -232.572164 
L 389.896593 -232.683727 
L 389.579158 -232.958795 
L 389.544099 -232.989259 
L 389.195272 -233.29479 
L 389.131864 -233.350792 
L 388.850109 -233.600321 
L 388.684569 -233.748224 
L 388.508621 -233.905852 
L 388.237275 -234.151118 
L 388.170779 -234.211383 
L 387.836499 -234.516914 
L 387.78998 -234.559786 
L 387.505724 -234.822445 
L 387.342685 -234.974479 
L 387.178506 -235.127976 
L 386.895391 -235.395122 
L 386.854816 -235.433507 
L 386.534526 -235.739038 
L 386.448096 -235.822222 
L 386.21766 -236.044569 
L 386.000802 -236.255806 
L 385.90424 -236.3501 
L 385.594194 -236.655631 
L 385.553507 -236.696068 
L 385.287426 -236.961162 
L 385.106212 -237.14347 
L 384.984028 -237.266693 
L 384.683946 -237.572224 
L 384.658918 -237.597923 
L 384.387037 -237.877756 
L 384.211623 -238.060116 
L 384.093426 -238.183287 
L 383.803043 -238.488818 
L 383.764329 -238.52991 
L 383.515769 -238.794349 
L 383.317034 -239.007968 
L 383.231725 -239.09988 
L 382.950792 -239.405411 
L 382.869739 -239.494394 
L 382.672941 -239.710942 
L 382.422445 -239.989514 
L 382.398257 -240.016473 
L 382.126537 -240.322004 
L 381.97515 -240.494023 
L 381.857912 -240.627535 
L 381.592316 -240.933066 
L 381.527856 -241.007926 
L 381.329663 -241.238597 
L 381.080561 -241.531763 
L 381.070077 -241.544128 
L 380.813324 -241.849659 
L 380.633267 -242.06634 
L 380.559589 -242.15519 
L 380.30872 -242.460721 
L 380.185972 -242.611808 
L 380.060756 -242.766253 
L 379.815678 -243.071784 
L 379.738677 -243.168756 
L 379.573409 -243.377315 
L 379.334034 -243.682846 
L 379.291383 -243.737822 
L 379.097387 -243.988377 
L 378.863631 -244.293908 
L 378.844088 -244.319699 
L 378.632536 -244.599439 
L 378.404316 -244.90497 
L 378.396794 -244.915138 
L 378.178706 -245.210501 
L 377.955943 -245.516032 
L 377.949499 -245.524957 
L 377.735753 -245.821563 
L 377.518372 -246.127094 
L 377.502204 -246.150048 
L 377.303541 -246.432625 
L 377.091467 -246.738156 
L 377.05491 -246.791382 
L 376.881936 -247.043687 
L 376.675099 -247.349218 
L 376.607615 -247.450026 
L 376.470812 -247.654749 
L 376.269143 -247.960281 
L 376.160321 -248.127145 
L 376.070046 -248.265812 
L 375.873481 -248.571343 
L 375.713026 -248.824021 
L 375.679521 -248.876874 
L 375.487996 -249.182405 
L 375.299085 -249.487936 
L 375.265731 -249.5425 
L 375.11258 -249.793467 
L 374.928615 -250.098998 
L 374.818437 -250.284361 
L 374.747127 -250.404529 
L 374.568052 -250.71006 
L 374.39151 -251.015591 
L 374.371142 -251.051262 
L 374.217295 -251.321122 
L 374.045559 -251.626653 
L 373.923848 -251.846197 
L 373.876251 -251.932184 
L 373.709269 -252.237715 
L 373.544745 -252.543246 
L 373.476553 -252.671591 
L 373.382551 -252.848778 
L 373.222705 -253.154309 
L 373.065277 -253.45984 
L 373.029259 -253.53068 
L 372.910106 -253.765371 
L 372.757283 -254.070902 
L 372.606839 -254.376433 
L 372.581964 -254.427646 
L 372.458609 -254.681964 
L 372.312703 -254.987495 
L 372.169139 -255.293026 
L 372.134669 -255.367449 
L 372.027773 -255.598557 
L 371.888684 -255.904088 
L 371.751902 -256.209619 
L 371.687375 -256.35602 
L 371.617329 -256.51515 
L 371.484963 -256.820681 
L 371.354871 -257.126212 
L 371.24008 -257.40051 
L 371.227026 -257.431743 
L 371.101295 -257.737275 
L 370.977807 -258.042806 
L 370.856553 -258.348337 
L 370.792786 -258.51183 
L 370.737453 -258.653868 
L 370.62049 -258.959399 
L 370.505732 -259.26493 
L 370.393169 -259.570461 
L 370.345491 -259.702259 
L 370.282715 -259.875992 
L 370.174381 -260.181523 
L 370.068216 -260.487054 
L 369.964212 -260.792585 
L 369.898196 -260.990452 
L 369.862315 -261.098116 
L 369.762484 -261.403647 
L 369.66479 -261.709178 
L 369.569224 -262.014709 
L 369.47578 -262.32024 
L 369.450902 -262.403329 
L 369.384367 -262.625772 
L 369.295033 -262.931303 
L 369.207799 -263.236834 
L 369.122659 -263.542365 
L 369.039604 -263.847896 
L 369.003607 -263.983556 
L 368.958575 -264.153427 
L 368.879577 -264.458958 
L 368.802648 -264.764489 
L 368.727782 -265.07002 
L 368.654972 -265.375551 
L 368.584212 -265.681082 
L 368.556313 -265.804977 
L 368.515447 -265.986613 
L 368.44869 -266.292144 
L 368.383969 -266.597675 
L 368.32128 -266.903206 
L 368.260615 -267.208737 
L 368.201972 -267.514269 
L 368.145345 -267.8198 
L 368.109018 -268.022882 
L 368.090707 -268.125331 
L 368.038036 -268.430862 
L 367.98737 -268.736393 
L 367.938705 -269.041924 
L 367.892039 -269.347455 
L 367.847366 -269.652986 
L 367.804683 -269.958517 
L 367.763988 -270.264048 
L 367.725277 -270.569579 
L 367.688546 -270.87511 
L 367.661723 -271.110827 
L 367.653784 -271.180641 
L 367.620969 -271.486172 
L 367.590129 -271.791703 
L 367.561262 -272.097234 
L 367.534365 -272.402766 
L 367.509438 -272.708297 
L 367.486478 -273.013828 
L 367.465483 -273.319359 
L 367.446452 -273.62489 
L 367.429384 -273.930421 
L 367.414277 -274.235952 
L 367.401131 -274.541483 
L 367.389944 -274.847014 
L 367.380716 -275.152545 
L 367.373447 -275.458076 
L 367.368136 -275.763607 
L 367.364783 -276.069138 
L 367.363389 -276.374669 
L 367.363952 -276.6802 
L 367.366475 -276.985731 
L 367.370956 -277.291263 
L 367.377397 -277.596794 
L 367.385799 -277.902325 
L 367.396163 -278.207856 
L 367.40849 -278.513387 
L 367.422781 -278.818918 
L 367.439038 -279.124449 
L 367.457262 -279.42998 
L 367.477457 -279.735511 
L 367.499622 -280.041042 
L 367.523761 -280.346573 
L 367.549877 -280.652104 
L 367.577971 -280.957635 
L 367.608047 -281.263166 
L 367.640107 -281.568697 
L 367.661723 -281.762581 
L 367.674141 -281.874228 
L 367.71014 -282.17976 
L 367.748132 -282.485291 
L 367.788119 -282.790822 
L 367.830106 -283.096353 
L 367.874097 -283.401884 
L 367.920096 -283.707415 
L 367.968107 -284.012946 
L 368.018135 -284.318477 
L 368.070184 -284.624008 
L 368.109018 -284.84335 
L 368.124244 -284.929539 
L 368.180292 -285.23507 
L 368.238375 -285.540601 
L 368.298499 -285.846132 
L 368.360669 -286.151663 
L 368.424891 -286.457194 
L 368.491172 -286.762725 
L 368.556313 -287.053919 
L 368.559513 -287.068257 
L 368.629856 -287.373788 
L 368.702275 -287.679319 
L 368.776777 -287.98485 
L 368.853369 -288.290381 
L 368.932058 -288.595912 
L 369.003607 -288.866455 
L 369.012842 -288.901443 
L 369.095664 -289.206974 
L 369.180605 -289.512505 
L 369.267673 -289.818036 
L 369.356876 -290.123567 
L 369.448223 -290.429098 
L 369.450902 -290.437844 
L 369.541633 -290.734629 
L 369.6372 -291.04016 
L 369.734936 -291.345691 
L 369.834851 -291.651222 
L 369.898196 -291.840718 
L 369.936917 -291.956754 
L 370.041119 -292.262285 
L 370.147527 -292.567816 
L 370.256153 -292.873347 
L 370.345491 -293.11954 
L 370.366988 -293.178878 
L 370.479974 -293.484409 
L 370.59521 -293.78994 
L 370.712706 -294.095471 
L 370.792786 -294.299712 
L 370.832437 -294.401002 
L 370.954376 -294.706533 
L 371.07861 -295.012064 
L 371.205152 -295.317595 
L 371.24008 -295.400375 
L 371.333928 -295.623126 
L 371.465004 -295.928657 
L 371.598426 -296.234188 
L 371.687375 -296.434304 
L 371.734165 -296.539719 
L 371.872195 -296.845251 
L 372.012611 -297.150782 
L 372.134669 -297.411887 
L 372.155409 -297.456313 
L 372.300513 -297.761844 
L 372.448047 -298.067375 
L 372.581964 -298.340174 
L 372.598011 -298.372906 
L 372.750318 -298.678437 
L 372.905101 -298.983968 
L 373.029259 -299.225145 
L 373.062348 -299.289499 
L 373.221996 -299.59503 
L 373.384169 -299.900561 
L 373.476553 -300.071904 
L 373.548823 -300.206092 
L 373.71596 -300.511623 
L 373.885673 -300.817154 
L 373.923848 -300.884831 
L 374.057873 -301.122685 
L 374.232655 -301.428216 
L 374.371142 -301.666699 
L 374.410039 -301.733747 
L 374.589963 -302.039279 
L 374.772559 -302.34481 
L 374.818437 -302.420453 
L 374.957737 -302.650341 
L 375.145592 -302.955872 
L 375.265731 -303.148461 
L 375.336126 -303.261403 
L 375.529321 -303.566934 
L 375.713026 -303.853338 
L 375.725285 -303.872465 
L 375.923907 -304.177996 
L 376.125351 -304.483527 
L 376.160321 -304.535829 
L 376.329515 -304.789058 
L 376.536521 -305.094589 
L 376.607615 -305.198078 
L 376.746321 -305.40012 
L 376.958986 -305.705651 
L 377.05491 -305.84159 
L 377.174509 -306.011182 
L 377.392933 -306.316713 
L 377.502204 -306.467507 
L 377.614273 -306.622244 
L 377.838559 -306.927776 
L 377.949499 -307.076891 
L 378.065815 -307.233307 
L 378.296072 -307.538838 
L 378.396794 -307.670726 
L 378.529347 -307.844369 
L 378.765689 -308.1499 
L 378.844088 -308.249931 
L 379.005091 -308.455431 
L 379.247637 -308.760962 
L 379.291383 -308.81536 
L 379.493281 -309.066493 
L 379.738677 -309.367757 
L 379.742152 -309.372024 
L 379.99416 -309.677555 
L 380.185972 -309.907102 
L 380.249453 -309.983086 
L 380.507986 -310.288617 
L 380.633267 -310.434791 
L 380.769829 -310.594148 
L 381.035025 -310.899679 
L 381.080561 -310.951487 
L 381.303556 -311.20521 
L 381.527856 -311.457182 
L 381.575533 -311.510741 
L 381.85092 -311.816273 
L 381.97515 -311.952379 
L 382.129799 -312.121804 
L 382.412225 -312.427335 
L 382.422445 -312.438257 
L 382.698159 -312.732866 
L 382.869739 -312.913919 
L 382.987724 -313.038397 
L 383.280938 -313.343928 
L 383.317034 -313.381086 
L 383.577803 -313.649459 
L 383.764329 -313.839055 
L 383.878419 -313.95499 
L 384.182814 -314.260521 
L 384.211623 -314.289092 
L 384.490994 -314.566052 
L 384.658918 -314.730492 
L 384.803057 -314.871583 
L 385.106212 -315.164708 
L 385.119049 -315.177114 
L 385.438967 -315.482645 
L 385.553507 -315.590713 
L 385.762907 -315.788176 
L 386.000802 -316.009799 
L 386.090922 -316.093707 
L 386.423055 -316.399238 
L 386.448096 -316.422003 
L 386.759335 -316.70477 
L 386.895391 -316.826898 
L 387.099852 -317.010301 
L 387.342685 -317.22552 
L 387.444661 -317.315832 
L 387.78998 -317.618006 
L 387.793819 -317.621363 
L 388.147354 -317.926894 
L 388.237275 -318.003684 
L 388.505361 -318.232425 
L 388.684569 -318.383524 
L 388.867902 -318.537956 
L 389.131864 -318.757684 
L 389.235041 -318.843487 
L 389.579158 -319.126289 
L 389.606844 -319.149018 
L 389.983368 -319.454549 
L 390.026453 -319.489105 
L 390.36469 -319.76008 
L 390.473747 -319.846431 
L 390.750889 -320.065611 
L 390.921042 -320.198611 
L 391.142041 -320.371142 
L 391.368337 -320.545756 
L 391.538222 -320.676673 
L 391.815631 -320.887973 
L 391.93951 -320.982204 
L 392.262926 -321.22537 
L 392.345988 -321.287735 
L 392.71022 -321.558051 
L 392.75774 -321.593267 
L 393.157515 -321.886117 
L 393.174852 -321.898798 
L 393.597413 -322.204329 
L 393.60481 -322.209616 
L 394.025514 -322.50986 
L 394.052104 -322.528619 
L 394.459255 -322.815391 
L 394.499399 -322.843343 
L 394.898733 -323.120922 
L 394.946693 -323.15388 
L 395.344048 -323.426453 
L 395.393988 -323.460321 
L 395.795307 -323.731984 
L 395.841283 -323.762753 
L 396.252616 -324.037515 
L 396.288577 -324.061265 
L 396.716087 -324.343046 
L 396.735872 -324.355939 
L 397.183166 -324.646845 
L 397.185836 -324.648577 
L 397.630461 -324.933923 
L 397.66198 -324.954108 
L 398.077756 -325.217377 
L 398.144646 -325.259639 
L 398.52505 -325.497286 
L 398.633958 -325.56517 
L 398.972345 -325.773728 
L 399.13005 -325.870701 
L 399.419639 -326.046778 
L 399.633058 -326.176232 
L 399.866934 -326.316512 
L 400.143121 -326.481764 
L 400.314228 -326.583002 
L 400.660386 -326.787295 
L 400.761523 -326.846319 
L 401.185003 -327.092826 
L 401.208818 -327.106534 
L 401.656112 -327.363402 
L 401.717138 -327.398357 
L 402.103407 -327.617155 
L 402.256951 -327.703888 
L 402.550701 -327.867984 
L 402.804605 -328.009419 
L 402.997996 -328.115956 
L 403.360274 -328.31495 
L 403.445291 -328.361134 
L 403.892585 -328.603429 
L 403.924146 -328.620481 
L 404.33988 -328.842622 
L 404.496426 -328.926012 
L 404.787174 -329.079187 
L 405.077288 -329.231543 
L 405.234469 -329.313183 
L 405.666932 -329.537074 
L 405.681764 -329.544669 
L 406.129058 -329.773097 
L 406.265615 -329.842605 
L 406.576353 -329.999045 
L 406.873519 -330.148136 
L 407.023647 -330.222636 
L 407.470942 -330.443838 
L 407.490873 -330.453667 
L 407.918236 -330.662127 
L 408.117972 -330.759198 
L 408.365531 -330.878204 
L 408.755002 -331.064729 
L 408.812826 -331.092122 
L 409.26012 -331.303361 
L 409.402284 -331.370261 
L 409.707415 -331.512293 
L 410.060054 -331.675792 
L 410.154709 -331.719203 
L 410.602004 -331.923652 
L 410.728629 -331.981323 
L 411.049299 -332.125792 
L 411.408293 -332.286854 
L 411.496593 -332.326042 
L 411.943888 -332.523873 
L 412.099387 -332.592385 
L 412.391182 -332.719563 
L 412.8022 -332.897916 
L 412.838477 -332.913488 
L 413.285772 -333.104872 
L 413.51716 -333.203447 
L 413.733066 -333.294439 
L 414.180361 -333.482139 
L 414.244541 -333.508978 
L 414.627655 -333.667467 
L 414.984803 -333.814509 
L 415.07495 -333.851226 
L 415.522244 -334.032738 
L 415.738336 -334.12004 
L 415.969539 -334.212449 
L 416.416834 -334.390416 
L 416.505528 -334.425571 
L 416.864128 -334.566192 
L 417.286858 -334.731102 
L 417.311423 -334.740583 
L 417.758717 -334.912614 
L 418.082859 -335.036633 
L 418.206012 -335.083251 
L 418.653307 -335.251873 
L 418.893969 -335.342164 
L 419.100601 -335.418864 
L 419.547896 -335.584125 
L 419.720729 -335.647695 
L 419.99519 -335.747575 
L 420.442485 -335.909522 
L 420.563711 -335.953226 
L 420.88978 -336.069535 
L 421.337074 -336.228216 
L 421.423522 -336.258758 
L 421.784369 -336.384894 
L 422.231663 -336.540355 
L 422.300808 -336.564289 
L 422.678958 -336.693798 
L 423.126253 -336.846086 
L 423.196251 -336.86982 
L 423.573547 -336.996393 
L 424.020842 -337.145555 
L 424.110578 -337.175351 
L 424.468136 -337.29282 
L 424.915431 -337.438903 
L 425.044563 -337.480882 
L 425.362725 -337.583222 
L 425.81002 -337.726271 
L 425.999028 -337.786413 
L 426.257315 -337.867735 
L 426.704609 -338.007796 
L 426.974848 -338.091944 
L 427.151904 -338.146497 
L 427.599198 -338.283616 
L 427.972958 -338.397475 
L 428.046493 -338.419641 
L 428.493788 -338.553863 
L 428.941082 -338.687176 
L 428.994435 -338.703006 
L 429.388377 -338.818669 
L 429.835671 -338.949139 
L 430.040422 -339.008537 
L 430.282966 -339.078163 
L 430.730261 -339.205835 
L 431.11196 -339.314068 
L 431.177555 -339.332474 
L 431.62485 -339.457391 
L 432.072144 -339.58143 
L 432.21051 -339.619599 
L 432.519439 -339.703932 
L 432.966733 -339.825269 
L 433.337336 -339.92513 
L 433.414028 -339.94558 
L 433.861323 -340.06426 
L 434.308617 -340.182082 
L 434.494095 -340.230661 
L 434.755912 -340.298521 
L 435.203206 -340.413738 
L 435.650501 -340.528109 
L 435.682267 -340.536192 
L 436.097796 -340.640826 
L 436.54509 -340.752644 
L 436.903909 -340.841723 
L 436.992385 -340.86346 
L 437.439679 -340.972768 
L 437.886974 -341.081251 
L 438.160905 -341.147255 
L 438.334269 -341.188593 
L 438.781563 -341.294617 
L 439.228858 -341.399828 
L 439.45544 -341.452786 
L 439.676152 -341.503837 
L 440.123447 -341.60664 
L 440.570741 -341.708642 
L 440.789981 -341.758317 
L 441.018036 -341.809455 
L 441.465331 -341.909099 
L 441.912625 -342.007955 
L 442.16725 -342.063848 
L 442.35992 -342.105704 
L 442.807214 -342.202253 
L 443.254509 -342.298024 
L 443.590254 -342.369379 
L 443.701804 -342.392842 
L 444.149098 -342.486355 
L 444.596393 -342.579103 
L 445.043687 -342.671089 
L 445.062372 -342.67491 
L 445.490982 -342.761657 
L 445.938277 -342.851444 
L 446.385571 -342.940479 
L 446.587718 -342.980441 
L 446.832866 -343.028405 
L 447.28016 -343.11529 
L 447.727455 -343.201437 
L 448.170153 -343.285972 
L 448.174749 -343.286841 
L 448.622044 -343.370885 
L 449.069339 -343.454202 
L 449.516633 -343.536796 
L 449.81524 -343.591503 
L 449.963928 -343.618465 
L 450.411222 -343.699012 
L 450.858517 -343.778848 
L 451.305812 -343.857973 
L 451.528297 -343.897034 
L 451.753106 -343.936099 
L 452.200401 -344.013235 
L 452.647695 -344.089673 
L 453.09499 -344.165416 
L 453.316077 -344.202565 
L 453.542285 -344.240186 
L 453.989579 -344.313995 
L 454.436874 -344.38712 
L 454.884168 -344.459565 
L 455.186371 -344.508096 
L 455.331463 -344.531159 
L 455.778758 -344.601724 
L 456.226052 -344.67162 
L 456.673347 -344.74085 
L 457.120641 -344.809415 
L 457.148315 -344.813627 
L 457.567936 -344.87685 
L 458.01523 -344.943599 
L 458.462525 -345.009696 
L 458.90982 -345.075143 
L 459.213367 -345.119158 
L 459.357114 -345.13979 
L 459.804409 -345.203474 
L 460.251703 -345.26652 
L 460.698998 -345.32893 
L 461.146293 -345.390706 
L 461.394566 -345.424689 
L 461.593587 -345.451654 
L 462.040882 -345.511729 
L 462.488176 -345.571183 
L 462.935471 -345.630017 
L 463.382766 -345.688234 
L 463.708539 -345.73022 
L 463.83006 -345.745723 
L 464.277355 -345.8023 
L 464.724649 -345.858271 
L 465.171944 -345.913639 
L 465.619238 -345.968406 
L 466.066533 -346.022576 
L 466.176293 -346.035752 
L 466.513828 -346.075857 
L 466.961122 -346.128454 
L 467.408417 -346.180464 
L 467.855711 -346.23189 
L 468.303006 -346.282735 
L 468.750301 -346.333 
L 468.824681 -346.341283 
L 469.197595 -346.382389 
L 469.64489 -346.431147 
L 470.092184 -346.479338 
L 470.539479 -346.526963 
L 470.986774 -346.574025 
L 471.434068 -346.620526 
L 471.689676 -346.646814 
L 471.881363 -346.666328 
L 472.328657 -346.711388 
L 472.775952 -346.755898 
L 473.223246 -346.799861 
L 473.670541 -346.843279 
L 474.117836 -346.886155 
L 474.56513 -346.928491 
L 474.820078 -346.952345 
L 475.012425 -346.97016 
L 475.459719 -347.011126 
L 475.907014 -347.051564 
L 476.354309 -347.091474 
L 476.801603 -347.13086 
L 477.248898 -347.169724 
L 477.696192 -347.208068 
L 478.143487 -347.245895 
L 478.286819 -347.257876 
L 478.590782 -347.283026 
L 479.038076 -347.319562 
L 479.485371 -347.355592 
L 479.932665 -347.391117 
L 480.37996 -347.42614 
L 480.827255 -347.460664 
L 481.274549 -347.49469 
L 481.721844 -347.528221 
L 482.169138 -347.56126 
L 482.198559 -347.563407 
L 482.616433 -347.593592 
L 483.063727 -347.625423 
L 483.511022 -347.656773 
L 483.958317 -347.687643 
L 484.405611 -347.718034 
L 484.852906 -347.747951 
L 485.3002 -347.777394 
L 485.747495 -347.806367 
L 486.19479 -347.834871 
L 486.642084 -347.862909 
L 486.739659 -347.868938 
L 487.089379 -347.89033 
L 487.536673 -347.917249 
L 487.983968 -347.943713 
L 488.431263 -347.969723 
L 488.878557 -347.995281 
L 489.325852 -348.020389 
L 489.773146 -348.04505 
L 490.220441 -348.069267 
L 490.667735 -348.09304 
L 491.11503 -348.116373 
L 491.562325 -348.139268 
L 492.009619 -348.161727 
L 492.268073 -348.174469 
L 492.456914 -348.183686 
L 492.904208 -348.205126 
L 493.351503 -348.22614 
L 493.798798 -348.24673 
L 494.246092 -348.266898 
L 494.693387 -348.286646 
L 495.140681 -348.305976 
L 495.587976 -348.324891 
L 496.035271 -348.343392 
L 496.482565 -348.361482 
L 496.92986 -348.379163 
L 497.377154 -348.396437 
L 497.824449 -348.413306 
L 498.271743 -348.429772 
L 498.719038 -348.445838 
L 499.166333 -348.461505 
L 499.613627 -348.476776 
L 499.710322 -348.48 
L 72 -348.48 
L 72 -43.56 
L 72 -43.56 
L 499.710322 -43.56 
L 499.613627 -43.56 
L 499.166333 -43.56 
L 498.719038 -43.56 
L 498.271743 -43.56 
L 497.824449 -43.56 
L 497.377154 -43.56 
L 496.92986 -43.56 
L 496.482565 -43.56 
L 496.035271 -43.56 
L 495.587976 -43.56 
L 495.140681 -43.56 
L 494.693387 -43.56 
L 494.246092 -43.56 
L 493.798798 -43.56 
L 493.351503 -43.56 
L 492.904208 -43.56 
L 492.456914 -43.56 
L 492.268073 -43.56 
L 492.009619 -43.56 
L 491.562325 -43.56 
L 491.11503 -43.56 
L 490.667735 -43.56 
L 490.220441 -43.56 
L 489.773146 -43.56 
L 489.325852 -43.56 
L 488.878557 -43.56 
L 488.431263 -43.56 
L 487.983968 -43.56 
L 487.536673 -43.56 
L 487.089379 -43.56 
L 486.739659 -43.56 
L 486.642084 -43.56 
L 486.19479 -43.56 
L 485.747495 -43.56 
L 485.3002 -43.56 
L 484.852906 -43.56 
L 484.405611 -43.56 
L 483.958317 -43.56 
L 483.511022 -43.56 
L 483.063727 -43.56 
L 482.616433 -43.56 
L 482.198559 -43.56 
L 482.169138 -43.56 
L 481.721844 -43.56 
L 481.274549 -43.56 
L 480.827255 -43.56 
L 480.37996 -43.56 
L 479.932665 -43.56 
L 479.485371 -43.56 
L 479.038076 -43.56 
L 478.590782 -43.56 
L 478.286819 -43.56 
L 478.143487 -43.56 
L 477.696192 -43.56 
L 477.248898 -43.56 
L 476.801603 -43.56 
L 476.354309 -43.56 
L 475.907014 -43.56 
L 475.459719 -43.56 
L 475.012425 -43.56 
L 474.820078 -43.56 
L 474.56513 -43.56 
L 474.117836 -43.56 
L 473.670541 -43.56 
L 473.223246 -43.56 
L 472.775952 -43.56 
L 472.328657 -43.56 
L 471.881363 -43.56 
L 471.689676 -43.56 
L 471.434068 -43.56 
L 470.986774 -43.56 
L 470.539479 -43.56 
L 470.092184 -43.56 
L 469.64489 -43.56 
L 469.197595 -43.56 
L 468.824681 -43.56 
L 468.750301 -43.56 
L 468.303006 -43.56 
L 467.855711 -43.56 
L 467.408417 -43.56 
L 466.961122 -43.56 
L 466.513828 -43.56 
L 466.176293 -43.56 
L 466.066533 -43.56 
L 465.619238 -43.56 
L 465.171944 -43.56 
L 464.724649 -43.56 
L 464.277355 -43.56 
L 463.83006 -43.56 
L 463.708539 -43.56 
L 463.382766 -43.56 
L 462.935471 -43.56 
L 462.488176 -43.56 
L 462.040882 -43.56 
L 461.593587 -43.56 
L 461.394566 -43.56 
L 461.146293 -43.56 
L 460.698998 -43.56 
L 460.251703 -43.56 
L 459.804409 -43.56 
L 459.357114 -43.56 
L 459.213367 -43.56 
L 458.90982 -43.56 
L 458.462525 -43.56 
L 458.01523 -43.56 
L 457.567936 -43.56 
L 457.148315 -43.56 
L 457.120641 -43.56 
L 456.673347 -43.56 
L 456.226052 -43.56 
L 455.778758 -43.56 
L 455.331463 -43.56 
L 455.186371 -43.56 
L 454.884168 -43.56 
L 454.436874 -43.56 
L 453.989579 -43.56 
L 453.542285 -43.56 
L 453.316077 -43.56 
L 453.09499 -43.56 
L 452.647695 -43.56 
L 452.200401 -43.56 
L 451.753106 -43.56 
L 451.528297 -43.56 
L 451.305812 -43.56 
L 450.858517 -43.56 
L 450.411222 -43.56 
L 449.963928 -43.56 
L 449.81524 -43.56 
L 449.516633 -43.56 
L 449.069339 -43.56 
L 448.622044 -43.56 
L 448.174749 -43.56 
L 448.170153 -43.56 
L 447.727455 -43.56 
L 447.28016 -43.56 
L 446.832866 -43.56 
L 446.587718 -43.56 
L 446.385571 -43.56 
L 445.938277 -43.56 
L 445.490982 -43.56 
L 445.062372 -43.56 
L 445.043687 -43.56 
L 444.596393 -43.56 
L 444.149098 -43.56 
L 443.701804 -43.56 
L 443.590254 -43.56 
L 443.254509 -43.56 
L 442.807214 -43.56 
L 442.35992 -43.56 
L 442.16725 -43.56 
L 441.912625 -43.56 
L 441.465331 -43.56 
L 441.018036 -43.56 
L 440.789981 -43.56 
L 440.570741 -43.56 
L 440.123447 -43.56 
L 439.676152 -43.56 
L 439.45544 -43.56 
L 439.228858 -43.56 
L 438.781563 -43.56 
L 438.334269 -43.56 
L 438.160905 -43.56 
L 437.886974 -43.56 
L 437.439679 -43.56 
L 436.992385 -43.56 
L 436.903909 -43.56 
L 436.54509 -43.56 
L 436.097796 -43.56 
L 435.682267 -43.56 
L 435.650501 -43.56 
L 435.203206 -43.56 
L 434.755912 -43.56 
L 434.494095 -43.56 
L 434.308617 -43.56 
L 433.861323 -43.56 
L 433.414028 -43.56 
L 433.337336 -43.56 
L 432.966733 -43.56 
L 432.519439 -43.56 
L 432.21051 -43.56 
L 432.072144 -43.56 
L 431.62485 -43.56 
L 431.177555 -43.56 
L 431.11196 -43.56 
L 430.730261 -43.56 
L 430.282966 -43.56 
L 430.040422 -43.56 
L 429.835671 -43.56 
L 429.388377 -43.56 
L 428.994435 -43.56 
L 428.941082 -43.56 
L 428.493788 -43.56 
L 428.046493 -43.56 
L 427.972958 -43.56 
L 427.599198 -43.56 
L 427.151904 -43.56 
L 426.974848 -43.56 
L 426.704609 -43.56 
L 426.257315 -43.56 
L 425.999028 -43.56 
L 425.81002 -43.56 
L 425.362725 -43.56 
L 425.044563 -43.56 
L 424.915431 -43.56 
L 424.468136 -43.56 
L 424.110578 -43.56 
L 424.020842 -43.56 
L 423.573547 -43.56 
L 423.196251 -43.56 
L 423.126253 -43.56 
L 422.678958 -43.56 
L 422.300808 -43.56 
L 422.231663 -43.56 
L 421.784369 -43.56 
L 421.423522 -43.56 
L 421.337074 -43.56 
L 420.88978 -43.56 
L 420.563711 -43.56 
L 420.442485 -43.56 
L 419.99519 -43.56 
L 419.720729 -43.56 
L 419.547896 -43.56 
L 419.100601 -43.56 
L 418.893969 -43.56 
L 418.653307 -43.56 
L 418.206012 -43.56 
L 418.082859 -43.56 
L 417.758717 -43.56 
L 417.311423 -43.56 
L 417.286858 -43.56 
L 416.864128 -43.56 
L 416.505528 -43.56 
L 416.416834 -43.56 
L 415.969539 -43.56 
L 415.738336 -43.56 
L 415.522244 -43.56 
L 415.07495 -43.56 
L 414.984803 -43.56 
L 414.627655 -43.56 
L 414.244541 -43.56 
L 414.180361 -43.56 
L 413.733066 -43.56 
L 413.51716 -43.56 
L 413.285772 -43.56 
L 412.838477 -43.56 
L 412.8022 -43.56 
L 412.391182 -43.56 
L 412.099387 -43.56 
L 411.943888 -43.56 
L 411.496593 -43.56 
L 411.408293 -43.56 
L 411.049299 -43.56 
L 410.728629 -43.56 
L 410.602004 -43.56 
L 410.154709 -43.56 
L 410.060054 -43.56 
L 409.707415 -43.56 
L 409.402284 -43.56 
L 409.26012 -43.56 
L 408.812826 -43.56 
L 408.755002 -43.56 
L 408.365531 -43.56 
L 408.117972 -43.56 
L 407.918236 -43.56 
L 407.490873 -43.56 
L 407.470942 -43.56 
L 407.023647 -43.56 
L 406.873519 -43.56 
L 406.576353 -43.56 
L 406.265615 -43.56 
L 406.129058 -43.56 
L 405.681764 -43.56 
L 405.666932 -43.56 
L 405.234469 -43.56 
L 405.077288 -43.56 
L 404.787174 -43.56 
L 404.496426 -43.56 
L 404.33988 -43.56 
L 403.924146 -43.56 
L 403.892585 -43.56 
L 403.445291 -43.56 
L 403.360274 -43.56 
L 402.997996 -43.56 
L 402.804605 -43.56 
L 402.550701 -43.56 
L 402.256951 -43.56 
L 402.103407 -43.56 
L 401.717138 -43.56 
L 401.656112 -43.56 
L 401.208818 -43.56 
L 401.185003 -43.56 
L 400.761523 -43.56 
L 400.660386 -43.56 
L 400.314228 -43.56 
L 400.143121 -43.56 
L 399.866934 -43.56 
L 399.633058 -43.56 
L 399.419639 -43.56 
L 399.13005 -43.56 
L 398.972345 -43.56 
L 398.633958 -43.56 
L 398.52505 -43.56 
L 398.144646 -43.56 
L 398.077756 -43.56 
L 397.66198 -43.56 
L 397.630461 -43.56 
L 397.185836 -43.56 
L 397.183166 -43.56 
L 396.735872 -43.56 
L 396.716087 -43.56 
L 396.288577 -43.56 
L 396.252616 -43.56 
L 395.841283 -43.56 
L 395.795307 -43.56 
L 395.393988 -43.56 
L 395.344048 -43.56 
L 394.946693 -43.56 
L 394.898733 -43.56 
L 394.499399 -43.56 
L 394.459255 -43.56 
L 394.052104 -43.56 
L 394.025514 -43.56 
L 393.60481 -43.56 
L 393.597413 -43.56 
L 393.174852 -43.56 
L 393.157515 -43.56 
L 392.75774 -43.56 
L 392.71022 -43.56 
L 392.345988 -43.56 
L 392.262926 -43.56 
L 391.93951 -43.56 
L 391.815631 -43.56 
L 391.538222 -43.56 
L 391.368337 -43.56 
L 391.142041 -43.56 
L 390.921042 -43.56 
L 390.750889 -43.56 
L 390.473747 -43.56 
L 390.36469 -43.56 
L 390.026453 -43.56 
L 389.983368 -43.56 
L 389.606844 -43.56 
L 389.579158 -43.56 
L 389.235041 -43.56 
L 389.131864 -43.56 
L 388.867902 -43.56 
L 388.684569 -43.56 
L 388.505361 -43.56 
L 388.237275 -43.56 
L 388.147354 -43.56 
L 387.793819 -43.56 
L 387.78998 -43.56 
L 387.444661 -43.56 
L 387.342685 -43.56 
L 387.099852 -43.56 
L 386.895391 -43.56 
L 386.759335 -43.56 
L 386.448096 -43.56 
L 386.423055 -43.56 
L 386.090922 -43.56 
L 386.000802 -43.56 
L 385.762907 -43.56 
L 385.553507 -43.56 
L 385.438967 -43.56 
L 385.119049 -43.56 
L 385.106212 -43.56 
L 384.803057 -43.56 
L 384.658918 -43.56 
L 384.490994 -43.56 
L 384.211623 -43.56 
L 384.182814 -43.56 
L 383.878419 -43.56 
L 383.764329 -43.56 
L 383.577803 -43.56 
L 383.317034 -43.56 
L 383.280938 -43.56 
L 382.987724 -43.56 
L 382.869739 -43.56 
L 382.698159 -43.56 
L 382.422445 -43.56 
L 382.412225 -43.56 
L 382.129799 -43.56 
L 381.97515 -43.56 
L 381.85092 -43.56 
L 381.575533 -43.56 
L 381.527856 -43.56 
L 381.303556 -43.56 
L 381.080561 -43.56 
L 381.035025 -43.56 
L 380.769829 -43.56 
L 380.633267 -43.56 
L 380.507986 -43.56 
L 380.249453 -43.56 
L 380.185972 -43.56 
L 379.99416 -43.56 
L 379.742152 -43.56 
L 379.738677 -43.56 
L 379.493281 -43.56 
L 379.291383 -43.56 
L 379.247637 -43.56 
L 379.005091 -43.56 
L 378.844088 -43.56 
L 378.765689 -43.56 
L 378.529347 -43.56 
L 378.396794 -43.56 
L 378.296072 -43.56 
L 378.065815 -43.56 
L 377.949499 -43.56 
L 377.838559 -43.56 
L 377.614273 -43.56 
L 377.502204 -43.56 
L 377.392933 -43.56 
L 377.174509 -43.56 
L 377.05491 -43.56 
L 376.958986 -43.56 
L 376.746321 -43.56 
L 376.607615 -43.56 
L 376.536521 -43.56 
L 376.329515 -43.56 
L 376.160321 -43.56 
L 376.125351 -43.56 
L 375.923907 -43.56 
L 375.725285 -43.56 
L 375.713026 -43.56 
L 375.529321 -43.56 
L 375.336126 -43.56 
L 375.265731 -43.56 
L 375.145592 -43.56 
L 374.957737 -43.56 
L 374.818437 -43.56 
L 374.772559 -43.56 
L 374.589963 -43.56 
L 374.410039 -43.56 
L 374.371142 -43.56 
L 374.232655 -43.56 
L 374.057873 -43.56 
L 373.923848 -43.56 
L 373.885673 -43.56 
L 373.71596 -43.56 
L 373.548823 -43.56 
L 373.476553 -43.56 
L 373.384169 -43.56 
L 373.221996 -43.56 
L 373.062348 -43.56 
L 373.029259 -43.56 
L 372.905101 -43.56 
L 372.750318 -43.56 
L 372.598011 -43.56 
L 372.581964 -43.56 
L 372.448047 -43.56 
L 372.300513 -43.56 
L 372.155409 -43.56 
L 372.134669 -43.56 
L 372.012611 -43.56 
L 371.872195 -43.56 
L 371.734165 -43.56 
L 371.687375 -43.56 
L 371.598426 -43.56 
L 371.465004 -43.56 
L 371.333928 -43.56 
L 371.24008 -43.56 
L 371.205152 -43.56 
L 371.07861 -43.56 
L 370.954376 -43.56 
L 370.832437 -43.56 
L 370.792786 -43.56 
L 370.712706 -43.56 
L 370.59521 -43.56 
L 370.479974 -43.56 
L 370.366988 -43.56 
L 370.345491 -43.56 
L 370.256153 -43.56 
L 370.147527 -43.56 
L 370.041119 -43.56 
L 369.936917 -43.56 
L 369.898196 -43.56 
L 369.834851 -43.56 
L 369.734936 -43.56 
L 369.6372 -43.56 
L 369.541633 -43.56 
L 369.450902 -43.56 
L 369.448223 -43.56 
L 369.356876 -43.56 
L 369.267673 -43.56 
L 369.180605 -43.56 
L 369.095664 -43.56 
L 369.012842 -43.56 
L 369.003607 -43.56 
L 368.932058 -43.56 
L 368.853369 -43.56 
L 368.776777 -43.56 
L 368.702275 -43.56 
L 368.629856 -43.56 
L 368.559513 -43.56 
L 368.556313 -43.56 
L 368.491172 -43.56 
L 368.424891 -43.56 
L 368.360669 -43.56 
L 368.298499 -43.56 
L 368.238375 -43.56 
L 368.180292 -43.56 
L 368.124244 -43.56 
L 368.109018 -43.56 
L 368.070184 -43.56 
L 368.018135 -43.56 
L 367.968107 -43.56 
L 367.920096 -43.56 
L 367.874097 -43.56 
L 367.830106 -43.56 
L 367.788119 -43.56 
L 367.748132 -43.56 
L 367.71014 -43.56 
L 367.674141 -43.56 
L 367.661723 -43.56 
L 367.640107 -43.56 
L 367.608047 -43.56 
L 367.577971 -43.56 
L 367.549877 -43.56 
L 367.523761 -43.56 
L 367.499622 -43.56 
L 367.477457 -43.56 
L 367.457262 -43.56 
L 367.439038 -43.56 
L 367.422781 -43.56 
L 367.40849 -43.56 
L 367.396163 -43.56 
L 367.385799 -43.56 
L 367.377397 -43.56 
L 367.370956 -43.56 
L 367.366475 -43.56 
L 367.363952 -43.56 
L 367.363389 -43.56 
L 367.364783 -43.56 
L 367.368136 -43.56 
L 367.373447 -43.56 
L 367.380716 -43.56 
L 367.389944 -43.56 
L 367.401131 -43.56 
L 367.414277 -43.56 
L 367.429384 -43.56 
L 367.446452 -43.56 
L 367.465483 -43.56 
L 367.486478 -43.56 
L 367.509438 -43.56 
L 367.534365 -43.56 
L 367.561262 -43.56 
L 367.590129 -43.56 
L 367.620969 -43.56 
L 367.653784 -43.56 
L 367.661723 -43.56 
L 367.688546 -43.56 
L 367.725277 -43.56 
L 367.763988 -43.56 
L 367.804683 -43.56 
L 367.847366 -43.56 
L 367.892039 -43.56 
L 367.938705 -43.56 
L 367.98737 -43.56 
L 368.038036 -43.56 
L 368.090707 -43.56 
L 368.109018 -43.56 
L 368.145345 -43.56 
L 368.201972 -43.56 
L 368.260615 -43.56 
L 368.32128 -43.56 
L 368.383969 -43.56 
L 368.44869 -43.56 
L 368.515447 -43.56 
L 368.556313 -43.56 
L 368.584212 -43.56 
L 368.654972 -43.56 
L 368.727782 -43.56 
L 368.802648 -43.56 
L 368.879577 -43.56 
L 368.958575 -43.56 
L 369.003607 -43.56 
L 369.039604 -43.56 
L 369.122659 -43.56 
L 369.207799 -43.56 
L 369.295033 -43.56 
L 369.384367 -43.56 
L 369.450902 -43.56 
L 369.47578 -43.56 
L 369.569224 -43.56 
L 369.66479 -43.56 
L 369.762484 -43.56 
L 369.862315 -43.56 
L 369.898196 -43.56 
L 369.964212 -43.56 
L 370.068216 -43.56 
L 370.174381 -43.56 
L 370.282715 -43.56 
L 370.345491 -43.56 
L 370.393169 -43.56 
L 370.505732 -43.56 
L 370.62049 -43.56 
L 370.737453 -43.56 
L 370.792786 -43.56 
L 370.856553 -43.56 
L 370.977807 -43.56 
L 371.101295 -43.56 
L 371.227026 -43.56 
L 371.24008 -43.56 
L 371.354871 -43.56 
L 371.484963 -43.56 
L 371.617329 -43.56 
L 371.687375 -43.56 
L 371.751902 -43.56 
L 371.888684 -43.56 
L 372.027773 -43.56 
L 372.134669 -43.56 
L 372.169139 -43.56 
L 372.312703 -43.56 
L 372.458609 -43.56 
L 372.581964 -43.56 
L 372.606839 -43.56 
L 372.757283 -43.56 
L 372.910106 -43.56 
L 373.029259 -43.56 
L 373.065277 -43.56 
L 373.222705 -43.56 
L 373.382551 -43.56 
L 373.476553 -43.56 
L 373.544745 -43.56 
L 373.709269 -43.56 
L 373.876251 -43.56 
L 373.923848 -43.56 
L 374.045559 -43.56 
L 374.217295 -43.56 
L 374.371142 -43.56 
L 374.39151 -43.56 
L 374.568052 -43.56 
L 374.747127 -43.56 
L 374.818437 -43.56 
L 374.928615 -43.56 
L 375.11258 -43.56 
L 375.265731 -43.56 
L 375.299085 -43.56 
L 375.487996 -43.56 
L 375.679521 -43.56 
L 375.713026 -43.56 
L 375.873481 -43.56 
L 376.070046 -43.56 
L 376.160321 -43.56 
L 376.269143 -43.56 
L 376.470812 -43.56 
L 376.607615 -43.56 
L 376.675099 -43.56 
L 376.881936 -43.56 
L 377.05491 -43.56 
L 377.091467 -43.56 
L 377.303541 -43.56 
L 377.502204 -43.56 
L 377.518372 -43.56 
L 377.735753 -43.56 
L 377.949499 -43.56 
L 377.955943 -43.56 
L 378.178706 -43.56 
L 378.396794 -43.56 
L 378.404316 -43.56 
L 378.632536 -43.56 
L 378.844088 -43.56 
L 378.863631 -43.56 
L 379.097387 -43.56 
L 379.291383 -43.56 
L 379.334034 -43.56 
L 379.573409 -43.56 
L 379.738677 -43.56 
L 379.815678 -43.56 
L 380.060756 -43.56 
L 380.185972 -43.56 
L 380.30872 -43.56 
L 380.559589 -43.56 
L 380.633267 -43.56 
L 380.813324 -43.56 
L 381.070077 -43.56 
L 381.080561 -43.56 
L 381.329663 -43.56 
L 381.527856 -43.56 
L 381.592316 -43.56 
L 381.857912 -43.56 
L 381.97515 -43.56 
L 382.126537 -43.56 
L 382.398257 -43.56 
L 382.422445 -43.56 
L 382.672941 -43.56 
L 382.869739 -43.56 
L 382.950792 -43.56 
L 383.231725 -43.56 
L 383.317034 -43.56 
L 383.515769 -43.56 
L 383.764329 -43.56 
L 383.803043 -43.56 
L 384.093426 -43.56 
L 384.211623 -43.56 
L 384.387037 -43.56 
L 384.658918 -43.56 
L 384.683946 -43.56 
L 384.984028 -43.56 
L 385.106212 -43.56 
L 385.287426 -43.56 
L 385.553507 -43.56 
L 385.594194 -43.56 
L 385.90424 -43.56 
L 386.000802 -43.56 
L 386.21766 -43.56 
L 386.448096 -43.56 
L 386.534526 -43.56 
L 386.854816 -43.56 
L 386.895391 -43.56 
L 387.178506 -43.56 
L 387.342685 -43.56 
L 387.505724 -43.56 
L 387.78998 -43.56 
L 387.836499 -43.56 
L 388.170779 -43.56 
L 388.237275 -43.56 
L 388.508621 -43.56 
L 388.684569 -43.56 
L 388.850109 -43.56 
L 389.131864 -43.56 
L 389.195272 -43.56 
L 389.544099 -43.56 
L 389.579158 -43.56 
L 389.896593 -43.56 
L 390.026453 -43.56 
L 390.252861 -43.56 
L 390.473747 -43.56 
L 390.612933 -43.56 
L 390.921042 -43.56 
L 390.976844 -43.56 
L 391.3446 -43.56 
L 391.368337 -43.56 
L 391.716203 -43.56 
L 391.815631 -43.56 
L 392.091752 -43.56 
L 392.262926 -43.56 
L 392.471285 -43.56 
L 392.71022 -43.56 
L 392.854838 -43.56 
L 393.157515 -43.56 
L 393.242449 -43.56 
L 393.60481 -43.56 
L 393.634157 -43.56 
L 394.029976 -43.56 
L 394.052104 -43.56 
L 394.429942 -43.56 
L 394.499399 -43.56 
L 394.834132 -43.56 
L 394.946693 -43.56 
L 395.242586 -43.56 
L 395.393988 -43.56 
L 395.655349 -43.56 
L 395.841283 -43.56 
L 396.072465 -43.56 
L 396.288577 -43.56 
L 396.493978 -43.56 
L 396.735872 -43.56 
L 396.919935 -43.56 
L 397.183166 -43.56 
L 397.350383 -43.56 
L 397.630461 -43.56 
L 397.78537 -43.56 
L 398.077756 -43.56 
L 398.224947 -43.56 
L 398.52505 -43.56 
L 398.669162 -43.56 
L 398.972345 -43.56 
L 399.118069 -43.56 
L 399.419639 -43.56 
L 399.571719 -43.56 
L 399.866934 -43.56 
L 400.030167 -43.56 
L 400.314228 -43.56 
L 400.493468 -43.56 
L 400.761523 -43.56 
L 400.961679 -43.56 
L 401.208818 -43.56 
L 401.434858 -43.56 
L 401.656112 -43.56 
L 401.913063 -43.56 
L 402.103407 -43.56 
L 402.396356 -43.56 
L 402.550701 -43.56 
L 402.884798 -43.56 
L 402.997996 -43.56 
L 403.378453 -43.56 
L 403.445291 -43.56 
L 403.877385 -43.56 
L 403.892585 -43.56 
L 404.33988 -43.56 
L 404.381617 -43.56 
L 404.787174 -43.56 
L 404.891239 -43.56 
L 405.234469 -43.56 
L 405.406337 -43.56 
L 405.681764 -43.56 
L 405.926983 -43.56 
L 406.129058 -43.56 
L 406.453249 -43.56 
L 406.576353 -43.56 
L 406.98521 -43.56 
L 407.023647 -43.56 
L 407.470942 -43.56 
L 407.522887 -43.56 
L 407.918236 -43.56 
L 408.066369 -43.56 
L 408.365531 -43.56 
L 408.615774 -43.56 
L 408.812826 -43.56 
L 409.171187 -43.56 
L 409.26012 -43.56 
L 409.707415 -43.56 
L 409.732663 -43.56 
L 410.154709 -43.56 
L 410.300218 -43.56 
L 410.602004 -43.56 
L 410.874033 -43.56 
L 411.049299 -43.56 
L 411.454197 -43.56 
L 411.496593 -43.56 
L 411.943888 -43.56 
L 412.040705 -43.56 
L 412.391182 -43.56 
L 412.633701 -43.56 
L 412.838477 -43.56 
L 413.233326 -43.56 
L 413.285772 -43.56 
L 413.733066 -43.56 
L 413.839573 -43.56 
L 414.180361 -43.56 
L 414.452592 -43.56 
L 414.627655 -43.56 
L 415.072541 -43.56 
L 415.07495 -43.56 
L 415.522244 -43.56 
L 415.699352 -43.56 
L 415.969539 -43.56 
L 416.333303 -43.56 
L 416.416834 -43.56 
L 416.864128 -43.56 
L 416.974401 -43.56 
L 417.311423 -43.56 
L 417.622782 -43.56 
L 417.758717 -43.56 
L 418.206012 -43.56 
L 418.278577 -43.56 
L 418.653307 -43.56 
L 418.941841 -43.56 
L 419.100601 -43.56 
L 419.547896 -43.56 
L 419.612768 -43.56 
L 419.99519 -43.56 
L 420.291392 -43.56 
L 420.442485 -43.56 
L 420.88978 -43.56 
L 420.977913 -43.56 
L 421.337074 -43.56 
L 421.672401 -43.56 
L 421.784369 -43.56 
L 422.231663 -43.56 
L 422.375005 -43.56 
L 422.678958 -43.56 
L 423.085892 -43.56 
L 423.126253 -43.56 
L 423.573547 -43.56 
L 423.805097 -43.56 
L 424.020842 -43.56 
L 424.468136 -43.56 
L 424.532885 -43.56 
L 424.915431 -43.56 
L 425.269303 -43.56 
L 425.362725 -43.56 
L 425.81002 -43.56 
L 426.014524 -43.56 
L 426.257315 -43.56 
L 426.704609 -43.56 
L 426.768748 -43.56 
L 427.151904 -43.56 
L 427.532061 -43.56 
L 427.599198 -43.56 
L 428.046493 -43.56 
L 428.304627 -43.56 
L 428.493788 -43.56 
L 428.941082 -43.56 
L 429.086661 -43.56 
L 429.388377 -43.56 
L 429.835671 -43.56 
L 429.878322 -43.56 
L 430.282966 -43.56 
L 430.679734 -43.56 
L 430.730261 -43.56 
L 431.177555 -43.56 
L 431.491085 -43.56 
L 431.62485 -43.56 
L 432.072144 -43.56 
L 432.312592 -43.56 
L 432.519439 -43.56 
L 432.966733 -43.56 
L 433.144437 -43.56 
L 433.414028 -43.56 
L 433.861323 -43.56 
L 433.986813 -43.56 
L 434.308617 -43.56 
L 434.755912 -43.56 
L 434.839916 -43.56 
L 435.203206 -43.56 
L 435.650501 -43.56 
L 435.703949 -43.56 
L 436.097796 -43.56 
L 436.54509 -43.56 
L 436.579124 -43.56 
L 436.992385 -43.56 
L 437.439679 -43.56 
L 437.46566 -43.56 
L 437.886974 -43.56 
L 438.334269 -43.56 
L 438.363782 -43.56 
L 438.781563 -43.56 
L 439.228858 -43.56 
L 439.273725 -43.56 
L 439.676152 -43.56 
L 440.123447 -43.56 
L 440.19573 -43.56 
L 440.570741 -43.56 
L 441.018036 -43.56 
L 441.13005 -43.56 
L 441.465331 -43.56 
L 441.912625 -43.56 
L 442.076945 -43.56 
L 442.35992 -43.56 
L 442.807214 -43.56 
L 443.036684 -43.56 
L 443.254509 -43.56 
L 443.701804 -43.56 
L 444.009546 -43.56 
L 444.149098 -43.56 
L 444.596393 -43.56 
L 444.995823 -43.56 
L 445.043687 -43.56 
L 445.490982 -43.56 
L 445.938277 -43.56 
L 445.995771 -43.56 
L 446.385571 -43.56 
L 446.832866 -43.56 
L 447.009702 -43.56 
L 447.28016 -43.56 
L 447.727455 -43.56 
L 448.037975 -43.56 
L 448.174749 -43.56 
L 448.622044 -43.56 
L 449.069339 -43.56 
L 449.080917 -43.56 
L 449.516633 -43.56 
L 449.963928 -43.56 
L 450.13878 -43.56 
L 450.411222 -43.56 
L 450.858517 -43.56 
L 451.212025 -43.56 
L 451.305812 -43.56 
L 451.753106 -43.56 
L 452.200401 -43.56 
L 452.30096 -43.56 
L 452.647695 -43.56 
L 453.09499 -43.56 
L 453.405973 -43.56 
L 453.542285 -43.56 
L 453.989579 -43.56 
L 454.436874 -43.56 
L 454.527477 -43.56 
L 454.884168 -43.56 
L 455.331463 -43.56 
L 455.665858 -43.56 
L 455.778758 -43.56 
L 456.226052 -43.56 
L 456.673347 -43.56 
L 456.821551 -43.56 
L 457.120641 -43.56 
L 457.567936 -43.56 
L 457.995034 -43.56 
L 458.01523 -43.56 
L 458.462525 -43.56 
L 458.90982 -43.56 
L 459.186685 -43.56 
L 459.357114 -43.56 
L 459.804409 -43.56 
L 460.251703 -43.56 
L 460.397068 -43.56 
L 460.698998 -43.56 
L 461.146293 -43.56 
L 461.593587 -43.56 
L 461.626673 -43.56 
L 462.040882 -43.56 
L 462.488176 -43.56 
L 462.875981 -43.56 
L 462.935471 -43.56 
L 463.382766 -43.56 
L 463.83006 -43.56 
L 464.14556 -43.56 
L 464.277355 -43.56 
L 464.724649 -43.56 
L 465.171944 -43.56 
L 465.435994 -43.56 
L 465.619238 -43.56 
L 466.066533 -43.56 
L 466.513828 -43.56 
L 466.747875 -43.56 
L 466.961122 -43.56 
L 467.408417 -43.56 
L 467.855711 -43.56 
L 468.081827 -43.56 
L 468.303006 -43.56 
L 468.750301 -43.56 
L 469.197595 -43.56 
L 469.438504 -43.56 
L 469.64489 -43.56 
L 470.092184 -43.56 
L 470.539479 -43.56 
L 470.818591 -43.56 
L 470.986774 -43.56 
L 471.434068 -43.56 
L 471.881363 -43.56 
L 472.222811 -43.56 
L 472.328657 -43.56 
L 472.775952 -43.56 
L 473.223246 -43.56 
L 473.651924 -43.56 
L 473.670541 -43.56 
L 474.117836 -43.56 
L 474.56513 -43.56 
L 475.012425 -43.56 
L 475.106684 -43.56 
L 475.459719 -43.56 
L 475.907014 -43.56 
L 476.354309 -43.56 
L 476.58796 -43.56 
L 476.801603 -43.56 
L 477.248898 -43.56 
L 477.696192 -43.56 
L 478.096646 -43.56 
L 478.143487 -43.56 
L 478.590782 -43.56 
L 479.038076 -43.56 
L 479.485371 -43.56 
L 479.633617 -43.56 
L 479.932665 -43.56 
L 480.37996 -43.56 
L 480.827255 -43.56 
L 481.199893 -43.56 
L 481.274549 -43.56 
L 481.721844 -43.56 
L 482.169138 -43.56 
L 482.616433 -43.56 
L 482.79647 -43.56 
L 483.063727 -43.56 
L 483.511022 -43.56 
L 483.958317 -43.56 
L 484.405611 -43.56 
L 484.424476 -43.56 
L 484.852906 -43.56 
L 485.3002 -43.56 
L 485.747495 -43.56 
L 486.08501 -43.56 
L 486.19479 -43.56 
L 486.642084 -43.56 
L 487.089379 -43.56 
L 487.536673 -43.56 
L 487.779328 -43.56 
L 487.983968 -43.56 
L 488.431263 -43.56 
L 488.878557 -43.56 
L 489.325852 -43.56 
L 489.50872 -43.56 
L 489.773146 -43.56 
L 490.220441 -43.56 
L 490.667735 -43.56 
L 491.11503 -43.56 
L 491.274559 -43.56 
L 491.562325 -43.56 
L 492.009619 -43.56 
L 492.456914 -43.56 
L 492.904208 -43.56 
L 493.078305 -43.56 
L 493.351503 -43.56 
L 493.798798 -43.56 
L 494.246092 -43.56 
L 494.693387 -43.56 
L 494.921519 -43.56 
L 495.140681 -43.56 
L 495.587976 -43.56 
L 496.035271 -43.56 
L 496.482565 -43.56 
L 496.805866 -43.56 
L 496.92986 -43.56 
L 497.377154 -43.56 
L 497.824449 -43.56 
L 498.271743 -43.56 
L 498.719038 -43.56 
L 498.733127 -43.56 
L 499.166333 -43.56 
L 499.613627 -43.56 
L 500.060922 -43.56 
L 500.508216 -43.56 
L 500.705187 -43.56 
L 500.955511 -43.56 
L 501.402806 -43.56 
L 501.8501 -43.56 
L 502.297395 -43.56 
L 502.724116 -43.56 
L 502.744689 -43.56 
L 503.191984 -43.56 
L 503.639279 -43.56 
L 504.086573 -43.56 
L 504.533868 -43.56 
L 504.792086 -43.56 
L 504.981162 -43.56 
L 505.428457 -43.56 
L 505.875752 -43.56 
L 506.323046 -43.56 
L 506.770341 -43.56 
L 506.911477 -43.56 
L 507.217635 -43.56 
L 507.66493 -43.56 
L 508.112224 -43.56 
L 508.559519 -43.56 
L 509.006814 -43.56 
L 509.084833 -43.56 
L 509.454108 -43.56 
L 509.901403 -43.56 
L 510.348697 -43.56 
L 510.795992 -43.56 
L 511.243287 -43.56 
L 511.314915 -43.56 
L 511.690581 -43.56 
L 512.137876 -43.56 
L 512.58517 -43.56 
L 513.032465 -43.56 
L 513.47976 -43.56 
L 513.604719 -43.56 
L 513.927054 -43.56 
L 514.374349 -43.56 
L 514.821643 -43.56 
L 515.268938 -43.56 
L 515.716232 -43.56 
L 515.957497 -43.56 
L 516.163527 -43.56 
L 516.610822 -43.56 
L 517.058116 -43.56 
L 517.505411 -43.56 
L 517.952705 -43.56 
L 518.376792 -43.56 
L 518.4 -43.56 
z
" id="m19800812ea" style="stroke:#000000;stroke-opacity:0.2;stroke-width:0.3;"/>
    </defs>
    <g clip-path="url(#p226e155f2c)">
     <use style="fill-opacity:0.2;stroke:#000000;stroke-opacity:0.2;stroke-width:0.3;" x="0" xlink:href="#m19800812ea" y="396"/>
    </g>
   </g>
   <g id="LineCollection_1">
    <path clip-path="url(#p226e155f2c)" d="M 518.4 205.78798 
L 506.323046 204.173363 
L 494.921519 202.424248 
L 484.405611 200.587555 
L 474.56513 198.644762 
L 465.435994 196.619158 
L 456.821551 194.480441 
L 449.069339 192.338353 
L 441.465331 190.006087 
L 434.755912 187.72882 
L 428.046493 185.212778 
L 421.784369 182.613612 
L 416.333303 180.120481 
L 411.049299 177.463272 
L 406.453249 174.926453 
L 401.913063 172.176673 
L 397.630461 169.318318 
L 394.029976 166.677114 
L 390.252861 163.621804 
L 386.854816 160.566493 
L 383.764329 157.47009 
L 381.070077 154.455872 
L 378.632536 151.400561 
L 376.470812 148.345251 
L 374.568052 145.28994 
L 372.910106 142.234629 
L 371.484963 139.179319 
L 370.174381 135.818477 
L 369.122659 132.457635 
L 368.32128 129.096794 
L 367.763988 125.735952 
L 367.446452 122.37511 
L 367.366475 119.014269 
L 367.523761 115.653427 
L 367.920096 112.292585 
L 368.559513 108.931743 
L 369.356876 105.876433 
L 370.366988 102.821122 
L 371.687375 99.565696 
L 373.062348 96.710501 
L 374.818437 93.579547 
L 376.746321 90.59988 
L 379.005091 87.544569 
L 381.527856 84.542818 
L 383.878419 82.04501 
L 386.895391 79.173102 
L 390.026453 76.510895 
L 393.174852 74.101202 
L 396.735872 71.644061 
L 400.761523 69.153681 
L 405.077288 66.768457 
L 409.707415 64.487707 
L 414.244541 62.491022 
L 419.547896 60.415875 
L 424.468136 58.70718 
L 430.282966 56.921837 
L 436.54509 55.247356 
L 442.807214 53.797747 
L 449.81524 52.408497 
L 457.148315 51.186373 
L 465.171944 50.086361 
L 473.670541 49.156721 
L 482.616433 48.406408 
L 492.456914 47.816314 
L 499.710322 47.52 
L 499.710322 47.52 
" style="fill:none;stroke:#000000;"/>
   </g>
   <g id="patch_3">
    <path d="M 72 352.44 
L 72 47.52 
" style="fill:none;stroke:#262626;stroke-linecap:square;stroke-linejoin:miter;stroke-width:1.25;"/>
   </g>
   <g id="patch_4">
    <path d="M 72 352.44 
L 518.4 352.44 
" style="fill:none;stroke:#262626;stroke-linecap:square;stroke-linejoin:miter;stroke-width:1.25;"/>
   </g>
   <g id="text_15">
    <!-- Region of inconsistent branch parameter estimation (restricted case) -->
    <defs>
     <path d="M 39.40625 32.953125 
L 39.59375 33.046875 
C 55.203125 38.421875 55.296875 49.171875 55.296875 51.0625 
C 55.296875 60.515625 45.703125 69.578125 31.296875 69.578125 
L 8.90625 69.578125 
L 8.90625 0.5 
L 17.09375 0.5 
L 17.09375 32 
L 31.796875 32 
L 49.5 0.5 
L 57.90625 0.5 
z
M 17.09375 38.078125 
L 17.09375 64 
L 30.203125 64 
C 42.90625 64 47.40625 56.828125 47.40625 51.046875 
C 47.40625 45.65625 43.40625 38.078125 30.203125 38.078125 
z
" id="CMSS17-82"/>
     <path d="M 39.09375 21.515625 
C 39.09375 24.84375 38.90625 31.296875 35.703125 36.640625 
C 32.203125 42.390625 26.5 44 22.203125 44 
C 11.796875 44 3 34.1875 3 21.484375 
C 3 9.09375 12.09375 -1 23.59375 -1 
C 28.09375 -1 33.59375 0.296875 38.59375 3.875 
C 38.59375 4.28125 38.40625 6.46875 38.296875 6.5625 
C 38.296875 6.765625 38 9.84375 38 10.25 
C 33.203125 6.359375 27.703125 5.078125 23.703125 5.078125 
C 17.296875 5.078125 10.40625 10.421875 10.09375 21.515625 
z
M 10.90625 27 
C 12.203125 32.5625 16.59375 37.828125 22.203125 37.828125 
C 23.703125 37.828125 30.703125 37.828125 32.5 27 
z
" id="CMSS17-101"/>
     <path d="M 44.5 43.875 
C 38.796875 43.875 33.90625 42.78125 29.90625 40.890625 
C 26.59375 43.390625 23.203125 43.875 20.90625 43.875 
C 12.203125 43.875 5.59375 36.703125 5.59375 28.34375 
C 5.59375 22.9375 8.59375 18.859375 8.796875 18.671875 
C 7 16.171875 6 13.484375 6 10.5 
C 6 7 7.40625 4.515625 8.5 3.125 
C 3.296875 -0.046875 2.59375 -4.90625 2.59375 -6.796875 
C 2.59375 -14.03125 11.703125 -20 23.40625 -20 
C 35.203125 -20 44.296875 -14.03125 44.296875 -6.6875 
C 44.296875 7 29 7 24.796875 7 
L 16.703125 7 
C 15.203125 7 11.203125 7 11.203125 12.359375 
C 11.203125 14.390625 12.09375 15.6875 12.203125 15.78125 
C 13.703125 14.6875 16.796875 13 20.90625 13 
C 29.203125 13 36.09375 19.96875 36.09375 28.546875 
C 36.09375 33.3125 33.90625 36.796875 33 38 
L 33.296875 38 
C 33.59375 38 37.796875 38 39.296875 38 
C 42.5 38 42.796875 37.953125 45.59375 37.796875 
z
M 20.90625 18.46875 
C 17.5 18.46875 12.703125 20.546875 12.703125 28.484375 
C 12.703125 37.109375 18.203125 38.5 20.796875 38.5 
C 24.203125 38.5 29 36.421875 29 28.484375 
C 29 19.859375 23.5 18.46875 20.90625 18.46875 
M 24.703125 -0.15625 
C 27.09375 -0.15625 37.203125 -0.15625 37.203125 -6.90625 
C 37.203125 -11.15625 31 -14.515625 23.5 -14.515625 
C 15.90625 -14.515625 9.703125 -11.25 9.703125 -6.796875 
C 9.703125 -6.296875 9.703125 -0.15625 16.59375 -0.15625 
z
" id="CMSS17-103"/>
     <path d="M 15.296875 65.359375 
L 6.90625 65.359375 
L 6.90625 57 
L 15.296875 57 
z
M 14.796875 42.796875 
L 7.40625 42.796875 
L 7.40625 0 
L 14.796875 0 
z
" id="CMSS17-105"/>
     <path d="M 44.203125 21.1875 
C 44.203125 34 34.703125 44 23.5 44 
C 12 44 2.703125 33.703125 2.703125 21.1875 
C 2.703125 8.5 12.296875 -1 23.40625 -1 
C 34.796875 -1 44.203125 8.796875 44.203125 21.1875 
M 23.5 5.265625 
C 16.40625 5.265625 10.296875 11.078125 10.296875 22 
C 10.296875 33.609375 17.40625 37.921875 23.40625 37.921875 
C 29.90625 37.921875 36.59375 33.21875 36.59375 22 
C 36.59375 10.671875 30.09375 5.265625 23.5 5.265625 
" id="CMSS17-111"/>
     <path d="M 40.90625 29.328125 
C 40.90625 35.671875 39.40625 44 28.09375 44 
C 21.703125 44 17.5 40.71875 14.703125 37.328125 
L 14.703125 43.09375 
L 7.40625 43.09375 
L 7.40625 0 
L 15 0 
L 15 24.359375 
C 15 30.6875 17.40625 37.9375 24.203125 37.9375 
C 33 37.9375 33.296875 32 33.296875 28.578125 
L 33.296875 0 
L 40.90625 0 
z
" id="CMSS17-110"/>
     <path d="M 16.796875 37 
L 26.90625 37 
L 26.90625 42.765625 
L 16.59375 42.765625 
L 16.59375 55.609375 
C 16.59375 62.71875 22 63.9375 25.09375 63.9375 
C 26.09375 63.9375 28.90625 63.9375 32.5 62.640625 
L 32.5 69.203125 
C 30.203125 69.703125 27.40625 70 25.203125 70 
C 15.90625 70 9.40625 62.390625 9.40625 52.484375 
L 9.40625 42.765625 
L 2.5 42.765625 
L 2.5 37 
L 9.40625 37 
L 9.40625 0 
L 16.796875 0 
z
" id="CMSS17-102"/>
     <path d="M 38.5 39.703125 
C 38.5 40.390625 33.90625 42.40625 32.703125 42.796875 
C 29.40625 44 25.203125 44 24.09375 44 
C 11.09375 44 3.296875 32.703125 3.296875 21.296875 
C 3.296875 9.296875 12 -1 23.703125 -1 
C 30.40625 -1 35.203125 1.1875 39.09375 3.78125 
L 38.5 10.375 
C 34.203125 7.078125 29.203125 5.265625 23.796875 5.265625 
C 16 5.265625 10.90625 12.09375 10.90625 21.390625 
C 10.90625 28.609375 14.203125 37.71875 24.203125 37.71875 
C 29.703125 37.71875 32.796875 36.609375 37.40625 33.515625 
z
" id="CMSS17-99"/>
     <path d="M 32.203125 41.046875 
C 26.296875 43.859375 21.703125 43.859375 18.703125 43.859375 
C 11.59375 43.859375 3.09375 41.375 3.09375 31.296875 
C 3.09375 21.234375 14.09375 19.03125 17.09375 18.421875 
C 21.703125 17.53125 26.796875 16.53125 26.796875 11.5625 
C 26.796875 5.265625 19.59375 5.265625 18.296875 5.265625 
C 14.296875 5.265625 8.796875 6.359375 3.796875 9.96875 
L 2.59375 3.28125 
C 8.296875 0 13.796875 -1 18.40625 -1 
C 30.703125 -1 33.796875 6.5 33.796875 12.203125 
C 33.796875 17.09375 31 20.390625 29.09375 21.890625 
C 25.796875 24.5 24.59375 24.796875 16.40625 26.5 
C 15 26.703125 10.09375 27.796875 10.09375 32.28125 
C 10.09375 38 16.40625 38 17.796875 38 
C 24.296875 38 28.296875 35.984375 31 34.5 
z
" id="CMSS17-115"/>
     <path d="M 16.703125 37 
L 29.703125 37 
L 29.703125 42.765625 
L 16.703125 42.765625 
L 16.703125 55 
L 9.59375 55 
L 9.59375 42.765625 
L 1.703125 42.765625 
L 1.703125 37 
L 9.40625 37 
L 9.40625 11.703125 
C 9.40625 6 10.703125 -1 17.296875 -1 
C 22.296875 -1 26.90625 0.390625 31.296875 2.6875 
L 29.703125 8.5625 
C 27.296875 6.46875 24.40625 5.265625 21.296875 5.265625 
C 16.90625 5.265625 16.703125 10.875 16.703125 13.375 
z
" id="CMSS17-116"/>
     <path d="M 14.90625 69 
L 7.5 69 
L 7.5 -0.203125 
L 15.09375 -0.203125 
L 15.09375 4.28125 
C 18.90625 0.59375 23.5 -1 27.59375 -1 
C 37.203125 -1 45 8.578125 45 21.125 
C 45 32.59375 39 43.0625 30.09375 43.0625 
C 23.796875 43.0625 18.203125 40.484375 14.90625 37.796875 
z
M 15.09375 31.96875 
C 17.296875 34.71875 20.40625 37 24.796875 37 
C 30.703125 37 37.40625 32.765625 37.40625 21.125 
C 37.40625 8.71875 29.40625 5.078125 23.90625 5.078125 
C 21.90625 5.078125 19.796875 5.5625 17.796875 7.25 
C 15.09375 9.609375 15.09375 11.078125 15.09375 12.453125 
z
" id="CMSS17-98"/>
     <path d="M 14.90625 21.296875 
C 14.90625 30.703125 21.796875 37 30.59375 37 
L 30.59375 43.578125 
C 24.203125 43.578125 18.203125 40.390625 14.59375 35.203125 
L 14.59375 43.09375 
L 7.5 43.09375 
L 7.5 0 
L 14.90625 0 
z
" id="CMSS17-114"/>
     <path d="M 37.59375 27.984375 
C 37.59375 37.375 30.90625 43.875 21.90625 43.875 
C 17.5 43.875 12.703125 43.078125 7.203125 39.890625 
L 7.796875 33.359375 
C 10.296875 35.125 14.59375 38 21.796875 38 
C 26.90625 38 30 34.0625 30 27.84375 
L 30 24 
C 14 24 4 19.34375 4 11.34375 
C 4 7.203125 6.5 -1 14.796875 -1 
C 16.296875 -1 24.40625 -1 30.203125 3.390625 
L 30.203125 -0.296875 
L 37.59375 -0.296875 
z
M 30 12.75 
C 30 10.953125 30 8.5625 27 6.78125 
C 24.40625 5.078125 21.09375 5.078125 19.703125 5.078125 
C 14.703125 5.078125 11.296875 7.984375 11.296875 11.625 
C 11.296875 18.921875 26.90625 18.921875 30 18.921875 
z
" id="CMSS17-97"/>
     <path d="M 40.90625 29.546875 
C 40.90625 35.8125 39.40625 44.0625 28.09375 44.0625 
C 21.796875 44.0625 17.703125 40.984375 14.796875 37.609375 
L 14.796875 69.5 
L 7.40625 69.5 
L 7.40625 0.5 
L 15 0.5 
L 15 24.578125 
C 15 30.828125 17.40625 38 24.203125 38 
C 33 38 33.296875 32.125 33.296875 28.734375 
L 33.296875 0.5 
L 40.90625 0.5 
z
" id="CMSS17-104"/>
     <path d="M 15.09375 5.203125 
C 18.40625 2.015625 22.90625 -0.078125 27.703125 -0.078125 
C 37 -0.078125 45 9.421875 45 22.0625 
C 45 33.734375 39 44 30.40625 44 
C 25.40625 44 19.40625 42.21875 14.90625 38.625 
L 14.90625 43.203125 
L 7.5 43.203125 
L 7.5 -19 
L 15.09375 -19 
z
M 15.09375 32.8125 
C 15.90625 34 19.296875 37.734375 24.796875 37.734375 
C 31.796875 37.734375 37.40625 30.625 37.40625 22.0625 
C 37.40625 12.296875 30.59375 6 23.90625 6 
C 21.90625 6 19.796875 6.484375 17.796875 8.171875 
C 15.09375 10.53125 15.09375 12 15.09375 13.390625 
z
" id="CMSS17-112"/>
     <path d="M 67 29.328125 
C 67 36.0625 65.296875 44 54.09375 44 
C 46.59375 44 42.09375 39.3125 40.09375 36.421875 
C 38.296875 41.71875 34.09375 44 28.09375 44 
C 21.296875 44 17 40.125 14.703125 37.328125 
L 14.703125 43.09375 
L 7.40625 43.09375 
L 7.40625 0 
L 15 0 
L 15 24.359375 
C 15 30.296875 17.203125 37.9375 24.296875 37.9375 
C 33.40625 37.9375 33.40625 31.5 33.40625 28.578125 
L 33.40625 0 
L 41 0 
L 41 24.359375 
C 41 30.296875 43.203125 37.9375 50.296875 37.9375 
C 59.40625 37.9375 59.40625 31.5 59.40625 28.578125 
L 59.40625 0 
L 67 0 
z
" id="CMSS17-109"/>
     <path d="M 25.203125 74.5 
C 19.796875 69.015625 7.40625 56.265625 7.40625 24.8125 
C 7.40625 -6.765625 19.796875 -19.421875 25.203125 -25 
L 31.296875 -25 
C 19 -12.25 15 5.578125 15 24.703125 
C 15 43.71875 18.796875 61.65625 31.296875 74.5 
z
" id="CMSS17-40"/>
     <path d="M 40.796875 69 
L 33.40625 69 
L 33.40625 38.09375 
C 30.296875 40.671875 25.203125 43.0625 19.59375 43.0625 
C 10.5 43.0625 3.296875 33.296875 3.296875 21.046875 
C 3.296875 8.78125 10.40625 -1 19.296875 -1 
C 26.203125 -1 30.796875 2.6875 33.203125 4.78125 
L 33.203125 -0.203125 
L 40.796875 -0.203125 
z
M 33.203125 13.0625 
C 33.203125 11.671875 33.203125 10.203125 30.09375 7.53125 
C 28.09375 5.859375 25.703125 5.078125 23.40625 5.078125 
C 18 5.078125 10.90625 9 10.90625 20.9375 
C 10.90625 33.34375 18.90625 37 24.40625 37 
C 28.09375 37 31.09375 35.21875 33.203125 32.265625 
z
" id="CMSS17-100"/>
     <path d="M 11.296875 -25 
C 16.703125 -19.515625 29.09375 -6.765625 29.09375 24.703125 
C 29.09375 56.265625 16.703125 68.921875 11.296875 74.5 
L 5.203125 74.5 
C 17.5 61.75 21.5 43.921875 21.5 24.8125 
C 21.5 5.78125 17.703125 -12.15625 5.203125 -25 
z
" id="CMSS17-41"/>
    </defs>
    <g style="fill:#262626;" transform="translate(72.800318 41.52)scale(0.16 -0.16)">
     <use transform="scale(0.996264)" xlink:href="#CMSS17-82"/>
     <use transform="translate(60.416155 0)scale(0.996264)" xlink:href="#CMSS17-101"/>
     <use transform="translate(102.054977 0)scale(0.996264)" xlink:href="#CMSS17-103"/>
     <use transform="translate(148.8986 0)scale(0.996264)" xlink:href="#CMSS17-105"/>
     <use transform="translate(171.079324 0)scale(0.996264)" xlink:href="#CMSS17-111"/>
     <use transform="translate(217.922947 0)scale(0.996264)" xlink:href="#CMSS17-110"/>
     <use transform="translate(297.357003 0)scale(0.996264)" xlink:href="#CMSS17-111"/>
     <use transform="translate(344.200626 0)scale(0.996264)" xlink:href="#CMSS17-102"/>
     <use transform="translate(404.056398 0)scale(0.996264)" xlink:href="#CMSS17-105"/>
     <use transform="translate(426.237121 0)scale(0.996264)" xlink:href="#CMSS17-110"/>
     <use transform="translate(474.442064 0)scale(0.996264)" xlink:href="#CMSS17-99"/>
     <use transform="translate(516.080886 0)scale(0.996264)" xlink:href="#CMSS17-111"/>
     <use transform="translate(562.92451 0)scale(0.996264)" xlink:href="#CMSS17-110"/>
     <use transform="translate(611.129453 0)scale(0.996264)" xlink:href="#CMSS17-115"/>
     <use transform="translate(647.042995 0)scale(0.996264)" xlink:href="#CMSS17-105"/>
     <use transform="translate(669.223718 0)scale(0.996264)" xlink:href="#CMSS17-115"/>
     <use transform="translate(705.13726 0)scale(0.996264)" xlink:href="#CMSS17-116"/>
     <use transform="translate(738.968827 0)scale(0.996264)" xlink:href="#CMSS17-101"/>
     <use transform="translate(780.607649 0)scale(0.996264)" xlink:href="#CMSS17-110"/>
     <use transform="translate(828.812592 0)scale(0.996264)" xlink:href="#CMSS17-116"/>
     <use transform="translate(893.873271 0)scale(0.996264)" xlink:href="#CMSS17-98"/>
     <use transform="translate(939.47576 0)scale(0.996264)" xlink:href="#CMSS17-114"/>
     <use transform="translate(971.385533 0)scale(0.996264)" xlink:href="#CMSS17-97"/>
     <use transform="translate(1016.307454 0)scale(0.996264)" xlink:href="#CMSS17-110"/>
     <use transform="translate(1064.512397 0)scale(0.996264)" xlink:href="#CMSS17-99"/>
     <use transform="translate(1106.151219 0)scale(0.996264)" xlink:href="#CMSS17-104"/>
     <use transform="translate(1185.585275 0)scale(0.996264)" xlink:href="#CMSS17-112"/>
     <use transform="translate(1233.790218 0)scale(0.996264)" xlink:href="#CMSS17-97"/>
     <use transform="translate(1276.109685 0)scale(0.996264)" xlink:href="#CMSS17-114"/>
     <use transform="translate(1308.019457 0)scale(0.996264)" xlink:href="#CMSS17-97"/>
     <use transform="translate(1352.941378 0)scale(0.996264)" xlink:href="#CMSS17-109"/>
     <use transform="translate(1427.170632 0)scale(0.996264)" xlink:href="#CMSS17-101"/>
     <use transform="translate(1468.809454 0)scale(0.996264)" xlink:href="#CMSS17-116"/>
     <use transform="translate(1502.641021 0)scale(0.996264)" xlink:href="#CMSS17-101"/>
     <use transform="translate(1544.279843 0)scale(0.996264)" xlink:href="#CMSS17-114"/>
     <use transform="translate(1607.418728 0)scale(0.996264)" xlink:href="#CMSS17-101"/>
     <use transform="translate(1649.05755 0)scale(0.996264)" xlink:href="#CMSS17-115"/>
     <use transform="translate(1684.971092 0)scale(0.996264)" xlink:href="#CMSS17-116"/>
     <use transform="translate(1718.802659 0)scale(0.996264)" xlink:href="#CMSS17-105"/>
     <use transform="translate(1740.983382 0)scale(0.996264)" xlink:href="#CMSS17-109"/>
     <use transform="translate(1815.212636 0)scale(0.996264)" xlink:href="#CMSS17-97"/>
     <use transform="translate(1860.134557 0)scale(0.996264)" xlink:href="#CMSS17-116"/>
     <use transform="translate(1893.966124 0)scale(0.996264)" xlink:href="#CMSS17-105"/>
     <use transform="translate(1916.146847 0)scale(0.996264)" xlink:href="#CMSS17-111"/>
     <use transform="translate(1962.99047 0)scale(0.996264)" xlink:href="#CMSS17-110"/>
     <use transform="translate(2042.424526 0)scale(0.996264)" xlink:href="#CMSS17-40"/>
     <use transform="translate(2078.85844 0)scale(0.996264)" xlink:href="#CMSS17-114"/>
     <use transform="translate(2110.768213 0)scale(0.996264)" xlink:href="#CMSS17-101"/>
     <use transform="translate(2152.407035 0)scale(0.996264)" xlink:href="#CMSS17-115"/>
     <use transform="translate(2188.320577 0)scale(0.996264)" xlink:href="#CMSS17-116"/>
     <use transform="translate(2222.152144 0)scale(0.996264)" xlink:href="#CMSS17-114"/>
     <use transform="translate(2254.061916 0)scale(0.996264)" xlink:href="#CMSS17-105"/>
     <use transform="translate(2276.242639 0)scale(0.996264)" xlink:href="#CMSS17-99"/>
     <use transform="translate(2317.881461 0)scale(0.996264)" xlink:href="#CMSS17-116"/>
     <use transform="translate(2351.713028 0)scale(0.996264)" xlink:href="#CMSS17-101"/>
     <use transform="translate(2393.35185 0)scale(0.996264)" xlink:href="#CMSS17-100"/>
     <use transform="translate(2472.785906 0)scale(0.996264)" xlink:href="#CMSS17-99"/>
     <use transform="translate(2514.424728 0)scale(0.996264)" xlink:href="#CMSS17-97"/>
     <use transform="translate(2559.346649 0)scale(0.996264)" xlink:href="#CMSS17-115"/>
     <use transform="translate(2595.260191 0)scale(0.996264)" xlink:href="#CMSS17-101"/>
     <use transform="translate(2636.899013 0)scale(0.996264)" xlink:href="#CMSS17-41"/>
    </g>
   </g>
   <g id="legend_1">
    <g id="patch_5">
     <path d="M 455.734755 63.52 
L 475.734755 63.52 
L 475.734755 56.52 
L 455.734755 56.52 
z
" style="opacity:0.2;stroke:#000000;stroke-linejoin:miter;"/>
    </g>
    <g id="text_16">
     <!-- $\hat{w}=1$ -->
     <defs>
      <path d="M 22.90625 69.078125 
L 10.59375 55.546875 
L 11.796875 54.34375 
L 22.90625 65.09375 
L 34 54.34375 
L 35.203125 55.546875 
z
" id="CMR17-94"/>
      <path d="M 34.40625 6.09375 
C 36.59375 0.09375 42.796875 -1 46.59375 -1 
C 54.203125 -1 58.703125 5.59375 61.5 12.46875 
C 63.796875 18.265625 67.5 31.4375 67.5 37.328125 
C 67.5 43.40625 64.40625 44 63.5 44 
C 61.09375 44 58.90625 41.609375 58.90625 39.609375 
C 58.90625 38.421875 59.59375 37.71875 60.09375 37.328125 
C 61 36.421875 63.59375 33.734375 63.59375 28.546875 
C 63.59375 25.140625 60.796875 15.765625 58.703125 11.078125 
C 55.90625 4.984375 52.203125 1 47 1 
C 41.40625 1 39.59375 5.1875 39.59375 9.78125 
C 39.59375 12.671875 40.5 16.171875 40.90625 17.859375 
L 45.09375 34.625 
C 45.59375 36.625 46.5 40.109375 46.5 40.515625 
C 46.5 42.015625 45.296875 43.015625 43.796875 43.015625 
C 40.90625 43.015625 40.203125 40.515625 39.59375 38.125 
C 38.59375 34.234375 34.40625 17.359375 34 15.171875 
C 33.59375 13.46875 33.59375 12.375 33.59375 10.171875 
C 33.59375 7.78125 30.40625 3.984375 30.296875 3.796875 
C 29.203125 2.6875 27.59375 1 24.5 1 
C 16.59375 1 16.59375 8.484375 16.59375 10.171875 
C 16.59375 13.375 17.296875 17.765625 21.796875 29.640625 
C 23 32.734375 23.5 34.03125 23.5 36.015625 
C 23.5 40.21875 20.5 44 15.59375 44 
C 6.40625 44 2.703125 29.53125 2.703125 28.734375 
C 2.703125 28.34375 3.09375 27.84375 3.796875 27.84375 
C 4.703125 27.84375 4.796875 28.234375 5.203125 29.625 
C 7.703125 38.34375 11.59375 41.90625 15.296875 41.90625 
C 16.296875 41.90625 17.90625 41.90625 17.90625 38.71875 
C 17.90625 38.21875 17.90625 36.125 16.203125 31.734375 
C 11.5 19.265625 10.5 15.171875 10.5 11.375 
C 10.5 0.890625 19.09375 -1 24.203125 -1 
C 25.90625 -1 30.40625 -1 34.40625 6.09375 
" id="CMMI12-119"/>
      <path d="M 64.296875 31.515625 
C 65.796875 31.515625 67.296875 31.515625 67.296875 33.203125 
C 67.296875 35 65.59375 35 63.90625 35 
L 8 35 
C 6.296875 35 4.59375 35 4.59375 33.203125 
C 4.59375 31.515625 6.09375 31.515625 7.59375 31.515625 
z
M 63.90625 14 
C 65.59375 14 67.296875 14 67.296875 15.796875 
C 67.296875 17.484375 65.796875 17.484375 64.296875 17.484375 
L 7.59375 17.484375 
C 6.09375 17.484375 4.59375 17.484375 4.59375 15.796875 
C 4.59375 14 6.296875 14 8 14 
z
" id="CMR17-61"/>
     </defs>
     <g style="fill:#262626;" transform="translate(483.734755 63.52)scale(0.1 -0.1)">
      <use transform="translate(21.49038 0.006461)scale(0.996264)" xlink:href="#CMR17-94"/>
      <use transform="scale(0.996264)" xlink:href="#CMMI12-119"/>
      <use transform="translate(100.086924 0)scale(0.996264)" xlink:href="#CMR17-61"/>
      <use transform="translate(199.475721 0)scale(0.996264)" xlink:href="#CMR17-49"/>
     </g>
    </g>
   </g>
  </g>
 </g>
 <defs>
  <clipPath id="p226e155f2c">
   <rect height="304.92" width="446.4" x="72" y="47.52"/>
  </clipPath>
 </defs>
</svg>
