<?xml version="1.0" encoding="utf-8" standalone="no"?>
<!DOCTYPE svg PUBLIC "-//W3C//DTD SVG 1.1//EN"
  "http://www.w3.org/Graphics/SVG/1.1/DTD/svg11.dtd">
<!-- Created with matplotlib (http://matplotlib.org/) -->
<svg height="396pt" version="1.1" viewBox="0 0 576 396" width="576pt" xmlns="http://www.w3.org/2000/svg" xmlns:xlink="http://www.w3.org/1999/xlink">
 <defs>
  <style type="text/css">
*{stroke-linecap:butt;stroke-linejoin:round;}
  </style>
 </defs>
 <g id="figure_1">
  <g id="patch_1">
   <path d="M 0 396 
L 576 396 
L 576 0 
L 0 0 
z
" style="fill:#ffffff;"/>
  </g>
  <g id="axes_1">
   <g id="patch_2">
    <path d="M 142.74 352.44 
L 447.66 352.44 
L 447.66 47.52 
L 142.74 47.52 
z
" style="fill:#ffffff;"/>
   </g>
   <g id="matplotlib.axis_1">
    <g id="xtick_1">
     <g id="line2d_1">
      <defs>
       <path d="M 0 0 
L 0 6 
" id="m948d315dca" style="stroke:#262626;"/>
      </defs>
      <g>
       <use style="fill:#262626;stroke:#262626;" x="142.434469" xlink:href="#m948d315dca" y="352.44"/>
      </g>
     </g>
     <g id="text_1">
      <!-- $0.0$ -->
      <defs>
       <path d="M 42 31.640625 
C 42 37.75 41.90625 48.125 37.703125 56.109375 
C 34 63.109375 28.09375 65.59375 22.90625 65.59375 
C 18.09375 65.59375 12 63.40625 8.203125 56.203125 
C 4.203125 48.71875 3.796875 39.4375 3.796875 31.640625 
C 3.796875 25.953125 3.90625 17.28125 7 9.671875 
C 11.296875 -0.609375 19 -2 22.90625 -2 
C 27.5 -2 34.5 -0.109375 38.59375 9.375 
C 41.59375 16.28125 42 24.359375 42 31.640625 
M 22.90625 -0.40625 
C 16.5 -0.40625 12.703125 5.078125 11.296875 12.6875 
C 10.203125 18.5625 10.203125 27.15625 10.203125 32.75 
C 10.203125 40.4375 10.203125 46.828125 11.5 52.921875 
C 13.40625 61.390625 19 64 22.90625 64 
C 27 64 32.296875 61.296875 34.203125 53.125 
C 35.5 47.4375 35.59375 40.734375 35.59375 32.75 
C 35.59375 26.25 35.59375 18.265625 34.40625 12.375 
C 32.296875 1.484375 26.40625 -0.40625 22.90625 -0.40625 
" id="CMR17-48"/>
       <path d="M 18.40625 4.796875 
C 18.40625 7.6875 16 9.671875 13.59375 9.671875 
C 10.703125 9.671875 8.703125 7.28125 8.703125 4.890625 
C 8.703125 2 11.09375 0 13.5 0 
C 16.40625 0 18.40625 2.390625 18.40625 4.796875 
" id="CMMI12-58"/>
      </defs>
      <g style="fill:#262626;" transform="translate(133.709178 375.125876)scale(0.14 -0.14)">
       <use transform="scale(0.996264)" xlink:href="#CMR17-48"/>
       <use transform="translate(45.690477 0)scale(0.996264)" xlink:href="#CMMI12-58"/>
       <use transform="translate(72.787654 0)scale(0.996264)" xlink:href="#CMR17-48"/>
      </g>
     </g>
    </g>
    <g id="xtick_2">
     <g id="line2d_2">
      <g>
       <use style="fill:#262626;stroke:#262626;" x="203.540681" xlink:href="#m948d315dca" y="352.44"/>
      </g>
     </g>
     <g id="text_2">
      <!-- $0.2$ -->
      <defs>
       <path d="M 41.703125 15.453125 
L 39.90625 15.453125 
C 38.90625 8.375 38.09375 7.171875 37.703125 6.5625 
C 37.203125 5.765625 30 5.765625 28.59375 5.765625 
L 9.40625 5.765625 
C 13 9.671875 20 16.75 28.5 24.953125 
C 34.59375 30.734375 41.703125 37.53125 41.703125 47.421875 
C 41.703125 59.21875 32.296875 66 21.796875 66 
C 10.796875 66 4.09375 56.3125 4.09375 47.34375 
C 4.09375 43.4375 7 42.9375 8.203125 42.9375 
C 9.203125 42.9375 12.203125 43.546875 12.203125 47.03125 
C 12.203125 50.109375 9.59375 51 8.203125 51 
C 7.59375 51 7 50.90625 6.59375 50.703125 
C 8.5 59.21875 14.296875 63.40625 20.40625 63.40625 
C 29.09375 63.40625 34.796875 56.515625 34.796875 47.421875 
C 34.796875 38.734375 29.703125 31.25 24 24.75 
L 4.09375 2.28125 
L 4.09375 0 
L 39.296875 0 
z
" id="CMR17-50"/>
      </defs>
      <g style="fill:#262626;" transform="translate(194.81539 375.125876)scale(0.14 -0.14)">
       <use transform="scale(0.996264)" xlink:href="#CMR17-48"/>
       <use transform="translate(45.690477 0)scale(0.996264)" xlink:href="#CMMI12-58"/>
       <use transform="translate(72.787654 0)scale(0.996264)" xlink:href="#CMR17-50"/>
      </g>
     </g>
    </g>
    <g id="xtick_3">
     <g id="line2d_3">
      <g>
       <use style="fill:#262626;stroke:#262626;" x="264.646894" xlink:href="#m948d315dca" y="352.44"/>
      </g>
     </g>
     <g id="text_3">
      <!-- $0.4$ -->
      <defs>
       <path d="M 33.59375 64.40625 
C 33.59375 66.5 33.5 66.5 31.703125 66.5 
L 2 19.59375 
L 2 17 
L 27.796875 17 
L 27.796875 7.140625 
C 27.796875 3.5 27.59375 2.5 20.59375 2.5 
L 18.703125 2.5 
L 18.703125 0 
C 21.90625 0 27.296875 0 30.703125 0 
C 34.09375 0 39.5 0 42.703125 0 
L 42.703125 2.5 
L 40.796875 2.5 
C 33.796875 2.5 33.59375 3.5 33.59375 7.140625 
L 33.59375 17 
L 43.796875 17 
L 43.796875 19.59375 
L 33.59375 19.59375 
z
M 28.09375 57.859375 
L 28.09375 19.59375 
L 4 19.59375 
z
" id="CMR17-52"/>
      </defs>
      <g style="fill:#262626;" transform="translate(255.921603 375.125876)scale(0.14 -0.14)">
       <use transform="scale(0.996264)" xlink:href="#CMR17-48"/>
       <use transform="translate(45.690477 0)scale(0.996264)" xlink:href="#CMMI12-58"/>
       <use transform="translate(72.787654 0)scale(0.996264)" xlink:href="#CMR17-52"/>
      </g>
     </g>
    </g>
    <g id="xtick_4">
     <g id="line2d_4">
      <g>
       <use style="fill:#262626;stroke:#262626;" x="325.753106" xlink:href="#m948d315dca" y="352.44"/>
      </g>
     </g>
     <g id="text_4">
      <!-- $0.6$ -->
      <defs>
       <path d="M 10.59375 34 
C 10.59375 57.65625 21.796875 63 28.296875 63 
C 30.40625 63 35.5 62.640625 37.5 59 
C 35.90625 59 32.90625 59 32.90625 55.515625 
C 32.90625 52.828125 35.09375 51.921875 36.5 51.921875 
C 37.40625 51.921875 40.09375 52.3125 40.09375 55.625 
C 40.09375 61.78125 35.09375 65.296875 28.203125 65.296875 
C 16.296875 65.296875 3.796875 52.96875 3.796875 31 
C 3.796875 3.953125 15.09375 -2 23.09375 -2 
C 32.796875 -2 42 6.671875 42 20.046875 
C 42 32.515625 33.90625 41.59375 23.703125 41.59375 
C 17.59375 41.59375 13.09375 37.609375 10.59375 30.625 
z
M 23.09375 0.390625 
C 10.796875 0.390625 10.796875 18.75 10.796875 22.4375 
C 10.796875 29.625 14.203125 40 23.5 40 
C 25.203125 40 30.09375 40 33.40625 33.125 
C 35.203125 29.21875 35.203125 25.140625 35.203125 20.140625 
C 35.203125 14.75 35.203125 10.78125 33.09375 6.78125 
C 30.90625 2.671875 27.703125 0.390625 23.09375 0.390625 
" id="CMR17-54"/>
      </defs>
      <g style="fill:#262626;" transform="translate(317.027815 375.125876)scale(0.14 -0.14)">
       <use transform="scale(0.996264)" xlink:href="#CMR17-48"/>
       <use transform="translate(45.690477 0)scale(0.996264)" xlink:href="#CMMI12-58"/>
       <use transform="translate(72.787654 0)scale(0.996264)" xlink:href="#CMR17-54"/>
      </g>
     </g>
    </g>
    <g id="xtick_5">
     <g id="line2d_5">
      <g>
       <use style="fill:#262626;stroke:#262626;" x="386.859319" xlink:href="#m948d315dca" y="352.44"/>
      </g>
     </g>
     <g id="text_5">
      <!-- $0.8$ -->
      <defs>
       <path d="M 27.203125 35.375 
C 33.5 38.546875 39.90625 43.328125 39.90625 50.984375 
C 39.90625 60.015625 31.09375 65.296875 23 65.296875 
C 13.90625 65.296875 5.90625 58.734375 5.90625 49.6875 
C 5.90625 47.203125 6.5 42.921875 10.40625 39.140625 
C 11.40625 38.15625 15.59375 35.171875 18.296875 33.28125 
C 13.796875 30.984375 3.296875 25.53125 3.296875 14.59375 
C 3.296875 4.359375 13.09375 -2 22.796875 -2 
C 33.5 -2 42.5 5.65625 42.5 15.78125 
C 42.5 24.84375 36.40625 29.015625 32.40625 31.703125 
z
M 14.09375 44.09375 
C 13.296875 44.59375 9.296875 47.671875 9.296875 52.359375 
C 9.296875 58.421875 15.59375 63 22.796875 63 
C 30.703125 63 36.5 57.4375 36.5 50.96875 
C 36.5 41.703125 26.09375 36.421875 25.59375 36.421875 
C 25.5 36.421875 25.40625 36.421875 24.59375 37.03125 
z
M 32.5 23.734375 
C 34 22.640625 38.796875 19.375 38.796875 13.296875 
C 38.796875 5.953125 31.40625 0.390625 23 0.390625 
C 13.90625 0.390625 7 6.84375 7 14.6875 
C 7 22.546875 13.09375 29.09375 20 32.1875 
z
" id="CMR17-56"/>
      </defs>
      <g style="fill:#262626;" transform="translate(378.134028 375.125876)scale(0.14 -0.14)">
       <use transform="scale(0.996264)" xlink:href="#CMR17-48"/>
       <use transform="translate(45.690477 0)scale(0.996264)" xlink:href="#CMMI12-58"/>
       <use transform="translate(72.787654 0)scale(0.996264)" xlink:href="#CMR17-56"/>
      </g>
     </g>
    </g>
    <g id="xtick_6">
     <g id="line2d_6">
      <g>
       <use style="fill:#262626;stroke:#262626;" x="447.965531" xlink:href="#m948d315dca" y="352.44"/>
      </g>
     </g>
     <g id="text_6">
      <!-- $1.0$ -->
      <defs>
       <path d="M 26.59375 63.40625 
C 26.59375 65.5 26.5 65.5 25.09375 65.5 
C 21.203125 61.1875 15.296875 59.796875 9.703125 59.796875 
C 9.40625 59.796875 8.90625 59.796875 8.796875 59.5 
C 8.703125 59.296875 8.703125 59.09375 8.703125 57 
C 11.796875 57 17 57.59375 21 59.984375 
L 21 7.203125 
C 21 3.6875 20.796875 2.5 12.203125 2.5 
L 9.203125 2.5 
L 9.203125 0 
C 14 0 19 0 23.796875 0 
C 28.59375 0 33.59375 0 38.40625 0 
L 38.40625 2.5 
L 35.40625 2.5 
C 26.796875 2.5 26.59375 3.59375 26.59375 7.15625 
z
" id="CMR17-49"/>
      </defs>
      <g style="fill:#262626;" transform="translate(439.24024 375.125876)scale(0.14 -0.14)">
       <use transform="scale(0.996264)" xlink:href="#CMR17-49"/>
       <use transform="translate(45.690477 0)scale(0.996264)" xlink:href="#CMMI12-58"/>
       <use transform="translate(72.787654 0)scale(0.996264)" xlink:href="#CMR17-48"/>
      </g>
     </g>
    </g>
    <g id="text_7">
     <!-- $x$ -->
     <defs>
      <path d="M 47.40625 40.71875 
C 44.203125 40.109375 43 37.71875 43 35.828125 
C 43 33.421875 44.90625 32.625 46.296875 32.625 
C 49.296875 32.625 51.40625 35.21875 51.40625 37.921875 
C 51.40625 42.109375 46.59375 44 42.40625 44 
C 36.296875 44 32.90625 38.015625 32 36.125 
C 29.703125 44 23.5 44 21.703125 44 
C 11.5 44 6.09375 30.9375 6.09375 28.734375 
C 6.09375 28.34375 6.5 27.84375 7.203125 27.84375 
C 8 27.84375 8.203125 28.4375 8.40625 28.84375 
C 11.796875 39.921875 18.5 42.015625 21.40625 42.015625 
C 25.90625 42.015625 26.796875 37.8125 26.796875 35.421875 
C 26.796875 33.234375 26.203125 30.9375 25 26.140625 
L 21.59375 12.46875 
C 20.09375 6.484375 17.203125 1 11.90625 1 
C 11.40625 1 8.90625 1 6.796875 2.296875 
C 10.40625 3 11.203125 5.984375 11.203125 7.1875 
C 11.203125 9.1875 9.703125 10.375 7.796875 10.375 
C 5.40625 10.375 2.796875 8.28125 2.796875 5.09375 
C 2.796875 0.890625 7.5 -1 11.796875 -1 
C 16.59375 -1 20 2.796875 22.09375 6.890625 
C 23.703125 1 28.703125 -1 32.40625 -1 
C 42.59375 -1 48 12.078125 48 14.265625 
C 48 14.765625 47.59375 15.171875 47 15.171875 
C 46.09375 15.171875 46 14.671875 45.703125 13.875 
C 43 5.09375 37.203125 1 32.703125 1 
C 29.203125 1 27.296875 3.59375 27.296875 7.6875 
C 27.296875 9.875 27.703125 11.46875 29.296875 18.0625 
L 32.796875 31.625 
C 34.296875 37.625 37.703125 42.015625 42.296875 42.015625 
C 42.5 42.015625 45.296875 42.015625 47.40625 40.71875 
" id="CMMI12-120"/>
     </defs>
     <g style="fill:#262626;" transform="translate(290.765275 392.907493)scale(0.16 -0.16)">
      <use transform="scale(0.996264)" xlink:href="#CMMI12-120"/>
     </g>
    </g>
   </g>
   <g id="matplotlib.axis_2">
    <g id="ytick_1">
     <g id="line2d_7">
      <defs>
       <path d="M 0 0 
L -6 0 
" id="mb378f120ec" style="stroke:#262626;"/>
      </defs>
      <g>
       <use style="fill:#262626;stroke:#262626;" x="142.74" xlink:href="#mb378f120ec" y="352.745531"/>
      </g>
     </g>
     <g id="text_8">
      <!-- $0.0$ -->
      <g style="fill:#262626;" transform="translate(112.289418 357.588469)scale(0.14 -0.14)">
       <use transform="scale(0.996264)" xlink:href="#CMR17-48"/>
       <use transform="translate(45.690477 0)scale(0.996264)" xlink:href="#CMMI12-58"/>
       <use transform="translate(72.787654 0)scale(0.996264)" xlink:href="#CMR17-48"/>
      </g>
     </g>
    </g>
    <g id="ytick_2">
     <g id="line2d_8">
      <g>
       <use style="fill:#262626;stroke:#262626;" x="142.74" xlink:href="#mb378f120ec" y="291.639319"/>
      </g>
     </g>
     <g id="text_9">
      <!-- $0.2$ -->
      <g style="fill:#262626;" transform="translate(112.289418 296.482257)scale(0.14 -0.14)">
       <use transform="scale(0.996264)" xlink:href="#CMR17-48"/>
       <use transform="translate(45.690477 0)scale(0.996264)" xlink:href="#CMMI12-58"/>
       <use transform="translate(72.787654 0)scale(0.996264)" xlink:href="#CMR17-50"/>
      </g>
     </g>
    </g>
    <g id="ytick_3">
     <g id="line2d_9">
      <g>
       <use style="fill:#262626;stroke:#262626;" x="142.74" xlink:href="#mb378f120ec" y="230.533106"/>
      </g>
     </g>
     <g id="text_10">
      <!-- $0.4$ -->
      <g style="fill:#262626;" transform="translate(112.289418 235.376044)scale(0.14 -0.14)">
       <use transform="scale(0.996264)" xlink:href="#CMR17-48"/>
       <use transform="translate(45.690477 0)scale(0.996264)" xlink:href="#CMMI12-58"/>
       <use transform="translate(72.787654 0)scale(0.996264)" xlink:href="#CMR17-52"/>
      </g>
     </g>
    </g>
    <g id="ytick_4">
     <g id="line2d_10">
      <g>
       <use style="fill:#262626;stroke:#262626;" x="142.74" xlink:href="#mb378f120ec" y="169.426894"/>
      </g>
     </g>
     <g id="text_11">
      <!-- $0.6$ -->
      <g style="fill:#262626;" transform="translate(112.289418 174.269832)scale(0.14 -0.14)">
       <use transform="scale(0.996264)" xlink:href="#CMR17-48"/>
       <use transform="translate(45.690477 0)scale(0.996264)" xlink:href="#CMMI12-58"/>
       <use transform="translate(72.787654 0)scale(0.996264)" xlink:href="#CMR17-54"/>
      </g>
     </g>
    </g>
    <g id="ytick_5">
     <g id="line2d_11">
      <g>
       <use style="fill:#262626;stroke:#262626;" x="142.74" xlink:href="#mb378f120ec" y="108.320681"/>
      </g>
     </g>
     <g id="text_12">
      <!-- $0.8$ -->
      <g style="fill:#262626;" transform="translate(112.289418 113.16362)scale(0.14 -0.14)">
       <use transform="scale(0.996264)" xlink:href="#CMR17-48"/>
       <use transform="translate(45.690477 0)scale(0.996264)" xlink:href="#CMMI12-58"/>
       <use transform="translate(72.787654 0)scale(0.996264)" xlink:href="#CMR17-56"/>
      </g>
     </g>
    </g>
    <g id="ytick_6">
     <g id="line2d_12">
      <g>
       <use style="fill:#262626;stroke:#262626;" x="142.74" xlink:href="#mb378f120ec" y="47.214469"/>
      </g>
     </g>
     <g id="text_13">
      <!-- $1.0$ -->
      <g style="fill:#262626;" transform="translate(112.289418 52.057407)scale(0.14 -0.14)">
       <use transform="scale(0.996264)" xlink:href="#CMR17-49"/>
       <use transform="translate(45.690477 0)scale(0.996264)" xlink:href="#CMMI12-58"/>
       <use transform="translate(72.787654 0)scale(0.996264)" xlink:href="#CMR17-48"/>
      </g>
     </g>
    </g>
    <g id="text_14">
     <!-- $y$ -->
     <defs>
      <path d="M 26.296875 -10.9375 
C 23.59375 -14.671875 19.703125 -18 14.796875 -18 
C 13.59375 -18 8.796875 -18 7.296875 -13.890625 
C 7.59375 -13.984375 8.09375 -13.984375 8.296875 -13.984375 
C 11.296875 -13.984375 13.296875 -11.390625 13.296875 -9.09375 
C 13.296875 -6.796875 11.40625 -6 9.90625 -6 
C 8.296875 -6 4.796875 -7.15625 4.796875 -11.859375 
C 4.796875 -16.734375 9.09375 -20.09375 14.796875 -20.09375 
C 24.796875 -20.09375 34.90625 -10.9375 37.703125 0.09375 
L 47.5 38.828125 
C 47.59375 39.328125 47.796875 39.9375 47.796875 40.53125 
C 47.796875 42.015625 46.59375 43.015625 45.09375 43.015625 
C 44.203125 43.015625 42.09375 42.609375 41.296875 39.609375 
L 33.90625 10.28125 
C 33.40625 8.484375 33.40625 8.28125 32.59375 7.1875 
C 30.59375 4.390625 27.296875 1 22.5 1 
C 16.90625 1 16.40625 6.484375 16.40625 9.1875 
C 16.40625 14.875 19.09375 22.546875 21.796875 29.734375 
C 22.90625 32.625 23.5 34.03125 23.5 36.015625 
C 23.5 40.21875 20.5 44 15.59375 44 
C 6.40625 44 2.703125 29.53125 2.703125 28.734375 
C 2.703125 28.34375 3.09375 27.84375 3.796875 27.84375 
C 4.703125 27.84375 4.796875 28.234375 5.203125 29.640625 
C 7.59375 38.015625 11.40625 42.015625 15.296875 42.015625 
C 16.203125 42.015625 17.90625 42.015625 17.90625 38.71875 
C 17.90625 36.125 16.796875 33.234375 15.296875 29.4375 
C 10.40625 16.359375 10.40625 13.078125 10.40625 10.671875 
C 10.40625 1.203125 17.203125 -1 22.203125 -1 
C 25.09375 -1 28.703125 -0.09375 32.203125 3.59375 
L 32.296875 3.5 
C 30.796875 -2.296875 29.796875 -6.125 26.296875 -10.9375 
" id="CMMI12-121"/>
     </defs>
     <g style="fill:#262626;" transform="translate(105.189942 203.785135)rotate(-90)scale(0.16 -0.16)">
      <use transform="scale(0.996264)" xlink:href="#CMMI12-121"/>
     </g>
    </g>
   </g>
   <g id="LineCollection_1">
    <path clip-path="url(#p5cbf91b562)" d="M 447.66 205.78798 
L 439.410661 204.173363 
L 431.622683 202.424248 
L 424.439639 200.587555 
L 417.717956 198.644762 
L 411.301804 196.557028 
L 405.496713 194.4415 
L 399.997154 192.207799 
L 394.803126 189.861035 
L 389.914629 187.40792 
L 385.331663 184.857216 
L 381.054228 182.220132 
L 377.08068 179.509419 
L 373.415952 176.745951 
L 370.05511 173.947657 
L 366.805767 170.954549 
L 363.817484 167.899238 
L 361.126793 164.843928 
L 358.476705 161.483086 
L 356.1205 158.122244 
L 354.032116 154.761403 
L 352.189805 151.400561 
L 350.439459 147.734188 
L 348.940956 144.067816 
L 347.678326 140.401443 
L 346.638674 136.73507 
L 345.752102 132.763166 
L 345.105114 128.791263 
L 344.690609 124.819359 
L 344.504086 120.847455 
L 344.543923 116.875551 
L 344.811048 112.903647 
L 345.30928 108.931743 
L 346.04541 104.95984 
L 346.945126 101.293467 
L 348.067835 97.627094 
L 349.428467 93.960721 
L 350.901398 90.59988 
L 352.63984 87.18464 
L 354.578661 83.878196 
L 356.620512 80.822886 
L 358.933581 77.767575 
L 361.50024 74.77463 
L 363.944489 72.237247 
L 366.882922 69.518236 
L 369.856511 67.073988 
L 373.207528 64.629739 
L 376.515102 62.491022 
L 380.255691 60.352305 
L 384.109539 58.416778 
L 388.081443 56.667526 
L 392.358878 55.027232 
L 396.941844 53.513645 
L 401.830341 52.142027 
L 406.718838 50.990304 
L 412.218397 49.924143 
L 418.023487 49.02984 
L 424.134108 48.312357 
L 430.855792 47.75327 
L 434.893744 47.52 
L 434.893744 47.52 
" style="fill:none;stroke:#000000;"/>
   </g>
   <g id="line2d_13">
    <path clip-path="url(#p5cbf91b562)" d="M 447.66 352.44 
L 447.66 205.78798 
L 447.644148 205.78509 
L 439.410661 204.173363 
L 431.622683 202.424248 
L 424.439639 200.587555 
L 417.717956 198.644762 
L 411.301804 196.557028 
L 405.496713 194.4415 
L 399.997154 192.207799 
L 394.803126 189.861035 
L 389.914629 187.40792 
L 385.331663 184.857216 
L 381.054228 182.220132 
L 377.08068 179.509419 
L 373.415952 176.745951 
L 370.05511 173.947657 
L 366.805767 170.954549 
L 363.817484 167.899238 
L 361.126793 164.843928 
L 358.476705 161.483086 
L 356.1205 158.122244 
L 354.032116 154.761403 
L 352.189805 151.400561 
L 350.439459 147.734188 
L 348.940956 144.067816 
L 347.678326 140.401443 
L 346.638674 136.73507 
L 345.752102 132.763166 
L 345.105114 128.791263 
L 344.690609 124.819359 
L 344.504086 120.847455 
L 344.543923 116.875551 
L 344.811048 112.903647 
L 345.30928 108.931743 
L 346.04541 104.95984 
L 346.945126 101.293467 
L 348.067835 97.627094 
L 349.428467 93.960721 
L 350.901398 90.59988 
L 352.63984 87.18464 
L 354.578661 83.878196 
L 356.620512 80.822886 
L 358.933581 77.767575 
L 361.50024 74.77463 
L 363.944489 72.237247 
L 366.882922 69.518236 
L 369.856511 67.073988 
L 373.207528 64.629739 
L 376.515102 62.491022 
L 380.255691 60.352305 
L 384.109539 58.416778 
L 388.081443 56.667526 
L 392.358878 55.027232 
L 396.941844 53.513645 
L 401.830341 52.142027 
L 406.718838 50.990304 
L 412.218397 49.924143 
L 418.023487 49.02984 
L 424.134108 48.312357 
L 430.855792 47.75327 
L 434.893744 47.52 
L 142.74 47.52 
L 142.74 47.52 
" style="fill:none;opacity:0.15;stroke:#4c72b0;stroke-linecap:round;stroke-width:0.5;"/>
   </g>
   <g id="patch_3">
    <path d="M 142.74 352.44 
L 142.74 47.52 
" style="fill:none;stroke:#262626;stroke-linecap:square;stroke-linejoin:miter;stroke-width:1.25;"/>
   </g>
   <g id="patch_4">
    <path d="M 142.74 352.44 
L 447.66 352.44 
" style="fill:none;stroke:#262626;stroke-linecap:square;stroke-linejoin:miter;stroke-width:1.25;"/>
   </g>
   <g id="text_15">
    <!-- Region of inconsistent branch parameter estimation (restricted case) -->
    <defs>
     <path d="M 39.40625 32.953125 
L 39.59375 33.046875 
C 55.203125 38.421875 55.296875 49.171875 55.296875 51.0625 
C 55.296875 60.515625 45.703125 69.578125 31.296875 69.578125 
L 8.90625 69.578125 
L 8.90625 0.5 
L 17.09375 0.5 
L 17.09375 32 
L 31.796875 32 
L 49.5 0.5 
L 57.90625 0.5 
z
M 17.09375 38.078125 
L 17.09375 64 
L 30.203125 64 
C 42.90625 64 47.40625 56.828125 47.40625 51.046875 
C 47.40625 45.65625 43.40625 38.078125 30.203125 38.078125 
z
" id="CMSS17-82"/>
     <path d="M 39.09375 21.515625 
C 39.09375 24.84375 38.90625 31.296875 35.703125 36.640625 
C 32.203125 42.390625 26.5 44 22.203125 44 
C 11.796875 44 3 34.1875 3 21.484375 
C 3 9.09375 12.09375 -1 23.59375 -1 
C 28.09375 -1 33.59375 0.296875 38.59375 3.875 
C 38.59375 4.28125 38.40625 6.46875 38.296875 6.5625 
C 38.296875 6.765625 38 9.84375 38 10.25 
C 33.203125 6.359375 27.703125 5.078125 23.703125 5.078125 
C 17.296875 5.078125 10.40625 10.421875 10.09375 21.515625 
z
M 10.90625 27 
C 12.203125 32.5625 16.59375 37.828125 22.203125 37.828125 
C 23.703125 37.828125 30.703125 37.828125 32.5 27 
z
" id="CMSS17-101"/>
     <path d="M 44.5 43.875 
C 38.796875 43.875 33.90625 42.78125 29.90625 40.890625 
C 26.59375 43.390625 23.203125 43.875 20.90625 43.875 
C 12.203125 43.875 5.59375 36.703125 5.59375 28.34375 
C 5.59375 22.9375 8.59375 18.859375 8.796875 18.671875 
C 7 16.171875 6 13.484375 6 10.5 
C 6 7 7.40625 4.515625 8.5 3.125 
C 3.296875 -0.046875 2.59375 -4.90625 2.59375 -6.796875 
C 2.59375 -14.03125 11.703125 -20 23.40625 -20 
C 35.203125 -20 44.296875 -14.03125 44.296875 -6.6875 
C 44.296875 7 29 7 24.796875 7 
L 16.703125 7 
C 15.203125 7 11.203125 7 11.203125 12.359375 
C 11.203125 14.390625 12.09375 15.6875 12.203125 15.78125 
C 13.703125 14.6875 16.796875 13 20.90625 13 
C 29.203125 13 36.09375 19.96875 36.09375 28.546875 
C 36.09375 33.3125 33.90625 36.796875 33 38 
L 33.296875 38 
C 33.59375 38 37.796875 38 39.296875 38 
C 42.5 38 42.796875 37.953125 45.59375 37.796875 
z
M 20.90625 18.46875 
C 17.5 18.46875 12.703125 20.546875 12.703125 28.484375 
C 12.703125 37.109375 18.203125 38.5 20.796875 38.5 
C 24.203125 38.5 29 36.421875 29 28.484375 
C 29 19.859375 23.5 18.46875 20.90625 18.46875 
M 24.703125 -0.15625 
C 27.09375 -0.15625 37.203125 -0.15625 37.203125 -6.90625 
C 37.203125 -11.15625 31 -14.515625 23.5 -14.515625 
C 15.90625 -14.515625 9.703125 -11.25 9.703125 -6.796875 
C 9.703125 -6.296875 9.703125 -0.15625 16.59375 -0.15625 
z
" id="CMSS17-103"/>
     <path d="M 15.296875 65.359375 
L 6.90625 65.359375 
L 6.90625 57 
L 15.296875 57 
z
M 14.796875 42.796875 
L 7.40625 42.796875 
L 7.40625 0 
L 14.796875 0 
z
" id="CMSS17-105"/>
     <path d="M 44.203125 21.1875 
C 44.203125 34 34.703125 44 23.5 44 
C 12 44 2.703125 33.703125 2.703125 21.1875 
C 2.703125 8.5 12.296875 -1 23.40625 -1 
C 34.796875 -1 44.203125 8.796875 44.203125 21.1875 
M 23.5 5.265625 
C 16.40625 5.265625 10.296875 11.078125 10.296875 22 
C 10.296875 33.609375 17.40625 37.921875 23.40625 37.921875 
C 29.90625 37.921875 36.59375 33.21875 36.59375 22 
C 36.59375 10.671875 30.09375 5.265625 23.5 5.265625 
" id="CMSS17-111"/>
     <path d="M 40.90625 29.328125 
C 40.90625 35.671875 39.40625 44 28.09375 44 
C 21.703125 44 17.5 40.71875 14.703125 37.328125 
L 14.703125 43.09375 
L 7.40625 43.09375 
L 7.40625 0 
L 15 0 
L 15 24.359375 
C 15 30.6875 17.40625 37.9375 24.203125 37.9375 
C 33 37.9375 33.296875 32 33.296875 28.578125 
L 33.296875 0 
L 40.90625 0 
z
" id="CMSS17-110"/>
     <path d="M 16.796875 37 
L 26.90625 37 
L 26.90625 42.765625 
L 16.59375 42.765625 
L 16.59375 55.609375 
C 16.59375 62.71875 22 63.9375 25.09375 63.9375 
C 26.09375 63.9375 28.90625 63.9375 32.5 62.640625 
L 32.5 69.203125 
C 30.203125 69.703125 27.40625 70 25.203125 70 
C 15.90625 70 9.40625 62.390625 9.40625 52.484375 
L 9.40625 42.765625 
L 2.5 42.765625 
L 2.5 37 
L 9.40625 37 
L 9.40625 0 
L 16.796875 0 
z
" id="CMSS17-102"/>
     <path d="M 38.5 39.703125 
C 38.5 40.390625 33.90625 42.40625 32.703125 42.796875 
C 29.40625 44 25.203125 44 24.09375 44 
C 11.09375 44 3.296875 32.703125 3.296875 21.296875 
C 3.296875 9.296875 12 -1 23.703125 -1 
C 30.40625 -1 35.203125 1.1875 39.09375 3.78125 
L 38.5 10.375 
C 34.203125 7.078125 29.203125 5.265625 23.796875 5.265625 
C 16 5.265625 10.90625 12.09375 10.90625 21.390625 
C 10.90625 28.609375 14.203125 37.71875 24.203125 37.71875 
C 29.703125 37.71875 32.796875 36.609375 37.40625 33.515625 
z
" id="CMSS17-99"/>
     <path d="M 32.203125 41.046875 
C 26.296875 43.859375 21.703125 43.859375 18.703125 43.859375 
C 11.59375 43.859375 3.09375 41.375 3.09375 31.296875 
C 3.09375 21.234375 14.09375 19.03125 17.09375 18.421875 
C 21.703125 17.53125 26.796875 16.53125 26.796875 11.5625 
C 26.796875 5.265625 19.59375 5.265625 18.296875 5.265625 
C 14.296875 5.265625 8.796875 6.359375 3.796875 9.96875 
L 2.59375 3.28125 
C 8.296875 0 13.796875 -1 18.40625 -1 
C 30.703125 -1 33.796875 6.5 33.796875 12.203125 
C 33.796875 17.09375 31 20.390625 29.09375 21.890625 
C 25.796875 24.5 24.59375 24.796875 16.40625 26.5 
C 15 26.703125 10.09375 27.796875 10.09375 32.28125 
C 10.09375 38 16.40625 38 17.796875 38 
C 24.296875 38 28.296875 35.984375 31 34.5 
z
" id="CMSS17-115"/>
     <path d="M 16.703125 37 
L 29.703125 37 
L 29.703125 42.765625 
L 16.703125 42.765625 
L 16.703125 55 
L 9.59375 55 
L 9.59375 42.765625 
L 1.703125 42.765625 
L 1.703125 37 
L 9.40625 37 
L 9.40625 11.703125 
C 9.40625 6 10.703125 -1 17.296875 -1 
C 22.296875 -1 26.90625 0.390625 31.296875 2.6875 
L 29.703125 8.5625 
C 27.296875 6.46875 24.40625 5.265625 21.296875 5.265625 
C 16.90625 5.265625 16.703125 10.875 16.703125 13.375 
z
" id="CMSS17-116"/>
     <path d="M 14.90625 69 
L 7.5 69 
L 7.5 -0.203125 
L 15.09375 -0.203125 
L 15.09375 4.28125 
C 18.90625 0.59375 23.5 -1 27.59375 -1 
C 37.203125 -1 45 8.578125 45 21.125 
C 45 32.59375 39 43.0625 30.09375 43.0625 
C 23.796875 43.0625 18.203125 40.484375 14.90625 37.796875 
z
M 15.09375 31.96875 
C 17.296875 34.71875 20.40625 37 24.796875 37 
C 30.703125 37 37.40625 32.765625 37.40625 21.125 
C 37.40625 8.71875 29.40625 5.078125 23.90625 5.078125 
C 21.90625 5.078125 19.796875 5.5625 17.796875 7.25 
C 15.09375 9.609375 15.09375 11.078125 15.09375 12.453125 
z
" id="CMSS17-98"/>
     <path d="M 14.90625 21.296875 
C 14.90625 30.703125 21.796875 37 30.59375 37 
L 30.59375 43.578125 
C 24.203125 43.578125 18.203125 40.390625 14.59375 35.203125 
L 14.59375 43.09375 
L 7.5 43.09375 
L 7.5 0 
L 14.90625 0 
z
" id="CMSS17-114"/>
     <path d="M 37.59375 27.984375 
C 37.59375 37.375 30.90625 43.875 21.90625 43.875 
C 17.5 43.875 12.703125 43.078125 7.203125 39.890625 
L 7.796875 33.359375 
C 10.296875 35.125 14.59375 38 21.796875 38 
C 26.90625 38 30 34.0625 30 27.84375 
L 30 24 
C 14 24 4 19.34375 4 11.34375 
C 4 7.203125 6.5 -1 14.796875 -1 
C 16.296875 -1 24.40625 -1 30.203125 3.390625 
L 30.203125 -0.296875 
L 37.59375 -0.296875 
z
M 30 12.75 
C 30 10.953125 30 8.5625 27 6.78125 
C 24.40625 5.078125 21.09375 5.078125 19.703125 5.078125 
C 14.703125 5.078125 11.296875 7.984375 11.296875 11.625 
C 11.296875 18.921875 26.90625 18.921875 30 18.921875 
z
" id="CMSS17-97"/>
     <path d="M 40.90625 29.546875 
C 40.90625 35.8125 39.40625 44.0625 28.09375 44.0625 
C 21.796875 44.0625 17.703125 40.984375 14.796875 37.609375 
L 14.796875 69.5 
L 7.40625 69.5 
L 7.40625 0.5 
L 15 0.5 
L 15 24.578125 
C 15 30.828125 17.40625 38 24.203125 38 
C 33 38 33.296875 32.125 33.296875 28.734375 
L 33.296875 0.5 
L 40.90625 0.5 
z
" id="CMSS17-104"/>
     <path d="M 15.09375 5.203125 
C 18.40625 2.015625 22.90625 -0.078125 27.703125 -0.078125 
C 37 -0.078125 45 9.421875 45 22.0625 
C 45 33.734375 39 44 30.40625 44 
C 25.40625 44 19.40625 42.21875 14.90625 38.625 
L 14.90625 43.203125 
L 7.5 43.203125 
L 7.5 -19 
L 15.09375 -19 
z
M 15.09375 32.8125 
C 15.90625 34 19.296875 37.734375 24.796875 37.734375 
C 31.796875 37.734375 37.40625 30.625 37.40625 22.0625 
C 37.40625 12.296875 30.59375 6 23.90625 6 
C 21.90625 6 19.796875 6.484375 17.796875 8.171875 
C 15.09375 10.53125 15.09375 12 15.09375 13.390625 
z
" id="CMSS17-112"/>
     <path d="M 67 29.328125 
C 67 36.0625 65.296875 44 54.09375 44 
C 46.59375 44 42.09375 39.3125 40.09375 36.421875 
C 38.296875 41.71875 34.09375 44 28.09375 44 
C 21.296875 44 17 40.125 14.703125 37.328125 
L 14.703125 43.09375 
L 7.40625 43.09375 
L 7.40625 0 
L 15 0 
L 15 24.359375 
C 15 30.296875 17.203125 37.9375 24.296875 37.9375 
C 33.40625 37.9375 33.40625 31.5 33.40625 28.578125 
L 33.40625 0 
L 41 0 
L 41 24.359375 
C 41 30.296875 43.203125 37.9375 50.296875 37.9375 
C 59.40625 37.9375 59.40625 31.5 59.40625 28.578125 
L 59.40625 0 
L 67 0 
z
" id="CMSS17-109"/>
     <path d="M 25.203125 74.5 
C 19.796875 69.015625 7.40625 56.265625 7.40625 24.8125 
C 7.40625 -6.765625 19.796875 -19.421875 25.203125 -25 
L 31.296875 -25 
C 19 -12.25 15 5.578125 15 24.703125 
C 15 43.71875 18.796875 61.65625 31.296875 74.5 
z
" id="CMSS17-40"/>
     <path d="M 40.796875 69 
L 33.40625 69 
L 33.40625 38.09375 
C 30.296875 40.671875 25.203125 43.0625 19.59375 43.0625 
C 10.5 43.0625 3.296875 33.296875 3.296875 21.046875 
C 3.296875 8.78125 10.40625 -1 19.296875 -1 
C 26.203125 -1 30.796875 2.6875 33.203125 4.78125 
L 33.203125 -0.203125 
L 40.796875 -0.203125 
z
M 33.203125 13.0625 
C 33.203125 11.671875 33.203125 10.203125 30.09375 7.53125 
C 28.09375 5.859375 25.703125 5.078125 23.40625 5.078125 
C 18 5.078125 10.90625 9 10.90625 20.9375 
C 10.90625 33.34375 18.90625 37 24.40625 37 
C 28.09375 37 31.09375 35.21875 33.203125 32.265625 
z
" id="CMSS17-100"/>
     <path d="M 11.296875 -25 
C 16.703125 -19.515625 29.09375 -6.765625 29.09375 24.703125 
C 29.09375 56.265625 16.703125 68.921875 11.296875 74.5 
L 5.203125 74.5 
C 17.5 61.75 21.5 43.921875 21.5 24.8125 
C 21.5 5.78125 17.703125 -12.15625 5.203125 -25 
z
" id="CMSS17-41"/>
    </defs>
    <g style="fill:#262626;" transform="translate(54.600205 26.274)scale(0.18 -0.18)">
     <use transform="scale(0.996264)" xlink:href="#CMSS17-82"/>
     <use transform="translate(60.416155 0)scale(0.996264)" xlink:href="#CMSS17-101"/>
     <use transform="translate(102.054977 0)scale(0.996264)" xlink:href="#CMSS17-103"/>
     <use transform="translate(148.8986 0)scale(0.996264)" xlink:href="#CMSS17-105"/>
     <use transform="translate(171.079324 0)scale(0.996264)" xlink:href="#CMSS17-111"/>
     <use transform="translate(217.922947 0)scale(0.996264)" xlink:href="#CMSS17-110"/>
     <use transform="translate(297.357003 0)scale(0.996264)" xlink:href="#CMSS17-111"/>
     <use transform="translate(344.200626 0)scale(0.996264)" xlink:href="#CMSS17-102"/>
     <use transform="translate(404.056398 0)scale(0.996264)" xlink:href="#CMSS17-105"/>
     <use transform="translate(426.237121 0)scale(0.996264)" xlink:href="#CMSS17-110"/>
     <use transform="translate(474.442064 0)scale(0.996264)" xlink:href="#CMSS17-99"/>
     <use transform="translate(516.080886 0)scale(0.996264)" xlink:href="#CMSS17-111"/>
     <use transform="translate(562.92451 0)scale(0.996264)" xlink:href="#CMSS17-110"/>
     <use transform="translate(611.129453 0)scale(0.996264)" xlink:href="#CMSS17-115"/>
     <use transform="translate(647.042995 0)scale(0.996264)" xlink:href="#CMSS17-105"/>
     <use transform="translate(669.223718 0)scale(0.996264)" xlink:href="#CMSS17-115"/>
     <use transform="translate(705.13726 0)scale(0.996264)" xlink:href="#CMSS17-116"/>
     <use transform="translate(738.968827 0)scale(0.996264)" xlink:href="#CMSS17-101"/>
     <use transform="translate(780.607649 0)scale(0.996264)" xlink:href="#CMSS17-110"/>
     <use transform="translate(828.812592 0)scale(0.996264)" xlink:href="#CMSS17-116"/>
     <use transform="translate(893.873271 0)scale(0.996264)" xlink:href="#CMSS17-98"/>
     <use transform="translate(939.47576 0)scale(0.996264)" xlink:href="#CMSS17-114"/>
     <use transform="translate(971.385533 0)scale(0.996264)" xlink:href="#CMSS17-97"/>
     <use transform="translate(1016.307454 0)scale(0.996264)" xlink:href="#CMSS17-110"/>
     <use transform="translate(1064.512397 0)scale(0.996264)" xlink:href="#CMSS17-99"/>
     <use transform="translate(1106.151219 0)scale(0.996264)" xlink:href="#CMSS17-104"/>
     <use transform="translate(1185.585275 0)scale(0.996264)" xlink:href="#CMSS17-112"/>
     <use transform="translate(1233.790218 0)scale(0.996264)" xlink:href="#CMSS17-97"/>
     <use transform="translate(1276.109685 0)scale(0.996264)" xlink:href="#CMSS17-114"/>
     <use transform="translate(1308.019457 0)scale(0.996264)" xlink:href="#CMSS17-97"/>
     <use transform="translate(1352.941378 0)scale(0.996264)" xlink:href="#CMSS17-109"/>
     <use transform="translate(1427.170632 0)scale(0.996264)" xlink:href="#CMSS17-101"/>
     <use transform="translate(1468.809454 0)scale(0.996264)" xlink:href="#CMSS17-116"/>
     <use transform="translate(1502.641021 0)scale(0.996264)" xlink:href="#CMSS17-101"/>
     <use transform="translate(1544.279843 0)scale(0.996264)" xlink:href="#CMSS17-114"/>
     <use transform="translate(1607.418728 0)scale(0.996264)" xlink:href="#CMSS17-101"/>
     <use transform="translate(1649.05755 0)scale(0.996264)" xlink:href="#CMSS17-115"/>
     <use transform="translate(1684.971092 0)scale(0.996264)" xlink:href="#CMSS17-116"/>
     <use transform="translate(1718.802659 0)scale(0.996264)" xlink:href="#CMSS17-105"/>
     <use transform="translate(1740.983382 0)scale(0.996264)" xlink:href="#CMSS17-109"/>
     <use transform="translate(1815.212636 0)scale(0.996264)" xlink:href="#CMSS17-97"/>
     <use transform="translate(1860.134557 0)scale(0.996264)" xlink:href="#CMSS17-116"/>
     <use transform="translate(1893.966124 0)scale(0.996264)" xlink:href="#CMSS17-105"/>
     <use transform="translate(1916.146847 0)scale(0.996264)" xlink:href="#CMSS17-111"/>
     <use transform="translate(1962.99047 0)scale(0.996264)" xlink:href="#CMSS17-110"/>
     <use transform="translate(2042.424526 0)scale(0.996264)" xlink:href="#CMSS17-40"/>
     <use transform="translate(2078.85844 0)scale(0.996264)" xlink:href="#CMSS17-114"/>
     <use transform="translate(2110.768213 0)scale(0.996264)" xlink:href="#CMSS17-101"/>
     <use transform="translate(2152.407035 0)scale(0.996264)" xlink:href="#CMSS17-115"/>
     <use transform="translate(2188.320577 0)scale(0.996264)" xlink:href="#CMSS17-116"/>
     <use transform="translate(2222.152144 0)scale(0.996264)" xlink:href="#CMSS17-114"/>
     <use transform="translate(2254.061916 0)scale(0.996264)" xlink:href="#CMSS17-105"/>
     <use transform="translate(2276.242639 0)scale(0.996264)" xlink:href="#CMSS17-99"/>
     <use transform="translate(2317.881461 0)scale(0.996264)" xlink:href="#CMSS17-116"/>
     <use transform="translate(2351.713028 0)scale(0.996264)" xlink:href="#CMSS17-101"/>
     <use transform="translate(2393.35185 0)scale(0.996264)" xlink:href="#CMSS17-100"/>
     <use transform="translate(2472.785906 0)scale(0.996264)" xlink:href="#CMSS17-99"/>
     <use transform="translate(2514.424728 0)scale(0.996264)" xlink:href="#CMSS17-97"/>
     <use transform="translate(2559.346649 0)scale(0.996264)" xlink:href="#CMSS17-115"/>
     <use transform="translate(2595.260191 0)scale(0.996264)" xlink:href="#CMSS17-101"/>
     <use transform="translate(2636.899013 0)scale(0.996264)" xlink:href="#CMSS17-41"/>
    </g>
   </g>
   <g id="legend_1">
    <g id="patch_5">
     <path d="M 469.306 65.12 
L 501.306 65.12 
L 501.306 53.92 
L 469.306 53.92 
z
" style="fill:#ffffff;stroke:#000000;stroke-linejoin:miter;"/>
    </g>
    <g id="text_16">
     <!-- $\hat{w}=1$ -->
     <defs>
      <path d="M 22.90625 69.078125 
L 10.59375 55.546875 
L 11.796875 54.34375 
L 22.90625 65.09375 
L 34 54.34375 
L 35.203125 55.546875 
z
" id="CMR17-94"/>
      <path d="M 34.40625 6.09375 
C 36.59375 0.09375 42.796875 -1 46.59375 -1 
C 54.203125 -1 58.703125 5.59375 61.5 12.46875 
C 63.796875 18.265625 67.5 31.4375 67.5 37.328125 
C 67.5 43.40625 64.40625 44 63.5 44 
C 61.09375 44 58.90625 41.609375 58.90625 39.609375 
C 58.90625 38.421875 59.59375 37.71875 60.09375 37.328125 
C 61 36.421875 63.59375 33.734375 63.59375 28.546875 
C 63.59375 25.140625 60.796875 15.765625 58.703125 11.078125 
C 55.90625 4.984375 52.203125 1 47 1 
C 41.40625 1 39.59375 5.1875 39.59375 9.78125 
C 39.59375 12.671875 40.5 16.171875 40.90625 17.859375 
L 45.09375 34.625 
C 45.59375 36.625 46.5 40.109375 46.5 40.515625 
C 46.5 42.015625 45.296875 43.015625 43.796875 43.015625 
C 40.90625 43.015625 40.203125 40.515625 39.59375 38.125 
C 38.59375 34.234375 34.40625 17.359375 34 15.171875 
C 33.59375 13.46875 33.59375 12.375 33.59375 10.171875 
C 33.59375 7.78125 30.40625 3.984375 30.296875 3.796875 
C 29.203125 2.6875 27.59375 1 24.5 1 
C 16.59375 1 16.59375 8.484375 16.59375 10.171875 
C 16.59375 13.375 17.296875 17.765625 21.796875 29.640625 
C 23 32.734375 23.5 34.03125 23.5 36.015625 
C 23.5 40.21875 20.5 44 15.59375 44 
C 6.40625 44 2.703125 29.53125 2.703125 28.734375 
C 2.703125 28.34375 3.09375 27.84375 3.796875 27.84375 
C 4.703125 27.84375 4.796875 28.234375 5.203125 29.625 
C 7.703125 38.34375 11.59375 41.90625 15.296875 41.90625 
C 16.296875 41.90625 17.90625 41.90625 17.90625 38.71875 
C 17.90625 38.21875 17.90625 36.125 16.203125 31.734375 
C 11.5 19.265625 10.5 15.171875 10.5 11.375 
C 10.5 0.890625 19.09375 -1 24.203125 -1 
C 25.90625 -1 30.40625 -1 34.40625 6.09375 
" id="CMMI12-119"/>
      <path d="M 64.296875 31.515625 
C 65.796875 31.515625 67.296875 31.515625 67.296875 33.203125 
C 67.296875 35 65.59375 35 63.90625 35 
L 8 35 
C 6.296875 35 4.59375 35 4.59375 33.203125 
C 4.59375 31.515625 6.09375 31.515625 7.59375 31.515625 
z
M 63.90625 14 
C 65.59375 14 67.296875 14 67.296875 15.796875 
C 67.296875 17.484375 65.796875 17.484375 64.296875 17.484375 
L 7.59375 17.484375 
C 6.09375 17.484375 4.59375 17.484375 4.59375 15.796875 
C 4.59375 14 6.296875 14 8 14 
z
" id="CMR17-61"/>
     </defs>
     <g style="fill:#262626;" transform="translate(514.106 65.12)scale(0.16 -0.16)">
      <use transform="translate(21.49038 0.006461)scale(0.996264)" xlink:href="#CMR17-94"/>
      <use transform="scale(0.996264)" xlink:href="#CMMI12-119"/>
      <use transform="translate(100.086924 0)scale(0.996264)" xlink:href="#CMR17-61"/>
      <use transform="translate(199.475721 0)scale(0.996264)" xlink:href="#CMR17-49"/>
     </g>
    </g>
   </g>
  </g>
 </g>
 <defs>
  <clipPath id="p5cbf91b562">
   <rect height="304.92" width="304.92" x="142.74" y="47.52"/>
  </clipPath>
 </defs>
</svg>
