<?xml version="1.0" encoding="UTF-8" standalone="no"?>
<!-- Created with matplotlib (http://matplotlib.org/) -->

<svg
   xmlns:dc="http://purl.org/dc/elements/1.1/"
   xmlns:cc="http://creativecommons.org/ns#"
   xmlns:rdf="http://www.w3.org/1999/02/22-rdf-syntax-ns#"
   xmlns:svg="http://www.w3.org/2000/svg"
   xmlns="http://www.w3.org/2000/svg"
   xmlns:xlink="http://www.w3.org/1999/xlink"
   xmlns:sodipodi="http://sodipodi.sourceforge.net/DTD/sodipodi-0.dtd"
   xmlns:inkscape="http://www.inkscape.org/namespaces/inkscape"
   height="345pt"
   version="1.1"
   viewBox="0 0 460 345"
   width="460pt"
   id="svg5631"
   inkscape:version="0.48.4 r9939"
   sodipodi:docname="branch-length-inconsistency.svg">
  <metadata
     id="metadata5965">
    <rdf:RDF>
      <cc:Work
         rdf:about="">
        <dc:format>image/svg+xml</dc:format>
        <dc:type
           rdf:resource="http://purl.org/dc/dcmitype/StillImage" />
        <dc:title></dc:title>
      </cc:Work>
    </rdf:RDF>
  </metadata>
  <sodipodi:namedview
     pagecolor="#ffffff"
     bordercolor="#666666"
     borderopacity="1"
     objecttolerance="10"
     gridtolerance="10"
     guidetolerance="10"
     inkscape:pageopacity="0"
     inkscape:pageshadow="2"
     inkscape:window-width="2495"
     inkscape:window-height="1416"
     id="namedview5963"
     showgrid="false"
     inkscape:zoom="2.9426087"
     inkscape:cx="287.5"
     inkscape:cy="215.625"
     inkscape:window-x="65"
     inkscape:window-y="24"
     inkscape:window-maximized="1"
     inkscape:current-layer="svg5631" />
  <defs
     id="defs5633">
    <style
       type="text/css"
       id="style5635">
*{stroke-linecap:butt;stroke-linejoin:round;}
  </style>
  </defs>
  <g
     id="figure_1">
    <g
       id="patch_1">
      <path
         d="M 0 345.6  L 460.8 345.6  L 460.8 0  L 0 0  z "
         style="fill:#ffffff;"
         id="path5639" />
    </g>
    <g
       id="axes_1">
      <g
         id="patch_2">
        <path
           d="M 57.6 307.584  L 414.72 307.584  L 414.72 41.472  L 57.6 41.472  z "
           style="fill:#ffffff;"
           id="path5643" />
      </g>
      <g
         id="matplotlib.axis_1">
        <g
           id="xtick_1">
          <g
             id="line2d_1">
            <defs
               id="defs5648">
              <path
                 d="M 0 0  L 0 3.5  "
                 id="m9f2b92b208"
                 style="stroke:#000000;stroke-width:0.8;" />
            </defs>
            <g
               id="g5651">
              <use
                 style="stroke:#000000;stroke-width:0.8;"
                 x="57.6"
                 xlink:href="#m9f2b92b208"
                 y="307.584"
                 id="use5653" />
            </g>
          </g>
          <g
             id="text_1">
            <!-- 0.0 -->
            <defs
               id="defs5656">
              <path
                 d="M 31.78125 66.40625  Q 24.171875 66.40625 20.328125 58.90625  Q 16.5 51.421875 16.5 36.375  Q 16.5 21.390625 20.328125 13.890625  Q 24.171875 6.390625 31.78125 6.390625  Q 39.453125 6.390625 43.28125 13.890625  Q 47.125 21.390625 47.125 36.375  Q 47.125 51.421875 43.28125 58.90625  Q 39.453125 66.40625 31.78125 66.40625  M 31.78125 74.21875  Q 44.046875 74.21875 50.515625 64.515625  Q 56.984375 54.828125 56.984375 36.375  Q 56.984375 17.96875 50.515625 8.265625  Q 44.046875 -1.421875 31.78125 -1.421875  Q 19.53125 -1.421875 13.0625 8.265625  Q 6.59375 17.96875 6.59375 36.375  Q 6.59375 54.828125 13.0625 64.515625  Q 19.53125 74.21875 31.78125 74.21875  "
                 id="DejaVuSans-30" />
              <path
                 d="M 10.6875 12.40625  L 21 12.40625  L 21 0  L 10.6875 0  z "
                 id="DejaVuSans-2e" />
            </defs>
            <g
               transform="translate(49.648438 322.182437)scale(0.1 -0.1)"
               id="g5660">
              <use
                 xlink:href="#DejaVuSans-30"
                 id="use5662" />
              <use
                 x="63.623047"
                 xlink:href="#DejaVuSans-2e"
                 id="use5664" />
              <use
                 x="95.410156"
                 xlink:href="#DejaVuSans-30"
                 id="use5666" />
            </g>
          </g>
        </g>
        <g
           id="xtick_2">
          <g
             id="line2d_2">
            <g
               id="g5670">
              <use
                 style="stroke:#000000;stroke-width:0.8;"
                 x="129.095495"
                 xlink:href="#m9f2b92b208"
                 y="307.584"
                 id="use5672" />
            </g>
          </g>
          <g
             id="text_2">
            <!-- 0.2 -->
            <defs
               id="defs5675">
              <path
                 d="M 19.1875 8.296875  L 53.609375 8.296875  L 53.609375 0  L 7.328125 0  L 7.328125 8.296875  Q 12.9375 14.109375 22.625 23.890625  Q 32.328125 33.6875 34.8125 36.53125  Q 39.546875 41.84375 41.421875 45.53125  Q 43.3125 49.21875 43.3125 52.78125  Q 43.3125 58.59375 39.234375 62.25  Q 35.15625 65.921875 28.609375 65.921875  Q 23.96875 65.921875 18.8125 64.3125  Q 13.671875 62.703125 7.8125 59.421875  L 7.8125 69.390625  Q 13.765625 71.78125 18.9375 73  Q 24.125 74.21875 28.421875 74.21875  Q 39.75 74.21875 46.484375 68.546875  Q 53.21875 62.890625 53.21875 53.421875  Q 53.21875 48.921875 51.53125 44.890625  Q 49.859375 40.875 45.40625 35.40625  Q 44.1875 33.984375 37.640625 27.21875  Q 31.109375 20.453125 19.1875 8.296875  "
                 id="DejaVuSans-32" />
            </defs>
            <g
               transform="translate(121.143933 322.182437)scale(0.1 -0.1)"
               id="g5678">
              <use
                 xlink:href="#DejaVuSans-30"
                 id="use5680" />
              <use
                 x="63.623047"
                 xlink:href="#DejaVuSans-2e"
                 id="use5682" />
              <use
                 x="95.410156"
                 xlink:href="#DejaVuSans-32"
                 id="use5684" />
            </g>
          </g>
        </g>
        <g
           id="xtick_3">
          <g
             id="line2d_3">
            <g
               id="g5688">
              <use
                 style="stroke:#000000;stroke-width:0.8;"
                 x="200.590991"
                 xlink:href="#m9f2b92b208"
                 y="307.584"
                 id="use5690" />
            </g>
          </g>
          <g
             id="text_3">
            <!-- 0.4 -->
            <defs
               id="defs5693">
              <path
                 d="M 37.796875 64.3125  L 12.890625 25.390625  L 37.796875 25.390625  z M 35.203125 72.90625  L 47.609375 72.90625  L 47.609375 25.390625  L 58.015625 25.390625  L 58.015625 17.1875  L 47.609375 17.1875  L 47.609375 0  L 37.796875 0  L 37.796875 17.1875  L 4.890625 17.1875  L 4.890625 26.703125  z "
                 id="DejaVuSans-34" />
            </defs>
            <g
               transform="translate(192.639428 322.182437)scale(0.1 -0.1)"
               id="g5696">
              <use
                 xlink:href="#DejaVuSans-30"
                 id="use5698" />
              <use
                 x="63.623047"
                 xlink:href="#DejaVuSans-2e"
                 id="use5700" />
              <use
                 x="95.410156"
                 xlink:href="#DejaVuSans-34"
                 id="use5702" />
            </g>
          </g>
        </g>
        <g
           id="xtick_4">
          <g
             id="line2d_4">
            <g
               id="g5706">
              <use
                 style="stroke:#000000;stroke-width:0.8;"
                 x="272.086486"
                 xlink:href="#m9f2b92b208"
                 y="307.584"
                 id="use5708" />
            </g>
          </g>
          <g
             id="text_4">
            <!-- 0.6 -->
            <defs
               id="defs5711">
              <path
                 d="M 33.015625 40.375  Q 26.375 40.375 22.484375 35.828125  Q 18.609375 31.296875 18.609375 23.390625  Q 18.609375 15.53125 22.484375 10.953125  Q 26.375 6.390625 33.015625 6.390625  Q 39.65625 6.390625 43.53125 10.953125  Q 47.40625 15.53125 47.40625 23.390625  Q 47.40625 31.296875 43.53125 35.828125  Q 39.65625 40.375 33.015625 40.375  M 52.59375 71.296875  L 52.59375 62.3125  Q 48.875 64.0625 45.09375 64.984375  Q 41.3125 65.921875 37.59375 65.921875  Q 27.828125 65.921875 22.671875 59.328125  Q 17.53125 52.734375 16.796875 39.40625  Q 19.671875 43.65625 24.015625 45.921875  Q 28.375 48.1875 33.59375 48.1875  Q 44.578125 48.1875 50.953125 41.515625  Q 57.328125 34.859375 57.328125 23.390625  Q 57.328125 12.15625 50.6875 5.359375  Q 44.046875 -1.421875 33.015625 -1.421875  Q 20.359375 -1.421875 13.671875 8.265625  Q 6.984375 17.96875 6.984375 36.375  Q 6.984375 53.65625 15.1875 63.9375  Q 23.390625 74.21875 37.203125 74.21875  Q 40.921875 74.21875 44.703125 73.484375  Q 48.484375 72.75 52.59375 71.296875  "
                 id="DejaVuSans-36" />
            </defs>
            <g
               transform="translate(264.134924 322.182437)scale(0.1 -0.1)"
               id="g5714">
              <use
                 xlink:href="#DejaVuSans-30"
                 id="use5716" />
              <use
                 x="63.623047"
                 xlink:href="#DejaVuSans-2e"
                 id="use5718" />
              <use
                 x="95.410156"
                 xlink:href="#DejaVuSans-36"
                 id="use5720" />
            </g>
          </g>
        </g>
        <g
           id="xtick_5">
          <g
             id="line2d_5">
            <g
               id="g5724">
              <use
                 style="stroke:#000000;stroke-width:0.8;"
                 x="343.581982"
                 xlink:href="#m9f2b92b208"
                 y="307.584"
                 id="use5726" />
            </g>
          </g>
          <g
             id="text_5">
            <!-- 0.8 -->
            <defs
               id="defs5729">
              <path
                 d="M 31.78125 34.625  Q 24.75 34.625 20.71875 30.859375  Q 16.703125 27.09375 16.703125 20.515625  Q 16.703125 13.921875 20.71875 10.15625  Q 24.75 6.390625 31.78125 6.390625  Q 38.8125 6.390625 42.859375 10.171875  Q 46.921875 13.96875 46.921875 20.515625  Q 46.921875 27.09375 42.890625 30.859375  Q 38.875 34.625 31.78125 34.625  M 21.921875 38.8125  Q 15.578125 40.375 12.03125 44.71875  Q 8.5 49.078125 8.5 55.328125  Q 8.5 64.0625 14.71875 69.140625  Q 20.953125 74.21875 31.78125 74.21875  Q 42.671875 74.21875 48.875 69.140625  Q 55.078125 64.0625 55.078125 55.328125  Q 55.078125 49.078125 51.53125 44.71875  Q 48 40.375 41.703125 38.8125  Q 48.828125 37.15625 52.796875 32.3125  Q 56.78125 27.484375 56.78125 20.515625  Q 56.78125 9.90625 50.3125 4.234375  Q 43.84375 -1.421875 31.78125 -1.421875  Q 19.734375 -1.421875 13.25 4.234375  Q 6.78125 9.90625 6.78125 20.515625  Q 6.78125 27.484375 10.78125 32.3125  Q 14.796875 37.15625 21.921875 38.8125  M 18.3125 54.390625  Q 18.3125 48.734375 21.84375 45.5625  Q 25.390625 42.390625 31.78125 42.390625  Q 38.140625 42.390625 41.71875 45.5625  Q 45.3125 48.734375 45.3125 54.390625  Q 45.3125 60.0625 41.71875 63.234375  Q 38.140625 66.40625 31.78125 66.40625  Q 25.390625 66.40625 21.84375 63.234375  Q 18.3125 60.0625 18.3125 54.390625  "
                 id="DejaVuSans-38" />
            </defs>
            <g
               transform="translate(335.630419 322.182437)scale(0.1 -0.1)"
               id="g5732">
              <use
                 xlink:href="#DejaVuSans-30"
                 id="use5734" />
              <use
                 x="63.623047"
                 xlink:href="#DejaVuSans-2e"
                 id="use5736" />
              <use
                 x="95.410156"
                 xlink:href="#DejaVuSans-38"
                 id="use5738" />
            </g>
          </g>
        </g>
        <g
           id="xtick_6">
          <g
             id="line2d_6">
            <g
               id="g5742">
              <use
                 style="stroke:#000000;stroke-width:0.8;"
                 x="415.077477"
                 xlink:href="#m9f2b92b208"
                 y="307.584"
                 id="use5744" />
            </g>
          </g>
          <g
             id="text_6">
            <!-- 1.0 -->
            <defs
               id="defs5747">
              <path
                 d="M 12.40625 8.296875  L 28.515625 8.296875  L 28.515625 63.921875  L 10.984375 60.40625  L 10.984375 69.390625  L 28.421875 72.90625  L 38.28125 72.90625  L 38.28125 8.296875  L 54.390625 8.296875  L 54.390625 0  L 12.40625 0  z "
                 id="DejaVuSans-31" />
            </defs>
            <g
               transform="translate(407.125915 322.182437)scale(0.1 -0.1)"
               id="g5750">
              <use
                 xlink:href="#DejaVuSans-31"
                 id="use5752" />
              <use
                 x="63.623047"
                 xlink:href="#DejaVuSans-2e"
                 id="use5754" />
              <use
                 x="95.410156"
                 xlink:href="#DejaVuSans-30"
                 id="use5756" />
            </g>
          </g>
        </g>
        <g
           id="text_7">
          <!-- x -->
          <defs
             id="defs5759">
            <path
               d="M 54.890625 54.6875  L 35.109375 28.078125  L 55.90625 0  L 45.3125 0  L 29.390625 21.484375  L 13.484375 0  L 2.875 0  L 24.125 28.609375  L 4.6875 54.6875  L 15.28125 54.6875  L 29.78125 35.203125  L 44.28125 54.6875  z "
               id="DejaVuSans-78" />
          </defs>
          <g
             transform="translate(231.425 340.419625)scale(0.16 -0.16)"
             id="g5762">
            <use
               xlink:href="#DejaVuSans-78"
               id="use5764" />
          </g>
        </g>
      </g>
      <g
         id="matplotlib.axis_2">
        <g
           id="ytick_1">
          <g
             id="line2d_7">
            <defs
               id="defs5769">
              <path
                 d="M 0 0  L -3.5 0  "
                 id="mcf4d1a1942"
                 style="stroke:#000000;stroke-width:0.8;" />
            </defs>
            <g
               id="g5772">
              <use
                 style="stroke:#000000;stroke-width:0.8;"
                 x="57.6"
                 xlink:href="#mcf4d1a1942"
                 y="307.584"
                 id="use5774" />
            </g>
          </g>
          <g
             id="text_8">
            <!-- 0.0 -->
            <g
               transform="translate(34.696875 311.383219)scale(0.1 -0.1)"
               id="g5777">
              <use
                 xlink:href="#DejaVuSans-30"
                 id="use5779" />
              <use
                 x="63.623047"
                 xlink:href="#DejaVuSans-2e"
                 id="use5781" />
              <use
                 x="95.410156"
                 xlink:href="#DejaVuSans-30"
                 id="use5783" />
            </g>
          </g>
        </g>
        <g
           id="ytick_2">
          <g
             id="line2d_8">
            <g
               id="g5787">
              <use
                 style="stroke:#000000;stroke-width:0.8;"
                 x="57.6"
                 xlink:href="#mcf4d1a1942"
                 y="254.308324"
                 id="use5789" />
            </g>
          </g>
          <g
             id="text_9">
            <!-- 0.2 -->
            <g
               transform="translate(34.696875 258.107543)scale(0.1 -0.1)"
               id="g5792">
              <use
                 xlink:href="#DejaVuSans-30"
                 id="use5794" />
              <use
                 x="63.623047"
                 xlink:href="#DejaVuSans-2e"
                 id="use5796" />
              <use
                 x="95.410156"
                 xlink:href="#DejaVuSans-32"
                 id="use5798" />
            </g>
          </g>
        </g>
        <g
           id="ytick_3">
          <g
             id="line2d_9">
            <g
               id="g5802">
              <use
                 style="stroke:#000000;stroke-width:0.8;"
                 x="57.6"
                 xlink:href="#mcf4d1a1942"
                 y="201.032649"
                 id="use5804" />
            </g>
          </g>
          <g
             id="text_10">
            <!-- 0.4 -->
            <g
               transform="translate(34.696875 204.831867)scale(0.1 -0.1)"
               id="g5807">
              <use
                 xlink:href="#DejaVuSans-30"
                 id="use5809" />
              <use
                 x="63.623047"
                 xlink:href="#DejaVuSans-2e"
                 id="use5811" />
              <use
                 x="95.410156"
                 xlink:href="#DejaVuSans-34"
                 id="use5813" />
            </g>
          </g>
        </g>
        <g
           id="ytick_4">
          <g
             id="line2d_10">
            <g
               id="g5817">
              <use
                 style="stroke:#000000;stroke-width:0.8;"
                 x="57.6"
                 xlink:href="#mcf4d1a1942"
                 y="147.756973"
                 id="use5819" />
            </g>
          </g>
          <g
             id="text_11">
            <!-- 0.6 -->
            <g
               transform="translate(34.696875 151.556192)scale(0.1 -0.1)"
               id="g5822">
              <use
                 xlink:href="#DejaVuSans-30"
                 id="use5824" />
              <use
                 x="63.623047"
                 xlink:href="#DejaVuSans-2e"
                 id="use5826" />
              <use
                 x="95.410156"
                 xlink:href="#DejaVuSans-36"
                 id="use5828" />
            </g>
          </g>
        </g>
        <g
           id="ytick_5">
          <g
             id="line2d_11">
            <g
               id="g5832">
              <use
                 style="stroke:#000000;stroke-width:0.8;"
                 x="57.6"
                 xlink:href="#mcf4d1a1942"
                 y="94.481297"
                 id="use5834" />
            </g>
          </g>
          <g
             id="text_12">
            <!-- 0.8 -->
            <g
               transform="translate(34.696875 98.280516)scale(0.1 -0.1)"
               id="g5837">
              <use
                 xlink:href="#DejaVuSans-30"
                 id="use5839" />
              <use
                 x="63.623047"
                 xlink:href="#DejaVuSans-2e"
                 id="use5841" />
              <use
                 x="95.410156"
                 xlink:href="#DejaVuSans-38"
                 id="use5843" />
            </g>
          </g>
        </g>
        <g
           id="ytick_6">
          <g
             id="line2d_12">
            <g
               id="g5847">
              <use
                 style="stroke:#000000;stroke-width:0.8;"
                 x="57.6"
                 xlink:href="#mcf4d1a1942"
                 y="41.205622"
                 id="use5849" />
            </g>
          </g>
          <g
             id="text_13">
            <!-- 1.0 -->
            <g
               transform="translate(34.696875 45.00484)scale(0.1 -0.1)"
               id="g5852">
              <use
                 xlink:href="#DejaVuSans-31"
                 id="use5854" />
              <use
                 x="63.623047"
                 xlink:href="#DejaVuSans-2e"
                 id="use5856" />
              <use
                 x="95.410156"
                 xlink:href="#DejaVuSans-30"
                 id="use5858" />
            </g>
          </g>
        </g>
        <g
           id="text_14">
          <!-- y -->
          <defs
             id="defs5861">
            <path
               d="M 32.171875 -5.078125  Q 28.375 -14.84375 24.75 -17.8125  Q 21.140625 -20.796875 15.09375 -20.796875  L 7.90625 -20.796875  L 7.90625 -13.28125  L 13.1875 -13.28125  Q 16.890625 -13.28125 18.9375 -11.515625  Q 21 -9.765625 23.484375 -3.21875  L 25.09375 0.875  L 2.984375 54.6875  L 12.5 54.6875  L 29.59375 11.921875  L 46.6875 54.6875  L 56.203125 54.6875  z "
               id="DejaVuSans-79" />
          </defs>
          <g
             transform="translate(27.369375 179.263)rotate(-90)scale(0.16 -0.16)"
             id="g5864">
            <use
               xlink:href="#DejaVuSans-79"
               id="use5866" />
          </g>
        </g>
      </g>
      <g
         id="LineCollection_1">
        <path
           clip-path="url(#pe3ef8a76cb)"
           d="M 414.72 257.771243  L 411.502703 257.771243  L 411.145225 257.504865  L 407.57045 257.504865  L 407.212973 257.238486  L 404.353153 257.238486  L 403.995676 256.972108  L 400.778378 256.972108  L 400.420901 256.70573  L 397.561081 256.70573  L 397.203604 256.439351  L 393.986306 256.439351  L 393.628829 256.172973  L 391.126486 256.172973  L 390.769009 255.906595  L 387.909189 255.906595  L 387.551712 255.640216  L 384.691892 255.640216  L 384.334414 255.373838  L 381.832072 255.373838  L 381.474595 255.107459  L 378.972252 255.107459  L 378.614775 254.841081  L 376.112432 254.841081  L 375.754955 254.574703  L 373.61009 254.574703  L 373.252613 254.308324  L 370.75027 254.308324  L 370.392793 254.041946  L 368.247928 254.041946  L 367.89045 253.775568  L 365.745586 253.775568  L 365.388108 253.509189  L 363.243243 253.509189  L 362.885766 253.242811  L 360.740901 253.242811  L 360.383423 252.976432  L 358.238559 252.976432  L 357.881081 252.710054  L 356.093694 252.710054  L 355.736216 252.443676  L 353.591351 252.443676  L 353.233874 252.177297  L 351.446486 252.177297  L 351.089009 251.910919  L 349.301622 251.910919  L 348.944144 251.644541  L 347.156757 251.644541  L 346.799279 251.378162  L 345.011892 251.378162  L 344.654414 251.111784  L 342.867027 251.111784  L 342.50955 250.845405  L 341.07964 250.845405  L 340.722162 250.579027  L 338.934775 250.579027  L 338.577297 250.312649  L 337.147387 250.312649  L 336.78991 250.04627  L 335.002523 250.04627  L 334.645045 249.779892  L 333.215135 249.779892  L 332.857658 249.513514  L 331.427748 249.513514  L 331.07027 249.247135  L 329.64036 249.247135  L 329.282883 248.980757  L 327.852973 248.980757  L 327.495495 248.714378  L 326.065586 248.714378  L 325.708108 248.448  L 324.278198 248.448  L 323.920721 248.181622  L 322.490811 248.181622  L 322.133333 247.915243  L 321.060901 247.915243  L 320.703423 247.648865  L 319.273514 247.648865  L 318.916036 247.382486  L 317.843604 247.382486  L 317.486126 247.116108  L 316.056216 247.116108  L 315.698739 246.84973  L 314.626306 246.84973  L 314.268829 246.583351  L 313.196396 246.583351  L 312.838919 246.316973  L 311.766486 246.316973  L 311.409009 246.050595  L 309.979099 246.050595  L 309.621622 245.784216  L 308.549189 245.784216  L 308.191712 245.517838  L 307.119279 245.517838  L 306.761802 245.251459  L 305.689369 245.251459  L 305.331892 244.985081  L 304.616937 244.985081  L 304.259459 244.718703  L 303.187027 244.718703  L 302.82955 244.452324  L 301.757117 244.452324  L 301.39964 244.185946  L 300.327207 244.185946  L 299.96973 243.919568  L 299.254775 243.919568  L 298.897297 243.653189  L 297.824865 243.653189  L 297.467387 243.386811  L 296.752432 243.386811  L 296.394955 243.120432  L 295.322523 243.120432  L 294.965045 242.854054  L 294.25009 242.854054  L 293.892613 242.587676  L 292.82018 242.587676  L 292.462703 242.321297  L 291.747748 242.321297  L 291.39027 242.054919  L 290.675315 242.054919  L 290.317838 241.788541  L 289.245405 241.788541  L 288.887928 241.522162  L 288.172973 241.522162  L 287.815495 241.255784  L 287.100541 241.255784  L 286.743063 240.989405  L 286.028108 240.989405  L 285.670631 240.723027  L 284.955676 240.723027  L 284.598198 240.456649  L 283.883243 240.456649  L 283.525766 240.19027  L 282.810811 240.19027  L 282.453333 239.923892  L 281.738378 239.923892  L 281.380901 239.657514  L 280.665946 239.657514  L 280.308468 239.391135  L 279.593514 239.391135  L 279.236036 239.124757  L 278.521081 239.124757  L 278.163604 238.858378  L 277.806126 238.858378  L 277.448649 238.592  L 276.733694 238.592  L 276.376216 238.325622  L 275.661261 238.325622  L 275.303784 238.059243  L 274.588829 238.059243  L 274.231351 237.792865  L 273.873874 237.792865  L 273.516396 237.526486  L 272.801441 237.526486  L 272.443964 237.260108  L 272.086486 237.260108  L 271.729009 236.99373  L 271.014054 236.99373  L 270.656577 236.727351  L 270.299099 236.727351  L 269.941622 236.460973  L 269.226667 236.460973  L 268.869189 236.194595  L 268.511712 236.194595  L 268.154234 235.928216  L 267.439279 235.928216  L 267.081802 235.661838  L 266.724324 235.661838  L 266.366847 235.395459  L 265.651892 235.395459  L 265.294414 235.129081  L 264.936937 235.129081  L 264.579459 234.862703  L 264.221982 234.862703  L 263.864505 234.596324  L 263.14955 234.596324  L 262.792072 234.329946  L 262.434595 234.329946  L 262.077117 234.063568  L 261.71964 234.063568  L 261.362162 233.797189  L 261.004685 233.797189  L 260.647207 233.530811  L 259.932252 233.530811  L 259.574775 233.264432  L 259.217297 233.264432  L 258.85982 232.998054  L 258.502342 232.998054  L 258.144865 232.731676  L 257.787387 232.731676  L 257.42991 232.465297  L 257.072432 232.465297  L 256.714955 232.198919  L 256.357477 232.198919  L 256 231.932541  L 255.642523 231.932541  L 255.285045 231.666162  L 254.927568 231.666162  L 254.57009 231.399784  L 254.212613 231.399784  L 253.855135 231.133405  L 253.497658 231.133405  L 253.14018 230.867027  L 252.782703 230.867027  L 252.425225 230.600649  L 252.067748 230.600649  L 251.71027 230.33427  L 251.352793 230.33427  L 250.995315 230.067892  L 250.637838 230.067892  L 250.28036 229.801514  L 249.922883 229.801514  L 249.565405 229.535135  L 249.207928 229.535135  L 248.492973 229.002378  L 248.135495 229.002378  L 247.778018 228.736  L 247.420541 228.736  L 247.063063 228.469622  L 246.705586 228.469622  L 246.348108 228.203243  L 245.990631 228.203243  L 245.275676 227.670486  L 244.918198 227.670486  L 244.560721 227.404108  L 244.203243 227.404108  L 243.845766 227.13773  L 243.488288 227.13773  L 242.773333 226.604973  L 242.415856 226.604973  L 241.700901 226.072216  L 241.343423 226.072216  L 240.985946 225.805838  L 240.628468 225.805838  L 239.913514 225.273081  L 239.556036 225.273081  L 238.841081 224.740324  L 238.483604 224.740324  L 238.126126 224.473946  L 237.768649 224.473946  L 237.053694 223.941189  L 236.696216 223.941189  L 235.981261 223.408432  L 235.623784 223.408432  L 234.551351 222.609297  L 234.193874 222.609297  L 233.478919 222.076541  L 233.121441 222.076541  L 232.049009 221.277405  L 231.691532 221.277405  L 230.976577 220.744649  L 230.619099 220.744649  L 229.546667 219.945514  L 229.189189 219.945514  L 227.759279 218.88  L 227.401802 218.88  L 225.971892 217.814486  L 225.614414 217.814486  L 223.46955 216.216216  L 223.112072 216.216216  L 219.894775 213.818811  L 219.537297 213.818811  L 214.175135 209.823135  L 214.175135 209.556757  L 210.957838 207.159351  L 210.957838 206.892973  L 209.17045 205.561081  L 209.17045 205.294703  L 207.740541 204.229189  L 207.740541 203.962811  L 206.668108 203.163676  L 206.668108 202.897297  L 205.595676 202.098162  L 205.595676 201.831784  L 204.523243 201.032649  L 204.523243 200.76627  L 203.808288 200.233514  L 203.808288 199.967135  L 202.735856 199.168  L 202.735856 198.901622  L 202.020901 198.368865  L 202.020901 198.102486  L 201.305946 197.56973  L 201.305946 197.303351  L 200.948468 197.036973  L 200.948468 196.770595  L 200.233514 196.237838  L 200.233514 195.971459  L 199.518559 195.438703  L 199.518559 195.172324  L 199.161081 194.905946  L 199.161081 194.639568  L 198.446126 194.106811  L 198.446126 193.840432  L 198.088649 193.574054  L 198.088649 193.307676  L 197.731171 193.041297  L 197.731171 192.774919  L 197.016216 192.242162  L 197.016216 191.975784  L 196.658739 191.709405  L 196.658739 191.443027  L 196.301261 191.176649  L 196.301261 190.91027  L 195.943784 190.643892  L 195.943784 190.377514  L 195.586306 190.111135  L 195.586306 189.844757  L 195.228829 189.578378  L 195.228829 189.312  L 194.871351 189.045622  L 194.871351 188.779243  L 194.513874 188.512865  L 194.513874 188.246486  L 194.156396 187.980108  L 194.156396 187.71373  L 193.798919 187.447351  L 193.798919 187.180973  L 193.441441 186.914595  L 193.441441 186.648216  L 193.083964 186.381838  L 193.083964 186.115459  L 192.726486 185.849081  L 192.726486 185.582703  L 192.369009 185.316324  L 192.369009 184.783568  L 192.011532 184.517189  L 192.011532 184.250811  L 191.654054 183.984432  L 191.654054 183.718054  L 191.296577 183.451676  L 191.296577 183.185297  L 190.939099 182.918919  L 190.939099 182.386162  L 190.581622 182.119784  L 190.581622 181.853405  L 190.224144 181.587027  L 190.224144 181.05427  L 189.866667 180.787892  L 189.866667 180.521514  L 189.509189 180.255135  L 189.509189 179.722378  L 189.151712 179.456  L 189.151712 178.923243  L 188.794234 178.656865  L 188.794234 178.390486  L 188.436757 178.124108  L 188.436757 177.591351  L 188.079279 177.324973  L 188.079279 176.792216  L 187.721802 176.525838  L 187.721802 175.993081  L 187.364324 175.726703  L 187.364324 175.193946  L 187.006847 174.927568  L 187.006847 174.394811  L 186.649369 174.128432  L 186.649369 173.595676  L 186.291892 173.329297  L 186.291892 172.530162  L 185.934414 172.263784  L 185.934414 171.731027  L 185.576937 171.464649  L 185.576937 170.665514  L 185.219459 170.399135  L 185.219459 169.866378  L 184.861982 169.6  L 184.861982 168.800865  L 184.504505 168.534486  L 184.504505 167.735351  L 184.147027 167.468973  L 184.147027 166.669838  L 183.78955 166.403459  L 183.78955 165.604324  L 183.432072 165.337946  L 183.432072 164.538811  L 183.074595 164.272432  L 183.074595 163.206919  L 182.717117 162.940541  L 182.717117 161.875027  L 182.35964 161.608649  L 182.35964 160.543135  L 182.002162 160.276757  L 182.002162 158.944865  L 181.644685 158.678486  L 181.644685 157.346595  L 181.287207 157.080216  L 181.287207 155.748324  L 180.92973 155.481946  L 180.92973 153.617297  L 180.572252 153.350919  L 180.572252 151.48627  L 180.214775 151.219892  L 180.214775 148.822486  L 179.857297 148.556108  L 179.857297 145.359568  L 179.49982 145.093189  L 179.49982 138.167351  L 179.142342 137.900973  L 179.142342 135.769946  L 179.49982 135.503568  L 179.49982 128.57773  L 179.857297 128.311351  L 179.857297 125.114811  L 180.214775 124.848432  L 180.214775 122.451027  L 180.572252 122.184649  L 180.572252 120.32  L 180.92973 120.053622  L 180.92973 118.455351  L 181.287207 118.188973  L 181.287207 116.590703  L 181.644685 116.324324  L 181.644685 114.992432  L 182.002162 114.726054  L 182.002162 113.660541  L 182.35964 113.394162  L 182.35964 112.328649  L 182.717117 112.06227  L 182.717117 110.996757  L 183.074595 110.730378  L 183.074595 109.931243  L 183.432072 109.664865  L 183.432072 108.599351  L 183.78955 108.332973  L 183.78955 107.533838  L 184.147027 107.267459  L 184.147027 106.468324  L 184.504505 106.201946  L 184.504505 105.669189  L 184.861982 105.402811  L 184.861982 104.603676  L 185.219459 104.337297  L 185.219459 103.804541  L 185.576937 103.538162  L 185.576937 102.739027  L 185.934414 102.472649  L 185.934414 101.939892  L 186.291892 101.673514  L 186.291892 101.140757  L 186.649369 100.874378  L 186.649369 100.341622  L 187.006847 100.075243  L 187.006847 99.542486  L 187.364324 99.276108  L 187.364324 98.743351  L 187.721802 98.476973  L 187.721802 97.944216  L 188.079279 97.677838  L 188.079279 97.411459  L 188.436757 97.145081  L 188.436757 96.612324  L 188.794234 96.345946  L 188.794234 95.813189  L 189.151712 95.546811  L 189.151712 95.280432  L 189.509189 95.014054  L 189.509189 94.481297  L 189.866667 94.214919  L 189.866667 93.948541  L 190.224144 93.682162  L 190.224144 93.415784  L 190.581622 93.149405  L 190.581622 92.616649  L 190.939099 92.35027  L 190.939099 92.083892  L 191.296577 91.817514  L 191.296577 91.551135  L 191.654054 91.284757  L 191.654054 91.018378  L 192.011532 90.752  L 192.011532 90.485622  L 192.369009 90.219243  L 192.369009 89.952865  L 192.726486 89.686486  L 192.726486 89.420108  L 193.083964 89.15373  L 193.083964 88.887351  L 193.441441 88.620973  L 193.441441 88.354595  L 193.798919 88.088216  L 193.798919 87.821838  L 194.156396 87.555459  L 194.156396 87.289081  L 194.513874 87.022703  L 194.513874 86.756324  L 194.871351 86.489946  L 194.871351 86.223568  L 195.228829 85.957189  L 195.228829 85.690811  L 195.943784 85.158054  L 195.943784 84.891676  L 196.301261 84.625297  L 196.301261 84.358919  L 197.016216 83.826162  L 197.016216 83.559784  L 197.373694 83.293405  L 197.373694 83.027027  L 198.088649 82.49427  L 198.088649 82.227892  L 198.803604 81.695135  L 198.803604 81.428757  L 199.518559 80.896  L 199.518559 80.629622  L 200.233514 80.096865  L 200.233514 79.830486  L 200.948468 79.29773  L 200.948468 79.031351  L 202.020901 78.232216  L 202.020901 77.965838  L 203.450811 76.900324  L 203.450811 76.633946  L 204.880721 75.568432  L 204.880721 75.302054  L 207.025586 73.703784  L 207.025586 73.437405  L 213.46018 68.642595  L 213.817658 68.642595  L 215.962523 67.044324  L 216.32 67.044324  L 217.74991 65.978811  L 218.107387 65.978811  L 219.537297 64.913297  L 219.894775 64.913297  L 220.60973 64.380541  L 220.967207 64.380541  L 222.03964 63.581405  L 222.397117 63.581405  L 223.112072 63.048649  L 223.46955 63.048649  L 224.184505 62.515892  L 224.541982 62.515892  L 225.256937 61.983135  L 225.614414 61.983135  L 226.329369 61.450378  L 226.686847 61.450378  L 227.044324 61.184  L 227.401802 61.184  L 228.116757 60.651243  L 228.474234 60.651243  L 228.831712 60.384865  L 229.189189 60.384865  L 229.904144 59.852108  L 230.261622 59.852108  L 230.619099 59.58573  L 230.976577 59.58573  L 231.334054 59.319351  L 231.691532 59.319351  L 232.049009 59.052973  L 232.406486 59.052973  L 233.121441 58.520216  L 233.478919 58.520216  L 233.836396 58.253838  L 234.193874 58.253838  L 234.551351 57.987459  L 234.908829 57.987459  L 235.266306 57.721081  L 235.623784 57.721081  L 235.981261 57.454703  L 236.338739 57.454703  L 236.696216 57.188324  L 237.053694 57.188324  L 237.411171 56.921946  L 238.126126 56.921946  L 238.483604 56.655568  L 238.841081 56.655568  L 239.198559 56.389189  L 239.556036 56.389189  L 239.913514 56.122811  L 240.270991 56.122811  L 240.628468 55.856432  L 240.985946 55.856432  L 241.343423 55.590054  L 242.058378 55.590054  L 242.415856 55.323676  L 242.773333 55.323676  L 243.130811 55.057297  L 243.488288 55.057297  L 243.845766 54.790919  L 244.560721 54.790919  L 244.918198 54.524541  L 245.275676 54.524541  L 245.633153 54.258162  L 246.348108 54.258162  L 246.705586 53.991784  L 247.420541 53.991784  L 247.778018 53.725405  L 248.135495 53.725405  L 248.492973 53.459027  L 249.207928 53.459027  L 249.565405 53.192649  L 250.28036 53.192649  L 250.637838 52.92627  L 251.352793 52.92627  L 251.71027 52.659892  L 252.425225 52.659892  L 252.782703 52.393514  L 253.497658 52.393514  L 253.855135 52.127135  L 254.57009 52.127135  L 254.927568 51.860757  L 255.642523 51.860757  L 256 51.594378  L 256.714955 51.594378  L 257.072432 51.328  L 257.787387 51.328  L 258.144865 51.061622  L 259.217297 51.061622  L 259.574775 50.795243  L 260.28973 50.795243  L 260.647207 50.528865  L 261.71964 50.528865  L 262.077117 50.262486  L 263.14955 50.262486  L 263.507027 49.996108  L 264.221982 49.996108  L 264.579459 49.72973  L 265.651892 49.72973  L 266.009369 49.463351  L 267.081802 49.463351  L 267.439279 49.196973  L 268.869189 49.196973  L 269.226667 48.930595  L 270.299099 48.930595  L 270.656577 48.664216  L 271.729009 48.664216  L 272.086486 48.397838  L 273.516396 48.397838  L 273.873874 48.131459  L 275.303784 48.131459  L 275.661261 47.865081  L 277.091171 47.865081  L 277.448649 47.598703  L 278.878559 47.598703  L 279.236036 47.332324  L 280.665946 47.332324  L 281.023423 47.065946  L 282.453333 47.065946  L 282.810811 46.799568  L 284.598198 46.799568  L 284.955676 46.533189  L 286.743063 46.533189  L 287.100541 46.266811  L 288.887928 46.266811  L 289.245405 46.000432  L 291.39027 46.000432  L 291.747748 45.734054  L 293.892613 45.734054  L 294.25009 45.467676  L 296.394955 45.467676  L 296.752432 45.201297  L 299.254775 45.201297  L 299.612252 44.934919  L 302.114595 44.934919  L 302.472072 44.668541  L 305.331892 44.668541  L 305.689369 44.402162  L 308.549189 44.402162  L 308.906667 44.135784  L 312.123964 44.135784  L 312.481441 43.869405  L 316.056216 43.869405  L 316.413694 43.603027  L 320.345946 43.603027  L 320.703423 43.336649  L 324.993153 43.336649  L 325.350631 43.07027  L 329.997838 43.07027  L 330.355315 42.803892  L 335.717477 42.803892  L 336.074955 42.537514  L 342.50955 42.537514  L 342.867027 42.271135  L 350.374054 42.271135  L 350.731532 42.004757  L 360.383423 42.004757  L 360.740901 41.738378  L 374.682523 41.738378  L 375.04 41.472  L 375.04 41.472  "
           style="fill:none;stroke:#440154;stroke-width:1.5;"
           id="path5869" />
        <path
           clip-path="url(#pe3ef8a76cb)"
           d="M 57.6 41.472  L 57.6 307.317622  L 57.957477 307.584  L 414.72 307.584  L 414.72 307.584  "
           style="fill:none;stroke:#440154;stroke-width:1.5;"
           id="path5871" />
      </g>
      <g
         id="patch_3">
        <path
           d="M 57.6 307.584  L 57.6 41.472  "
           style="fill:none;stroke:#000000;stroke-linecap:square;stroke-linejoin:miter;stroke-width:0.8;"
           id="path5874" />
      </g>
      <g
         id="patch_4">
        <path
           d="M 414.72 307.584  L 414.72 41.472  "
           style="fill:none;stroke:#000000;stroke-linecap:square;stroke-linejoin:miter;stroke-width:0.8;"
           id="path5877" />
      </g>
      <g
         id="patch_5">
        <path
           d="M 57.6 307.584  L 414.72 307.584  "
           style="fill:none;stroke:#000000;stroke-linecap:square;stroke-linejoin:miter;stroke-width:0.8;"
           id="path5880" />
      </g>
      <g
         id="patch_6">
        <path
           d="M 57.6 41.472  L 414.72 41.472  "
           style="fill:none;stroke:#000000;stroke-linecap:square;stroke-linejoin:miter;stroke-width:0.8;"
           id="path5883" />
      </g>
      <g
         id="text_15">
        <!-- Branch length inconsistency -->
        <defs
           id="defs5886">
          <path
             d="M 19.671875 34.8125  L 19.671875 8.109375  L 35.5 8.109375  Q 43.453125 8.109375 47.28125 11.40625  Q 51.125 14.703125 51.125 21.484375  Q 51.125 28.328125 47.28125 31.5625  Q 43.453125 34.8125 35.5 34.8125  z M 19.671875 64.796875  L 19.671875 42.828125  L 34.28125 42.828125  Q 41.5 42.828125 45.03125 45.53125  Q 48.578125 48.25 48.578125 53.8125  Q 48.578125 59.328125 45.03125 62.0625  Q 41.5 64.796875 34.28125 64.796875  z M 9.8125 72.90625  L 35.015625 72.90625  Q 46.296875 72.90625 52.390625 68.21875  Q 58.5 63.53125 58.5 54.890625  Q 58.5 48.1875 55.375 44.234375  Q 52.25 40.28125 46.1875 39.3125  Q 53.46875 37.75 57.5 32.78125  Q 61.53125 27.828125 61.53125 20.40625  Q 61.53125 10.640625 54.890625 5.3125  Q 48.25 0 35.984375 0  L 9.8125 0  z "
             id="DejaVuSans-42" />
          <path
             d="M 41.109375 46.296875  Q 39.59375 47.171875 37.8125 47.578125  Q 36.03125 48 33.890625 48  Q 26.265625 48 22.1875 43.046875  Q 18.109375 38.09375 18.109375 28.8125  L 18.109375 0  L 9.078125 0  L 9.078125 54.6875  L 18.109375 54.6875  L 18.109375 46.1875  Q 20.953125 51.171875 25.484375 53.578125  Q 30.03125 56 36.53125 56  Q 37.453125 56 38.578125 55.875  Q 39.703125 55.765625 41.0625 55.515625  z "
             id="DejaVuSans-72" />
          <path
             d="M 34.28125 27.484375  Q 23.390625 27.484375 19.1875 25  Q 14.984375 22.515625 14.984375 16.5  Q 14.984375 11.71875 18.140625 8.90625  Q 21.296875 6.109375 26.703125 6.109375  Q 34.1875 6.109375 38.703125 11.40625  Q 43.21875 16.703125 43.21875 25.484375  L 43.21875 27.484375  z M 52.203125 31.203125  L 52.203125 0  L 43.21875 0  L 43.21875 8.296875  Q 40.140625 3.328125 35.546875 0.953125  Q 30.953125 -1.421875 24.3125 -1.421875  Q 15.921875 -1.421875 10.953125 3.296875  Q 6 8.015625 6 15.921875  Q 6 25.140625 12.171875 29.828125  Q 18.359375 34.515625 30.609375 34.515625  L 43.21875 34.515625  L 43.21875 35.40625  Q 43.21875 41.609375 39.140625 45  Q 35.0625 48.390625 27.6875 48.390625  Q 23 48.390625 18.546875 47.265625  Q 14.109375 46.140625 10.015625 43.890625  L 10.015625 52.203125  Q 14.9375 54.109375 19.578125 55.046875  Q 24.21875 56 28.609375 56  Q 40.484375 56 46.34375 49.84375  Q 52.203125 43.703125 52.203125 31.203125  "
             id="DejaVuSans-61" />
          <path
             d="M 54.890625 33.015625  L 54.890625 0  L 45.90625 0  L 45.90625 32.71875  Q 45.90625 40.484375 42.875 44.328125  Q 39.84375 48.1875 33.796875 48.1875  Q 26.515625 48.1875 22.3125 43.546875  Q 18.109375 38.921875 18.109375 30.90625  L 18.109375 0  L 9.078125 0  L 9.078125 54.6875  L 18.109375 54.6875  L 18.109375 46.1875  Q 21.34375 51.125 25.703125 53.5625  Q 30.078125 56 35.796875 56  Q 45.21875 56 50.046875 50.171875  Q 54.890625 44.34375 54.890625 33.015625  "
             id="DejaVuSans-6e" />
          <path
             d="M 48.78125 52.59375  L 48.78125 44.1875  Q 44.96875 46.296875 41.140625 47.34375  Q 37.3125 48.390625 33.40625 48.390625  Q 24.65625 48.390625 19.8125 42.84375  Q 14.984375 37.3125 14.984375 27.296875  Q 14.984375 17.28125 19.8125 11.734375  Q 24.65625 6.203125 33.40625 6.203125  Q 37.3125 6.203125 41.140625 7.25  Q 44.96875 8.296875 48.78125 10.40625  L 48.78125 2.09375  Q 45.015625 0.34375 40.984375 -0.53125  Q 36.96875 -1.421875 32.421875 -1.421875  Q 20.0625 -1.421875 12.78125 6.34375  Q 5.515625 14.109375 5.515625 27.296875  Q 5.515625 40.671875 12.859375 48.328125  Q 20.21875 56 33.015625 56  Q 37.15625 56 41.109375 55.140625  Q 45.0625 54.296875 48.78125 52.59375  "
             id="DejaVuSans-63" />
          <path
             d="M 54.890625 33.015625  L 54.890625 0  L 45.90625 0  L 45.90625 32.71875  Q 45.90625 40.484375 42.875 44.328125  Q 39.84375 48.1875 33.796875 48.1875  Q 26.515625 48.1875 22.3125 43.546875  Q 18.109375 38.921875 18.109375 30.90625  L 18.109375 0  L 9.078125 0  L 9.078125 75.984375  L 18.109375 75.984375  L 18.109375 46.1875  Q 21.34375 51.125 25.703125 53.5625  Q 30.078125 56 35.796875 56  Q 45.21875 56 50.046875 50.171875  Q 54.890625 44.34375 54.890625 33.015625  "
             id="DejaVuSans-68" />
          <path
             id="DejaVuSans-20" />
          <path
             d="M 9.421875 75.984375  L 18.40625 75.984375  L 18.40625 0  L 9.421875 0  z "
             id="DejaVuSans-6c" />
          <path
             d="M 56.203125 29.59375  L 56.203125 25.203125  L 14.890625 25.203125  Q 15.484375 15.921875 20.484375 11.0625  Q 25.484375 6.203125 34.421875 6.203125  Q 39.59375 6.203125 44.453125 7.46875  Q 49.3125 8.734375 54.109375 11.28125  L 54.109375 2.78125  Q 49.265625 0.734375 44.1875 -0.34375  Q 39.109375 -1.421875 33.890625 -1.421875  Q 20.796875 -1.421875 13.15625 6.1875  Q 5.515625 13.8125 5.515625 26.8125  Q 5.515625 40.234375 12.765625 48.109375  Q 20.015625 56 32.328125 56  Q 43.359375 56 49.78125 48.890625  Q 56.203125 41.796875 56.203125 29.59375  M 47.21875 32.234375  Q 47.125 39.59375 43.09375 43.984375  Q 39.0625 48.390625 32.421875 48.390625  Q 24.90625 48.390625 20.390625 44.140625  Q 15.875 39.890625 15.1875 32.171875  z "
             id="DejaVuSans-65" />
          <path
             d="M 45.40625 27.984375  Q 45.40625 37.75 41.375 43.109375  Q 37.359375 48.484375 30.078125 48.484375  Q 22.859375 48.484375 18.828125 43.109375  Q 14.796875 37.75 14.796875 27.984375  Q 14.796875 18.265625 18.828125 12.890625  Q 22.859375 7.515625 30.078125 7.515625  Q 37.359375 7.515625 41.375 12.890625  Q 45.40625 18.265625 45.40625 27.984375  M 54.390625 6.78125  Q 54.390625 -7.171875 48.1875 -13.984375  Q 42 -20.796875 29.203125 -20.796875  Q 24.46875 -20.796875 20.265625 -20.09375  Q 16.0625 -19.390625 12.109375 -17.921875  L 12.109375 -9.1875  Q 16.0625 -11.328125 19.921875 -12.34375  Q 23.78125 -13.375 27.78125 -13.375  Q 36.625 -13.375 41.015625 -8.765625  Q 45.40625 -4.15625 45.40625 5.171875  L 45.40625 9.625  Q 42.625 4.78125 38.28125 2.390625  Q 33.9375 0 27.875 0  Q 17.828125 0 11.671875 7.65625  Q 5.515625 15.328125 5.515625 27.984375  Q 5.515625 40.671875 11.671875 48.328125  Q 17.828125 56 27.875 56  Q 33.9375 56 38.28125 53.609375  Q 42.625 51.21875 45.40625 46.390625  L 45.40625 54.6875  L 54.390625 54.6875  z "
             id="DejaVuSans-67" />
          <path
             d="M 18.3125 70.21875  L 18.3125 54.6875  L 36.8125 54.6875  L 36.8125 47.703125  L 18.3125 47.703125  L 18.3125 18.015625  Q 18.3125 11.328125 20.140625 9.421875  Q 21.96875 7.515625 27.59375 7.515625  L 36.8125 7.515625  L 36.8125 0  L 27.59375 0  Q 17.1875 0 13.234375 3.875  Q 9.28125 7.765625 9.28125 18.015625  L 9.28125 47.703125  L 2.6875 47.703125  L 2.6875 54.6875  L 9.28125 54.6875  L 9.28125 70.21875  z "
             id="DejaVuSans-74" />
          <path
             d="M 9.421875 54.6875  L 18.40625 54.6875  L 18.40625 0  L 9.421875 0  z M 9.421875 75.984375  L 18.40625 75.984375  L 18.40625 64.59375  L 9.421875 64.59375  z "
             id="DejaVuSans-69" />
          <path
             d="M 30.609375 48.390625  Q 23.390625 48.390625 19.1875 42.75  Q 14.984375 37.109375 14.984375 27.296875  Q 14.984375 17.484375 19.15625 11.84375  Q 23.34375 6.203125 30.609375 6.203125  Q 37.796875 6.203125 41.984375 11.859375  Q 46.1875 17.53125 46.1875 27.296875  Q 46.1875 37.015625 41.984375 42.703125  Q 37.796875 48.390625 30.609375 48.390625  M 30.609375 56  Q 42.328125 56 49.015625 48.375  Q 55.71875 40.765625 55.71875 27.296875  Q 55.71875 13.875 49.015625 6.21875  Q 42.328125 -1.421875 30.609375 -1.421875  Q 18.84375 -1.421875 12.171875 6.21875  Q 5.515625 13.875 5.515625 27.296875  Q 5.515625 40.765625 12.171875 48.375  Q 18.84375 56 30.609375 56  "
             id="DejaVuSans-6f" />
          <path
             d="M 44.28125 53.078125  L 44.28125 44.578125  Q 40.484375 46.53125 36.375 47.5  Q 32.28125 48.484375 27.875 48.484375  Q 21.1875 48.484375 17.84375 46.4375  Q 14.5 44.390625 14.5 40.28125  Q 14.5 37.15625 16.890625 35.375  Q 19.28125 33.59375 26.515625 31.984375  L 29.59375 31.296875  Q 39.15625 29.25 43.1875 25.515625  Q 47.21875 21.78125 47.21875 15.09375  Q 47.21875 7.46875 41.1875 3.015625  Q 35.15625 -1.421875 24.609375 -1.421875  Q 20.21875 -1.421875 15.453125 -0.5625  Q 10.6875 0.296875 5.421875 2  L 5.421875 11.28125  Q 10.40625 8.6875 15.234375 7.390625  Q 20.0625 6.109375 24.8125 6.109375  Q 31.15625 6.109375 34.5625 8.28125  Q 37.984375 10.453125 37.984375 14.40625  Q 37.984375 18.0625 35.515625 20.015625  Q 33.0625 21.96875 24.703125 23.78125  L 21.578125 24.515625  Q 13.234375 26.265625 9.515625 29.90625  Q 5.8125 33.546875 5.8125 39.890625  Q 5.8125 47.609375 11.28125 51.796875  Q 16.75 56 26.8125 56  Q 31.78125 56 36.171875 55.265625  Q 40.578125 54.546875 44.28125 53.078125  "
             id="DejaVuSans-73" />
        </defs>
        <g
           transform="translate(151.2 35.472)scale(0.12 -0.12)"
           id="g5902">
          <use
             xlink:href="#DejaVuSans-42"
             id="use5904" />
          <use
             x="68.603516"
             xlink:href="#DejaVuSans-72"
             id="use5906" />
          <use
             x="109.716797"
             xlink:href="#DejaVuSans-61"
             id="use5908" />
          <use
             x="170.996094"
             xlink:href="#DejaVuSans-6e"
             id="use5910" />
          <use
             x="234.375"
             xlink:href="#DejaVuSans-63"
             id="use5912" />
          <use
             x="289.355469"
             xlink:href="#DejaVuSans-68"
             id="use5914" />
          <use
             x="352.734375"
             xlink:href="#DejaVuSans-20"
             id="use5916" />
          <use
             x="384.521484"
             xlink:href="#DejaVuSans-6c"
             id="use5918" />
          <use
             x="412.304688"
             xlink:href="#DejaVuSans-65"
             id="use5920" />
          <use
             x="473.828125"
             xlink:href="#DejaVuSans-6e"
             id="use5922" />
          <use
             x="537.207031"
             xlink:href="#DejaVuSans-67"
             id="use5924" />
          <use
             x="600.683594"
             xlink:href="#DejaVuSans-74"
             id="use5926" />
          <use
             x="639.892578"
             xlink:href="#DejaVuSans-68"
             id="use5928" />
          <use
             x="703.271484"
             xlink:href="#DejaVuSans-20"
             id="use5930" />
          <use
             x="735.058594"
             xlink:href="#DejaVuSans-69"
             id="use5932" />
          <use
             x="762.841797"
             xlink:href="#DejaVuSans-6e"
             id="use5934" />
          <use
             x="826.220703"
             xlink:href="#DejaVuSans-63"
             id="use5936" />
          <use
             x="881.201172"
             xlink:href="#DejaVuSans-6f"
             id="use5938" />
          <use
             x="942.382812"
             xlink:href="#DejaVuSans-6e"
             id="use5940" />
          <use
             x="1005.761719"
             xlink:href="#DejaVuSans-73"
             id="use5942" />
          <use
             x="1057.861328"
             xlink:href="#DejaVuSans-69"
             id="use5944" />
          <use
             x="1085.644531"
             xlink:href="#DejaVuSans-73"
             id="use5946" />
          <use
             x="1137.744141"
             xlink:href="#DejaVuSans-74"
             id="use5948" />
          <use
             x="1176.953125"
             xlink:href="#DejaVuSans-65"
             id="use5950" />
          <use
             x="1238.476562"
             xlink:href="#DejaVuSans-6e"
             id="use5952" />
          <use
             x="1301.855469"
             xlink:href="#DejaVuSans-63"
             id="use5954" />
          <use
             x="1356.835938"
             xlink:href="#DejaVuSans-79"
             id="use5956" />
        </g>
      </g>
    </g>
  </g>
  <defs
     id="defs5958">
    <clipPath
       id="pe3ef8a76cb">
      <rect
         height="266.112"
         width="357.12"
         x="57.6"
         y="41.472"
         id="rect5961" />
    </clipPath>
  </defs>
  <rect
     style="fill:#cccccc;stroke-linecap:butt;stroke-linejoin:round"
     id="rect3631"
     width="26.755102"
     height="6.7591834"
     x="281.52222"
     y="84.705513" />
  <text
     xml:space="preserve"
     style="font-size:8px;font-style:normal;font-weight:normal;line-height:125%;letter-spacing:0px;word-spacing:0px;fill:#000000;fill-opacity:1;stroke:none;font-family:Sans"
     x="312.20792"
     y="91.351418"
     id="text3633"
     sodipodi:linespacing="125%"><tspan
       sodipodi:role="line"
       id="tspan3635"
       x="312.20792"
       y="91.351418">w estimated to be 1</tspan></text>
  <path
     style="opacity:0.22222224;fill:#000000;stroke:#000000;stroke-width:0.33983451;stroke-linecap:butt;stroke-linejoin:round;stroke-miterlimit:4;stroke-opacity:1;stroke-dasharray:0.33983452, 1.01950355;stroke-dashoffset:0"
     d="m 73.268322,217.93587 0,-165.499404 169.492468,0.04917 c 93.22085,0.02704 167.42797,0.174808 164.90469,0.328368 -29.24619,1.779853 -47.3195,3.575398 -68.30673,6.786129 -19.1547,2.930383 -40.65011,8.936259 -54.37353,15.192112 -0.84109,0.383413 -2.59973,1.179623 -3.90809,1.769355 -2.26041,1.018856 -8.83018,4.611393 -11.38446,6.225337 -0.65418,0.413352 -1.69685,1.055788 -2.31704,1.427638 -2.23128,1.337816 -8.10191,5.754754 -10.76659,8.100557 -3.18337,2.802428 -8.32727,7.952448 -10.02512,10.037058 -0.65418,0.80319 -1.54588,1.86716 -1.98157,2.36437 -0.62647,0.71493 -4.39676,6.25067 -7.79987,11.45215 -0.85802,1.31145 -5.12527,10.22693 -6.01193,12.5606 -0.4971,1.30837 -1.13701,2.93185 -1.42202,3.60774 -0.98685,2.34026 -3.04175,9.93391 -3.80575,14.06366 -0.3112,1.68218 -0.66216,3.21144 -0.77991,3.39834 -0.11776,0.18691 -0.39168,2.32787 -0.60872,4.75769 -0.21704,2.42981 -0.55335,4.92561 -0.74735,5.54621 -0.46821,1.49774 -0.47018,20.36504 -0.002,21.87152 0.19275,0.6206 0.51751,2.96347 0.72169,5.20638 0.20418,2.24291 0.50809,4.53679 0.67534,5.09752 0.16726,0.56073 0.54884,2.31937 0.84796,3.9081 1.05707,5.61433 1.67606,7.94715 3.60688,13.59338 3.7377,10.92996 7.06271,17.62127 13.67838,27.52659 5.9751,8.94624 12.53053,15.99408 23.50948,25.27536 2.31623,1.95807 7.21375,5.64958 7.4953,5.64958 0.12594,0 1.09075,0.61686 2.14403,1.3708 2.31012,1.6536 4.26699,2.94133 5.69162,3.74539 0.58185,0.3284 1.42294,0.80263 1.86909,1.05383 0.44615,0.25122 1.04058,0.6293 1.32094,0.8402 0.28036,0.21089 1.88608,1.10705 3.56826,1.99146 1.68218,0.88441 3.97607,2.11296 5.09752,2.7301 2.05013,1.12821 10.86262,5.17416 15.29255,7.02105 8.13939,3.39342 21.03507,7.8631 30.24527,10.48312 7.14685,2.03306 22.42732,5.88695 26.86341,6.77524 0.92548,0.18532 3.13549,0.65165 4.91112,1.03629 22.00388,4.76654 49.26227,8.98882 75.61317,11.71236 2.80364,0.28977 8.61481,0.90172 12.91372,1.35988 10.83032,1.15426 25.70324,2.5251 38.91105,3.58645 2.33636,0.18774 6.00657,0.48737 8.15603,0.66583 2.14945,0.17847 5.55204,0.42562 7.56131,0.54922 l 3.65323,0.22473 0,30.02898 10e-5,30.02897 -222.25178,0 -222.251768,0 0,-165.49941 z"
     id="path7212"
     inkscape:connector-curvature="0"
     transform="scale(0.8,0.8)" />
</svg>
