<?xml version="1.0" encoding="utf-8" standalone="no"?>
<!DOCTYPE svg PUBLIC "-//W3C//DTD SVG 1.1//EN"
  "http://www.w3.org/Graphics/SVG/1.1/DTD/svg11.dtd">
<!-- Created with matplotlib (http://matplotlib.org/) -->
<svg height="345pt" version="1.1" viewBox="0 0 460 345" width="460pt" xmlns="http://www.w3.org/2000/svg" xmlns:xlink="http://www.w3.org/1999/xlink">
 <defs>
  <style type="text/css">
*{stroke-linecap:butt;stroke-linejoin:round;}
  </style>
 </defs>
 <g id="figure_1">
  <g id="patch_1">
   <path d="M 0 345.6 
L 460.8 345.6 
L 460.8 0 
L 0 0 
z
" style="fill:#ffffff;"/>
  </g>
  <g id="axes_1">
   <g id="patch_2">
    <path d="M 57.6 307.584 
L 414.72 307.584 
L 414.72 41.472 
L 57.6 41.472 
z
" style="fill:#ffffff;"/>
   </g>
   <g id="matplotlib.axis_1">
    <g id="xtick_1">
     <g id="line2d_1">
      <defs>
       <path d="M 0 0 
L 0 3.5 
" id="md11e7ec959" style="stroke:#000000;stroke-width:0.8;"/>
      </defs>
      <g>
       <use style="stroke:#000000;stroke-width:0.8;" x="57.6" xlink:href="#md11e7ec959" y="307.584"/>
      </g>
     </g>
     <g id="text_1">
      <!-- 0.0 -->
      <defs>
       <path d="M 31.78125 66.40625 
Q 24.171875 66.40625 20.328125 58.90625 
Q 16.5 51.421875 16.5 36.375 
Q 16.5 21.390625 20.328125 13.890625 
Q 24.171875 6.390625 31.78125 6.390625 
Q 39.453125 6.390625 43.28125 13.890625 
Q 47.125 21.390625 47.125 36.375 
Q 47.125 51.421875 43.28125 58.90625 
Q 39.453125 66.40625 31.78125 66.40625 
M 31.78125 74.21875 
Q 44.046875 74.21875 50.515625 64.515625 
Q 56.984375 54.828125 56.984375 36.375 
Q 56.984375 17.96875 50.515625 8.265625 
Q 44.046875 -1.421875 31.78125 -1.421875 
Q 19.53125 -1.421875 13.0625 8.265625 
Q 6.59375 17.96875 6.59375 36.375 
Q 6.59375 54.828125 13.0625 64.515625 
Q 19.53125 74.21875 31.78125 74.21875 
" id="DejaVuSans-30"/>
       <path d="M 10.6875 12.40625 
L 21 12.40625 
L 21 0 
L 10.6875 0 
z
" id="DejaVuSans-2e"/>
      </defs>
      <g transform="translate(49.648438 322.182437)scale(0.1 -0.1)">
       <use xlink:href="#DejaVuSans-30"/>
       <use x="63.623047" xlink:href="#DejaVuSans-2e"/>
       <use x="95.410156" xlink:href="#DejaVuSans-30"/>
      </g>
     </g>
    </g>
    <g id="xtick_2">
     <g id="line2d_2">
      <g>
       <use style="stroke:#000000;stroke-width:0.8;" x="129.095495" xlink:href="#md11e7ec959" y="307.584"/>
      </g>
     </g>
     <g id="text_2">
      <!-- 0.2 -->
      <defs>
       <path d="M 19.1875 8.296875 
L 53.609375 8.296875 
L 53.609375 0 
L 7.328125 0 
L 7.328125 8.296875 
Q 12.9375 14.109375 22.625 23.890625 
Q 32.328125 33.6875 34.8125 36.53125 
Q 39.546875 41.84375 41.421875 45.53125 
Q 43.3125 49.21875 43.3125 52.78125 
Q 43.3125 58.59375 39.234375 62.25 
Q 35.15625 65.921875 28.609375 65.921875 
Q 23.96875 65.921875 18.8125 64.3125 
Q 13.671875 62.703125 7.8125 59.421875 
L 7.8125 69.390625 
Q 13.765625 71.78125 18.9375 73 
Q 24.125 74.21875 28.421875 74.21875 
Q 39.75 74.21875 46.484375 68.546875 
Q 53.21875 62.890625 53.21875 53.421875 
Q 53.21875 48.921875 51.53125 44.890625 
Q 49.859375 40.875 45.40625 35.40625 
Q 44.1875 33.984375 37.640625 27.21875 
Q 31.109375 20.453125 19.1875 8.296875 
" id="DejaVuSans-32"/>
      </defs>
      <g transform="translate(121.143933 322.182437)scale(0.1 -0.1)">
       <use xlink:href="#DejaVuSans-30"/>
       <use x="63.623047" xlink:href="#DejaVuSans-2e"/>
       <use x="95.410156" xlink:href="#DejaVuSans-32"/>
      </g>
     </g>
    </g>
    <g id="xtick_3">
     <g id="line2d_3">
      <g>
       <use style="stroke:#000000;stroke-width:0.8;" x="200.590991" xlink:href="#md11e7ec959" y="307.584"/>
      </g>
     </g>
     <g id="text_3">
      <!-- 0.4 -->
      <defs>
       <path d="M 37.796875 64.3125 
L 12.890625 25.390625 
L 37.796875 25.390625 
z
M 35.203125 72.90625 
L 47.609375 72.90625 
L 47.609375 25.390625 
L 58.015625 25.390625 
L 58.015625 17.1875 
L 47.609375 17.1875 
L 47.609375 0 
L 37.796875 0 
L 37.796875 17.1875 
L 4.890625 17.1875 
L 4.890625 26.703125 
z
" id="DejaVuSans-34"/>
      </defs>
      <g transform="translate(192.639428 322.182437)scale(0.1 -0.1)">
       <use xlink:href="#DejaVuSans-30"/>
       <use x="63.623047" xlink:href="#DejaVuSans-2e"/>
       <use x="95.410156" xlink:href="#DejaVuSans-34"/>
      </g>
     </g>
    </g>
    <g id="xtick_4">
     <g id="line2d_4">
      <g>
       <use style="stroke:#000000;stroke-width:0.8;" x="272.086486" xlink:href="#md11e7ec959" y="307.584"/>
      </g>
     </g>
     <g id="text_4">
      <!-- 0.6 -->
      <defs>
       <path d="M 33.015625 40.375 
Q 26.375 40.375 22.484375 35.828125 
Q 18.609375 31.296875 18.609375 23.390625 
Q 18.609375 15.53125 22.484375 10.953125 
Q 26.375 6.390625 33.015625 6.390625 
Q 39.65625 6.390625 43.53125 10.953125 
Q 47.40625 15.53125 47.40625 23.390625 
Q 47.40625 31.296875 43.53125 35.828125 
Q 39.65625 40.375 33.015625 40.375 
M 52.59375 71.296875 
L 52.59375 62.3125 
Q 48.875 64.0625 45.09375 64.984375 
Q 41.3125 65.921875 37.59375 65.921875 
Q 27.828125 65.921875 22.671875 59.328125 
Q 17.53125 52.734375 16.796875 39.40625 
Q 19.671875 43.65625 24.015625 45.921875 
Q 28.375 48.1875 33.59375 48.1875 
Q 44.578125 48.1875 50.953125 41.515625 
Q 57.328125 34.859375 57.328125 23.390625 
Q 57.328125 12.15625 50.6875 5.359375 
Q 44.046875 -1.421875 33.015625 -1.421875 
Q 20.359375 -1.421875 13.671875 8.265625 
Q 6.984375 17.96875 6.984375 36.375 
Q 6.984375 53.65625 15.1875 63.9375 
Q 23.390625 74.21875 37.203125 74.21875 
Q 40.921875 74.21875 44.703125 73.484375 
Q 48.484375 72.75 52.59375 71.296875 
" id="DejaVuSans-36"/>
      </defs>
      <g transform="translate(264.134924 322.182437)scale(0.1 -0.1)">
       <use xlink:href="#DejaVuSans-30"/>
       <use x="63.623047" xlink:href="#DejaVuSans-2e"/>
       <use x="95.410156" xlink:href="#DejaVuSans-36"/>
      </g>
     </g>
    </g>
    <g id="xtick_5">
     <g id="line2d_5">
      <g>
       <use style="stroke:#000000;stroke-width:0.8;" x="343.581982" xlink:href="#md11e7ec959" y="307.584"/>
      </g>
     </g>
     <g id="text_5">
      <!-- 0.8 -->
      <defs>
       <path d="M 31.78125 34.625 
Q 24.75 34.625 20.71875 30.859375 
Q 16.703125 27.09375 16.703125 20.515625 
Q 16.703125 13.921875 20.71875 10.15625 
Q 24.75 6.390625 31.78125 6.390625 
Q 38.8125 6.390625 42.859375 10.171875 
Q 46.921875 13.96875 46.921875 20.515625 
Q 46.921875 27.09375 42.890625 30.859375 
Q 38.875 34.625 31.78125 34.625 
M 21.921875 38.8125 
Q 15.578125 40.375 12.03125 44.71875 
Q 8.5 49.078125 8.5 55.328125 
Q 8.5 64.0625 14.71875 69.140625 
Q 20.953125 74.21875 31.78125 74.21875 
Q 42.671875 74.21875 48.875 69.140625 
Q 55.078125 64.0625 55.078125 55.328125 
Q 55.078125 49.078125 51.53125 44.71875 
Q 48 40.375 41.703125 38.8125 
Q 48.828125 37.15625 52.796875 32.3125 
Q 56.78125 27.484375 56.78125 20.515625 
Q 56.78125 9.90625 50.3125 4.234375 
Q 43.84375 -1.421875 31.78125 -1.421875 
Q 19.734375 -1.421875 13.25 4.234375 
Q 6.78125 9.90625 6.78125 20.515625 
Q 6.78125 27.484375 10.78125 32.3125 
Q 14.796875 37.15625 21.921875 38.8125 
M 18.3125 54.390625 
Q 18.3125 48.734375 21.84375 45.5625 
Q 25.390625 42.390625 31.78125 42.390625 
Q 38.140625 42.390625 41.71875 45.5625 
Q 45.3125 48.734375 45.3125 54.390625 
Q 45.3125 60.0625 41.71875 63.234375 
Q 38.140625 66.40625 31.78125 66.40625 
Q 25.390625 66.40625 21.84375 63.234375 
Q 18.3125 60.0625 18.3125 54.390625 
" id="DejaVuSans-38"/>
      </defs>
      <g transform="translate(335.630419 322.182437)scale(0.1 -0.1)">
       <use xlink:href="#DejaVuSans-30"/>
       <use x="63.623047" xlink:href="#DejaVuSans-2e"/>
       <use x="95.410156" xlink:href="#DejaVuSans-38"/>
      </g>
     </g>
    </g>
    <g id="xtick_6">
     <g id="line2d_6">
      <g>
       <use style="stroke:#000000;stroke-width:0.8;" x="415.077477" xlink:href="#md11e7ec959" y="307.584"/>
      </g>
     </g>
     <g id="text_6">
      <!-- 1.0 -->
      <defs>
       <path d="M 12.40625 8.296875 
L 28.515625 8.296875 
L 28.515625 63.921875 
L 10.984375 60.40625 
L 10.984375 69.390625 
L 28.421875 72.90625 
L 38.28125 72.90625 
L 38.28125 8.296875 
L 54.390625 8.296875 
L 54.390625 0 
L 12.40625 0 
z
" id="DejaVuSans-31"/>
      </defs>
      <g transform="translate(407.125915 322.182437)scale(0.1 -0.1)">
       <use xlink:href="#DejaVuSans-31"/>
       <use x="63.623047" xlink:href="#DejaVuSans-2e"/>
       <use x="95.410156" xlink:href="#DejaVuSans-30"/>
      </g>
     </g>
    </g>
    <g id="text_7">
     <!-- x -->
     <defs>
      <path d="M 54.890625 54.6875 
L 35.109375 28.078125 
L 55.90625 0 
L 45.3125 0 
L 29.390625 21.484375 
L 13.484375 0 
L 2.875 0 
L 24.125 28.609375 
L 4.6875 54.6875 
L 15.28125 54.6875 
L 29.78125 35.203125 
L 44.28125 54.6875 
z
" id="DejaVuSans-78"/>
     </defs>
     <g transform="translate(231.425 340.419625)scale(0.16 -0.16)">
      <use xlink:href="#DejaVuSans-78"/>
     </g>
    </g>
   </g>
   <g id="matplotlib.axis_2">
    <g id="ytick_1">
     <g id="line2d_7">
      <defs>
       <path d="M 0 0 
L -3.5 0 
" id="mccb6bcb983" style="stroke:#000000;stroke-width:0.8;"/>
      </defs>
      <g>
       <use style="stroke:#000000;stroke-width:0.8;" x="57.6" xlink:href="#mccb6bcb983" y="307.584"/>
      </g>
     </g>
     <g id="text_8">
      <!-- 0.0 -->
      <g transform="translate(34.696875 311.383219)scale(0.1 -0.1)">
       <use xlink:href="#DejaVuSans-30"/>
       <use x="63.623047" xlink:href="#DejaVuSans-2e"/>
       <use x="95.410156" xlink:href="#DejaVuSans-30"/>
      </g>
     </g>
    </g>
    <g id="ytick_2">
     <g id="line2d_8">
      <g>
       <use style="stroke:#000000;stroke-width:0.8;" x="57.6" xlink:href="#mccb6bcb983" y="254.308324"/>
      </g>
     </g>
     <g id="text_9">
      <!-- 0.2 -->
      <g transform="translate(34.696875 258.107543)scale(0.1 -0.1)">
       <use xlink:href="#DejaVuSans-30"/>
       <use x="63.623047" xlink:href="#DejaVuSans-2e"/>
       <use x="95.410156" xlink:href="#DejaVuSans-32"/>
      </g>
     </g>
    </g>
    <g id="ytick_3">
     <g id="line2d_9">
      <g>
       <use style="stroke:#000000;stroke-width:0.8;" x="57.6" xlink:href="#mccb6bcb983" y="201.032649"/>
      </g>
     </g>
     <g id="text_10">
      <!-- 0.4 -->
      <g transform="translate(34.696875 204.831867)scale(0.1 -0.1)">
       <use xlink:href="#DejaVuSans-30"/>
       <use x="63.623047" xlink:href="#DejaVuSans-2e"/>
       <use x="95.410156" xlink:href="#DejaVuSans-34"/>
      </g>
     </g>
    </g>
    <g id="ytick_4">
     <g id="line2d_10">
      <g>
       <use style="stroke:#000000;stroke-width:0.8;" x="57.6" xlink:href="#mccb6bcb983" y="147.756973"/>
      </g>
     </g>
     <g id="text_11">
      <!-- 0.6 -->
      <g transform="translate(34.696875 151.556192)scale(0.1 -0.1)">
       <use xlink:href="#DejaVuSans-30"/>
       <use x="63.623047" xlink:href="#DejaVuSans-2e"/>
       <use x="95.410156" xlink:href="#DejaVuSans-36"/>
      </g>
     </g>
    </g>
    <g id="ytick_5">
     <g id="line2d_11">
      <g>
       <use style="stroke:#000000;stroke-width:0.8;" x="57.6" xlink:href="#mccb6bcb983" y="94.481297"/>
      </g>
     </g>
     <g id="text_12">
      <!-- 0.8 -->
      <g transform="translate(34.696875 98.280516)scale(0.1 -0.1)">
       <use xlink:href="#DejaVuSans-30"/>
       <use x="63.623047" xlink:href="#DejaVuSans-2e"/>
       <use x="95.410156" xlink:href="#DejaVuSans-38"/>
      </g>
     </g>
    </g>
    <g id="ytick_6">
     <g id="line2d_12">
      <g>
       <use style="stroke:#000000;stroke-width:0.8;" x="57.6" xlink:href="#mccb6bcb983" y="41.205622"/>
      </g>
     </g>
     <g id="text_13">
      <!-- 1.0 -->
      <g transform="translate(34.696875 45.00484)scale(0.1 -0.1)">
       <use xlink:href="#DejaVuSans-31"/>
       <use x="63.623047" xlink:href="#DejaVuSans-2e"/>
       <use x="95.410156" xlink:href="#DejaVuSans-30"/>
      </g>
     </g>
    </g>
    <g id="text_14">
     <!-- y -->
     <defs>
      <path d="M 32.171875 -5.078125 
Q 28.375 -14.84375 24.75 -17.8125 
Q 21.140625 -20.796875 15.09375 -20.796875 
L 7.90625 -20.796875 
L 7.90625 -13.28125 
L 13.1875 -13.28125 
Q 16.890625 -13.28125 18.9375 -11.515625 
Q 21 -9.765625 23.484375 -3.21875 
L 25.09375 0.875 
L 2.984375 54.6875 
L 12.5 54.6875 
L 29.59375 11.921875 
L 46.6875 54.6875 
L 56.203125 54.6875 
z
" id="DejaVuSans-79"/>
     </defs>
     <g transform="translate(27.369375 179.263)rotate(-90)scale(0.16 -0.16)">
      <use xlink:href="#DejaVuSans-79"/>
     </g>
    </g>
   </g>
   <g id="LineCollection_1">
    <path clip-path="url(#p4f26663f8e)" d="M 414.72 179.456 
L 414.362523 179.189622 
L 412.932613 179.189622 
L 412.575135 178.923243 
L 411.145225 178.923243 
L 410.787748 178.656865 
L 409.357838 178.656865 
L 409.00036 178.390486 
L 407.57045 178.390486 
L 407.212973 178.124108 
L 405.783063 178.124108 
L 405.425586 177.85773 
L 403.995676 177.85773 
L 403.638198 177.591351 
L 402.208288 177.591351 
L 401.850811 177.324973 
L 400.778378 177.324973 
L 400.420901 177.058595 
L 399.348468 177.058595 
L 398.990991 176.792216 
L 397.561081 176.792216 
L 397.203604 176.525838 
L 396.131171 176.525838 
L 395.773694 176.259459 
L 394.701261 176.259459 
L 394.343784 175.993081 
L 393.271351 175.993081 
L 392.913874 175.726703 
L 391.841441 175.726703 
L 391.483964 175.460324 
L 390.411532 175.460324 
L 390.054054 175.193946 
L 388.981622 175.193946 
L 388.624144 174.927568 
L 387.909189 174.927568 
L 387.551712 174.661189 
L 386.479279 174.661189 
L 386.121802 174.394811 
L 385.049369 174.394811 
L 384.691892 174.128432 
L 383.976937 174.128432 
L 383.619459 173.862054 
L 382.547027 173.862054 
L 382.18955 173.595676 
L 381.474595 173.595676 
L 381.117117 173.329297 
L 380.402162 173.329297 
L 380.044685 173.062919 
L 378.972252 173.062919 
L 378.614775 172.796541 
L 377.89982 172.796541 
L 377.542342 172.530162 
L 376.827387 172.530162 
L 376.46991 172.263784 
L 375.754955 172.263784 
L 375.397477 171.997405 
L 374.682523 171.997405 
L 374.325045 171.731027 
L 373.61009 171.731027 
L 373.252613 171.464649 
L 372.537658 171.464649 
L 372.18018 171.19827 
L 371.465225 171.19827 
L 371.107748 170.931892 
L 370.392793 170.931892 
L 370.035315 170.665514 
L 369.677838 170.665514 
L 369.32036 170.399135 
L 368.605405 170.399135 
L 368.247928 170.132757 
L 367.532973 170.132757 
L 367.175495 169.866378 
L 366.460541 169.866378 
L 366.103063 169.6 
L 365.745586 169.6 
L 365.388108 169.333622 
L 364.673153 169.333622 
L 364.315676 169.067243 
L 363.958198 169.067243 
L 363.600721 168.800865 
L 362.885766 168.800865 
L 362.528288 168.534486 
L 362.170811 168.534486 
L 361.813333 168.268108 
L 361.098378 168.268108 
L 360.740901 168.00173 
L 360.383423 168.00173 
L 360.025946 167.735351 
L 359.668468 167.735351 
L 359.310991 167.468973 
L 358.596036 167.468973 
L 358.238559 167.202595 
L 357.881081 167.202595 
L 357.523604 166.936216 
L 357.166126 166.936216 
L 356.808649 166.669838 
L 356.093694 166.669838 
L 355.736216 166.403459 
L 355.378739 166.403459 
L 355.021261 166.137081 
L 354.663784 166.137081 
L 354.306306 165.870703 
L 353.948829 165.870703 
L 353.591351 165.604324 
L 353.233874 165.604324 
L 352.876396 165.337946 
L 352.518919 165.337946 
L 352.161441 165.071568 
L 351.803964 165.071568 
L 351.446486 164.805189 
L 351.089009 164.805189 
L 350.731532 164.538811 
L 350.374054 164.538811 
L 350.016577 164.272432 
L 349.659099 164.272432 
L 349.301622 164.006054 
L 348.944144 164.006054 
L 348.586667 163.739676 
L 348.229189 163.739676 
L 347.871712 163.473297 
L 347.514234 163.473297 
L 347.156757 163.206919 
L 346.799279 163.206919 
L 346.441802 162.940541 
L 346.084324 162.940541 
L 345.726847 162.674162 
L 345.369369 162.674162 
L 345.011892 162.407784 
L 344.654414 162.407784 
L 343.939459 161.875027 
L 343.581982 161.875027 
L 343.224505 161.608649 
L 342.867027 161.608649 
L 342.50955 161.34227 
L 342.152072 161.34227 
L 341.437117 160.809514 
L 341.07964 160.809514 
L 340.722162 160.543135 
L 340.364685 160.543135 
L 339.64973 160.010378 
L 339.292252 160.010378 
L 338.934775 159.744 
L 338.577297 159.744 
L 337.862342 159.211243 
L 337.504865 159.211243 
L 336.78991 158.678486 
L 336.432432 158.678486 
L 335.717477 158.14573 
L 335.36 158.14573 
L 334.645045 157.612973 
L 334.287568 157.612973 
L 333.572613 157.080216 
L 333.215135 157.080216 
L 332.50018 156.547459 
L 332.142703 156.547459 
L 331.07027 155.748324 
L 330.712793 155.748324 
L 329.64036 154.949189 
L 329.282883 154.949189 
L 327.852973 153.883676 
L 327.495495 153.883676 
L 326.065586 152.818162 
L 325.708108 152.818162 
L 323.563243 151.219892 
L 323.205766 151.219892 
L 315.341261 145.359568 
L 315.341261 145.093189 
L 313.196396 143.494919 
L 313.196396 143.228541 
L 311.766486 142.163027 
L 311.766486 141.896649 
L 310.694054 141.097514 
L 310.694054 140.831135 
L 309.621622 140.032 
L 309.621622 139.765622 
L 308.906667 139.232865 
L 308.906667 138.966486 
L 308.191712 138.43373 
L 308.191712 138.167351 
L 307.476757 137.634595 
L 307.476757 137.368216 
L 306.761802 136.835459 
L 306.761802 136.569081 
L 306.046847 136.036324 
L 306.046847 135.769946 
L 305.689369 135.503568 
L 305.689369 135.237189 
L 304.974414 134.704432 
L 304.974414 134.438054 
L 304.616937 134.171676 
L 304.616937 133.905297 
L 304.259459 133.638919 
L 304.259459 133.372541 
L 303.901982 133.106162 
L 303.901982 132.839784 
L 303.544505 132.573405 
L 303.544505 132.307027 
L 303.187027 132.040649 
L 303.187027 131.77427 
L 302.82955 131.507892 
L 302.82955 131.241514 
L 302.472072 130.975135 
L 302.472072 130.708757 
L 302.114595 130.442378 
L 302.114595 130.176 
L 301.757117 129.909622 
L 301.757117 129.643243 
L 301.39964 129.376865 
L 301.39964 129.110486 
L 301.042162 128.844108 
L 301.042162 128.57773 
L 300.684685 128.311351 
L 300.684685 127.778595 
L 300.327207 127.512216 
L 300.327207 127.245838 
L 299.96973 126.979459 
L 299.96973 126.446703 
L 299.612252 126.180324 
L 299.612252 125.913946 
L 299.254775 125.647568 
L 299.254775 125.114811 
L 298.897297 124.848432 
L 298.897297 124.315676 
L 298.53982 124.049297 
L 298.53982 123.516541 
L 298.182342 123.250162 
L 298.182342 122.717405 
L 297.824865 122.451027 
L 297.824865 121.91827 
L 297.467387 121.651892 
L 297.467387 121.119135 
L 297.10991 120.852757 
L 297.10991 120.053622 
L 296.752432 119.787243 
L 296.752432 118.988108 
L 296.394955 118.72173 
L 296.394955 117.922595 
L 296.037477 117.656216 
L 296.037477 116.590703 
L 295.68 116.324324 
L 295.68 115.258811 
L 295.322523 114.992432 
L 295.322523 113.660541 
L 294.965045 113.394162 
L 294.965045 111.795892 
L 294.607568 111.529514 
L 294.607568 109.132108 
L 294.25009 108.86573 
L 294.25009 99.808865 
L 294.607568 99.542486 
L 294.607568 97.145081 
L 294.965045 96.878703 
L 294.965045 95.280432 
L 295.322523 95.014054 
L 295.322523 93.682162 
L 295.68 93.415784 
L 295.68 92.083892 
L 296.037477 91.817514 
L 296.037477 91.018378 
L 296.394955 90.752 
L 296.394955 89.952865 
L 296.752432 89.686486 
L 296.752432 88.887351 
L 297.10991 88.620973 
L 297.10991 87.821838 
L 297.467387 87.555459 
L 297.467387 87.022703 
L 297.824865 86.756324 
L 297.824865 86.223568 
L 298.182342 85.957189 
L 298.182342 85.424432 
L 298.53982 85.158054 
L 298.53982 84.625297 
L 298.897297 84.358919 
L 298.897297 83.826162 
L 299.254775 83.559784 
L 299.254775 83.027027 
L 299.612252 82.760649 
L 299.612252 82.49427 
L 299.96973 82.227892 
L 299.96973 81.695135 
L 300.327207 81.428757 
L 300.327207 81.162378 
L 300.684685 80.896 
L 300.684685 80.629622 
L 301.042162 80.363243 
L 301.042162 79.830486 
L 301.39964 79.564108 
L 301.39964 79.29773 
L 301.757117 79.031351 
L 301.757117 78.764973 
L 302.114595 78.498595 
L 302.114595 78.232216 
L 302.472072 77.965838 
L 302.472072 77.699459 
L 302.82955 77.433081 
L 302.82955 77.166703 
L 303.187027 76.900324 
L 303.187027 76.633946 
L 303.544505 76.367568 
L 303.544505 76.101189 
L 304.259459 75.568432 
L 304.259459 75.302054 
L 304.616937 75.035676 
L 304.616937 74.769297 
L 304.974414 74.502919 
L 304.974414 74.236541 
L 305.689369 73.703784 
L 305.689369 73.437405 
L 306.046847 73.171027 
L 306.046847 72.904649 
L 306.761802 72.371892 
L 306.761802 72.105514 
L 307.476757 71.572757 
L 307.476757 71.306378 
L 308.549189 70.507243 
L 308.549189 70.240865 
L 309.264144 69.708108 
L 309.264144 69.44173 
L 310.694054 68.376216 
L 310.694054 68.109838 
L 312.123964 67.044324 
L 312.123964 66.777946 
L 314.983784 64.646919 
L 314.983784 64.380541 
L 317.486126 62.515892 
L 317.843604 62.515892 
L 321.060901 60.118486 
L 321.418378 60.118486 
L 322.848288 59.052973 
L 323.205766 59.052973 
L 324.635676 57.987459 
L 324.993153 57.987459 
L 325.708108 57.454703 
L 326.065586 57.454703 
L 327.138018 56.655568 
L 327.495495 56.655568 
L 328.21045 56.122811 
L 328.567928 56.122811 
L 329.282883 55.590054 
L 329.64036 55.590054 
L 330.355315 55.057297 
L 330.712793 55.057297 
L 331.07027 54.790919 
L 331.427748 54.790919 
L 332.142703 54.258162 
L 332.50018 54.258162 
L 332.857658 53.991784 
L 333.215135 53.991784 
L 333.93009 53.459027 
L 334.287568 53.459027 
L 334.645045 53.192649 
L 335.002523 53.192649 
L 335.36 52.92627 
L 335.717477 52.92627 
L 336.074955 52.659892 
L 336.432432 52.659892 
L 336.78991 52.393514 
L 337.147387 52.393514 
L 337.504865 52.127135 
L 337.862342 52.127135 
L 338.21982 51.860757 
L 338.577297 51.860757 
L 338.934775 51.594378 
L 339.292252 51.594378 
L 339.64973 51.328 
L 340.007207 51.328 
L 340.364685 51.061622 
L 340.722162 51.061622 
L 341.07964 50.795243 
L 341.437117 50.795243 
L 341.794595 50.528865 
L 342.152072 50.528865 
L 342.50955 50.262486 
L 343.224505 50.262486 
L 343.581982 49.996108 
L 343.939459 49.996108 
L 344.296937 49.72973 
L 344.654414 49.72973 
L 345.011892 49.463351 
L 345.726847 49.463351 
L 346.084324 49.196973 
L 346.441802 49.196973 
L 346.799279 48.930595 
L 347.514234 48.930595 
L 347.871712 48.664216 
L 348.586667 48.664216 
L 348.944144 48.397838 
L 349.301622 48.397838 
L 349.659099 48.131459 
L 350.374054 48.131459 
L 350.731532 47.865081 
L 351.446486 47.865081 
L 351.803964 47.598703 
L 352.518919 47.598703 
L 352.876396 47.332324 
L 353.591351 47.332324 
L 353.948829 47.065946 
L 354.663784 47.065946 
L 355.021261 46.799568 
L 356.093694 46.799568 
L 356.451171 46.533189 
L 357.166126 46.533189 
L 357.523604 46.266811 
L 358.238559 46.266811 
L 358.596036 46.000432 
L 359.668468 46.000432 
L 360.025946 45.734054 
L 361.098378 45.734054 
L 361.455856 45.467676 
L 362.528288 45.467676 
L 362.885766 45.201297 
L 363.958198 45.201297 
L 364.315676 44.934919 
L 365.745586 44.934919 
L 366.103063 44.668541 
L 367.175495 44.668541 
L 367.532973 44.402162 
L 368.962883 44.402162 
L 369.32036 44.135784 
L 370.75027 44.135784 
L 371.107748 43.869405 
L 372.895135 43.869405 
L 373.252613 43.603027 
L 375.04 43.603027 
L 375.397477 43.336649 
L 377.184865 43.336649 
L 377.542342 43.07027 
L 379.687207 43.07027 
L 380.044685 42.803892 
L 382.547027 42.803892 
L 382.904505 42.537514 
L 385.764324 42.537514 
L 386.121802 42.271135 
L 389.339099 42.271135 
L 389.696577 42.004757 
L 393.628829 42.004757 
L 393.986306 41.738378 
L 399.705946 41.738378 
L 400.063423 41.472 
L 400.063423 41.472 
" style="fill:none;stroke:#440154;stroke-width:1.5;"/>
    <path clip-path="url(#p4f26663f8e)" d="M 57.6 41.472 
L 57.6 307.317622 
L 57.957477 307.584 
L 414.72 307.584 
L 414.72 307.584 
" style="fill:none;stroke:#440154;stroke-width:1.5;"/>
   </g>
   <g id="patch_3">
    <path d="M 57.6 307.584 
L 57.6 41.472 
" style="fill:none;stroke:#000000;stroke-linecap:square;stroke-linejoin:miter;stroke-width:0.8;"/>
   </g>
   <g id="patch_4">
    <path d="M 414.72 307.584 
L 414.72 41.472 
" style="fill:none;stroke:#000000;stroke-linecap:square;stroke-linejoin:miter;stroke-width:0.8;"/>
   </g>
   <g id="patch_5">
    <path d="M 57.6 307.584 
L 414.72 307.584 
" style="fill:none;stroke:#000000;stroke-linecap:square;stroke-linejoin:miter;stroke-width:0.8;"/>
   </g>
   <g id="patch_6">
    <path d="M 57.6 41.472 
L 414.72 41.472 
" style="fill:none;stroke:#000000;stroke-linecap:square;stroke-linejoin:miter;stroke-width:0.8;"/>
   </g>
   <g id="text_15">
    <!-- Branch length inconsistency -->
    <defs>
     <path d="M 19.671875 34.8125 
L 19.671875 8.109375 
L 35.5 8.109375 
Q 43.453125 8.109375 47.28125 11.40625 
Q 51.125 14.703125 51.125 21.484375 
Q 51.125 28.328125 47.28125 31.5625 
Q 43.453125 34.8125 35.5 34.8125 
z
M 19.671875 64.796875 
L 19.671875 42.828125 
L 34.28125 42.828125 
Q 41.5 42.828125 45.03125 45.53125 
Q 48.578125 48.25 48.578125 53.8125 
Q 48.578125 59.328125 45.03125 62.0625 
Q 41.5 64.796875 34.28125 64.796875 
z
M 9.8125 72.90625 
L 35.015625 72.90625 
Q 46.296875 72.90625 52.390625 68.21875 
Q 58.5 63.53125 58.5 54.890625 
Q 58.5 48.1875 55.375 44.234375 
Q 52.25 40.28125 46.1875 39.3125 
Q 53.46875 37.75 57.5 32.78125 
Q 61.53125 27.828125 61.53125 20.40625 
Q 61.53125 10.640625 54.890625 5.3125 
Q 48.25 0 35.984375 0 
L 9.8125 0 
z
" id="DejaVuSans-42"/>
     <path d="M 41.109375 46.296875 
Q 39.59375 47.171875 37.8125 47.578125 
Q 36.03125 48 33.890625 48 
Q 26.265625 48 22.1875 43.046875 
Q 18.109375 38.09375 18.109375 28.8125 
L 18.109375 0 
L 9.078125 0 
L 9.078125 54.6875 
L 18.109375 54.6875 
L 18.109375 46.1875 
Q 20.953125 51.171875 25.484375 53.578125 
Q 30.03125 56 36.53125 56 
Q 37.453125 56 38.578125 55.875 
Q 39.703125 55.765625 41.0625 55.515625 
z
" id="DejaVuSans-72"/>
     <path d="M 34.28125 27.484375 
Q 23.390625 27.484375 19.1875 25 
Q 14.984375 22.515625 14.984375 16.5 
Q 14.984375 11.71875 18.140625 8.90625 
Q 21.296875 6.109375 26.703125 6.109375 
Q 34.1875 6.109375 38.703125 11.40625 
Q 43.21875 16.703125 43.21875 25.484375 
L 43.21875 27.484375 
z
M 52.203125 31.203125 
L 52.203125 0 
L 43.21875 0 
L 43.21875 8.296875 
Q 40.140625 3.328125 35.546875 0.953125 
Q 30.953125 -1.421875 24.3125 -1.421875 
Q 15.921875 -1.421875 10.953125 3.296875 
Q 6 8.015625 6 15.921875 
Q 6 25.140625 12.171875 29.828125 
Q 18.359375 34.515625 30.609375 34.515625 
L 43.21875 34.515625 
L 43.21875 35.40625 
Q 43.21875 41.609375 39.140625 45 
Q 35.0625 48.390625 27.6875 48.390625 
Q 23 48.390625 18.546875 47.265625 
Q 14.109375 46.140625 10.015625 43.890625 
L 10.015625 52.203125 
Q 14.9375 54.109375 19.578125 55.046875 
Q 24.21875 56 28.609375 56 
Q 40.484375 56 46.34375 49.84375 
Q 52.203125 43.703125 52.203125 31.203125 
" id="DejaVuSans-61"/>
     <path d="M 54.890625 33.015625 
L 54.890625 0 
L 45.90625 0 
L 45.90625 32.71875 
Q 45.90625 40.484375 42.875 44.328125 
Q 39.84375 48.1875 33.796875 48.1875 
Q 26.515625 48.1875 22.3125 43.546875 
Q 18.109375 38.921875 18.109375 30.90625 
L 18.109375 0 
L 9.078125 0 
L 9.078125 54.6875 
L 18.109375 54.6875 
L 18.109375 46.1875 
Q 21.34375 51.125 25.703125 53.5625 
Q 30.078125 56 35.796875 56 
Q 45.21875 56 50.046875 50.171875 
Q 54.890625 44.34375 54.890625 33.015625 
" id="DejaVuSans-6e"/>
     <path d="M 48.78125 52.59375 
L 48.78125 44.1875 
Q 44.96875 46.296875 41.140625 47.34375 
Q 37.3125 48.390625 33.40625 48.390625 
Q 24.65625 48.390625 19.8125 42.84375 
Q 14.984375 37.3125 14.984375 27.296875 
Q 14.984375 17.28125 19.8125 11.734375 
Q 24.65625 6.203125 33.40625 6.203125 
Q 37.3125 6.203125 41.140625 7.25 
Q 44.96875 8.296875 48.78125 10.40625 
L 48.78125 2.09375 
Q 45.015625 0.34375 40.984375 -0.53125 
Q 36.96875 -1.421875 32.421875 -1.421875 
Q 20.0625 -1.421875 12.78125 6.34375 
Q 5.515625 14.109375 5.515625 27.296875 
Q 5.515625 40.671875 12.859375 48.328125 
Q 20.21875 56 33.015625 56 
Q 37.15625 56 41.109375 55.140625 
Q 45.0625 54.296875 48.78125 52.59375 
" id="DejaVuSans-63"/>
     <path d="M 54.890625 33.015625 
L 54.890625 0 
L 45.90625 0 
L 45.90625 32.71875 
Q 45.90625 40.484375 42.875 44.328125 
Q 39.84375 48.1875 33.796875 48.1875 
Q 26.515625 48.1875 22.3125 43.546875 
Q 18.109375 38.921875 18.109375 30.90625 
L 18.109375 0 
L 9.078125 0 
L 9.078125 75.984375 
L 18.109375 75.984375 
L 18.109375 46.1875 
Q 21.34375 51.125 25.703125 53.5625 
Q 30.078125 56 35.796875 56 
Q 45.21875 56 50.046875 50.171875 
Q 54.890625 44.34375 54.890625 33.015625 
" id="DejaVuSans-68"/>
     <path id="DejaVuSans-20"/>
     <path d="M 9.421875 75.984375 
L 18.40625 75.984375 
L 18.40625 0 
L 9.421875 0 
z
" id="DejaVuSans-6c"/>
     <path d="M 56.203125 29.59375 
L 56.203125 25.203125 
L 14.890625 25.203125 
Q 15.484375 15.921875 20.484375 11.0625 
Q 25.484375 6.203125 34.421875 6.203125 
Q 39.59375 6.203125 44.453125 7.46875 
Q 49.3125 8.734375 54.109375 11.28125 
L 54.109375 2.78125 
Q 49.265625 0.734375 44.1875 -0.34375 
Q 39.109375 -1.421875 33.890625 -1.421875 
Q 20.796875 -1.421875 13.15625 6.1875 
Q 5.515625 13.8125 5.515625 26.8125 
Q 5.515625 40.234375 12.765625 48.109375 
Q 20.015625 56 32.328125 56 
Q 43.359375 56 49.78125 48.890625 
Q 56.203125 41.796875 56.203125 29.59375 
M 47.21875 32.234375 
Q 47.125 39.59375 43.09375 43.984375 
Q 39.0625 48.390625 32.421875 48.390625 
Q 24.90625 48.390625 20.390625 44.140625 
Q 15.875 39.890625 15.1875 32.171875 
z
" id="DejaVuSans-65"/>
     <path d="M 45.40625 27.984375 
Q 45.40625 37.75 41.375 43.109375 
Q 37.359375 48.484375 30.078125 48.484375 
Q 22.859375 48.484375 18.828125 43.109375 
Q 14.796875 37.75 14.796875 27.984375 
Q 14.796875 18.265625 18.828125 12.890625 
Q 22.859375 7.515625 30.078125 7.515625 
Q 37.359375 7.515625 41.375 12.890625 
Q 45.40625 18.265625 45.40625 27.984375 
M 54.390625 6.78125 
Q 54.390625 -7.171875 48.1875 -13.984375 
Q 42 -20.796875 29.203125 -20.796875 
Q 24.46875 -20.796875 20.265625 -20.09375 
Q 16.0625 -19.390625 12.109375 -17.921875 
L 12.109375 -9.1875 
Q 16.0625 -11.328125 19.921875 -12.34375 
Q 23.78125 -13.375 27.78125 -13.375 
Q 36.625 -13.375 41.015625 -8.765625 
Q 45.40625 -4.15625 45.40625 5.171875 
L 45.40625 9.625 
Q 42.625 4.78125 38.28125 2.390625 
Q 33.9375 0 27.875 0 
Q 17.828125 0 11.671875 7.65625 
Q 5.515625 15.328125 5.515625 27.984375 
Q 5.515625 40.671875 11.671875 48.328125 
Q 17.828125 56 27.875 56 
Q 33.9375 56 38.28125 53.609375 
Q 42.625 51.21875 45.40625 46.390625 
L 45.40625 54.6875 
L 54.390625 54.6875 
z
" id="DejaVuSans-67"/>
     <path d="M 18.3125 70.21875 
L 18.3125 54.6875 
L 36.8125 54.6875 
L 36.8125 47.703125 
L 18.3125 47.703125 
L 18.3125 18.015625 
Q 18.3125 11.328125 20.140625 9.421875 
Q 21.96875 7.515625 27.59375 7.515625 
L 36.8125 7.515625 
L 36.8125 0 
L 27.59375 0 
Q 17.1875 0 13.234375 3.875 
Q 9.28125 7.765625 9.28125 18.015625 
L 9.28125 47.703125 
L 2.6875 47.703125 
L 2.6875 54.6875 
L 9.28125 54.6875 
L 9.28125 70.21875 
z
" id="DejaVuSans-74"/>
     <path d="M 9.421875 54.6875 
L 18.40625 54.6875 
L 18.40625 0 
L 9.421875 0 
z
M 9.421875 75.984375 
L 18.40625 75.984375 
L 18.40625 64.59375 
L 9.421875 64.59375 
z
" id="DejaVuSans-69"/>
     <path d="M 30.609375 48.390625 
Q 23.390625 48.390625 19.1875 42.75 
Q 14.984375 37.109375 14.984375 27.296875 
Q 14.984375 17.484375 19.15625 11.84375 
Q 23.34375 6.203125 30.609375 6.203125 
Q 37.796875 6.203125 41.984375 11.859375 
Q 46.1875 17.53125 46.1875 27.296875 
Q 46.1875 37.015625 41.984375 42.703125 
Q 37.796875 48.390625 30.609375 48.390625 
M 30.609375 56 
Q 42.328125 56 49.015625 48.375 
Q 55.71875 40.765625 55.71875 27.296875 
Q 55.71875 13.875 49.015625 6.21875 
Q 42.328125 -1.421875 30.609375 -1.421875 
Q 18.84375 -1.421875 12.171875 6.21875 
Q 5.515625 13.875 5.515625 27.296875 
Q 5.515625 40.765625 12.171875 48.375 
Q 18.84375 56 30.609375 56 
" id="DejaVuSans-6f"/>
     <path d="M 44.28125 53.078125 
L 44.28125 44.578125 
Q 40.484375 46.53125 36.375 47.5 
Q 32.28125 48.484375 27.875 48.484375 
Q 21.1875 48.484375 17.84375 46.4375 
Q 14.5 44.390625 14.5 40.28125 
Q 14.5 37.15625 16.890625 35.375 
Q 19.28125 33.59375 26.515625 31.984375 
L 29.59375 31.296875 
Q 39.15625 29.25 43.1875 25.515625 
Q 47.21875 21.78125 47.21875 15.09375 
Q 47.21875 7.46875 41.1875 3.015625 
Q 35.15625 -1.421875 24.609375 -1.421875 
Q 20.21875 -1.421875 15.453125 -0.5625 
Q 10.6875 0.296875 5.421875 2 
L 5.421875 11.28125 
Q 10.40625 8.6875 15.234375 7.390625 
Q 20.0625 6.109375 24.8125 6.109375 
Q 31.15625 6.109375 34.5625 8.28125 
Q 37.984375 10.453125 37.984375 14.40625 
Q 37.984375 18.0625 35.515625 20.015625 
Q 33.0625 21.96875 24.703125 23.78125 
L 21.578125 24.515625 
Q 13.234375 26.265625 9.515625 29.90625 
Q 5.8125 33.546875 5.8125 39.890625 
Q 5.8125 47.609375 11.28125 51.796875 
Q 16.75 56 26.8125 56 
Q 31.78125 56 36.171875 55.265625 
Q 40.578125 54.546875 44.28125 53.078125 
" id="DejaVuSans-73"/>
    </defs>
    <g transform="translate(151.2 35.472)scale(0.12 -0.12)">
     <use xlink:href="#DejaVuSans-42"/>
     <use x="68.603516" xlink:href="#DejaVuSans-72"/>
     <use x="109.716797" xlink:href="#DejaVuSans-61"/>
     <use x="170.996094" xlink:href="#DejaVuSans-6e"/>
     <use x="234.375" xlink:href="#DejaVuSans-63"/>
     <use x="289.355469" xlink:href="#DejaVuSans-68"/>
     <use x="352.734375" xlink:href="#DejaVuSans-20"/>
     <use x="384.521484" xlink:href="#DejaVuSans-6c"/>
     <use x="412.304688" xlink:href="#DejaVuSans-65"/>
     <use x="473.828125" xlink:href="#DejaVuSans-6e"/>
     <use x="537.207031" xlink:href="#DejaVuSans-67"/>
     <use x="600.683594" xlink:href="#DejaVuSans-74"/>
     <use x="639.892578" xlink:href="#DejaVuSans-68"/>
     <use x="703.271484" xlink:href="#DejaVuSans-20"/>
     <use x="735.058594" xlink:href="#DejaVuSans-69"/>
     <use x="762.841797" xlink:href="#DejaVuSans-6e"/>
     <use x="826.220703" xlink:href="#DejaVuSans-63"/>
     <use x="881.201172" xlink:href="#DejaVuSans-6f"/>
     <use x="942.382812" xlink:href="#DejaVuSans-6e"/>
     <use x="1005.761719" xlink:href="#DejaVuSans-73"/>
     <use x="1057.861328" xlink:href="#DejaVuSans-69"/>
     <use x="1085.644531" xlink:href="#DejaVuSans-73"/>
     <use x="1137.744141" xlink:href="#DejaVuSans-74"/>
     <use x="1176.953125" xlink:href="#DejaVuSans-65"/>
     <use x="1238.476562" xlink:href="#DejaVuSans-6e"/>
     <use x="1301.855469" xlink:href="#DejaVuSans-63"/>
     <use x="1356.835938" xlink:href="#DejaVuSans-79"/>
    </g>
   </g>
  </g>
 </g>
 <defs>
  <clipPath id="p4f26663f8e">
   <rect height="266.112" width="357.12" x="57.6" y="41.472"/>
  </clipPath>
 </defs>
</svg>
