<?xml version="1.0" encoding="UTF-8" standalone="no"?>
<!-- Created with matplotlib (http://matplotlib.org/) -->

<svg
   xmlns:dc="http://purl.org/dc/elements/1.1/"
   xmlns:cc="http://creativecommons.org/ns#"
   xmlns:rdf="http://www.w3.org/1999/02/22-rdf-syntax-ns#"
   xmlns:svg="http://www.w3.org/2000/svg"
   xmlns="http://www.w3.org/2000/svg"
   xmlns:xlink="http://www.w3.org/1999/xlink"
   xmlns:sodipodi="http://sodipodi.sourceforge.net/DTD/sodipodi-0.dtd"
   xmlns:inkscape="http://www.inkscape.org/namespaces/inkscape"
   height="345pt"
   version="1.1"
   viewBox="0 0 460 345"
   width="460pt"
   id="svg3326"
   inkscape:version="0.48.4 r9939"
   sodipodi:docname="bl-inconsistency.svg">
  <metadata
     id="metadata3627">
    <rdf:RDF>
      <cc:Work
         rdf:about="">
        <dc:format>image/svg+xml</dc:format>
        <dc:type
           rdf:resource="http://purl.org/dc/dcmitype/StillImage" />
        <dc:title></dc:title>
      </cc:Work>
    </rdf:RDF>
  </metadata>
  <sodipodi:namedview
     pagecolor="#ffffff"
     bordercolor="#666666"
     borderopacity="1"
     objecttolerance="10"
     gridtolerance="10"
     guidetolerance="10"
     inkscape:pageopacity="0"
     inkscape:pageshadow="2"
     inkscape:window-width="2495"
     inkscape:window-height="1416"
     id="namedview3625"
     showgrid="false"
     inkscape:zoom="2.8405797"
     inkscape:cx="317.6996"
     inkscape:cy="215.625"
     inkscape:window-x="65"
     inkscape:window-y="24"
     inkscape:window-maximized="1"
     inkscape:current-layer="svg3326" />
  <defs
     id="defs3328">
    <style
       type="text/css"
       id="style3330">
*{stroke-linecap:butt;stroke-linejoin:round;}
  </style>
  </defs>
  <g
     id="figure_1">
    <g
       id="patch_1">
      <path
         d="M 0 345.6  L 460.8 345.6  L 460.8 0  L 0 0  z "
         style="fill:#ffffff;"
         id="path3334" />
    </g>
    <g
       id="axes_1">
      <g
         id="patch_2">
        <path
           d="M 57.6 307.584  L 414.72 307.584  L 414.72 41.472  L 57.6 41.472  z "
           style="fill:#ffffff;"
           id="path3338" />
      </g>
      <g
         id="matplotlib.axis_1">
        <g
           id="xtick_1">
          <g
             id="line2d_1">
            <defs
               id="defs3343">
              <path
                 d="M 0 0  L 0 3.5  "
                 id="m255f92ecde"
                 style="stroke:#000000;stroke-width:0.8;" />
            </defs>
            <g
               id="g3346">
              <use
                 style="stroke:#000000;stroke-width:0.8;"
                 x="57.6"
                 xlink:href="#m255f92ecde"
                 y="307.584"
                 id="use3348" />
            </g>
          </g>
          <g
             id="text_1">
            <!-- 0.0 -->
            <defs
               id="defs3351">
              <path
                 d="M 31.78125 66.40625  Q 24.171875 66.40625 20.328125 58.90625  Q 16.5 51.421875 16.5 36.375  Q 16.5 21.390625 20.328125 13.890625  Q 24.171875 6.390625 31.78125 6.390625  Q 39.453125 6.390625 43.28125 13.890625  Q 47.125 21.390625 47.125 36.375  Q 47.125 51.421875 43.28125 58.90625  Q 39.453125 66.40625 31.78125 66.40625  M 31.78125 74.21875  Q 44.046875 74.21875 50.515625 64.515625  Q 56.984375 54.828125 56.984375 36.375  Q 56.984375 17.96875 50.515625 8.265625  Q 44.046875 -1.421875 31.78125 -1.421875  Q 19.53125 -1.421875 13.0625 8.265625  Q 6.59375 17.96875 6.59375 36.375  Q 6.59375 54.828125 13.0625 64.515625  Q 19.53125 74.21875 31.78125 74.21875  "
                 id="DejaVuSans-30" />
              <path
                 d="M 10.6875 12.40625  L 21 12.40625  L 21 0  L 10.6875 0  z "
                 id="DejaVuSans-2e" />
            </defs>
            <g
               transform="translate(49.648438 322.182437)scale(0.1 -0.1)"
               id="g3355">
              <use
                 xlink:href="#DejaVuSans-30"
                 id="use3357" />
              <use
                 x="63.623047"
                 xlink:href="#DejaVuSans-2e"
                 id="use3359" />
              <use
                 x="95.410156"
                 xlink:href="#DejaVuSans-30"
                 id="use3361" />
            </g>
          </g>
        </g>
        <g
           id="xtick_2">
          <g
             id="line2d_2">
            <g
               id="g3365">
              <use
                 style="stroke:#000000;stroke-width:0.8;"
                 x="130.855385"
                 xlink:href="#m255f92ecde"
                 y="307.584"
                 id="use3367" />
            </g>
          </g>
          <g
             id="text_2">
            <!-- 0.2 -->
            <defs
               id="defs3370">
              <path
                 d="M 19.1875 8.296875  L 53.609375 8.296875  L 53.609375 0  L 7.328125 0  L 7.328125 8.296875  Q 12.9375 14.109375 22.625 23.890625  Q 32.328125 33.6875 34.8125 36.53125  Q 39.546875 41.84375 41.421875 45.53125  Q 43.3125 49.21875 43.3125 52.78125  Q 43.3125 58.59375 39.234375 62.25  Q 35.15625 65.921875 28.609375 65.921875  Q 23.96875 65.921875 18.8125 64.3125  Q 13.671875 62.703125 7.8125 59.421875  L 7.8125 69.390625  Q 13.765625 71.78125 18.9375 73  Q 24.125 74.21875 28.421875 74.21875  Q 39.75 74.21875 46.484375 68.546875  Q 53.21875 62.890625 53.21875 53.421875  Q 53.21875 48.921875 51.53125 44.890625  Q 49.859375 40.875 45.40625 35.40625  Q 44.1875 33.984375 37.640625 27.21875  Q 31.109375 20.453125 19.1875 8.296875  "
                 id="DejaVuSans-32" />
            </defs>
            <g
               transform="translate(122.903822 322.182437)scale(0.1 -0.1)"
               id="g3373">
              <use
                 xlink:href="#DejaVuSans-30"
                 id="use3375" />
              <use
                 x="63.623047"
                 xlink:href="#DejaVuSans-2e"
                 id="use3377" />
              <use
                 x="95.410156"
                 xlink:href="#DejaVuSans-32"
                 id="use3379" />
            </g>
          </g>
        </g>
        <g
           id="xtick_3">
          <g
             id="line2d_3">
            <g
               id="g3383">
              <use
                 style="stroke:#000000;stroke-width:0.8;"
                 x="204.110769"
                 xlink:href="#m255f92ecde"
                 y="307.584"
                 id="use3385" />
            </g>
          </g>
          <g
             id="text_3">
            <!-- 0.4 -->
            <defs
               id="defs3388">
              <path
                 d="M 37.796875 64.3125  L 12.890625 25.390625  L 37.796875 25.390625  z M 35.203125 72.90625  L 47.609375 72.90625  L 47.609375 25.390625  L 58.015625 25.390625  L 58.015625 17.1875  L 47.609375 17.1875  L 47.609375 0  L 37.796875 0  L 37.796875 17.1875  L 4.890625 17.1875  L 4.890625 26.703125  z "
                 id="DejaVuSans-34" />
            </defs>
            <g
               transform="translate(196.159207 322.182437)scale(0.1 -0.1)"
               id="g3391">
              <use
                 xlink:href="#DejaVuSans-30"
                 id="use3393" />
              <use
                 x="63.623047"
                 xlink:href="#DejaVuSans-2e"
                 id="use3395" />
              <use
                 x="95.410156"
                 xlink:href="#DejaVuSans-34"
                 id="use3397" />
            </g>
          </g>
        </g>
        <g
           id="xtick_4">
          <g
             id="line2d_4">
            <g
               id="g3401">
              <use
                 style="stroke:#000000;stroke-width:0.8;"
                 x="277.366154"
                 xlink:href="#m255f92ecde"
                 y="307.584"
                 id="use3403" />
            </g>
          </g>
          <g
             id="text_4">
            <!-- 0.6 -->
            <defs
               id="defs3406">
              <path
                 d="M 33.015625 40.375  Q 26.375 40.375 22.484375 35.828125  Q 18.609375 31.296875 18.609375 23.390625  Q 18.609375 15.53125 22.484375 10.953125  Q 26.375 6.390625 33.015625 6.390625  Q 39.65625 6.390625 43.53125 10.953125  Q 47.40625 15.53125 47.40625 23.390625  Q 47.40625 31.296875 43.53125 35.828125  Q 39.65625 40.375 33.015625 40.375  M 52.59375 71.296875  L 52.59375 62.3125  Q 48.875 64.0625 45.09375 64.984375  Q 41.3125 65.921875 37.59375 65.921875  Q 27.828125 65.921875 22.671875 59.328125  Q 17.53125 52.734375 16.796875 39.40625  Q 19.671875 43.65625 24.015625 45.921875  Q 28.375 48.1875 33.59375 48.1875  Q 44.578125 48.1875 50.953125 41.515625  Q 57.328125 34.859375 57.328125 23.390625  Q 57.328125 12.15625 50.6875 5.359375  Q 44.046875 -1.421875 33.015625 -1.421875  Q 20.359375 -1.421875 13.671875 8.265625  Q 6.984375 17.96875 6.984375 36.375  Q 6.984375 53.65625 15.1875 63.9375  Q 23.390625 74.21875 37.203125 74.21875  Q 40.921875 74.21875 44.703125 73.484375  Q 48.484375 72.75 52.59375 71.296875  "
                 id="DejaVuSans-36" />
            </defs>
            <g
               transform="translate(269.414591 322.182437)scale(0.1 -0.1)"
               id="g3409">
              <use
                 xlink:href="#DejaVuSans-30"
                 id="use3411" />
              <use
                 x="63.623047"
                 xlink:href="#DejaVuSans-2e"
                 id="use3413" />
              <use
                 x="95.410156"
                 xlink:href="#DejaVuSans-36"
                 id="use3415" />
            </g>
          </g>
        </g>
        <g
           id="xtick_5">
          <g
             id="line2d_5">
            <g
               id="g3419">
              <use
                 style="stroke:#000000;stroke-width:0.8;"
                 x="350.621538"
                 xlink:href="#m255f92ecde"
                 y="307.584"
                 id="use3421" />
            </g>
          </g>
          <g
             id="text_5">
            <!-- 0.8 -->
            <defs
               id="defs3424">
              <path
                 d="M 31.78125 34.625  Q 24.75 34.625 20.71875 30.859375  Q 16.703125 27.09375 16.703125 20.515625  Q 16.703125 13.921875 20.71875 10.15625  Q 24.75 6.390625 31.78125 6.390625  Q 38.8125 6.390625 42.859375 10.171875  Q 46.921875 13.96875 46.921875 20.515625  Q 46.921875 27.09375 42.890625 30.859375  Q 38.875 34.625 31.78125 34.625  M 21.921875 38.8125  Q 15.578125 40.375 12.03125 44.71875  Q 8.5 49.078125 8.5 55.328125  Q 8.5 64.0625 14.71875 69.140625  Q 20.953125 74.21875 31.78125 74.21875  Q 42.671875 74.21875 48.875 69.140625  Q 55.078125 64.0625 55.078125 55.328125  Q 55.078125 49.078125 51.53125 44.71875  Q 48 40.375 41.703125 38.8125  Q 48.828125 37.15625 52.796875 32.3125  Q 56.78125 27.484375 56.78125 20.515625  Q 56.78125 9.90625 50.3125 4.234375  Q 43.84375 -1.421875 31.78125 -1.421875  Q 19.734375 -1.421875 13.25 4.234375  Q 6.78125 9.90625 6.78125 20.515625  Q 6.78125 27.484375 10.78125 32.3125  Q 14.796875 37.15625 21.921875 38.8125  M 18.3125 54.390625  Q 18.3125 48.734375 21.84375 45.5625  Q 25.390625 42.390625 31.78125 42.390625  Q 38.140625 42.390625 41.71875 45.5625  Q 45.3125 48.734375 45.3125 54.390625  Q 45.3125 60.0625 41.71875 63.234375  Q 38.140625 66.40625 31.78125 66.40625  Q 25.390625 66.40625 21.84375 63.234375  Q 18.3125 60.0625 18.3125 54.390625  "
                 id="DejaVuSans-38" />
            </defs>
            <g
               transform="translate(342.669976 322.182437)scale(0.1 -0.1)"
               id="g3427">
              <use
                 xlink:href="#DejaVuSans-30"
                 id="use3429" />
              <use
                 x="63.623047"
                 xlink:href="#DejaVuSans-2e"
                 id="use3431" />
              <use
                 x="95.410156"
                 xlink:href="#DejaVuSans-38"
                 id="use3433" />
            </g>
          </g>
        </g>
        <g
           id="text_6">
          <!-- x -->
          <defs
             id="defs3436">
            <path
               d="M 54.890625 54.6875  L 35.109375 28.078125  L 55.90625 0  L 45.3125 0  L 29.390625 21.484375  L 13.484375 0  L 2.875 0  L 24.125 28.609375  L 4.6875 54.6875  L 15.28125 54.6875  L 29.78125 35.203125  L 44.28125 54.6875  z "
               id="DejaVuSans-78" />
          </defs>
          <g
             transform="translate(231.425 340.419625)scale(0.16 -0.16)"
             id="g3439">
            <use
               xlink:href="#DejaVuSans-78"
               id="use3441" />
          </g>
        </g>
      </g>
      <g
         id="matplotlib.axis_2">
        <g
           id="ytick_1">
          <g
             id="line2d_6">
            <defs
               id="defs3446">
              <path
                 d="M 0 0  L -3.5 0  "
                 id="m9f625241c0"
                 style="stroke:#000000;stroke-width:0.8;" />
            </defs>
            <g
               id="g3449">
              <use
                 style="stroke:#000000;stroke-width:0.8;"
                 x="57.6"
                 xlink:href="#m9f625241c0"
                 y="307.584"
                 id="use3451" />
            </g>
          </g>
          <g
             id="text_7">
            <!-- 0.0 -->
            <g
               transform="translate(34.696875 311.383219)scale(0.1 -0.1)"
               id="g3454">
              <use
                 xlink:href="#DejaVuSans-30"
                 id="use3456" />
              <use
                 x="63.623047"
                 xlink:href="#DejaVuSans-2e"
                 id="use3458" />
              <use
                 x="95.410156"
                 xlink:href="#DejaVuSans-30"
                 id="use3460" />
            </g>
          </g>
        </g>
        <g
           id="ytick_2">
          <g
             id="line2d_7">
            <g
               id="g3464">
              <use
                 style="stroke:#000000;stroke-width:0.8;"
                 x="57.6"
                 xlink:href="#m9f625241c0"
                 y="252.996923"
                 id="use3466" />
            </g>
          </g>
          <g
             id="text_8">
            <!-- 0.2 -->
            <g
               transform="translate(34.696875 256.796142)scale(0.1 -0.1)"
               id="g3469">
              <use
                 xlink:href="#DejaVuSans-30"
                 id="use3471" />
              <use
                 x="63.623047"
                 xlink:href="#DejaVuSans-2e"
                 id="use3473" />
              <use
                 x="95.410156"
                 xlink:href="#DejaVuSans-32"
                 id="use3475" />
            </g>
          </g>
        </g>
        <g
           id="ytick_3">
          <g
             id="line2d_8">
            <g
               id="g3479">
              <use
                 style="stroke:#000000;stroke-width:0.8;"
                 x="57.6"
                 xlink:href="#m9f625241c0"
                 y="198.409846"
                 id="use3481" />
            </g>
          </g>
          <g
             id="text_9">
            <!-- 0.4 -->
            <g
               transform="translate(34.696875 202.209065)scale(0.1 -0.1)"
               id="g3484">
              <use
                 xlink:href="#DejaVuSans-30"
                 id="use3486" />
              <use
                 x="63.623047"
                 xlink:href="#DejaVuSans-2e"
                 id="use3488" />
              <use
                 x="95.410156"
                 xlink:href="#DejaVuSans-34"
                 id="use3490" />
            </g>
          </g>
        </g>
        <g
           id="ytick_4">
          <g
             id="line2d_9">
            <g
               id="g3494">
              <use
                 style="stroke:#000000;stroke-width:0.8;"
                 x="57.6"
                 xlink:href="#m9f625241c0"
                 y="143.822769"
                 id="use3496" />
            </g>
          </g>
          <g
             id="text_10">
            <!-- 0.6 -->
            <g
               transform="translate(34.696875 147.621988)scale(0.1 -0.1)"
               id="g3499">
              <use
                 xlink:href="#DejaVuSans-30"
                 id="use3501" />
              <use
                 x="63.623047"
                 xlink:href="#DejaVuSans-2e"
                 id="use3503" />
              <use
                 x="95.410156"
                 xlink:href="#DejaVuSans-36"
                 id="use3505" />
            </g>
          </g>
        </g>
        <g
           id="ytick_5">
          <g
             id="line2d_10">
            <g
               id="g3509">
              <use
                 style="stroke:#000000;stroke-width:0.8;"
                 x="57.6"
                 xlink:href="#m9f625241c0"
                 y="89.235692"
                 id="use3511" />
            </g>
          </g>
          <g
             id="text_11">
            <!-- 0.8 -->
            <g
               transform="translate(34.696875 93.034911)scale(0.1 -0.1)"
               id="g3514">
              <use
                 xlink:href="#DejaVuSans-30"
                 id="use3516" />
              <use
                 x="63.623047"
                 xlink:href="#DejaVuSans-2e"
                 id="use3518" />
              <use
                 x="95.410156"
                 xlink:href="#DejaVuSans-38"
                 id="use3520" />
            </g>
          </g>
        </g>
        <g
           id="text_12">
          <!-- y -->
          <defs
             id="defs3523">
            <path
               d="M 32.171875 -5.078125  Q 28.375 -14.84375 24.75 -17.8125  Q 21.140625 -20.796875 15.09375 -20.796875  L 7.90625 -20.796875  L 7.90625 -13.28125  L 13.1875 -13.28125  Q 16.890625 -13.28125 18.9375 -11.515625  Q 21 -9.765625 23.484375 -3.21875  L 25.09375 0.875  L 2.984375 54.6875  L 12.5 54.6875  L 29.59375 11.921875  L 46.6875 54.6875  L 56.203125 54.6875  z "
               id="DejaVuSans-79" />
          </defs>
          <g
             transform="translate(27.369375 179.263)rotate(-90)scale(0.16 -0.16)"
             id="g3526">
            <use
               xlink:href="#DejaVuSans-79"
               id="use3528" />
          </g>
        </g>
      </g>
      <g
         id="LineCollection_1">
        <path
           clip-path="url(#p6ba80b7c0a)"
           d="M 414.72 252.996923  L 405.563077 252.996923  L 396.406154 252.996923  L 387.249231 252.996923  L 378.092308 246.173538  L 368.935385 246.173538  L 359.778462 246.173538  L 350.621538 246.173538  L 341.464615 246.173538  L 332.307692 246.173538  L 323.150769 239.350154  L 313.993846 239.350154  L 304.836923 239.350154  L 295.68 239.350154  L 286.523077 232.526769  L 277.366154 232.526769  L 268.209231 232.526769  L 259.052308 225.703385  L 249.895385 225.703385  L 240.738462 218.88  L 231.581538 212.056615  L 222.424615 205.233231  L 213.267692 198.409846  L 204.110769 191.586462  L 204.110769 184.763077  L 194.953846 177.939692  L 194.953846 171.116308  L 194.953846 164.292923  L 185.796923 157.469538  L 185.796923 150.646154  L 185.796923 143.822769  L 185.796923 136.999385  L 185.796923 130.176  L 185.796923 123.352615  L 185.796923 116.529231  L 185.796923 109.705846  L 194.953846 102.882462  L 194.953846 96.059077  L 194.953846 89.235692  L 204.110769 82.412308  L 204.110769 75.588923  L 213.267692 68.765538  L 222.424615 61.942154  L 231.581538 55.118769  L 240.738462 55.118769  L 249.895385 48.295385  L 259.052308 48.295385  L 268.209231 48.295385  L 277.366154 48.295385  L 286.523077 41.472  "
           style="fill:none;stroke:#440154;stroke-width:1.5;"
           id="path3531" />
        <path
           clip-path="url(#p6ba80b7c0a)"
           d="M 57.6 41.472  L 57.6 48.295385  L 57.6 55.118769  L 57.6 61.942154  L 57.6 68.765538  L 57.6 75.588923  L 57.6 82.412308  L 57.6 89.235692  L 57.6 96.059077  L 57.6 102.882462  L 57.6 109.705846  L 57.6 116.529231  L 57.6 123.352615  L 57.6 130.176  L 57.6 136.999385  L 57.6 143.822769  L 57.6 150.646154  L 57.6 157.469538  L 57.6 164.292923  L 57.6 171.116308  L 57.6 177.939692  L 57.6 184.763077  L 57.6 191.586462  L 57.6 198.409846  L 57.6 205.233231  L 57.6 212.056615  L 57.6 218.88  L 57.6 225.703385  L 57.6 232.526769  L 57.6 239.350154  L 57.6 246.173538  L 57.6 252.996923  L 57.6 259.820308  L 57.6 266.643692  L 57.6 273.467077  L 57.6 280.290462  L 57.6 287.113846  L 57.6 293.937231  L 57.6 300.760615  L 66.756923 307.584  L 75.913846 307.584  L 85.070769 307.584  L 94.227692 307.584  L 103.384615 307.584  L 112.541538 307.584  L 121.698462 307.584  L 130.855385 307.584  L 140.012308 307.584  L 149.169231 307.584  L 158.326154 307.584  L 167.483077 307.584  L 176.64 307.584  L 185.796923 307.584  L 194.953846 307.584  L 204.110769 307.584  L 213.267692 307.584  L 222.424615 307.584  L 231.581538 307.584  L 240.738462 307.584  L 249.895385 307.584  L 259.052308 307.584  L 268.209231 307.584  L 277.366154 307.584  L 286.523077 307.584  L 295.68 307.584  L 304.836923 307.584  L 313.993846 307.584  L 323.150769 307.584  L 332.307692 307.584  L 341.464615 307.584  L 350.621538 307.584  L 359.778462 307.584  L 368.935385 307.584  L 378.092308 307.584  L 387.249231 307.584  L 396.406154 307.584  L 405.563077 307.584  L 414.72 307.584  "
           style="fill:none;stroke:#440154;stroke-width:1.5;"
           id="path3533" />
      </g>
      <g
         id="patch_3">
        <path
           d="M 57.6 307.584  L 57.6 41.472  "
           style="fill:none;stroke:#000000;stroke-linecap:square;stroke-linejoin:miter;stroke-width:0.8;"
           id="path3536" />
      </g>
      <g
         id="patch_4">
        <path
           d="M 414.72 307.584  L 414.72 41.472  "
           style="fill:none;stroke:#000000;stroke-linecap:square;stroke-linejoin:miter;stroke-width:0.8;"
           id="path3539" />
      </g>
      <g
         id="patch_5">
        <path
           d="M 57.6 307.584  L 414.72 307.584  "
           style="fill:none;stroke:#000000;stroke-linecap:square;stroke-linejoin:miter;stroke-width:0.8;"
           id="path3542" />
      </g>
      <g
         id="patch_6">
        <path
           d="M 57.6 41.472  L 414.72 41.472  "
           style="fill:none;stroke:#000000;stroke-linecap:square;stroke-linejoin:miter;stroke-width:0.8;"
           id="path3545" />
      </g>
      <g
         id="text_13">
        <!-- Branch length inconsistency -->
        <defs
           id="defs3548">
          <path
             d="M 19.671875 34.8125  L 19.671875 8.109375  L 35.5 8.109375  Q 43.453125 8.109375 47.28125 11.40625  Q 51.125 14.703125 51.125 21.484375  Q 51.125 28.328125 47.28125 31.5625  Q 43.453125 34.8125 35.5 34.8125  z M 19.671875 64.796875  L 19.671875 42.828125  L 34.28125 42.828125  Q 41.5 42.828125 45.03125 45.53125  Q 48.578125 48.25 48.578125 53.8125  Q 48.578125 59.328125 45.03125 62.0625  Q 41.5 64.796875 34.28125 64.796875  z M 9.8125 72.90625  L 35.015625 72.90625  Q 46.296875 72.90625 52.390625 68.21875  Q 58.5 63.53125 58.5 54.890625  Q 58.5 48.1875 55.375 44.234375  Q 52.25 40.28125 46.1875 39.3125  Q 53.46875 37.75 57.5 32.78125  Q 61.53125 27.828125 61.53125 20.40625  Q 61.53125 10.640625 54.890625 5.3125  Q 48.25 0 35.984375 0  L 9.8125 0  z "
             id="DejaVuSans-42" />
          <path
             d="M 41.109375 46.296875  Q 39.59375 47.171875 37.8125 47.578125  Q 36.03125 48 33.890625 48  Q 26.265625 48 22.1875 43.046875  Q 18.109375 38.09375 18.109375 28.8125  L 18.109375 0  L 9.078125 0  L 9.078125 54.6875  L 18.109375 54.6875  L 18.109375 46.1875  Q 20.953125 51.171875 25.484375 53.578125  Q 30.03125 56 36.53125 56  Q 37.453125 56 38.578125 55.875  Q 39.703125 55.765625 41.0625 55.515625  z "
             id="DejaVuSans-72" />
          <path
             d="M 34.28125 27.484375  Q 23.390625 27.484375 19.1875 25  Q 14.984375 22.515625 14.984375 16.5  Q 14.984375 11.71875 18.140625 8.90625  Q 21.296875 6.109375 26.703125 6.109375  Q 34.1875 6.109375 38.703125 11.40625  Q 43.21875 16.703125 43.21875 25.484375  L 43.21875 27.484375  z M 52.203125 31.203125  L 52.203125 0  L 43.21875 0  L 43.21875 8.296875  Q 40.140625 3.328125 35.546875 0.953125  Q 30.953125 -1.421875 24.3125 -1.421875  Q 15.921875 -1.421875 10.953125 3.296875  Q 6 8.015625 6 15.921875  Q 6 25.140625 12.171875 29.828125  Q 18.359375 34.515625 30.609375 34.515625  L 43.21875 34.515625  L 43.21875 35.40625  Q 43.21875 41.609375 39.140625 45  Q 35.0625 48.390625 27.6875 48.390625  Q 23 48.390625 18.546875 47.265625  Q 14.109375 46.140625 10.015625 43.890625  L 10.015625 52.203125  Q 14.9375 54.109375 19.578125 55.046875  Q 24.21875 56 28.609375 56  Q 40.484375 56 46.34375 49.84375  Q 52.203125 43.703125 52.203125 31.203125  "
             id="DejaVuSans-61" />
          <path
             d="M 54.890625 33.015625  L 54.890625 0  L 45.90625 0  L 45.90625 32.71875  Q 45.90625 40.484375 42.875 44.328125  Q 39.84375 48.1875 33.796875 48.1875  Q 26.515625 48.1875 22.3125 43.546875  Q 18.109375 38.921875 18.109375 30.90625  L 18.109375 0  L 9.078125 0  L 9.078125 54.6875  L 18.109375 54.6875  L 18.109375 46.1875  Q 21.34375 51.125 25.703125 53.5625  Q 30.078125 56 35.796875 56  Q 45.21875 56 50.046875 50.171875  Q 54.890625 44.34375 54.890625 33.015625  "
             id="DejaVuSans-6e" />
          <path
             d="M 48.78125 52.59375  L 48.78125 44.1875  Q 44.96875 46.296875 41.140625 47.34375  Q 37.3125 48.390625 33.40625 48.390625  Q 24.65625 48.390625 19.8125 42.84375  Q 14.984375 37.3125 14.984375 27.296875  Q 14.984375 17.28125 19.8125 11.734375  Q 24.65625 6.203125 33.40625 6.203125  Q 37.3125 6.203125 41.140625 7.25  Q 44.96875 8.296875 48.78125 10.40625  L 48.78125 2.09375  Q 45.015625 0.34375 40.984375 -0.53125  Q 36.96875 -1.421875 32.421875 -1.421875  Q 20.0625 -1.421875 12.78125 6.34375  Q 5.515625 14.109375 5.515625 27.296875  Q 5.515625 40.671875 12.859375 48.328125  Q 20.21875 56 33.015625 56  Q 37.15625 56 41.109375 55.140625  Q 45.0625 54.296875 48.78125 52.59375  "
             id="DejaVuSans-63" />
          <path
             d="M 54.890625 33.015625  L 54.890625 0  L 45.90625 0  L 45.90625 32.71875  Q 45.90625 40.484375 42.875 44.328125  Q 39.84375 48.1875 33.796875 48.1875  Q 26.515625 48.1875 22.3125 43.546875  Q 18.109375 38.921875 18.109375 30.90625  L 18.109375 0  L 9.078125 0  L 9.078125 75.984375  L 18.109375 75.984375  L 18.109375 46.1875  Q 21.34375 51.125 25.703125 53.5625  Q 30.078125 56 35.796875 56  Q 45.21875 56 50.046875 50.171875  Q 54.890625 44.34375 54.890625 33.015625  "
             id="DejaVuSans-68" />
          <path
             id="DejaVuSans-20" />
          <path
             d="M 9.421875 75.984375  L 18.40625 75.984375  L 18.40625 0  L 9.421875 0  z "
             id="DejaVuSans-6c" />
          <path
             d="M 56.203125 29.59375  L 56.203125 25.203125  L 14.890625 25.203125  Q 15.484375 15.921875 20.484375 11.0625  Q 25.484375 6.203125 34.421875 6.203125  Q 39.59375 6.203125 44.453125 7.46875  Q 49.3125 8.734375 54.109375 11.28125  L 54.109375 2.78125  Q 49.265625 0.734375 44.1875 -0.34375  Q 39.109375 -1.421875 33.890625 -1.421875  Q 20.796875 -1.421875 13.15625 6.1875  Q 5.515625 13.8125 5.515625 26.8125  Q 5.515625 40.234375 12.765625 48.109375  Q 20.015625 56 32.328125 56  Q 43.359375 56 49.78125 48.890625  Q 56.203125 41.796875 56.203125 29.59375  M 47.21875 32.234375  Q 47.125 39.59375 43.09375 43.984375  Q 39.0625 48.390625 32.421875 48.390625  Q 24.90625 48.390625 20.390625 44.140625  Q 15.875 39.890625 15.1875 32.171875  z "
             id="DejaVuSans-65" />
          <path
             d="M 45.40625 27.984375  Q 45.40625 37.75 41.375 43.109375  Q 37.359375 48.484375 30.078125 48.484375  Q 22.859375 48.484375 18.828125 43.109375  Q 14.796875 37.75 14.796875 27.984375  Q 14.796875 18.265625 18.828125 12.890625  Q 22.859375 7.515625 30.078125 7.515625  Q 37.359375 7.515625 41.375 12.890625  Q 45.40625 18.265625 45.40625 27.984375  M 54.390625 6.78125  Q 54.390625 -7.171875 48.1875 -13.984375  Q 42 -20.796875 29.203125 -20.796875  Q 24.46875 -20.796875 20.265625 -20.09375  Q 16.0625 -19.390625 12.109375 -17.921875  L 12.109375 -9.1875  Q 16.0625 -11.328125 19.921875 -12.34375  Q 23.78125 -13.375 27.78125 -13.375  Q 36.625 -13.375 41.015625 -8.765625  Q 45.40625 -4.15625 45.40625 5.171875  L 45.40625 9.625  Q 42.625 4.78125 38.28125 2.390625  Q 33.9375 0 27.875 0  Q 17.828125 0 11.671875 7.65625  Q 5.515625 15.328125 5.515625 27.984375  Q 5.515625 40.671875 11.671875 48.328125  Q 17.828125 56 27.875 56  Q 33.9375 56 38.28125 53.609375  Q 42.625 51.21875 45.40625 46.390625  L 45.40625 54.6875  L 54.390625 54.6875  z "
             id="DejaVuSans-67" />
          <path
             d="M 18.3125 70.21875  L 18.3125 54.6875  L 36.8125 54.6875  L 36.8125 47.703125  L 18.3125 47.703125  L 18.3125 18.015625  Q 18.3125 11.328125 20.140625 9.421875  Q 21.96875 7.515625 27.59375 7.515625  L 36.8125 7.515625  L 36.8125 0  L 27.59375 0  Q 17.1875 0 13.234375 3.875  Q 9.28125 7.765625 9.28125 18.015625  L 9.28125 47.703125  L 2.6875 47.703125  L 2.6875 54.6875  L 9.28125 54.6875  L 9.28125 70.21875  z "
             id="DejaVuSans-74" />
          <path
             d="M 9.421875 54.6875  L 18.40625 54.6875  L 18.40625 0  L 9.421875 0  z M 9.421875 75.984375  L 18.40625 75.984375  L 18.40625 64.59375  L 9.421875 64.59375  z "
             id="DejaVuSans-69" />
          <path
             d="M 30.609375 48.390625  Q 23.390625 48.390625 19.1875 42.75  Q 14.984375 37.109375 14.984375 27.296875  Q 14.984375 17.484375 19.15625 11.84375  Q 23.34375 6.203125 30.609375 6.203125  Q 37.796875 6.203125 41.984375 11.859375  Q 46.1875 17.53125 46.1875 27.296875  Q 46.1875 37.015625 41.984375 42.703125  Q 37.796875 48.390625 30.609375 48.390625  M 30.609375 56  Q 42.328125 56 49.015625 48.375  Q 55.71875 40.765625 55.71875 27.296875  Q 55.71875 13.875 49.015625 6.21875  Q 42.328125 -1.421875 30.609375 -1.421875  Q 18.84375 -1.421875 12.171875 6.21875  Q 5.515625 13.875 5.515625 27.296875  Q 5.515625 40.765625 12.171875 48.375  Q 18.84375 56 30.609375 56  "
             id="DejaVuSans-6f" />
          <path
             d="M 44.28125 53.078125  L 44.28125 44.578125  Q 40.484375 46.53125 36.375 47.5  Q 32.28125 48.484375 27.875 48.484375  Q 21.1875 48.484375 17.84375 46.4375  Q 14.5 44.390625 14.5 40.28125  Q 14.5 37.15625 16.890625 35.375  Q 19.28125 33.59375 26.515625 31.984375  L 29.59375 31.296875  Q 39.15625 29.25 43.1875 25.515625  Q 47.21875 21.78125 47.21875 15.09375  Q 47.21875 7.46875 41.1875 3.015625  Q 35.15625 -1.421875 24.609375 -1.421875  Q 20.21875 -1.421875 15.453125 -0.5625  Q 10.6875 0.296875 5.421875 2  L 5.421875 11.28125  Q 10.40625 8.6875 15.234375 7.390625  Q 20.0625 6.109375 24.8125 6.109375  Q 31.15625 6.109375 34.5625 8.28125  Q 37.984375 10.453125 37.984375 14.40625  Q 37.984375 18.0625 35.515625 20.015625  Q 33.0625 21.96875 24.703125 23.78125  L 21.578125 24.515625  Q 13.234375 26.265625 9.515625 29.90625  Q 5.8125 33.546875 5.8125 39.890625  Q 5.8125 47.609375 11.28125 51.796875  Q 16.75 56 26.8125 56  Q 31.78125 56 36.171875 55.265625  Q 40.578125 54.546875 44.28125 53.078125  "
             id="DejaVuSans-73" />
        </defs>
        <g
           transform="translate(151.2 35.472)scale(0.12 -0.12)"
           id="g3564">
          <use
             xlink:href="#DejaVuSans-42"
             id="use3566" />
          <use
             x="68.603516"
             xlink:href="#DejaVuSans-72"
             id="use3568" />
          <use
             x="109.716797"
             xlink:href="#DejaVuSans-61"
             id="use3570" />
          <use
             x="170.996094"
             xlink:href="#DejaVuSans-6e"
             id="use3572" />
          <use
             x="234.375"
             xlink:href="#DejaVuSans-63"
             id="use3574" />
          <use
             x="289.355469"
             xlink:href="#DejaVuSans-68"
             id="use3576" />
          <use
             x="352.734375"
             xlink:href="#DejaVuSans-20"
             id="use3578" />
          <use
             x="384.521484"
             xlink:href="#DejaVuSans-6c"
             id="use3580" />
          <use
             x="412.304688"
             xlink:href="#DejaVuSans-65"
             id="use3582" />
          <use
             x="473.828125"
             xlink:href="#DejaVuSans-6e"
             id="use3584" />
          <use
             x="537.207031"
             xlink:href="#DejaVuSans-67"
             id="use3586" />
          <use
             x="600.683594"
             xlink:href="#DejaVuSans-74"
             id="use3588" />
          <use
             x="639.892578"
             xlink:href="#DejaVuSans-68"
             id="use3590" />
          <use
             x="703.271484"
             xlink:href="#DejaVuSans-20"
             id="use3592" />
          <use
             x="735.058594"
             xlink:href="#DejaVuSans-69"
             id="use3594" />
          <use
             x="762.841797"
             xlink:href="#DejaVuSans-6e"
             id="use3596" />
          <use
             x="826.220703"
             xlink:href="#DejaVuSans-63"
             id="use3598" />
          <use
             x="881.201172"
             xlink:href="#DejaVuSans-6f"
             id="use3600" />
          <use
             x="942.382812"
             xlink:href="#DejaVuSans-6e"
             id="use3602" />
          <use
             x="1005.761719"
             xlink:href="#DejaVuSans-73"
             id="use3604" />
          <use
             x="1057.861328"
             xlink:href="#DejaVuSans-69"
             id="use3606" />
          <use
             x="1085.644531"
             xlink:href="#DejaVuSans-73"
             id="use3608" />
          <use
             x="1137.744141"
             xlink:href="#DejaVuSans-74"
             id="use3610" />
          <use
             x="1176.953125"
             xlink:href="#DejaVuSans-65"
             id="use3612" />
          <use
             x="1238.476562"
             xlink:href="#DejaVuSans-6e"
             id="use3614" />
          <use
             x="1301.855469"
             xlink:href="#DejaVuSans-63"
             id="use3616" />
          <use
             x="1356.835938"
             xlink:href="#DejaVuSans-79"
             id="use3618" />
        </g>
      </g>
    </g>
  </g>
  <defs
     id="defs3620">
    <clipPath
       id="p6ba80b7c0a">
      <rect
         height="266.112"
         width="357.12"
         x="57.6"
         y="41.472"
         id="rect3623" />
    </clipPath>
  </defs>
  <path
     style="fill:#cccccc;stroke-linecap:butt;stroke-linejoin:round"
     d="m 78.299745,379.26628 -5.192602,-3.87568 0,-161.38025 0,-161.380248 141.061917,0 141.06193,0 -4.54889,3.344388 -4.5489,3.344388 -17.15477,0 -17.15476,0 -5.65107,4.224489 -5.65106,4.22449 -5.73037,0 -5.73037,0 -17.41433,12.98374 -17.41433,12.983738 -0.10815,4.354273 -0.10815,4.354272 -5.46409,4.04847 c -3.00525,2.22666 -5.61009,4.31529 -5.78853,4.64139 -0.17845,0.32611 -0.32469,4.28657 -0.32499,8.80103 l -5.4e-4,8.20809 -5.63211,4.16044 -5.63211,4.16044 0.005,30.33956 c 0.003,16.68676 0.12177,30.51075 0.26403,30.72 0.14225,0.20924 2.67452,2.16279 5.62726,4.34122 l 5.36862,3.96079 0,8.42026 c 0,7.55279 0.0635,8.48372 0.61659,9.03632 0.33913,0.33884 2.95303,2.33799 5.80867,4.44256 l 5.19209,3.82649 0.005,4.09442 c 0.003,2.25194 0.12178,4.26894 0.26403,4.48223 0.14225,0.21328 13.15815,9.99561 28.92423,21.73852 l 28.66559,21.35073 5.75737,0 5.75736,0 5.61073,4.22449 5.61072,4.22449 11.45392,0 11.45393,0 5.41608,4.01525 c 2.97885,2.20839 5.74003,4.18862 6.13594,4.40051 0.4921,0.26337 6.10144,0.38807 17.72897,0.39414 l 17.00911,0.009 5.60432,4.21561 5.60431,4.21561 28.62968,0 28.62965,0 5.65107,4.22449 5.65106,4.22449 17.05757,0 17.05754,0 0,32.91581 0,32.91582 -217.12117,-0.0272 -217.121173,-0.0272 -5.192602,-3.87568 z"
     id="path3629"
     inkscape:connector-curvature="0"
     transform="scale(0.8,0.8)" />
  <rect
     style="fill:#cccccc;stroke-linecap:butt;stroke-linejoin:round"
     id="rect3631"
     width="26.755102"
     height="6.7591834"
     x="294.03674"
     y="77.448982" />
  <text
     xml:space="preserve"
     style="font-size:8px;font-style:normal;font-weight:normal;line-height:125%;letter-spacing:0px;word-spacing:0px;fill:#000000;fill-opacity:1;stroke:none;font-family:Sans"
     x="324.72244"
     y="84.094887"
     id="text3633"
     sodipodi:linespacing="125%"><tspan
       sodipodi:role="line"
       id="tspan3635"
       x="324.72244"
       y="84.094887">w estimated to be 1</tspan></text>
</svg>
