<?xml version="1.0" encoding="UTF-8" standalone="no"?>
<!-- Created with matplotlib (http://matplotlib.org/) -->

<svg
   xmlns:dc="http://purl.org/dc/elements/1.1/"
   xmlns:cc="http://creativecommons.org/ns#"
   xmlns:rdf="http://www.w3.org/1999/02/22-rdf-syntax-ns#"
   xmlns:svg="http://www.w3.org/2000/svg"
   xmlns="http://www.w3.org/2000/svg"
   xmlns:xlink="http://www.w3.org/1999/xlink"
   xmlns:sodipodi="http://sodipodi.sourceforge.net/DTD/sodipodi-0.dtd"
   xmlns:inkscape="http://www.inkscape.org/namespaces/inkscape"
   height="396pt"
   version="1.1"
   viewBox="0 0 576 396"
   width="576pt"
   id="svg2"
   inkscape:version="0.48.4 r9939"
   sodipodi:docname="topology-inconsistency.svg">
  <metadata
     id="metadata442">
    <rdf:RDF>
      <cc:Work
         rdf:about="">
        <dc:format>image/svg+xml</dc:format>
        <dc:type
           rdf:resource="http://purl.org/dc/dcmitype/StillImage" />
        <dc:title></dc:title>
      </cc:Work>
    </rdf:RDF>
  </metadata>
  <sodipodi:namedview
     pagecolor="#ffffff"
     bordercolor="#666666"
     borderopacity="1"
     objecttolerance="10"
     gridtolerance="10"
     guidetolerance="10"
     inkscape:pageopacity="0"
     inkscape:pageshadow="2"
     inkscape:window-width="2495"
     inkscape:window-height="1416"
     id="namedview440"
     showgrid="false"
     inkscape:zoom="1.6222222"
     inkscape:cx="251.50685"
     inkscape:cy="247.5"
     inkscape:window-x="65"
     inkscape:window-y="24"
     inkscape:window-maximized="1"
     inkscape:current-layer="svg2" />
  <defs
     id="defs4">
    <pattern
       inkscape:stockid="Wavy"
       id="Wavy"
       height="5.1805778"
       width="30.066020"
       patternUnits="userSpaceOnUse"
       inkscape:collect="always">
      <path
         id="path5536"
         d="M 7.597,0.061 C 5.079,-0.187 2.656,0.302 -0.01,1.788 L -0.01,3.061 C 2.773,1.431 5.173,1.052 7.472,1.280 C 9.770,1.508 11.969,2.361 14.253,3.218 C 18.820,4.931 23.804,6.676 30.066,3.061 L 30.062,1.788 C 23.622,5.497 19.246,3.770 14.691,2.061 C 12.413,1.207 10.115,0.311 7.597,0.061 z "
         style="fill:black;stroke:none;" />
    </pattern>
    <style
       type="text/css"
       id="style6">
*{stroke-linecap:butt;stroke-linejoin:round;}
  </style>
  </defs>
  <g
     id="figure_1">
    <g
       id="patch_1">
      <path
         d="M 0 396  L 576 396  L 576 0  L 0 0  z "
         style="fill:#ffffff;"
         id="path10" />
    </g>
    <g
       id="axes_1">
      <g
         id="patch_2">
        <path
           d="M 146.520344 332.386005  L 429.479656 332.386005  L 429.479656 49.426693  L 146.520344 49.426693  z "
           style="fill:#ffffff;"
           id="path14" />
      </g>
      <g
         id="matplotlib.axis_1">
        <g
           id="xtick_1">
          <g
             id="line2d_1">
            <defs
               id="defs19">
              <path
                 d="M 0 0  L 0 6  "
                 id="m08c27886e6"
                 style="stroke:#262626;" />
            </defs>
            <g
               id="g22">
              <use
                 style="fill:#262626;stroke:#262626;"
                 x="146.236818"
                 xlink:href="#m08c27886e6"
                 y="332.386005"
                 id="use24" />
            </g>
          </g>
          <g
             id="text_1">
            <!-- $0.0$ -->
            <defs
               id="defs27">
              <path
                 d="M 42 31.640625  C 42 37.75 41.90625 48.125 37.703125 56.109375  C 34 63.109375 28.09375 65.59375 22.90625 65.59375  C 18.09375 65.59375 12 63.40625 8.203125 56.203125  C 4.203125 48.71875 3.796875 39.4375 3.796875 31.640625  C 3.796875 25.953125 3.90625 17.28125 7 9.671875  C 11.296875 -0.609375 19 -2 22.90625 -2  C 27.5 -2 34.5 -0.109375 38.59375 9.375  C 41.59375 16.28125 42 24.359375 42 31.640625  M 22.90625 -0.40625  C 16.5 -0.40625 12.703125 5.078125 11.296875 12.6875  C 10.203125 18.5625 10.203125 27.15625 10.203125 32.75  C 10.203125 40.4375 10.203125 46.828125 11.5 52.921875  C 13.40625 61.390625 19 64 22.90625 64  C 27 64 32.296875 61.296875 34.203125 53.125  C 35.5 47.4375 35.59375 40.734375 35.59375 32.75  C 35.59375 26.25 35.59375 18.265625 34.40625 12.375  C 32.296875 1.484375 26.40625 -0.40625 22.90625 -0.40625  "
                 id="CMR17-48" />
              <path
                 d="M 18.40625 4.796875  C 18.40625 7.6875 16 9.671875 13.59375 9.671875  C 10.703125 9.671875 8.703125 7.28125 8.703125 4.890625  C 8.703125 2 11.09375 0 13.5 0  C 16.40625 0 18.40625 2.390625 18.40625 4.796875  "
                 id="CMMI12-58" />
            </defs>
            <g
               style="fill:#262626;"
               transform="translate(135.573786 357.839305)scale(0.18 -0.18)"
               id="g31">
              <use
                 transform="scale(0.996264)"
                 xlink:href="#CMR17-48"
                 id="use33" />
              <use
                 transform="translate(45.690477 0)scale(0.996264)"
                 xlink:href="#CMMI12-58"
                 id="use35" />
              <use
                 transform="translate(72.787654 0)scale(0.996264)"
                 xlink:href="#CMR17-48"
                 id="use37" />
            </g>
          </g>
        </g>
        <g
           id="xtick_2">
          <g
             id="line2d_2">
            <g
               id="g41">
              <use
                 style="fill:#262626;stroke:#262626;"
                 x="202.942091"
                 xlink:href="#m08c27886e6"
                 y="332.386005"
                 id="use43" />
            </g>
          </g>
          <g
             id="text_2">
            <!-- $0.2$ -->
            <defs
               id="defs46">
              <path
                 d="M 41.703125 15.453125  L 39.90625 15.453125  C 38.90625 8.375 38.09375 7.171875 37.703125 6.5625  C 37.203125 5.765625 30 5.765625 28.59375 5.765625  L 9.40625 5.765625  C 13 9.671875 20 16.75 28.5 24.953125  C 34.59375 30.734375 41.703125 37.53125 41.703125 47.421875  C 41.703125 59.21875 32.296875 66 21.796875 66  C 10.796875 66 4.09375 56.3125 4.09375 47.34375  C 4.09375 43.4375 7 42.9375 8.203125 42.9375  C 9.203125 42.9375 12.203125 43.546875 12.203125 47.03125  C 12.203125 50.109375 9.59375 51 8.203125 51  C 7.59375 51 7 50.90625 6.59375 50.703125  C 8.5 59.21875 14.296875 63.40625 20.40625 63.40625  C 29.09375 63.40625 34.796875 56.515625 34.796875 47.421875  C 34.796875 38.734375 29.703125 31.25 24 24.75  L 4.09375 2.28125  L 4.09375 0  L 39.296875 0  z "
                 id="CMR17-50" />
            </defs>
            <g
               style="fill:#262626;"
               transform="translate(192.279059 357.839305)scale(0.18 -0.18)"
               id="g49">
              <use
                 transform="scale(0.996264)"
                 xlink:href="#CMR17-48"
                 id="use51" />
              <use
                 transform="translate(45.690477 0)scale(0.996264)"
                 xlink:href="#CMMI12-58"
                 id="use53" />
              <use
                 transform="translate(72.787654 0)scale(0.996264)"
                 xlink:href="#CMR17-50"
                 id="use55" />
            </g>
          </g>
        </g>
        <g
           id="xtick_3">
          <g
             id="line2d_3">
            <g
               id="g59">
              <use
                 style="fill:#262626;stroke:#262626;"
                 x="259.647364"
                 xlink:href="#m08c27886e6"
                 y="332.386005"
                 id="use61" />
            </g>
          </g>
          <g
             id="text_3">
            <!-- $0.4$ -->
            <defs
               id="defs64">
              <path
                 d="M 33.59375 64.40625  C 33.59375 66.5 33.5 66.5 31.703125 66.5  L 2 19.59375  L 2 17  L 27.796875 17  L 27.796875 7.140625  C 27.796875 3.5 27.59375 2.5 20.59375 2.5  L 18.703125 2.5  L 18.703125 0  C 21.90625 0 27.296875 0 30.703125 0  C 34.09375 0 39.5 0 42.703125 0  L 42.703125 2.5  L 40.796875 2.5  C 33.796875 2.5 33.59375 3.5 33.59375 7.140625  L 33.59375 17  L 43.796875 17  L 43.796875 19.59375  L 33.59375 19.59375  z M 28.09375 57.859375  L 28.09375 19.59375  L 4 19.59375  z "
                 id="CMR17-52" />
            </defs>
            <g
               style="fill:#262626;"
               transform="translate(248.984332 357.839305)scale(0.18 -0.18)"
               id="g67">
              <use
                 transform="scale(0.996264)"
                 xlink:href="#CMR17-48"
                 id="use69" />
              <use
                 transform="translate(45.690477 0)scale(0.996264)"
                 xlink:href="#CMMI12-58"
                 id="use71" />
              <use
                 transform="translate(72.787654 0)scale(0.996264)"
                 xlink:href="#CMR17-52"
                 id="use73" />
            </g>
          </g>
        </g>
        <g
           id="xtick_4">
          <g
             id="line2d_4">
            <g
               id="g77">
              <use
                 style="fill:#262626;stroke:#262626;"
                 x="316.352636"
                 xlink:href="#m08c27886e6"
                 y="332.386005"
                 id="use79" />
            </g>
          </g>
          <g
             id="text_4">
            <!-- $0.6$ -->
            <defs
               id="defs82">
              <path
                 d="M 10.59375 34  C 10.59375 57.65625 21.796875 63 28.296875 63  C 30.40625 63 35.5 62.640625 37.5 59  C 35.90625 59 32.90625 59 32.90625 55.515625  C 32.90625 52.828125 35.09375 51.921875 36.5 51.921875  C 37.40625 51.921875 40.09375 52.3125 40.09375 55.625  C 40.09375 61.78125 35.09375 65.296875 28.203125 65.296875  C 16.296875 65.296875 3.796875 52.96875 3.796875 31  C 3.796875 3.953125 15.09375 -2 23.09375 -2  C 32.796875 -2 42 6.671875 42 20.046875  C 42 32.515625 33.90625 41.59375 23.703125 41.59375  C 17.59375 41.59375 13.09375 37.609375 10.59375 30.625  z M 23.09375 0.390625  C 10.796875 0.390625 10.796875 18.75 10.796875 22.4375  C 10.796875 29.625 14.203125 40 23.5 40  C 25.203125 40 30.09375 40 33.40625 33.125  C 35.203125 29.21875 35.203125 25.140625 35.203125 20.140625  C 35.203125 14.75 35.203125 10.78125 33.09375 6.78125  C 30.90625 2.671875 27.703125 0.390625 23.09375 0.390625  "
                 id="CMR17-54" />
            </defs>
            <g
               style="fill:#262626;"
               transform="translate(305.689605 357.839305)scale(0.18 -0.18)"
               id="g85">
              <use
                 transform="scale(0.996264)"
                 xlink:href="#CMR17-48"
                 id="use87" />
              <use
                 transform="translate(45.690477 0)scale(0.996264)"
                 xlink:href="#CMMI12-58"
                 id="use89" />
              <use
                 transform="translate(72.787654 0)scale(0.996264)"
                 xlink:href="#CMR17-54"
                 id="use91" />
            </g>
          </g>
        </g>
        <g
           id="xtick_5">
          <g
             id="line2d_5">
            <g
               id="g95">
              <use
                 style="fill:#262626;stroke:#262626;"
                 x="373.057909"
                 xlink:href="#m08c27886e6"
                 y="332.386005"
                 id="use97" />
            </g>
          </g>
          <g
             id="text_5">
            <!-- $0.8$ -->
            <defs
               id="defs100">
              <path
                 d="M 27.203125 35.375  C 33.5 38.546875 39.90625 43.328125 39.90625 50.984375  C 39.90625 60.015625 31.09375 65.296875 23 65.296875  C 13.90625 65.296875 5.90625 58.734375 5.90625 49.6875  C 5.90625 47.203125 6.5 42.921875 10.40625 39.140625  C 11.40625 38.15625 15.59375 35.171875 18.296875 33.28125  C 13.796875 30.984375 3.296875 25.53125 3.296875 14.59375  C 3.296875 4.359375 13.09375 -2 22.796875 -2  C 33.5 -2 42.5 5.65625 42.5 15.78125  C 42.5 24.84375 36.40625 29.015625 32.40625 31.703125  z M 14.09375 44.09375  C 13.296875 44.59375 9.296875 47.671875 9.296875 52.359375  C 9.296875 58.421875 15.59375 63 22.796875 63  C 30.703125 63 36.5 57.4375 36.5 50.96875  C 36.5 41.703125 26.09375 36.421875 25.59375 36.421875  C 25.5 36.421875 25.40625 36.421875 24.59375 37.03125  z M 32.5 23.734375  C 34 22.640625 38.796875 19.375 38.796875 13.296875  C 38.796875 5.953125 31.40625 0.390625 23 0.390625  C 13.90625 0.390625 7 6.84375 7 14.6875  C 7 22.546875 13.09375 29.09375 20 32.1875  z "
                 id="CMR17-56" />
            </defs>
            <g
               style="fill:#262626;"
               transform="translate(362.394878 357.839305)scale(0.18 -0.18)"
               id="g103">
              <use
                 transform="scale(0.996264)"
                 xlink:href="#CMR17-48"
                 id="use105" />
              <use
                 transform="translate(45.690477 0)scale(0.996264)"
                 xlink:href="#CMMI12-58"
                 id="use107" />
              <use
                 transform="translate(72.787654 0)scale(0.996264)"
                 xlink:href="#CMR17-56"
                 id="use109" />
            </g>
          </g>
        </g>
        <g
           id="xtick_6">
          <g
             id="line2d_6">
            <g
               id="g113">
              <use
                 style="fill:#262626;stroke:#262626;"
                 x="429.763182"
                 xlink:href="#m08c27886e6"
                 y="332.386005"
                 id="use115" />
            </g>
          </g>
          <g
             id="text_6">
            <!-- $1.0$ -->
            <defs
               id="defs118">
              <path
                 d="M 26.59375 63.40625  C 26.59375 65.5 26.5 65.5 25.09375 65.5  C 21.203125 61.1875 15.296875 59.796875 9.703125 59.796875  C 9.40625 59.796875 8.90625 59.796875 8.796875 59.5  C 8.703125 59.296875 8.703125 59.09375 8.703125 57  C 11.796875 57 17 57.59375 21 59.984375  L 21 7.203125  C 21 3.6875 20.796875 2.5 12.203125 2.5  L 9.203125 2.5  L 9.203125 0  C 14 0 19 0 23.796875 0  C 28.59375 0 33.59375 0 38.40625 0  L 38.40625 2.5  L 35.40625 2.5  C 26.796875 2.5 26.59375 3.59375 26.59375 7.15625  z "
                 id="CMR17-49" />
            </defs>
            <g
               style="fill:#262626;"
               transform="translate(419.100151 357.839305)scale(0.18 -0.18)"
               id="g121">
              <use
                 transform="scale(0.996264)"
                 xlink:href="#CMR17-49"
                 id="use123" />
              <use
                 transform="translate(45.690477 0)scale(0.996264)"
                 xlink:href="#CMMI12-58"
                 id="use125" />
              <use
                 transform="translate(72.787654 0)scale(0.996264)"
                 xlink:href="#CMR17-48"
                 id="use127" />
            </g>
          </g>
        </g>
        <g
           id="text_7">
          <!-- $x^*$ -->
          <defs
             id="defs130">
            <path
               d="M 47.40625 40.71875  C 44.203125 40.109375 43 37.71875 43 35.828125  C 43 33.421875 44.90625 32.625 46.296875 32.625  C 49.296875 32.625 51.40625 35.21875 51.40625 37.921875  C 51.40625 42.109375 46.59375 44 42.40625 44  C 36.296875 44 32.90625 38.015625 32 36.125  C 29.703125 44 23.5 44 21.703125 44  C 11.5 44 6.09375 30.9375 6.09375 28.734375  C 6.09375 28.34375 6.5 27.84375 7.203125 27.84375  C 8 27.84375 8.203125 28.4375 8.40625 28.84375  C 11.796875 39.921875 18.5 42.015625 21.40625 42.015625  C 25.90625 42.015625 26.796875 37.8125 26.796875 35.421875  C 26.796875 33.234375 26.203125 30.9375 25 26.140625  L 21.59375 12.46875  C 20.09375 6.484375 17.203125 1 11.90625 1  C 11.40625 1 8.90625 1 6.796875 2.296875  C 10.40625 3 11.203125 5.984375 11.203125 7.1875  C 11.203125 9.1875 9.703125 10.375 7.796875 10.375  C 5.40625 10.375 2.796875 8.28125 2.796875 5.09375  C 2.796875 0.890625 7.5 -1 11.796875 -1  C 16.59375 -1 20 2.796875 22.09375 6.890625  C 23.703125 1 28.703125 -1 32.40625 -1  C 42.59375 -1 48 12.078125 48 14.265625  C 48 14.765625 47.59375 15.171875 47 15.171875  C 46.09375 15.171875 46 14.671875 45.703125 13.875  C 43 5.09375 37.203125 1 32.703125 1  C 29.203125 1 27.296875 3.59375 27.296875 7.6875  C 27.296875 9.875 27.703125 11.46875 29.296875 18.0625  L 32.796875 31.625  C 34.296875 37.625 37.703125 42.015625 42.296875 42.015625  C 42.5 42.015625 45.296875 42.015625 47.40625 40.71875  "
               id="CMMI12-120" />
            <path
               d="M 27.5 42.484375  C 27.59375 43.875 27.59375 46.28125 25 46.28125  C 23.40625 46.28125 22.09375 44.984375 22.40625 43.671875  L 22.40625 42.375  L 23.796875 26.875  L 11 36.1875  C 10.09375 36.6875 9.90625 36.875 9.203125 36.875  C 7.796875 36.875 6.5 35.484375 6.5 34.078125  C 6.5 32.484375 7.5 32.078125 8.5 31.578125  L 22.703125 24.78125  L 8.90625 18.09375  C 7.296875 17.296875 6.5 16.890625 6.5 15.390625  C 6.5 13.890625 7.796875 12.59375 9.203125 12.59375  C 9.90625 12.59375 10.09375 12.59375 12.59375 14.5  L 23.796875 22.59375  L 22.296875 5.796875  C 22.296875 3.6875 24.09375 3.1875 24.90625 3.1875  C 26.09375 3.1875 27.59375 3.875 27.59375 5.796875  L 26.09375 22.59375  L 38.90625 13.296875  C 39.796875 12.796875 40 12.59375 40.703125 12.59375  C 42.09375 12.59375 43.40625 14 43.40625 15.390625  C 43.40625 16.890625 42.5 17.390625 41.296875 18  C 35.296875 20.984375 35.09375 20.984375 27.203125 24.6875  L 41 31.375  C 42.59375 32.1875 43.40625 32.578125 43.40625 34.078125  C 43.40625 35.578125 42.09375 36.875 40.703125 36.875  C 40 36.875 39.796875 36.875 37.296875 34.984375  L 26.09375 26.875  z "
               id="CMSY10-3" />
          </defs>
          <g
             style="fill:#262626;"
             transform="translate(278.969678 379.164366)scale(0.2 -0.2)"
             id="g134">
            <use
               transform="scale(0.996264)"
               xlink:href="#CMMI12-120"
               id="use136" />
            <use
               transform="translate(55.43406 36.153639)scale(0.697382)"
               xlink:href="#CMSY10-3"
               id="use138" />
          </g>
        </g>
      </g>
      <g
         id="matplotlib.axis_2">
        <g
           id="ytick_1">
          <g
             id="line2d_7">
            <defs
               id="defs143">
              <path
                 d="M 0 0  L -6 0  "
                 id="m0f405567cb"
                 style="stroke:#262626;" />
            </defs>
            <g
               id="g146">
              <use
                 style="fill:#262626;stroke:#262626;"
                 x="146.520344"
                 xlink:href="#m0f405567cb"
                 y="332.669532"
                 id="use148" />
            </g>
          </g>
          <g
             id="text_8">
            <!-- $0.0$ -->
            <g
               style="fill:#262626;"
               transform="translate(112.19428 338.896182)scale(0.18 -0.18)"
               id="g151">
              <use
                 transform="scale(0.996264)"
                 xlink:href="#CMR17-48"
                 id="use153" />
              <use
                 transform="translate(45.690477 0)scale(0.996264)"
                 xlink:href="#CMMI12-58"
                 id="use155" />
              <use
                 transform="translate(72.787654 0)scale(0.996264)"
                 xlink:href="#CMR17-48"
                 id="use157" />
            </g>
          </g>
        </g>
        <g
           id="ytick_2">
          <g
             id="line2d_8">
            <g
               id="g161">
              <use
                 style="fill:#262626;stroke:#262626;"
                 x="146.520344"
                 xlink:href="#m0f405567cb"
                 y="275.964259"
                 id="use163" />
            </g>
          </g>
          <g
             id="text_9">
            <!-- $0.2$ -->
            <g
               style="fill:#262626;"
               transform="translate(112.19428 282.190909)scale(0.18 -0.18)"
               id="g166">
              <use
                 transform="scale(0.996264)"
                 xlink:href="#CMR17-48"
                 id="use168" />
              <use
                 transform="translate(45.690477 0)scale(0.996264)"
                 xlink:href="#CMMI12-58"
                 id="use170" />
              <use
                 transform="translate(72.787654 0)scale(0.996264)"
                 xlink:href="#CMR17-50"
                 id="use172" />
            </g>
          </g>
        </g>
        <g
           id="ytick_3">
          <g
             id="line2d_9">
            <g
               id="g176">
              <use
                 style="fill:#262626;stroke:#262626;"
                 x="146.520344"
                 xlink:href="#m0f405567cb"
                 y="219.258986"
                 id="use178" />
            </g>
          </g>
          <g
             id="text_10">
            <!-- $0.4$ -->
            <g
               style="fill:#262626;"
               transform="translate(112.19428 225.485636)scale(0.18 -0.18)"
               id="g181">
              <use
                 transform="scale(0.996264)"
                 xlink:href="#CMR17-48"
                 id="use183" />
              <use
                 transform="translate(45.690477 0)scale(0.996264)"
                 xlink:href="#CMMI12-58"
                 id="use185" />
              <use
                 transform="translate(72.787654 0)scale(0.996264)"
                 xlink:href="#CMR17-52"
                 id="use187" />
            </g>
          </g>
        </g>
        <g
           id="ytick_4">
          <g
             id="line2d_10">
            <g
               id="g191">
              <use
                 style="fill:#262626;stroke:#262626;"
                 x="146.520344"
                 xlink:href="#m0f405567cb"
                 y="162.553713"
                 id="use193" />
            </g>
          </g>
          <g
             id="text_11">
            <!-- $0.6$ -->
            <g
               style="fill:#262626;"
               transform="translate(112.19428 168.780363)scale(0.18 -0.18)"
               id="g196">
              <use
                 transform="scale(0.996264)"
                 xlink:href="#CMR17-48"
                 id="use198" />
              <use
                 transform="translate(45.690477 0)scale(0.996264)"
                 xlink:href="#CMMI12-58"
                 id="use200" />
              <use
                 transform="translate(72.787654 0)scale(0.996264)"
                 xlink:href="#CMR17-54"
                 id="use202" />
            </g>
          </g>
        </g>
        <g
           id="ytick_5">
          <g
             id="line2d_11">
            <g
               id="g206">
              <use
                 style="fill:#262626;stroke:#262626;"
                 x="146.520344"
                 xlink:href="#m0f405567cb"
                 y="105.84844"
                 id="use208" />
            </g>
          </g>
          <g
             id="text_12">
            <!-- $0.8$ -->
            <g
               style="fill:#262626;"
               transform="translate(112.19428 112.07509)scale(0.18 -0.18)"
               id="g211">
              <use
                 transform="scale(0.996264)"
                 xlink:href="#CMR17-48"
                 id="use213" />
              <use
                 transform="translate(45.690477 0)scale(0.996264)"
                 xlink:href="#CMMI12-58"
                 id="use215" />
              <use
                 transform="translate(72.787654 0)scale(0.996264)"
                 xlink:href="#CMR17-56"
                 id="use217" />
            </g>
          </g>
        </g>
        <g
           id="ytick_6">
          <g
             id="line2d_12">
            <g
               id="g221">
              <use
                 style="fill:#262626;stroke:#262626;"
                 x="146.520344"
                 xlink:href="#m0f405567cb"
                 y="49.143167"
                 id="use223" />
            </g>
          </g>
          <g
             id="text_13">
            <!-- $1.0$ -->
            <g
               style="fill:#262626;"
               transform="translate(112.19428 55.369817)scale(0.18 -0.18)"
               id="g226">
              <use
                 transform="scale(0.996264)"
                 xlink:href="#CMR17-49"
                 id="use228" />
              <use
                 transform="translate(45.690477 0)scale(0.996264)"
                 xlink:href="#CMMI12-58"
                 id="use230" />
              <use
                 transform="translate(72.787654 0)scale(0.996264)"
                 xlink:href="#CMR17-48"
                 id="use232" />
            </g>
          </g>
        </g>
        <g
           id="text_14">
          <!-- $y^*$ -->
          <defs
             id="defs235">
            <path
               d="M 26.296875 -10.9375  C 23.59375 -14.671875 19.703125 -18 14.796875 -18  C 13.59375 -18 8.796875 -18 7.296875 -13.890625  C 7.59375 -13.984375 8.09375 -13.984375 8.296875 -13.984375  C 11.296875 -13.984375 13.296875 -11.390625 13.296875 -9.09375  C 13.296875 -6.796875 11.40625 -6 9.90625 -6  C 8.296875 -6 4.796875 -7.15625 4.796875 -11.859375  C 4.796875 -16.734375 9.09375 -20.09375 14.796875 -20.09375  C 24.796875 -20.09375 34.90625 -10.9375 37.703125 0.09375  L 47.5 38.828125  C 47.59375 39.328125 47.796875 39.9375 47.796875 40.53125  C 47.796875 42.015625 46.59375 43.015625 45.09375 43.015625  C 44.203125 43.015625 42.09375 42.609375 41.296875 39.609375  L 33.90625 10.28125  C 33.40625 8.484375 33.40625 8.28125 32.59375 7.1875  C 30.59375 4.390625 27.296875 1 22.5 1  C 16.90625 1 16.40625 6.484375 16.40625 9.1875  C 16.40625 14.875 19.09375 22.546875 21.796875 29.734375  C 22.90625 32.625 23.5 34.03125 23.5 36.015625  C 23.5 40.21875 20.5 44 15.59375 44  C 6.40625 44 2.703125 29.53125 2.703125 28.734375  C 2.703125 28.34375 3.09375 27.84375 3.796875 27.84375  C 4.703125 27.84375 4.796875 28.234375 5.203125 29.640625  C 7.59375 38.015625 11.40625 42.015625 15.296875 42.015625  C 16.203125 42.015625 17.90625 42.015625 17.90625 38.71875  C 17.90625 36.125 16.796875 33.234375 15.296875 29.4375  C 10.40625 16.359375 10.40625 13.078125 10.40625 10.671875  C 10.40625 1.203125 17.203125 -1 22.203125 -1  C 25.09375 -1 28.703125 -0.09375 32.203125 3.59375  L 32.296875 3.5  C 30.796875 -2.296875 29.796875 -6.125 26.296875 -10.9375  "
               id="CMMI12-121" />
          </defs>
          <g
             style="fill:#262626;"
             transform="translate(104.318647 199.507138)rotate(-90)scale(0.2 -0.2)"
             id="g238">
            <use
               transform="scale(0.996264)"
               xlink:href="#CMMI12-121"
               id="use240" />
            <use
               transform="translate(51.138781 36.153639)scale(0.697382)"
               xlink:href="#CMSY10-3"
               id="use242" />
          </g>
        </g>
      </g>
      <g
         id="LineCollection_1">
        <path
           clip-path="url(#paf2ad58f71)"
           d="M 146.520344 227.786078  L 153.608503 227.585533  L 160.413136 227.610241  L 167.217769 227.856219  L 173.738875 228.309786  L 180.259981 228.989371  L 186.497561 229.864902  L 192.451615 230.921647  L 198.405669 232.212071  L 203.79267 233.59817  L 209.179671 235.210976  L 214.283145 236.968074  L 219.103093 238.852626  L 223.923042 240.979049  L 228.459463 243.225311  L 232.807606 245.626938  L 236.966066 248.178675  L 240.934623 250.875497  L 244.620466 253.638242  L 248.307284 256.684466  L 251.730919 259.803256  L 255.117085 263.205572  L 258.229732 266.658562  L 261.197391 270.293731  L 263.919415 273.979574  L 266.561854 277.948943  L 269.003734 282.040997  L 271.204641 286.171208  L 273.217221 290.424103  L 274.991716 294.676999  L 276.658945 299.270064  L 278.076577 303.840375  L 279.23676 308.286264  L 280.261315 313.106213  L 281.052199 317.926161  L 281.616147 322.746109  L 281.95782 327.566057  L 282.080002 332.386005  L 282.080002 332.386005  "
           style="fill:none;stroke:#000000;"
           id="path245" />
      </g>
      <g
         id="patch_3">
        <path
           d="M 146.520344 332.386005  L 146.520344 49.426693  "
           style="fill:none;stroke:#262626;stroke-linecap:square;stroke-linejoin:miter;stroke-width:1.25;"
           id="path248" />
      </g>
      <g
         id="patch_4">
        <path
           d="M 146.520344 332.386005  L 429.479656 332.386005  "
           style="fill:none;stroke:#262626;stroke-linecap:square;stroke-linejoin:miter;stroke-width:1.25;"
           id="path251" />
      </g>
      <g
         id="text_15">
        <!-- Region of inconsistency for Farris-generating topology -->
        <defs
           id="defs254">
          <path
             d="M 39.40625 32.953125  L 39.59375 33.046875  C 55.203125 38.421875 55.296875 49.171875 55.296875 51.0625  C 55.296875 60.515625 45.703125 69.578125 31.296875 69.578125  L 8.90625 69.578125  L 8.90625 0.5  L 17.09375 0.5  L 17.09375 32  L 31.796875 32  L 49.5 0.5  L 57.90625 0.5  z M 17.09375 38.078125  L 17.09375 64  L 30.203125 64  C 42.90625 64 47.40625 56.828125 47.40625 51.046875  C 47.40625 45.65625 43.40625 38.078125 30.203125 38.078125  z "
             id="CMSS17-82" />
          <path
             d="M 39.09375 21.515625  C 39.09375 24.84375 38.90625 31.296875 35.703125 36.640625  C 32.203125 42.390625 26.5 44 22.203125 44  C 11.796875 44 3 34.1875 3 21.484375  C 3 9.09375 12.09375 -1 23.59375 -1  C 28.09375 -1 33.59375 0.296875 38.59375 3.875  C 38.59375 4.28125 38.40625 6.46875 38.296875 6.5625  C 38.296875 6.765625 38 9.84375 38 10.25  C 33.203125 6.359375 27.703125 5.078125 23.703125 5.078125  C 17.296875 5.078125 10.40625 10.421875 10.09375 21.515625  z M 10.90625 27  C 12.203125 32.5625 16.59375 37.828125 22.203125 37.828125  C 23.703125 37.828125 30.703125 37.828125 32.5 27  z "
             id="CMSS17-101" />
          <path
             d="M 44.5 43.875  C 38.796875 43.875 33.90625 42.78125 29.90625 40.890625  C 26.59375 43.390625 23.203125 43.875 20.90625 43.875  C 12.203125 43.875 5.59375 36.703125 5.59375 28.34375  C 5.59375 22.9375 8.59375 18.859375 8.796875 18.671875  C 7 16.171875 6 13.484375 6 10.5  C 6 7 7.40625 4.515625 8.5 3.125  C 3.296875 -0.046875 2.59375 -4.90625 2.59375 -6.796875  C 2.59375 -14.03125 11.703125 -20 23.40625 -20  C 35.203125 -20 44.296875 -14.03125 44.296875 -6.6875  C 44.296875 7 29 7 24.796875 7  L 16.703125 7  C 15.203125 7 11.203125 7 11.203125 12.359375  C 11.203125 14.390625 12.09375 15.6875 12.203125 15.78125  C 13.703125 14.6875 16.796875 13 20.90625 13  C 29.203125 13 36.09375 19.96875 36.09375 28.546875  C 36.09375 33.3125 33.90625 36.796875 33 38  L 33.296875 38  C 33.59375 38 37.796875 38 39.296875 38  C 42.5 38 42.796875 37.953125 45.59375 37.796875  z M 20.90625 18.46875  C 17.5 18.46875 12.703125 20.546875 12.703125 28.484375  C 12.703125 37.109375 18.203125 38.5 20.796875 38.5  C 24.203125 38.5 29 36.421875 29 28.484375  C 29 19.859375 23.5 18.46875 20.90625 18.46875  M 24.703125 -0.15625  C 27.09375 -0.15625 37.203125 -0.15625 37.203125 -6.90625  C 37.203125 -11.15625 31 -14.515625 23.5 -14.515625  C 15.90625 -14.515625 9.703125 -11.25 9.703125 -6.796875  C 9.703125 -6.296875 9.703125 -0.15625 16.59375 -0.15625  z "
             id="CMSS17-103" />
          <path
             d="M 15.296875 65.359375  L 6.90625 65.359375  L 6.90625 57  L 15.296875 57  z M 14.796875 42.796875  L 7.40625 42.796875  L 7.40625 0  L 14.796875 0  z "
             id="CMSS17-105" />
          <path
             d="M 44.203125 21.1875  C 44.203125 34 34.703125 44 23.5 44  C 12 44 2.703125 33.703125 2.703125 21.1875  C 2.703125 8.5 12.296875 -1 23.40625 -1  C 34.796875 -1 44.203125 8.796875 44.203125 21.1875  M 23.5 5.265625  C 16.40625 5.265625 10.296875 11.078125 10.296875 22  C 10.296875 33.609375 17.40625 37.921875 23.40625 37.921875  C 29.90625 37.921875 36.59375 33.21875 36.59375 22  C 36.59375 10.671875 30.09375 5.265625 23.5 5.265625  "
             id="CMSS17-111" />
          <path
             d="M 40.90625 29.328125  C 40.90625 35.671875 39.40625 44 28.09375 44  C 21.703125 44 17.5 40.71875 14.703125 37.328125  L 14.703125 43.09375  L 7.40625 43.09375  L 7.40625 0  L 15 0  L 15 24.359375  C 15 30.6875 17.40625 37.9375 24.203125 37.9375  C 33 37.9375 33.296875 32 33.296875 28.578125  L 33.296875 0  L 40.90625 0  z "
             id="CMSS17-110" />
          <path
             d="M 16.796875 37  L 26.90625 37  L 26.90625 42.765625  L 16.59375 42.765625  L 16.59375 55.609375  C 16.59375 62.71875 22 63.9375 25.09375 63.9375  C 26.09375 63.9375 28.90625 63.9375 32.5 62.640625  L 32.5 69.203125  C 30.203125 69.703125 27.40625 70 25.203125 70  C 15.90625 70 9.40625 62.390625 9.40625 52.484375  L 9.40625 42.765625  L 2.5 42.765625  L 2.5 37  L 9.40625 37  L 9.40625 0  L 16.796875 0  z "
             id="CMSS17-102" />
          <path
             d="M 38.5 39.703125  C 38.5 40.390625 33.90625 42.40625 32.703125 42.796875  C 29.40625 44 25.203125 44 24.09375 44  C 11.09375 44 3.296875 32.703125 3.296875 21.296875  C 3.296875 9.296875 12 -1 23.703125 -1  C 30.40625 -1 35.203125 1.1875 39.09375 3.78125  L 38.5 10.375  C 34.203125 7.078125 29.203125 5.265625 23.796875 5.265625  C 16 5.265625 10.90625 12.09375 10.90625 21.390625  C 10.90625 28.609375 14.203125 37.71875 24.203125 37.71875  C 29.703125 37.71875 32.796875 36.609375 37.40625 33.515625  z "
             id="CMSS17-99" />
          <path
             d="M 32.203125 41.046875  C 26.296875 43.859375 21.703125 43.859375 18.703125 43.859375  C 11.59375 43.859375 3.09375 41.375 3.09375 31.296875  C 3.09375 21.234375 14.09375 19.03125 17.09375 18.421875  C 21.703125 17.53125 26.796875 16.53125 26.796875 11.5625  C 26.796875 5.265625 19.59375 5.265625 18.296875 5.265625  C 14.296875 5.265625 8.796875 6.359375 3.796875 9.96875  L 2.59375 3.28125  C 8.296875 0 13.796875 -1 18.40625 -1  C 30.703125 -1 33.796875 6.5 33.796875 12.203125  C 33.796875 17.09375 31 20.390625 29.09375 21.890625  C 25.796875 24.5 24.59375 24.796875 16.40625 26.5  C 15 26.703125 10.09375 27.796875 10.09375 32.28125  C 10.09375 38 16.40625 38 17.796875 38  C 24.296875 38 28.296875 35.984375 31 34.5  z "
             id="CMSS17-115" />
          <path
             d="M 16.703125 37  L 29.703125 37  L 29.703125 42.765625  L 16.703125 42.765625  L 16.703125 55  L 9.59375 55  L 9.59375 42.765625  L 1.703125 42.765625  L 1.703125 37  L 9.40625 37  L 9.40625 11.703125  C 9.40625 6 10.703125 -1 17.296875 -1  C 22.296875 -1 26.90625 0.390625 31.296875 2.6875  L 29.703125 8.5625  C 27.296875 6.46875 24.40625 5.265625 21.296875 5.265625  C 16.90625 5.265625 16.703125 10.875 16.703125 13.375  z "
             id="CMSS17-116" />
          <path
             d="M 41.796875 43  L 34 43  C 25.5 20.21875 22.59375 10.96875 22.40625 5.984375  L 22.296875 5.984375  C 22 10.875 17.59375 22.8125 14.09375 31.359375  L 9.40625 43  L 1.296875 43  L 19 0.203125  C 17.90625 -2.78125 16.296875 -7.265625 15.796875 -8.265625  C 13.59375 -13.828125 12.09375 -13.828125 10.5 -13.828125  C 10.09375 -13.828125 6.90625 -13.828125 3.296875 -12.640625  L 3.90625 -19.203125  C 6.40625 -19.703125 8.90625 -20 10.703125 -20  C 13.203125 -20 18.203125 -20 22.796875 -7.765625  z "
             id="CMSS17-121" />
          <path
             d="M 14.90625 21.296875  C 14.90625 30.703125 21.796875 37 30.59375 37  L 30.59375 43.578125  C 24.203125 43.578125 18.203125 40.390625 14.59375 35.203125  L 14.59375 43.09375  L 7.5 43.09375  L 7.5 0  L 14.90625 0  z "
             id="CMSS17-114" />
          <path
             d="M 45.59375 31  L 45.59375 37.078125  L 17.203125 37.078125  L 17.203125 62  L 29.40625 62  C 30.59375 62 31.796875 62 33 62  L 49.5 62  L 49.5 68.359375  L 8.796875 68.359375  L 8.796875 -0.5  L 17.203125 -0.5  L 17.203125 31  z "
             id="CMSS17-70" />
          <path
             d="M 37.59375 27.984375  C 37.59375 37.375 30.90625 43.875 21.90625 43.875  C 17.5 43.875 12.703125 43.078125 7.203125 39.890625  L 7.796875 33.359375  C 10.296875 35.125 14.59375 38 21.796875 38  C 26.90625 38 30 34.0625 30 27.84375  L 30 24  C 14 24 4 19.34375 4 11.34375  C 4 7.203125 6.5 -1 14.796875 -1  C 16.296875 -1 24.40625 -1 30.203125 3.390625  L 30.203125 -0.296875  L 37.59375 -0.296875  z M 30 12.75  C 30 10.953125 30 8.5625 27 6.78125  C 24.40625 5.078125 21.09375 5.078125 19.703125 5.078125  C 14.703125 5.078125 11.296875 7.984375 11.296875 11.625  C 11.296875 18.921875 26.90625 18.921875 30 18.921875  z "
             id="CMSS17-97" />
          <path
             d="M 26 19  L 26 24.765625  L 1 24.765625  L 1 19  z "
             id="CMSS17-45" />
          <path
             d="M 15.09375 5.203125  C 18.40625 2.015625 22.90625 -0.078125 27.703125 -0.078125  C 37 -0.078125 45 9.421875 45 22.0625  C 45 33.734375 39 44 30.40625 44  C 25.40625 44 19.40625 42.21875 14.90625 38.625  L 14.90625 43.203125  L 7.5 43.203125  L 7.5 -19  L 15.09375 -19  z M 15.09375 32.8125  C 15.90625 34 19.296875 37.734375 24.796875 37.734375  C 31.796875 37.734375 37.40625 30.625 37.40625 22.0625  C 37.40625 12.296875 30.59375 6 23.90625 6  C 21.90625 6 19.796875 6.484375 17.796875 8.171875  C 15.09375 10.53125 15.09375 12 15.09375 13.390625  z "
             id="CMSS17-112" />
          <path
             d="M 14.796875 69  L 7.40625 69  L 7.40625 0  L 14.796875 0  z "
             id="CMSS17-108" />
        </defs>
        <g
           style="fill:#262626;"
           transform="translate(56.837471 29.278728)scale(0.22 -0.22)"
           id="g273">
          <use
             transform="scale(0.996264)"
             xlink:href="#CMSS17-82"
             id="use275" />
          <use
             transform="translate(60.416155 0)scale(0.996264)"
             xlink:href="#CMSS17-101"
             id="use277" />
          <use
             transform="translate(102.054977 0)scale(0.996264)"
             xlink:href="#CMSS17-103"
             id="use279" />
          <use
             transform="translate(148.8986 0)scale(0.996264)"
             xlink:href="#CMSS17-105"
             id="use281" />
          <use
             transform="translate(171.079324 0)scale(0.996264)"
             xlink:href="#CMSS17-111"
             id="use283" />
          <use
             transform="translate(217.922947 0)scale(0.996264)"
             xlink:href="#CMSS17-110"
             id="use285" />
          <use
             transform="translate(297.357003 0)scale(0.996264)"
             xlink:href="#CMSS17-111"
             id="use287" />
          <use
             transform="translate(344.200626 0)scale(0.996264)"
             xlink:href="#CMSS17-102"
             id="use289" />
          <use
             transform="translate(404.056398 0)scale(0.996264)"
             xlink:href="#CMSS17-105"
             id="use291" />
          <use
             transform="translate(426.237121 0)scale(0.996264)"
             xlink:href="#CMSS17-110"
             id="use293" />
          <use
             transform="translate(474.442064 0)scale(0.996264)"
             xlink:href="#CMSS17-99"
             id="use295" />
          <use
             transform="translate(516.080886 0)scale(0.996264)"
             xlink:href="#CMSS17-111"
             id="use297" />
          <use
             transform="translate(562.92451 0)scale(0.996264)"
             xlink:href="#CMSS17-110"
             id="use299" />
          <use
             transform="translate(611.129453 0)scale(0.996264)"
             xlink:href="#CMSS17-115"
             id="use301" />
          <use
             transform="translate(647.042995 0)scale(0.996264)"
             xlink:href="#CMSS17-105"
             id="use303" />
          <use
             transform="translate(669.223718 0)scale(0.996264)"
             xlink:href="#CMSS17-115"
             id="use305" />
          <use
             transform="translate(705.13726 0)scale(0.996264)"
             xlink:href="#CMSS17-116"
             id="use307" />
          <use
             transform="translate(738.968827 0)scale(0.996264)"
             xlink:href="#CMSS17-101"
             id="use309" />
          <use
             transform="translate(780.607649 0)scale(0.996264)"
             xlink:href="#CMSS17-110"
             id="use311" />
          <use
             transform="translate(828.812592 0)scale(0.996264)"
             xlink:href="#CMSS17-99"
             id="use313" />
          <use
             transform="translate(870.451414 0)scale(0.996264)"
             xlink:href="#CMSS17-121"
             id="use315" />
          <use
             transform="translate(944.680668 0)scale(0.996264)"
             xlink:href="#CMSS17-102"
             id="use317" />
          <use
             transform="translate(973.307327 0)scale(0.996264)"
             xlink:href="#CMSS17-111"
             id="use319" />
          <use
             transform="translate(1017.548497 0)scale(0.996264)"
             xlink:href="#CMSS17-114"
             id="use321" />
          <use
             transform="translate(1080.687382 0)scale(0.996264)"
             xlink:href="#CMSS17-70"
             id="use323" />
          <use
             transform="translate(1131.374487 0)scale(0.996264)"
             xlink:href="#CMSS17-97"
             id="use325" />
          <use
             transform="translate(1173.693954 0)scale(0.996264)"
             xlink:href="#CMSS17-114"
             id="use327" />
          <use
             transform="translate(1205.603727 0)scale(0.996264)"
             xlink:href="#CMSS17-114"
             id="use329" />
          <use
             transform="translate(1237.513499 0)scale(0.996264)"
             xlink:href="#CMSS17-105"
             id="use331" />
          <use
             transform="translate(1259.694222 0)scale(0.996264)"
             xlink:href="#CMSS17-115"
             id="use333" />
          <use
             transform="translate(1295.607764 0)scale(0.996264)"
             xlink:href="#CMSS17-45"
             id="use335" />
          <use
             transform="translate(1326.836877 0)scale(0.996264)"
             xlink:href="#CMSS17-103"
             id="use337" />
          <use
             transform="translate(1373.6805 0)scale(0.996264)"
             xlink:href="#CMSS17-101"
             id="use339" />
          <use
             transform="translate(1415.319323 0)scale(0.996264)"
             xlink:href="#CMSS17-110"
             id="use341" />
          <use
             transform="translate(1463.524266 0)scale(0.996264)"
             xlink:href="#CMSS17-101"
             id="use343" />
          <use
             transform="translate(1505.163088 0)scale(0.996264)"
             xlink:href="#CMSS17-114"
             id="use345" />
          <use
             transform="translate(1537.07286 0)scale(0.996264)"
             xlink:href="#CMSS17-97"
             id="use347" />
          <use
             transform="translate(1581.994781 0)scale(0.996264)"
             xlink:href="#CMSS17-116"
             id="use349" />
          <use
             transform="translate(1615.826348 0)scale(0.996264)"
             xlink:href="#CMSS17-105"
             id="use351" />
          <use
             transform="translate(1638.007071 0)scale(0.996264)"
             xlink:href="#CMSS17-110"
             id="use353" />
          <use
             transform="translate(1686.212014 0)scale(0.996264)"
             xlink:href="#CMSS17-103"
             id="use355" />
          <use
             transform="translate(1764.28475 0)scale(0.996264)"
             xlink:href="#CMSS17-116"
             id="use357" />
          <use
             transform="translate(1798.116317 0)scale(0.996264)"
             xlink:href="#CMSS17-111"
             id="use359" />
          <use
             transform="translate(1844.95994 0)scale(0.996264)"
             xlink:href="#CMSS17-112"
             id="use361" />
          <use
             transform="translate(1895.767322 0)scale(0.996264)"
             xlink:href="#CMSS17-111"
             id="use363" />
          <use
             transform="translate(1942.610946 0)scale(0.996264)"
             xlink:href="#CMSS17-108"
             id="use365" />
          <use
             transform="translate(1964.791669 0)scale(0.996264)"
             xlink:href="#CMSS17-111"
             id="use367" />
          <use
             transform="translate(2011.635292 0)scale(0.996264)"
             xlink:href="#CMSS17-103"
             id="use369" />
          <use
             transform="translate(2058.478916 0)scale(0.996264)"
             xlink:href="#CMSS17-121"
             id="use371" />
        </g>
      </g>
      <g
         id="legend_1">
        <g
           id="patch_5">
          <path
             d="M 196.865232 75.026693  L 228.865232 75.026693  L 228.865232 63.826693  L 196.865232 63.826693  z "
             style="fill:#ffffff;stroke:#000000;stroke-linejoin:miter;"
             id="path375" />
        </g>
        <g
           id="text_16">
          <!-- joint inference inconsistent -->
          <defs
             id="defs378">
            <path
               d="M 17.40625 66  L 9 66  L 9 57.640625  L 17.40625 57.640625  z M -5.796875 -16.625  C -2.59375 -18.609375 1.296875 -20 5.5 -20  C 11.796875 -20 17.40625 -14.609375 17.40625 -5.71875  L 17.40625 43.234375  L 10 43.234375  L 10 -6.640625  C 10 -12.734375 5.40625 -13.640625 2.796875 -13.640625  C 0.59375 -13.640625 -2 -12.9375 -4.296875 -10.546875  z "
               id="CMSS17-106" />
          </defs>
          <g
             style="fill:#262626;"
             transform="translate(241.665232 75.026693)scale(0.16 -0.16)"
             id="g381">
            <use
               transform="scale(0.996264)"
               xlink:href="#CMSS17-106"
               id="use383" />
            <use
               transform="translate(24.783086 0)scale(0.996264)"
               xlink:href="#CMSS17-111"
               id="use385" />
            <use
               transform="translate(71.626709 0)scale(0.996264)"
               xlink:href="#CMSS17-105"
               id="use387" />
            <use
               transform="translate(93.807432 0)scale(0.996264)"
               xlink:href="#CMSS17-110"
               id="use389" />
            <use
               transform="translate(142.012375 0)scale(0.996264)"
               xlink:href="#CMSS17-116"
               id="use391" />
            <use
               transform="translate(207.073055 0)scale(0.996264)"
               xlink:href="#CMSS17-105"
               id="use393" />
            <use
               transform="translate(229.253778 0)scale(0.996264)"
               xlink:href="#CMSS17-110"
               id="use395" />
            <use
               transform="translate(277.458721 0)scale(0.996264)"
               xlink:href="#CMSS17-102"
               id="use397" />
            <use
               transform="translate(306.08538 0)scale(0.996264)"
               xlink:href="#CMSS17-101"
               id="use399" />
            <use
               transform="translate(347.724202 0)scale(0.996264)"
               xlink:href="#CMSS17-114"
               id="use401" />
            <use
               transform="translate(379.633975 0)scale(0.996264)"
               xlink:href="#CMSS17-101"
               id="use403" />
            <use
               transform="translate(421.272797 0)scale(0.996264)"
               xlink:href="#CMSS17-110"
               id="use405" />
            <use
               transform="translate(469.47774 0)scale(0.996264)"
               xlink:href="#CMSS17-99"
               id="use407" />
            <use
               transform="translate(511.116562 0)scale(0.996264)"
               xlink:href="#CMSS17-101"
               id="use409" />
            <use
               transform="translate(583.984497 0)scale(0.996264)"
               xlink:href="#CMSS17-105"
               id="use411" />
            <use
               transform="translate(606.16522 0)scale(0.996264)"
               xlink:href="#CMSS17-110"
               id="use413" />
            <use
               transform="translate(654.370163 0)scale(0.996264)"
               xlink:href="#CMSS17-99"
               id="use415" />
            <use
               transform="translate(696.008985 0)scale(0.996264)"
               xlink:href="#CMSS17-111"
               id="use417" />
            <use
               transform="translate(742.852608 0)scale(0.996264)"
               xlink:href="#CMSS17-110"
               id="use419" />
            <use
               transform="translate(791.057552 0)scale(0.996264)"
               xlink:href="#CMSS17-115"
               id="use421" />
            <use
               transform="translate(826.971094 0)scale(0.996264)"
               xlink:href="#CMSS17-105"
               id="use423" />
            <use
               transform="translate(849.151817 0)scale(0.996264)"
               xlink:href="#CMSS17-115"
               id="use425" />
            <use
               transform="translate(885.065359 0)scale(0.996264)"
               xlink:href="#CMSS17-116"
               id="use427" />
            <use
               transform="translate(918.896925 0)scale(0.996264)"
               xlink:href="#CMSS17-101"
               id="use429" />
            <use
               transform="translate(960.535747 0)scale(0.996264)"
               xlink:href="#CMSS17-110"
               id="use431" />
            <use
               transform="translate(1008.74069 0)scale(0.996264)"
               xlink:href="#CMSS17-116"
               id="use433" />
          </g>
        </g>
      </g>
    </g>
  </g>
  <defs
     id="defs435">
    <clipPath
       id="paf2ad58f71">
      <rect
         height="282.959312"
         width="282.959312"
         x="146.520344"
         y="49.426693"
         id="rect438" />
    </clipPath>
  </defs>
  <path
     style="opacity:0.20000000000000001;fill:url(#Wavy);fill-opacity:1.0;stroke:#000000;stroke-width:0.61643833000000003;stroke-linecap:butt;stroke-linejoin:round;stroke-miterlimit:4;stroke-opacity:1;stroke-dasharray:0.61643835999999996, 1.84931507000000006;stroke-dashoffset:0"
     d="m 184.06849,350.0137 0,-64.41781 12.17466,0.006 c 44.73276,0.0234 81.47976,10.93373 108.95548,32.3494 2.71233,2.1141 8.26913,7.29773 12.34845,11.51918 15.95815,16.51417 26.78883,37.3469 31.35084,60.30314 1.40336,7.06176 2.84181,18.66087 2.84181,22.91528 l 0,1.74226 -83.83562,0 -83.83562,0 0,-64.41781 z"
     id="path4187"
     inkscape:connector-curvature="0"
     transform="scale(0.8,0.8)" />
  <path
     style="opacity:0.20000000000000001;fill:url(#Wavy);fill-opacity:1.0;stroke:#000000;stroke-width:0.61643833000000003;stroke-linecap:butt;stroke-linejoin:round;stroke-miterlimit:4;stroke-opacity:1;stroke-dasharray:0.61643835999999996, 1.84931507000000006;stroke-dashoffset:0"
     d="m 246.94521,86.79452 0,-5.856164 19.10958,0 19.10959,0 0,5.856164 0,5.856165 -19.10959,0 -19.10958,0 0,-5.856165 z"
     id="path5625"
     inkscape:connector-curvature="0"
     transform="scale(0.8,0.8)" />
</svg>
