<?xml version="1.0" encoding="utf-8" standalone="no"?>
<!DOCTYPE svg PUBLIC "-//W3C//DTD SVG 1.1//EN"
  "http://www.w3.org/Graphics/SVG/1.1/DTD/svg11.dtd">
<!-- Created with matplotlib (http://matplotlib.org/) -->
<svg height="396pt" version="1.1" viewBox="0 0 576 396" width="576pt" xmlns="http://www.w3.org/2000/svg" xmlns:xlink="http://www.w3.org/1999/xlink">
 <defs>
  <style type="text/css">
*{stroke-linecap:butt;stroke-linejoin:round;}
  </style>
 </defs>
 <g id="figure_1">
  <g id="patch_1">
   <path d="M 0 396 
L 576 396 
L 576 0 
L 0 0 
z
" style="fill:#ffffff;"/>
  </g>
  <g id="axes_1">
   <g id="patch_2">
    <path d="M 72 352.44 
L 518.4 352.44 
L 518.4 47.52 
L 72 47.52 
z
" style="fill:#ffffff;"/>
   </g>
   <g id="matplotlib.axis_1">
    <g id="xtick_1">
     <g id="line2d_1">
      <defs>
       <path d="M 0 0 
L 0 6 
" id="mc2e411f888" style="stroke:#262626;"/>
      </defs>
      <g>
       <use style="fill:#262626;stroke:#262626;" x="71.552705" xlink:href="#mc2e411f888" y="352.44"/>
      </g>
     </g>
     <g id="text_1">
      <!-- $0.0$ -->
      <defs>
       <path d="M 42 31.640625 
C 42 37.75 41.90625 48.125 37.703125 56.109375 
C 34 63.109375 28.09375 65.59375 22.90625 65.59375 
C 18.09375 65.59375 12 63.40625 8.203125 56.203125 
C 4.203125 48.71875 3.796875 39.4375 3.796875 31.640625 
C 3.796875 25.953125 3.90625 17.28125 7 9.671875 
C 11.296875 -0.609375 19 -2 22.90625 -2 
C 27.5 -2 34.5 -0.109375 38.59375 9.375 
C 41.59375 16.28125 42 24.359375 42 31.640625 
M 22.90625 -0.40625 
C 16.5 -0.40625 12.703125 5.078125 11.296875 12.6875 
C 10.203125 18.5625 10.203125 27.15625 10.203125 32.75 
C 10.203125 40.4375 10.203125 46.828125 11.5 52.921875 
C 13.40625 61.390625 19 64 22.90625 64 
C 27 64 32.296875 61.296875 34.203125 53.125 
C 35.5 47.4375 35.59375 40.734375 35.59375 32.75 
C 35.59375 26.25 35.59375 18.265625 34.40625 12.375 
C 32.296875 1.484375 26.40625 -0.40625 22.90625 -0.40625 
" id="CMR17-48"/>
       <path d="M 18.40625 4.796875 
C 18.40625 7.6875 16 9.671875 13.59375 9.671875 
C 10.703125 9.671875 8.703125 7.28125 8.703125 4.890625 
C 8.703125 2 11.09375 0 13.5 0 
C 16.40625 0 18.40625 2.390625 18.40625 4.796875 
" id="CMMI12-58"/>
      </defs>
      <g style="fill:#262626;" transform="translate(65.187666 372.358498)scale(0.1 -0.1)">
       <use transform="scale(0.996264)" xlink:href="#CMR17-48"/>
       <use transform="translate(45.690477 0)scale(0.996264)" xlink:href="#CMMI12-58"/>
       <use transform="translate(72.787654 0)scale(0.996264)" xlink:href="#CMR17-48"/>
      </g>
     </g>
    </g>
    <g id="xtick_2">
     <g id="line2d_2">
      <g>
       <use style="fill:#262626;stroke:#262626;" x="161.011623" xlink:href="#mc2e411f888" y="352.44"/>
      </g>
     </g>
     <g id="text_2">
      <!-- $0.2$ -->
      <defs>
       <path d="M 41.703125 15.453125 
L 39.90625 15.453125 
C 38.90625 8.375 38.09375 7.171875 37.703125 6.5625 
C 37.203125 5.765625 30 5.765625 28.59375 5.765625 
L 9.40625 5.765625 
C 13 9.671875 20 16.75 28.5 24.953125 
C 34.59375 30.734375 41.703125 37.53125 41.703125 47.421875 
C 41.703125 59.21875 32.296875 66 21.796875 66 
C 10.796875 66 4.09375 56.3125 4.09375 47.34375 
C 4.09375 43.4375 7 42.9375 8.203125 42.9375 
C 9.203125 42.9375 12.203125 43.546875 12.203125 47.03125 
C 12.203125 50.109375 9.59375 51 8.203125 51 
C 7.59375 51 7 50.90625 6.59375 50.703125 
C 8.5 59.21875 14.296875 63.40625 20.40625 63.40625 
C 29.09375 63.40625 34.796875 56.515625 34.796875 47.421875 
C 34.796875 38.734375 29.703125 31.25 24 24.75 
L 4.09375 2.28125 
L 4.09375 0 
L 39.296875 0 
z
" id="CMR17-50"/>
      </defs>
      <g style="fill:#262626;" transform="translate(154.646584 372.358498)scale(0.1 -0.1)">
       <use transform="scale(0.996264)" xlink:href="#CMR17-48"/>
       <use transform="translate(45.690477 0)scale(0.996264)" xlink:href="#CMMI12-58"/>
       <use transform="translate(72.787654 0)scale(0.996264)" xlink:href="#CMR17-50"/>
      </g>
     </g>
    </g>
    <g id="xtick_3">
     <g id="line2d_3">
      <g>
       <use style="fill:#262626;stroke:#262626;" x="250.470541" xlink:href="#mc2e411f888" y="352.44"/>
      </g>
     </g>
     <g id="text_3">
      <!-- $0.4$ -->
      <defs>
       <path d="M 33.59375 64.40625 
C 33.59375 66.5 33.5 66.5 31.703125 66.5 
L 2 19.59375 
L 2 17 
L 27.796875 17 
L 27.796875 7.140625 
C 27.796875 3.5 27.59375 2.5 20.59375 2.5 
L 18.703125 2.5 
L 18.703125 0 
C 21.90625 0 27.296875 0 30.703125 0 
C 34.09375 0 39.5 0 42.703125 0 
L 42.703125 2.5 
L 40.796875 2.5 
C 33.796875 2.5 33.59375 3.5 33.59375 7.140625 
L 33.59375 17 
L 43.796875 17 
L 43.796875 19.59375 
L 33.59375 19.59375 
z
M 28.09375 57.859375 
L 28.09375 19.59375 
L 4 19.59375 
z
" id="CMR17-52"/>
      </defs>
      <g style="fill:#262626;" transform="translate(244.105502 372.358498)scale(0.1 -0.1)">
       <use transform="scale(0.996264)" xlink:href="#CMR17-48"/>
       <use transform="translate(45.690477 0)scale(0.996264)" xlink:href="#CMMI12-58"/>
       <use transform="translate(72.787654 0)scale(0.996264)" xlink:href="#CMR17-52"/>
      </g>
     </g>
    </g>
    <g id="xtick_4">
     <g id="line2d_4">
      <g>
       <use style="fill:#262626;stroke:#262626;" x="339.929459" xlink:href="#mc2e411f888" y="352.44"/>
      </g>
     </g>
     <g id="text_4">
      <!-- $0.6$ -->
      <defs>
       <path d="M 10.59375 34 
C 10.59375 57.65625 21.796875 63 28.296875 63 
C 30.40625 63 35.5 62.640625 37.5 59 
C 35.90625 59 32.90625 59 32.90625 55.515625 
C 32.90625 52.828125 35.09375 51.921875 36.5 51.921875 
C 37.40625 51.921875 40.09375 52.3125 40.09375 55.625 
C 40.09375 61.78125 35.09375 65.296875 28.203125 65.296875 
C 16.296875 65.296875 3.796875 52.96875 3.796875 31 
C 3.796875 3.953125 15.09375 -2 23.09375 -2 
C 32.796875 -2 42 6.671875 42 20.046875 
C 42 32.515625 33.90625 41.59375 23.703125 41.59375 
C 17.59375 41.59375 13.09375 37.609375 10.59375 30.625 
z
M 23.09375 0.390625 
C 10.796875 0.390625 10.796875 18.75 10.796875 22.4375 
C 10.796875 29.625 14.203125 40 23.5 40 
C 25.203125 40 30.09375 40 33.40625 33.125 
C 35.203125 29.21875 35.203125 25.140625 35.203125 20.140625 
C 35.203125 14.75 35.203125 10.78125 33.09375 6.78125 
C 30.90625 2.671875 27.703125 0.390625 23.09375 0.390625 
" id="CMR17-54"/>
      </defs>
      <g style="fill:#262626;" transform="translate(333.564419 372.358498)scale(0.1 -0.1)">
       <use transform="scale(0.996264)" xlink:href="#CMR17-48"/>
       <use transform="translate(45.690477 0)scale(0.996264)" xlink:href="#CMMI12-58"/>
       <use transform="translate(72.787654 0)scale(0.996264)" xlink:href="#CMR17-54"/>
      </g>
     </g>
    </g>
    <g id="xtick_5">
     <g id="line2d_5">
      <g>
       <use style="fill:#262626;stroke:#262626;" x="429.388377" xlink:href="#mc2e411f888" y="352.44"/>
      </g>
     </g>
     <g id="text_5">
      <!-- $0.8$ -->
      <defs>
       <path d="M 27.203125 35.375 
C 33.5 38.546875 39.90625 43.328125 39.90625 50.984375 
C 39.90625 60.015625 31.09375 65.296875 23 65.296875 
C 13.90625 65.296875 5.90625 58.734375 5.90625 49.6875 
C 5.90625 47.203125 6.5 42.921875 10.40625 39.140625 
C 11.40625 38.15625 15.59375 35.171875 18.296875 33.28125 
C 13.796875 30.984375 3.296875 25.53125 3.296875 14.59375 
C 3.296875 4.359375 13.09375 -2 22.796875 -2 
C 33.5 -2 42.5 5.65625 42.5 15.78125 
C 42.5 24.84375 36.40625 29.015625 32.40625 31.703125 
z
M 14.09375 44.09375 
C 13.296875 44.59375 9.296875 47.671875 9.296875 52.359375 
C 9.296875 58.421875 15.59375 63 22.796875 63 
C 30.703125 63 36.5 57.4375 36.5 50.96875 
C 36.5 41.703125 26.09375 36.421875 25.59375 36.421875 
C 25.5 36.421875 25.40625 36.421875 24.59375 37.03125 
z
M 32.5 23.734375 
C 34 22.640625 38.796875 19.375 38.796875 13.296875 
C 38.796875 5.953125 31.40625 0.390625 23 0.390625 
C 13.90625 0.390625 7 6.84375 7 14.6875 
C 7 22.546875 13.09375 29.09375 20 32.1875 
z
" id="CMR17-56"/>
      </defs>
      <g style="fill:#262626;" transform="translate(423.023337 372.358498)scale(0.1 -0.1)">
       <use transform="scale(0.996264)" xlink:href="#CMR17-48"/>
       <use transform="translate(45.690477 0)scale(0.996264)" xlink:href="#CMMI12-58"/>
       <use transform="translate(72.787654 0)scale(0.996264)" xlink:href="#CMR17-56"/>
      </g>
     </g>
    </g>
    <g id="xtick_6">
     <g id="line2d_6">
      <g>
       <use style="fill:#262626;stroke:#262626;" x="518.847295" xlink:href="#mc2e411f888" y="352.44"/>
      </g>
     </g>
     <g id="text_6">
      <!-- $1.0$ -->
      <defs>
       <path d="M 26.59375 63.40625 
C 26.59375 65.5 26.5 65.5 25.09375 65.5 
C 21.203125 61.1875 15.296875 59.796875 9.703125 59.796875 
C 9.40625 59.796875 8.90625 59.796875 8.796875 59.5 
C 8.703125 59.296875 8.703125 59.09375 8.703125 57 
C 11.796875 57 17 57.59375 21 59.984375 
L 21 7.203125 
C 21 3.6875 20.796875 2.5 12.203125 2.5 
L 9.203125 2.5 
L 9.203125 0 
C 14 0 19 0 23.796875 0 
C 28.59375 0 33.59375 0 38.40625 0 
L 38.40625 2.5 
L 35.40625 2.5 
C 26.796875 2.5 26.59375 3.59375 26.59375 7.15625 
z
" id="CMR17-49"/>
      </defs>
      <g style="fill:#262626;" transform="translate(512.482255 372.358498)scale(0.1 -0.1)">
       <use transform="scale(0.996264)" xlink:href="#CMR17-49"/>
       <use transform="translate(45.690477 0)scale(0.996264)" xlink:href="#CMMI12-58"/>
       <use transform="translate(72.787654 0)scale(0.996264)" xlink:href="#CMR17-48"/>
      </g>
     </g>
    </g>
    <g id="text_7">
     <!-- $x$ -->
     <defs>
      <path d="M 47.40625 40.71875 
C 44.203125 40.109375 43 37.71875 43 35.828125 
C 43 33.421875 44.90625 32.625 46.296875 32.625 
C 49.296875 32.625 51.40625 35.21875 51.40625 37.921875 
C 51.40625 42.109375 46.59375 44 42.40625 44 
C 36.296875 44 32.90625 38.015625 32 36.125 
C 29.703125 44 23.5 44 21.703125 44 
C 11.5 44 6.09375 30.9375 6.09375 28.734375 
C 6.09375 28.34375 6.5 27.84375 7.203125 27.84375 
C 8 27.84375 8.203125 28.4375 8.40625 28.84375 
C 11.796875 39.921875 18.5 42.015625 21.40625 42.015625 
C 25.90625 42.015625 26.796875 37.8125 26.796875 35.421875 
C 26.796875 33.234375 26.203125 30.9375 25 26.140625 
L 21.59375 12.46875 
C 20.09375 6.484375 17.203125 1 11.90625 1 
C 11.40625 1 8.90625 1 6.796875 2.296875 
C 10.40625 3 11.203125 5.984375 11.203125 7.1875 
C 11.203125 9.1875 9.703125 10.375 7.796875 10.375 
C 5.40625 10.375 2.796875 8.28125 2.796875 5.09375 
C 2.796875 0.890625 7.5 -1 11.796875 -1 
C 16.59375 -1 20 2.796875 22.09375 6.890625 
C 23.703125 1 28.703125 -1 32.40625 -1 
C 42.59375 -1 48 12.078125 48 14.265625 
C 48 14.765625 47.59375 15.171875 47 15.171875 
C 46.09375 15.171875 46 14.671875 45.703125 13.875 
C 43 5.09375 37.203125 1 32.703125 1 
C 29.203125 1 27.296875 3.59375 27.296875 7.6875 
C 27.296875 9.875 27.703125 11.46875 29.296875 18.0625 
L 32.796875 31.625 
C 34.296875 37.625 37.703125 42.015625 42.296875 42.015625 
C 42.5 42.015625 45.296875 42.015625 47.40625 40.71875 
" id="CMMI12-120"/>
     </defs>
     <g style="fill:#262626;" transform="translate(290.765275 389.365265)scale(0.16 -0.16)">
      <use transform="scale(0.996264)" xlink:href="#CMMI12-120"/>
     </g>
    </g>
   </g>
   <g id="matplotlib.axis_2">
    <g id="ytick_1">
     <g id="line2d_7">
      <defs>
       <path d="M 0 0 
L -6 0 
" id="m473e99d8cd" style="stroke:#262626;"/>
      </defs>
      <g>
       <use style="fill:#262626;stroke:#262626;" x="72" xlink:href="#m473e99d8cd" y="352.745531"/>
      </g>
     </g>
     <g id="text_8">
      <!-- $0.0$ -->
      <g style="fill:#262626;" transform="translate(46.269921 356.20478)scale(0.1 -0.1)">
       <use transform="scale(0.996264)" xlink:href="#CMR17-48"/>
       <use transform="translate(45.690477 0)scale(0.996264)" xlink:href="#CMMI12-58"/>
       <use transform="translate(72.787654 0)scale(0.996264)" xlink:href="#CMR17-48"/>
      </g>
     </g>
    </g>
    <g id="ytick_2">
     <g id="line2d_8">
      <g>
       <use style="fill:#262626;stroke:#262626;" x="72" xlink:href="#m473e99d8cd" y="291.639319"/>
      </g>
     </g>
     <g id="text_9">
      <!-- $0.2$ -->
      <g style="fill:#262626;" transform="translate(46.269921 295.098568)scale(0.1 -0.1)">
       <use transform="scale(0.996264)" xlink:href="#CMR17-48"/>
       <use transform="translate(45.690477 0)scale(0.996264)" xlink:href="#CMMI12-58"/>
       <use transform="translate(72.787654 0)scale(0.996264)" xlink:href="#CMR17-50"/>
      </g>
     </g>
    </g>
    <g id="ytick_3">
     <g id="line2d_9">
      <g>
       <use style="fill:#262626;stroke:#262626;" x="72" xlink:href="#m473e99d8cd" y="230.533106"/>
      </g>
     </g>
     <g id="text_10">
      <!-- $0.4$ -->
      <g style="fill:#262626;" transform="translate(46.269921 233.992355)scale(0.1 -0.1)">
       <use transform="scale(0.996264)" xlink:href="#CMR17-48"/>
       <use transform="translate(45.690477 0)scale(0.996264)" xlink:href="#CMMI12-58"/>
       <use transform="translate(72.787654 0)scale(0.996264)" xlink:href="#CMR17-52"/>
      </g>
     </g>
    </g>
    <g id="ytick_4">
     <g id="line2d_10">
      <g>
       <use style="fill:#262626;stroke:#262626;" x="72" xlink:href="#m473e99d8cd" y="169.426894"/>
      </g>
     </g>
     <g id="text_11">
      <!-- $0.6$ -->
      <g style="fill:#262626;" transform="translate(46.269921 172.886143)scale(0.1 -0.1)">
       <use transform="scale(0.996264)" xlink:href="#CMR17-48"/>
       <use transform="translate(45.690477 0)scale(0.996264)" xlink:href="#CMMI12-58"/>
       <use transform="translate(72.787654 0)scale(0.996264)" xlink:href="#CMR17-54"/>
      </g>
     </g>
    </g>
    <g id="ytick_5">
     <g id="line2d_11">
      <g>
       <use style="fill:#262626;stroke:#262626;" x="72" xlink:href="#m473e99d8cd" y="108.320681"/>
      </g>
     </g>
     <g id="text_12">
      <!-- $0.8$ -->
      <g style="fill:#262626;" transform="translate(46.269921 111.779931)scale(0.1 -0.1)">
       <use transform="scale(0.996264)" xlink:href="#CMR17-48"/>
       <use transform="translate(45.690477 0)scale(0.996264)" xlink:href="#CMMI12-58"/>
       <use transform="translate(72.787654 0)scale(0.996264)" xlink:href="#CMR17-56"/>
      </g>
     </g>
    </g>
    <g id="ytick_6">
     <g id="line2d_12">
      <g>
       <use style="fill:#262626;stroke:#262626;" x="72" xlink:href="#m473e99d8cd" y="47.214469"/>
      </g>
     </g>
     <g id="text_13">
      <!-- $1.0$ -->
      <g style="fill:#262626;" transform="translate(46.269921 50.673718)scale(0.1 -0.1)">
       <use transform="scale(0.996264)" xlink:href="#CMR17-49"/>
       <use transform="translate(45.690477 0)scale(0.996264)" xlink:href="#CMMI12-58"/>
       <use transform="translate(72.787654 0)scale(0.996264)" xlink:href="#CMR17-48"/>
      </g>
     </g>
    </g>
    <g id="text_14">
     <!-- $y$ -->
     <defs>
      <path d="M 26.296875 -10.9375 
C 23.59375 -14.671875 19.703125 -18 14.796875 -18 
C 13.59375 -18 8.796875 -18 7.296875 -13.890625 
C 7.59375 -13.984375 8.09375 -13.984375 8.296875 -13.984375 
C 11.296875 -13.984375 13.296875 -11.390625 13.296875 -9.09375 
C 13.296875 -6.796875 11.40625 -6 9.90625 -6 
C 8.296875 -6 4.796875 -7.15625 4.796875 -11.859375 
C 4.796875 -16.734375 9.09375 -20.09375 14.796875 -20.09375 
C 24.796875 -20.09375 34.90625 -10.9375 37.703125 0.09375 
L 47.5 38.828125 
C 47.59375 39.328125 47.796875 39.9375 47.796875 40.53125 
C 47.796875 42.015625 46.59375 43.015625 45.09375 43.015625 
C 44.203125 43.015625 42.09375 42.609375 41.296875 39.609375 
L 33.90625 10.28125 
C 33.40625 8.484375 33.40625 8.28125 32.59375 7.1875 
C 30.59375 4.390625 27.296875 1 22.5 1 
C 16.90625 1 16.40625 6.484375 16.40625 9.1875 
C 16.40625 14.875 19.09375 22.546875 21.796875 29.734375 
C 22.90625 32.625 23.5 34.03125 23.5 36.015625 
C 23.5 40.21875 20.5 44 15.59375 44 
C 6.40625 44 2.703125 29.53125 2.703125 28.734375 
C 2.703125 28.34375 3.09375 27.84375 3.796875 27.84375 
C 4.703125 27.84375 4.796875 28.234375 5.203125 29.640625 
C 7.59375 38.015625 11.40625 42.015625 15.296875 42.015625 
C 16.203125 42.015625 17.90625 42.015625 17.90625 38.71875 
C 17.90625 36.125 16.796875 33.234375 15.296875 29.4375 
C 10.40625 16.359375 10.40625 13.078125 10.40625 10.671875 
C 10.40625 1.203125 17.203125 -1 22.203125 -1 
C 25.09375 -1 28.703125 -0.09375 32.203125 3.59375 
L 32.296875 3.5 
C 30.796875 -2.296875 29.796875 -6.125 26.296875 -10.9375 
" id="CMMI12-121"/>
     </defs>
     <g style="fill:#262626;" transform="translate(39.170445 203.785135)rotate(-90)scale(0.16 -0.16)">
      <use transform="scale(0.996264)" xlink:href="#CMMI12-121"/>
     </g>
    </g>
   </g>
   <g id="PolyCollection_1">
    <defs>
     <path d="M 72 -156.278008 
L 72 -43.56 
L 72.447295 -43.56 
L 72.778409 -43.56 
L 72.894589 -43.56 
L 73.341884 -43.56 
L 73.789178 -43.56 
L 74.236473 -43.56 
L 74.683768 -43.56 
L 75.131062 -43.56 
L 75.578357 -43.56 
L 76.025651 -43.56 
L 76.472946 -43.56 
L 76.92024 -43.56 
L 77.367535 -43.56 
L 77.81483 -43.56 
L 78.262124 -43.56 
L 78.709419 -43.56 
L 79.156713 -43.56 
L 79.604008 -43.56 
L 80.051303 -43.56 
L 80.498597 -43.56 
L 80.945892 -43.56 
L 81.393186 -43.56 
L 81.840481 -43.56 
L 82.287776 -43.56 
L 82.73507 -43.56 
L 83.182365 -43.56 
L 83.629659 -43.56 
L 84.076954 -43.56 
L 84.524248 -43.56 
L 84.971543 -43.56 
L 85.418838 -43.56 
L 85.866132 -43.56 
L 86.313427 -43.56 
L 86.760721 -43.56 
L 87.208016 -43.56 
L 87.655311 -43.56 
L 88.102605 -43.56 
L 88.5499 -43.56 
L 88.997194 -43.56 
L 89.444489 -43.56 
L 89.891784 -43.56 
L 90.339078 -43.56 
L 90.786373 -43.56 
L 91.233667 -43.56 
L 91.680962 -43.56 
L 92.128257 -43.56 
L 92.575551 -43.56 
L 93.022846 -43.56 
L 93.47014 -43.56 
L 93.917435 -43.56 
L 94.364729 -43.56 
L 94.812024 -43.56 
L 95.259319 -43.56 
L 95.706613 -43.56 
L 96.153908 -43.56 
L 96.601202 -43.56 
L 97.048497 -43.56 
L 97.495792 -43.56 
L 97.943086 -43.56 
L 98.390381 -43.56 
L 98.837675 -43.56 
L 99.28497 -43.56 
L 99.732265 -43.56 
L 100.179559 -43.56 
L 100.626854 -43.56 
L 101.074148 -43.56 
L 101.521443 -43.56 
L 101.661438 -43.56 
L 101.968737 -43.56 
L 102.416032 -43.56 
L 102.863327 -43.56 
L 103.310621 -43.56 
L 103.757916 -43.56 
L 104.20521 -43.56 
L 104.652505 -43.56 
L 105.0998 -43.56 
L 105.547094 -43.56 
L 105.994389 -43.56 
L 106.441683 -43.56 
L 106.888978 -43.56 
L 107.336273 -43.56 
L 107.783567 -43.56 
L 108.230862 -43.56 
L 108.678156 -43.56 
L 109.125451 -43.56 
L 109.572745 -43.56 
L 109.631054 -43.56 
L 110.02004 -43.56 
L 110.467335 -43.56 
L 110.914629 -43.56 
L 111.361924 -43.56 
L 111.809218 -43.56 
L 112.256513 -43.56 
L 112.703808 -43.56 
L 113.151102 -43.56 
L 113.598397 -43.56 
L 114.045691 -43.56 
L 114.492986 -43.56 
L 114.940281 -43.56 
L 115.339434 -43.56 
L 115.387575 -43.56 
L 115.83487 -43.56 
L 116.282164 -43.56 
L 116.729459 -43.56 
L 117.176754 -43.56 
L 117.624048 -43.56 
L 118.071343 -43.56 
L 118.518637 -43.56 
L 118.965932 -43.56 
L 119.413226 -43.56 
L 119.860521 -43.56 
L 120.007275 -43.56 
L 120.307816 -43.56 
L 120.75511 -43.56 
L 121.202405 -43.56 
L 121.649699 -43.56 
L 122.096994 -43.56 
L 122.544289 -43.56 
L 122.991583 -43.56 
L 123.438878 -43.56 
L 123.886172 -43.56 
L 124.040729 -43.56 
L 124.333467 -43.56 
L 124.780762 -43.56 
L 125.228056 -43.56 
L 125.675351 -43.56 
L 126.122645 -43.56 
L 126.56994 -43.56 
L 127.017234 -43.56 
L 127.464529 -43.56 
L 127.634185 -43.56 
L 127.911824 -43.56 
L 128.359118 -43.56 
L 128.806413 -43.56 
L 129.253707 -43.56 
L 129.701002 -43.56 
L 130.148297 -43.56 
L 130.595591 -43.56 
L 130.899276 -43.56 
L 131.042886 -43.56 
L 131.49018 -43.56 
L 131.937475 -43.56 
L 132.38477 -43.56 
L 132.832064 -43.56 
L 133.279359 -43.56 
L 133.726653 -43.56 
L 133.90682 -43.56 
L 134.173948 -43.56 
L 134.621242 -43.56 
L 135.068537 -43.56 
L 135.515832 -43.56 
L 135.963126 -43.56 
L 136.410421 -43.56 
L 136.705485 -43.56 
L 136.857715 -43.56 
L 137.30501 -43.56 
L 137.752305 -43.56 
L 138.199599 -43.56 
L 138.646894 -43.56 
L 139.094188 -43.56 
L 139.329976 -43.56 
L 139.541483 -43.56 
L 139.988778 -43.56 
L 140.436072 -43.56 
L 140.883367 -43.56 
L 141.330661 -43.56 
L 141.777956 -43.56 
L 141.806876 -43.56 
L 142.225251 -43.56 
L 142.672545 -43.56 
L 143.11984 -43.56 
L 143.567134 -43.56 
L 144.014429 -43.56 
L 144.155228 -43.56 
L 144.461723 -43.56 
L 144.909018 -43.56 
L 145.356313 -43.56 
L 145.803607 -43.56 
L 146.250902 -43.56 
L 146.391899 -43.56 
L 146.698196 -43.56 
L 147.145491 -43.56 
L 147.592786 -43.56 
L 148.04008 -43.56 
L 148.487375 -43.56 
L 148.529656 -43.56 
L 148.934669 -43.56 
L 149.381964 -43.56 
L 149.829259 -43.56 
L 150.276553 -43.56 
L 150.578358 -43.56 
L 150.723848 -43.56 
L 151.171142 -43.56 
L 151.618437 -43.56 
L 152.065731 -43.56 
L 152.513026 -43.56 
L 152.547714 -43.56 
L 152.960321 -43.56 
L 153.407615 -43.56 
L 153.85491 -43.56 
L 154.302204 -43.56 
L 154.444184 -43.56 
L 154.749499 -43.56 
L 155.196794 -43.56 
L 155.644088 -43.56 
L 156.091383 -43.56 
L 156.274761 -43.56 
L 156.538677 -43.56 
L 156.985972 -43.56 
L 157.433267 -43.56 
L 157.880561 -43.56 
L 158.044745 -43.56 
L 158.327856 -43.56 
L 158.77515 -43.56 
L 159.222445 -43.56 
L 159.669739 -43.56 
L 159.758904 -43.56 
L 160.117034 -43.56 
L 160.564329 -43.56 
L 161.011623 -43.56 
L 161.421291 -43.56 
L 161.458918 -43.56 
L 161.906212 -43.56 
L 162.353507 -43.56 
L 162.800802 -43.56 
L 163.035179 -43.56 
L 163.248096 -43.56 
L 163.695391 -43.56 
L 164.142685 -43.56 
L 164.58998 -43.56 
L 164.60472 -43.56 
L 165.037275 -43.56 
L 165.484569 -43.56 
L 165.931864 -43.56 
L 166.131642 -43.56 
L 166.379158 -43.56 
L 166.826453 -43.56 
L 167.273747 -43.56 
L 167.619531 -43.56 
L 167.721042 -43.56 
L 168.168337 -43.56 
L 168.615631 -43.56 
L 169.062926 -43.56 
L 169.070429 -43.56 
L 169.51022 -43.56 
L 169.957515 -43.56 
L 170.40481 -43.56 
L 170.485943 -43.56 
L 170.852104 -43.56 
L 171.299399 -43.56 
L 171.746693 -43.56 
L 171.868482 -43.56 
L 172.193988 -43.56 
L 172.641283 -43.56 
L 173.088577 -43.56 
L 173.21973 -43.56 
L 173.535872 -43.56 
L 173.983166 -43.56 
L 174.430461 -43.56 
L 174.541263 -43.56 
L 174.877756 -43.56 
L 175.32505 -43.56 
L 175.772345 -43.56 
L 175.834561 -43.56 
L 176.219639 -43.56 
L 176.666934 -43.56 
L 177.100938 -43.56 
L 177.114228 -43.56 
L 177.561523 -43.56 
L 178.008818 -43.56 
L 178.341299 -43.56 
L 178.456112 -43.56 
L 178.903407 -43.56 
L 179.350701 -43.56 
L 179.557227 -43.56 
L 179.797996 -43.56 
L 180.245291 -43.56 
L 180.692585 -43.56 
L 180.749886 -43.56 
L 181.13988 -43.56 
L 181.587174 -43.56 
L 181.919779 -43.56 
L 182.034469 -43.56 
L 182.481764 -43.56 
L 182.929058 -43.56 
L 183.068144 -43.56 
L 183.376353 -43.56 
L 183.823647 -43.56 
L 184.195888 -43.56 
L 184.270942 -43.56 
L 184.718236 -43.56 
L 185.165531 -43.56 
L 185.303529 -43.56 
L 185.612826 -43.56 
L 186.06012 -43.56 
L 186.392098 -43.56 
L 186.507415 -43.56 
L 186.954709 -43.56 
L 187.402004 -43.56 
L 187.462247 -43.56 
L 187.849299 -43.56 
L 188.296593 -43.56 
L 188.51435 -43.56 
L 188.743888 -43.56 
L 189.191182 -43.56 
L 189.549508 -43.56 
L 189.638477 -43.56 
L 190.085772 -43.56 
L 190.533066 -43.56 
L 190.568056 -43.56 
L 190.980361 -43.56 
L 191.427655 -43.56 
L 191.5703 -43.56 
L 191.87495 -43.56 
L 192.322244 -43.56 
L 192.55714 -43.56 
L 192.769539 -43.56 
L 193.216834 -43.56 
L 193.529022 -43.56 
L 193.664128 -43.56 
L 194.111423 -43.56 
L 194.48638 -43.56 
L 194.558717 -43.56 
L 195.006012 -43.56 
L 195.429629 -43.56 
L 195.453307 -43.56 
L 195.900601 -43.56 
L 196.347896 -43.56 
L 196.359119 -43.56 
L 196.79519 -43.56 
L 197.242485 -43.56 
L 197.275244 -43.56 
L 197.68978 -43.56 
L 198.137074 -43.56 
L 198.178486 -43.56 
L 198.584369 -43.56 
L 199.031663 -43.56 
L 199.069204 -43.56 
L 199.478958 -43.56 
L 199.926253 -43.56 
L 199.947746 -43.56 
L 200.373547 -43.56 
L 200.81442 -43.56 
L 200.820842 -43.56 
L 201.268136 -43.56 
L 201.66943 -43.56 
L 201.715431 -43.56 
L 202.162725 -43.56 
L 202.513191 -43.56 
L 202.61002 -43.56 
L 203.057315 -43.56 
L 203.34601 -43.56 
L 203.504609 -43.56 
L 203.951904 -43.56 
L 204.168183 -43.56 
L 204.399198 -43.56 
L 204.846493 -43.56 
L 204.979996 -43.56 
L 205.293788 -43.56 
L 205.741082 -43.56 
L 205.781728 -43.56 
L 206.188377 -43.56 
L 206.573378 -43.56 
L 206.635671 -43.56 
L 207.082966 -43.56 
L 207.355265 -43.56 
L 207.530261 -43.56 
L 207.977555 -43.56 
L 208.127818 -43.56 
L 208.42485 -43.56 
L 208.872144 -43.56 
L 208.891285 -43.56 
L 209.319439 -43.56 
L 209.645392 -43.56 
L 209.766733 -43.56 
L 210.214028 -43.56 
L 210.390772 -43.56 
L 210.661323 -43.56 
L 211.108617 -43.56 
L 211.127733 -43.56 
L 211.555912 -43.56 
L 211.85588 -43.56 
L 212.003206 -43.56 
L 212.450501 -43.56 
L 212.575935 -43.56 
L 212.897796 -43.56 
L 213.28795 -43.56 
L 213.34509 -43.56 
L 213.792385 -43.56 
L 213.991817 -43.56 
L 214.239679 -43.56 
L 214.686974 -43.56 
L 214.688254 -43.56 
L 215.134269 -43.56 
L 215.37662 -43.56 
L 215.581563 -43.56 
L 216.028858 -43.56 
L 216.057909 -43.56 
L 216.476152 -43.56 
L 216.731532 -43.56 
L 216.923447 -43.56 
L 217.370741 -43.56 
L 217.398306 -43.56 
L 217.818036 -43.56 
L 218.057689 -43.56 
L 218.265331 -43.56 
L 218.710544 -43.56 
L 218.712625 -43.56 
L 219.15992 -43.56 
L 219.356174 -43.56 
L 219.607214 -43.56 
L 219.99547 -43.56 
L 220.054509 -43.56 
L 220.501804 -43.56 
L 220.628023 -43.56 
L 220.949098 -43.56 
L 221.254211 -43.56 
L 221.396393 -43.56 
L 221.843687 -43.56 
L 221.874229 -43.56 
L 222.290982 -43.56 
L 222.487742 -43.56 
L 222.738277 -43.56 
L 223.095389 -43.56 
L 223.185571 -43.56 
L 223.632866 -43.56 
L 223.696994 -43.56 
L 224.08016 -43.56 
L 224.292558 -43.56 
L 224.527455 -43.56 
L 224.882504 -43.56 
L 224.974749 -43.56 
L 225.422044 -43.56 
L 225.466732 -43.56 
L 225.869339 -43.56 
L 226.045154 -43.56 
L 226.316633 -43.56 
L 226.618195 -43.56 
L 226.763928 -43.56 
L 227.185923 -43.56 
L 227.211222 -43.56 
L 227.658517 -43.56 
L 227.748064 -43.56 
L 228.105812 -43.56 
L 228.304951 -43.56 
L 228.553106 -43.56 
L 228.856746 -43.56 
L 229.000401 -43.56 
L 229.403513 -43.56 
L 229.447695 -43.56 
L 229.89499 -43.56 
L 229.945125 -43.56 
L 230.342285 -43.56 
L 230.481687 -43.56 
L 230.789579 -43.56 
L 231.013426 -43.56 
L 231.236874 -43.56 
L 231.540402 -43.56 
L 231.684168 -43.56 
L 232.062675 -43.56 
L 232.131463 -43.56 
L 232.578758 -43.56 
L 232.580296 -43.56 
L 233.026052 -43.56 
L 233.09309 -43.56 
L 233.473347 -43.56 
L 233.60137 -43.56 
L 233.920641 -43.56 
L 234.105191 -43.56 
L 234.367936 -43.56 
L 234.604607 -43.56 
L 234.81523 -43.56 
L 235.099672 -43.56 
L 235.262525 -43.56 
L 235.590438 -43.56 
L 235.70982 -43.56 
L 236.076958 -43.56 
L 236.157114 -43.56 
L 236.559283 -43.56 
L 236.604409 -43.56 
L 237.037464 -43.56 
L 237.051703 -43.56 
L 237.498998 -43.56 
L 237.511504 -43.56 
L 237.946293 -43.56 
L 237.981463 -43.56 
L 238.393587 -43.56 
L 238.44744 -43.56 
L 238.840882 -43.56 
L 238.909483 -43.56 
L 239.288176 -43.56 
L 239.367638 -43.56 
L 239.735471 -43.56 
L 239.821951 -43.56 
L 240.182766 -43.56 
L 240.27247 -43.56 
L 240.63006 -43.56 
L 240.719237 -43.56 
L 241.077355 -43.56 
L 241.162298 -43.56 
L 241.524649 -43.56 
L 241.601697 -43.56 
L 241.971944 -43.56 
L 242.037476 -43.56 
L 242.419238 -43.56 
L 242.469678 -43.56 
L 242.866533 -43.56 
L 242.898345 -43.56 
L 243.313828 -43.56 
L 243.323519 -43.56 
L 243.745184 -43.56 
L 243.761122 -43.56 
L 244.163391 -43.56 
L 244.208417 -43.56 
L 244.578215 -43.56 
L 244.655711 -43.56 
L 244.989693 -43.56 
L 245.103006 -43.56 
L 245.397866 -43.56 
L 245.550301 -43.56 
L 245.802772 -43.56 
L 245.997595 -43.56 
L 246.204449 -43.56 
L 246.44489 -43.56 
L 246.602934 -43.56 
L 246.892184 -43.56 
L 246.998264 -43.56 
L 247.339479 -43.56 
L 247.390475 -43.56 
L 247.779579 -43.56 
L 247.786774 -43.56 
L 248.165449 -43.56 
L 248.234068 -43.56 
L 248.548297 -43.56 
L 248.681363 -43.56 
L 248.928159 -43.56 
L 249.128657 -43.56 
L 249.305068 -43.56 
L 249.575952 -43.56 
L 249.679058 -43.56 
L 250.023246 -43.56 
L 250.050162 -43.56 
L 250.418236 -43.56 
L 250.470541 -43.56 
L 250.783389 -43.56 
L 250.917836 -43.56 
L 251.145745 -43.56 
L 251.36513 -43.56 
L 251.505338 -43.56 
L 251.812425 -43.56 
L 251.862197 -43.56 
L 252.216207 -43.56 
L 252.259719 -43.56 
L 252.56737 -43.56 
L 252.707014 -43.56 
L 252.915883 -43.56 
L 253.154309 -43.56 
L 253.261778 -43.56 
L 253.601603 -43.56 
L 253.605085 -43.56 
L 253.945485 -43.56 
L 254.048898 -43.56 
L 254.283335 -43.56 
L 254.496192 -43.56 
L 254.618676 -43.56 
L 254.943487 -43.56 
L 254.951536 -43.56 
L 255.28158 -43.56 
L 255.390782 -43.56 
L 255.609164 -43.56 
L 255.838076 -43.56 
L 255.934344 -43.56 
L 256.257054 -43.56 
L 256.285371 -43.56 
L 256.577084 -43.56 
L 256.732665 -43.56 
L 256.894784 -43.56 
L 257.17996 -43.56 
L 257.210181 -43.56 
L 257.522954 -43.56 
L 257.627255 -43.56 
L 257.833369 -43.56 
L 258.074549 -43.56 
L 258.141551 -43.56 
L 258.447279 -43.56 
L 258.521844 -43.56 
L 258.750597 -43.56 
L 258.969138 -43.56 
L 259.051751 -43.56 
L 259.350549 -43.56 
L 259.416433 -43.56 
L 259.646953 -43.56 
L 259.863727 -43.56 
L 259.941261 -43.56 
L 260.23324 -43.56 
L 260.311022 -43.56 
L 260.522909 -43.56 
L 260.758317 -43.56 
L 260.810546 -43.56 
L 261.095816 -43.56 
L 261.205611 -43.56 
L 261.378923 -43.56 
L 261.652906 -43.56 
L 261.660062 -43.56 
L 261.938728 -43.56 
L 262.1002 -43.56 
L 262.215442 -43.56 
L 262.490061 -43.56 
L 262.547495 -43.56 
L 262.762414 -43.56 
L 262.99479 -43.56 
L 263.032898 -43.56 
L 263.301077 -43.56 
L 263.442084 -43.56 
L 263.567301 -43.56 
L 263.831527 -43.56 
L 263.889379 -43.56 
L 264.093553 -43.56 
L 264.336673 -43.56 
L 264.353804 -43.56 
L 264.611747 -43.56 
L 264.783968 -43.56 
L 264.867897 -43.56 
L 265.121977 -43.56 
L 265.231263 -43.56 
L 265.374084 -43.56 
L 265.624333 -43.56 
L 265.678557 -43.56 
L 265.872455 -43.56 
L 266.118906 -43.56 
L 266.125852 -43.56 
L 266.3631 -43.56 
L 266.573146 -43.56 
L 266.605679 -43.56 
L 266.846105 -43.56 
L 267.020441 -43.56 
L 267.084846 -43.56 
L 267.321558 -43.56 
L 267.467735 -43.56 
L 267.556515 -43.56 
L 267.789542 -43.56 
L 267.91503 -43.56 
L 268.02077 -43.56 
L 268.250143 -43.56 
L 268.362325 -43.56 
L 268.477694 -43.56 
L 268.703441 -43.56 
L 268.809619 -43.56 
L 268.927368 -43.56 
L 269.149518 -43.56 
L 269.256914 -43.56 
L 269.369873 -43.56 
L 269.588455 -43.56 
L 269.704208 -43.56 
L 269.805288 -43.56 
L 270.02033 -43.56 
L 270.151503 -43.56 
L 270.233691 -43.56 
L 270.445221 -43.56 
L 270.598798 -43.56 
L 270.655159 -43.56 
L 270.863204 -43.56 
L 271.046092 -43.56 
L 271.069768 -43.56 
L 271.274355 -43.56 
L 271.477542 -43.56 
L 271.493387 -43.56 
L 271.678748 -43.56 
L 271.878511 -43.56 
L 271.940681 -43.56 
L 272.076456 -43.56 
L 272.272821 -43.56 
L 272.387976 -43.56 
L 272.467553 -43.56 
L 272.660545 -43.56 
L 272.835271 -43.56 
L 272.852108 -43.56 
L 273.041753 -43.56 
L 273.230029 -43.56 
L 273.282565 -43.56 
L 273.416516 -43.56 
L 273.601476 -43.56 
L 273.72986 -43.56 
L 273.784902 -43.56 
L 273.966571 -43.56 
L 274.146885 -43.56 
L 274.177154 -43.56 
L 274.325382 -43.56 
L 274.502436 -43.56 
L 274.624449 -43.56 
L 274.677976 -43.56 
L 274.851794 -43.56 
L 275.02427 -43.56 
L 275.071743 -43.56 
L 275.195023 -43.56 
L 275.364293 -43.56 
L 275.519038 -43.56 
L 275.532189 -43.56 
L 275.698276 -43.56 
L 275.863036 -43.56 
L 275.966333 -43.56 
L 276.026283 -43.56 
L 276.187888 -43.56 
L 276.348173 -43.56 
L 276.413627 -43.56 
L 276.506849 -43.56 
L 276.664008 -43.56 
L 276.819853 -43.56 
L 276.860922 -43.56 
L 276.974036 -43.56 
L 277.126783 -43.56 
L 277.278224 -43.56 
L 277.308216 -43.56 
L 277.427988 -43.56 
L 277.576358 -43.56 
L 277.723428 -43.56 
L 277.755511 -43.56 
L 277.868849 -43.56 
L 278.012875 -43.56 
L 278.155608 -43.56 
L 278.202806 -43.56 
L 278.296758 -43.56 
L 278.436474 -43.56 
L 278.574902 -43.56 
L 278.6501 -43.56 
L 278.711854 -43.56 
L 278.847292 -43.56 
L 278.981448 -43.56 
L 279.097395 -43.56 
L 279.114272 -43.56 
L 279.245464 -43.56 
L 279.375381 -43.56 
L 279.504022 -43.56 
L 279.544689 -43.56 
L 279.631124 -43.56 
L 279.756831 -43.56 
L 279.88127 -43.56 
L 279.991984 -43.56 
L 280.004401 -43.56 
L 280.125931 -43.56 
L 280.246197 -43.56 
L 280.3652 -43.56 
L 280.439279 -43.56 
L 280.482808 -43.56 
L 280.598932 -43.56 
L 280.713799 -43.56 
L 280.827408 -43.56 
L 280.886573 -43.56 
L 280.9396 -43.56 
L 281.05036 -43.56 
L 281.159868 -43.56 
L 281.268126 -43.56 
L 281.333868 -43.56 
L 281.375007 -43.56 
L 281.480443 -43.56 
L 281.584634 -43.56 
L 281.687579 -43.56 
L 281.781162 -43.56 
L 281.789255 -43.56 
L 281.889407 -43.56 
L 281.988319 -43.56 
L 282.085991 -43.56 
L 282.182424 -43.56 
L 282.228457 -43.56 
L 282.27747 -43.56 
L 282.371142 -43.56 
L 282.46358 -43.56 
L 282.554784 -43.56 
L 282.644755 -43.56 
L 282.675752 -43.56 
L 282.733318 -43.56 
L 282.82056 -43.56 
L 282.906572 -43.56 
L 282.991357 -43.56 
L 283.074914 -43.56 
L 283.123046 -43.56 
L 283.157141 -43.56 
L 283.237999 -43.56 
L 283.317635 -43.56 
L 283.396048 -43.56 
L 283.473238 -43.56 
L 283.549207 -43.56 
L 283.570341 -43.56 
L 283.623792 -43.56 
L 283.697097 -43.56 
L 283.769184 -43.56 
L 283.840054 -43.56 
L 283.909707 -43.56 
L 283.978144 -43.56 
L 284.017635 -43.56 
L 284.045282 -43.56 
L 284.111088 -43.56 
L 284.175682 -43.56 
L 284.239065 -43.56 
L 284.301237 -43.56 
L 284.362197 -43.56 
L 284.421946 -43.56 
L 284.46493 -43.56 
L 284.480438 -43.56 
L 284.537594 -43.56 
L 284.593543 -43.56 
L 284.648286 -43.56 
L 284.701823 -43.56 
L 284.754153 -43.56 
L 284.805278 -43.56 
L 284.855198 -43.56 
L 284.903912 -43.56 
L 284.912224 -43.56 
L 284.951303 -43.56 
L 284.997468 -43.56 
L 285.042432 -43.56 
L 285.086194 -43.56 
L 285.128756 -43.56 
L 285.170117 -43.56 
L 285.210278 -43.56 
L 285.249238 -43.56 
L 285.286998 -43.56 
L 285.323558 -43.56 
L 285.358918 -43.56 
L 285.359519 -43.56 
L 285.392977 -43.56 
L 285.425839 -43.56 
L 285.457504 -43.56 
L 285.487974 -43.56 
L 285.517248 -43.56 
L 285.545326 -43.56 
L 285.572208 -43.56 
L 285.597895 -43.56 
L 285.622387 -43.56 
L 285.645684 -43.56 
L 285.667785 -43.56 
L 285.688691 -43.56 
L 285.708402 -43.56 
L 285.726918 -43.56 
L 285.744239 -43.56 
L 285.760366 -43.56 
L 285.775297 -43.56 
L 285.789034 -43.56 
L 285.801576 -43.56 
L 285.806814 -43.56 
L 285.812906 -43.56 
L 285.823028 -43.56 
L 285.83196 -43.56 
L 285.839701 -43.56 
L 285.84625 -43.56 
L 285.851609 -43.56 
L 285.855777 -43.56 
L 285.858754 -43.56 
L 285.860541 -43.56 
L 285.860541 -43.56 
L 285.860541 -43.56 
L 285.858754 -43.865531 
L 285.855777 -44.171062 
L 285.851609 -44.476593 
L 285.84625 -44.782124 
L 285.839701 -45.087655 
L 285.83196 -45.393186 
L 285.823028 -45.698717 
L 285.812906 -46.004248 
L 285.806814 -46.168769 
L 285.801576 -46.30978 
L 285.789034 -46.615311 
L 285.775297 -46.920842 
L 285.760366 -47.226373 
L 285.744239 -47.531904 
L 285.726918 -47.837435 
L 285.708402 -48.142966 
L 285.688691 -48.448497 
L 285.667785 -48.754028 
L 285.645684 -49.059559 
L 285.622387 -49.36509 
L 285.597895 -49.670621 
L 285.572208 -49.976152 
L 285.545326 -50.281683 
L 285.517248 -50.587214 
L 285.487974 -50.892745 
L 285.457504 -51.198277 
L 285.425839 -51.503808 
L 285.392977 -51.809339 
L 285.359519 -52.10949 
L 285.358918 -52.11487 
L 285.323558 -52.420401 
L 285.286998 -52.725932 
L 285.249238 -53.031463 
L 285.210278 -53.336994 
L 285.170117 -53.642525 
L 285.128756 -53.948056 
L 285.086194 -54.253587 
L 285.042432 -54.559118 
L 284.997468 -54.864649 
L 284.951303 -55.17018 
L 284.912224 -55.422251 
L 284.903912 -55.475711 
L 284.855198 -55.781242 
L 284.805278 -56.086774 
L 284.754153 -56.392305 
L 284.701823 -56.697836 
L 284.648286 -57.003367 
L 284.593543 -57.308898 
L 284.537594 -57.614429 
L 284.480438 -57.91996 
L 284.46493 -58.001143 
L 284.421946 -58.225491 
L 284.362197 -58.531022 
L 284.301237 -58.836553 
L 284.239065 -59.142084 
L 284.175682 -59.447615 
L 284.111088 -59.753146 
L 284.045282 -60.058677 
L 284.017635 -60.184711 
L 283.978144 -60.364208 
L 283.909707 -60.669739 
L 283.840054 -60.975271 
L 283.769184 -61.280802 
L 283.697097 -61.586333 
L 283.623792 -61.891864 
L 283.570341 -62.111007 
L 283.549207 -62.197395 
L 283.473238 -62.502926 
L 283.396048 -62.808457 
L 283.317635 -63.113988 
L 283.237999 -63.419519 
L 283.157141 -63.72505 
L 283.123046 -63.851958 
L 283.074914 -64.030581 
L 282.991357 -64.336112 
L 282.906572 -64.641643 
L 282.82056 -64.947174 
L 282.733318 -65.252705 
L 282.675752 -65.45151 
L 282.644755 -65.558236 
L 282.554784 -65.863768 
L 282.46358 -66.169299 
L 282.371142 -66.47483 
L 282.27747 -66.780361 
L 282.228457 -66.938144 
L 282.182424 -67.085892 
L 282.085991 -67.391423 
L 281.988319 -67.696954 
L 281.889407 -68.002485 
L 281.789255 -68.308016 
L 281.781162 -68.332401 
L 281.687579 -68.613547 
L 281.584634 -68.919078 
L 281.480443 -69.224609 
L 281.375007 -69.53014 
L 281.333868 -69.647958 
L 281.268126 -69.835671 
L 281.159868 -70.141202 
L 281.05036 -70.446733 
L 280.9396 -70.752265 
L 280.886573 -70.8969 
L 280.827408 -71.057796 
L 280.713799 -71.363327 
L 280.598932 -71.668858 
L 280.482808 -71.974389 
L 280.439279 -72.087686 
L 280.3652 -72.27992 
L 280.246197 -72.585451 
L 280.125931 -72.890982 
L 280.004401 -73.196513 
L 279.991984 -73.227407 
L 279.88127 -73.502044 
L 279.756831 -73.807575 
L 279.631124 -74.113106 
L 279.544689 -74.321079 
L 279.504022 -74.418637 
L 279.375381 -74.724168 
L 279.245464 -75.029699 
L 279.114272 -75.33523 
L 279.097395 -75.374154 
L 278.981448 -75.640762 
L 278.847292 -75.946293 
L 278.711854 -76.251824 
L 278.6501 -76.38982 
L 278.574902 -76.557355 
L 278.436474 -76.862886 
L 278.296758 -77.168417 
L 278.202806 -77.371989 
L 278.155608 -77.473948 
L 278.012875 -77.779479 
L 277.868849 -78.08501 
L 277.755511 -78.323293 
L 277.723428 -78.390541 
L 277.576358 -78.696072 
L 277.427988 -79.001603 
L 277.308216 -79.246094 
L 277.278224 -79.307134 
L 277.126783 -79.612665 
L 276.974036 -79.918196 
L 276.860922 -80.142526 
L 276.819853 -80.223727 
L 276.664008 -80.529259 
L 276.506849 -80.83479 
L 276.413627 -81.014512 
L 276.348173 -81.140321 
L 276.187888 -81.445852 
L 276.026283 -81.751383 
L 275.966333 -81.8638 
L 275.863036 -82.056914 
L 275.698276 -82.362445 
L 275.532189 -82.667976 
L 275.519038 -82.691974 
L 275.364293 -82.973507 
L 275.195023 -83.279038 
L 275.071743 -83.499811 
L 275.02427 -83.584569 
L 274.851794 -83.8901 
L 274.677976 -84.195631 
L 274.624449 -84.288994 
L 274.502436 -84.501162 
L 274.325382 -84.806693 
L 274.177154 -85.060545 
L 274.146885 -85.112224 
L 273.966571 -85.417756 
L 273.784902 -85.723287 
L 273.72986 -85.815167 
L 273.601476 -86.028818 
L 273.416516 -86.334349 
L 273.282565 -86.553996 
L 273.230029 -86.63988 
L 273.041753 -86.945411 
L 272.852108 -87.250942 
L 272.835271 -87.277872 
L 272.660545 -87.556473 
L 272.467553 -87.862004 
L 272.387976 -87.987086 
L 272.272821 -88.167535 
L 272.076456 -88.473066 
L 271.940681 -88.682839 
L 271.878511 -88.778597 
L 271.678748 -89.084128 
L 271.493387 -89.365668 
L 271.477542 -89.389659 
L 271.274355 -89.69519 
L 271.069768 -90.000721 
L 271.046092 -90.035836 
L 270.863204 -90.306253 
L 270.655159 -90.611784 
L 270.598798 -90.693994 
L 270.445221 -90.917315 
L 270.233691 -91.222846 
L 270.151503 -91.340763 
L 270.02033 -91.528377 
L 269.805288 -91.833908 
L 269.704208 -91.976572 
L 269.588455 -92.139439 
L 269.369873 -92.44497 
L 269.256914 -92.60183 
L 269.149518 -92.750501 
L 268.927368 -93.056032 
L 268.809619 -93.216929 
L 268.703441 -93.361563 
L 268.477694 -93.667094 
L 268.362325 -93.822238 
L 268.250143 -93.972625 
L 268.02077 -94.278156 
L 267.91503 -94.418113 
L 267.789542 -94.583687 
L 267.556515 -94.889218 
L 267.467735 -95.00489 
L 267.321558 -95.194749 
L 267.084846 -95.500281 
L 267.020441 -95.582893 
L 266.846105 -95.805812 
L 266.605679 -96.111343 
L 266.573146 -96.15243 
L 266.3631 -96.416874 
L 266.125852 -96.713741 
L 266.118906 -96.722405 
L 265.872455 -97.027936 
L 265.678557 -97.266862 
L 265.624333 -97.333467 
L 265.374084 -97.638998 
L 265.231263 -97.812323 
L 265.121977 -97.944529 
L 264.867897 -98.25006 
L 264.783968 -98.350384 
L 264.611747 -98.555591 
L 264.353804 -98.861122 
L 264.336673 -98.881294 
L 264.093553 -99.166653 
L 263.889379 -99.404895 
L 263.831527 -99.472184 
L 263.567301 -99.777715 
L 263.442084 -99.921664 
L 263.301077 -100.083246 
L 263.032898 -100.388778 
L 262.99479 -100.431942 
L 262.762414 -100.694309 
L 262.547495 -100.935572 
L 262.490061 -100.99984 
L 262.215442 -101.305371 
L 262.1002 -101.432853 
L 261.938728 -101.610902 
L 261.660062 -101.916433 
L 261.652906 -101.924234 
L 261.378923 -102.221964 
L 261.205611 -102.409238 
L 261.095816 -102.527495 
L 260.810546 -102.833026 
L 260.758317 -102.888652 
L 260.522909 -103.138557 
L 260.311022 -103.362242 
L 260.23324 -103.444088 
L 259.941261 -103.749619 
L 259.863727 -103.830302 
L 259.646953 -104.05515 
L 259.416433 -104.292941 
L 259.350549 -104.360681 
L 259.051751 -104.666212 
L 258.969138 -104.750225 
L 258.750597 -104.971743 
L 258.521844 -105.202351 
L 258.447279 -105.277275 
L 258.141551 -105.582806 
L 258.074549 -105.649402 
L 257.833369 -105.888337 
L 257.627255 -106.091432 
L 257.522954 -106.193868 
L 257.210181 -106.499399 
L 257.17996 -106.528762 
L 256.894784 -106.80493 
L 256.732665 -106.961091 
L 256.577084 -107.110461 
L 256.285371 -107.389039 
L 256.257054 -107.415992 
L 255.934344 -107.721523 
L 255.838076 -107.812186 
L 255.609164 -108.027054 
L 255.390782 -108.230961 
L 255.28158 -108.332585 
L 254.951536 -108.638116 
L 254.943487 -108.645529 
L 254.618676 -108.943647 
L 254.496192 -109.05548 
L 254.283335 -109.249178 
L 254.048898 -109.461406 
L 253.945485 -109.554709 
L 253.605085 -109.86024 
L 253.601603 -109.863349 
L 253.261778 -110.165772 
L 253.154309 -110.260921 
L 252.915883 -110.471303 
L 252.707014 -110.65466 
L 252.56737 -110.776834 
L 252.259719 -111.044619 
L 252.216207 -111.082365 
L 251.862197 -111.387896 
L 251.812425 -111.430634 
L 251.505338 -111.693427 
L 251.36513 -111.812803 
L 251.145745 -111.998958 
L 250.917836 -112.191369 
L 250.783389 -112.304489 
L 250.470541 -112.566383 
L 250.418236 -112.61002 
L 250.050162 -112.915551 
L 250.023246 -112.937781 
L 249.679058 -113.221082 
L 249.575952 -113.305524 
L 249.305068 -113.526613 
L 249.128657 -113.669878 
L 248.928159 -113.832144 
L 248.681363 -114.030888 
L 248.548297 -114.137675 
L 248.234068 -114.388601 
L 248.165449 -114.443206 
L 247.786774 -114.74306 
L 247.779579 -114.748737 
L 247.390475 -115.054269 
L 247.339479 -115.094115 
L 246.998264 -115.3598 
L 246.892184 -115.441993 
L 246.602934 -115.665331 
L 246.44489 -115.786764 
L 246.204449 -115.970862 
L 245.997595 -116.128471 
L 245.802772 -116.276393 
L 245.550301 -116.467153 
L 245.397866 -116.581924 
L 245.103006 -116.802852 
L 244.989693 -116.887455 
L 244.655711 -117.135608 
L 244.578215 -117.192986 
L 244.208417 -117.465459 
L 244.163391 -117.498517 
L 243.761122 -117.792444 
L 243.745184 -117.804048 
L 243.323519 -118.109579 
L 243.313828 -118.116568 
L 242.898345 -118.41511 
L 242.866533 -118.437859 
L 242.469678 -118.720641 
L 242.419238 -118.756411 
L 242.037476 -119.026172 
L 241.971944 -119.072258 
L 241.601697 -119.331703 
L 241.524649 -119.385437 
L 241.162298 -119.637234 
L 241.077355 -119.695982 
L 240.719237 -119.942766 
L 240.63006 -120.003928 
L 240.27247 -120.248297 
L 240.182766 -120.309309 
L 239.821951 -120.553828 
L 239.735471 -120.612159 
L 239.367638 -120.859359 
L 239.288176 -120.91251 
L 238.909483 -121.16489 
L 238.840882 -121.210395 
L 238.44744 -121.470421 
L 238.393587 -121.505846 
L 237.981463 -121.775952 
L 237.946293 -121.798895 
L 237.511504 -122.081483 
L 237.498998 -122.089574 
L 237.051703 -122.37787 
L 237.037464 -122.387014 
L 236.604409 -122.663809 
L 236.559283 -122.692545 
L 236.157114 -122.947458 
L 236.076958 -122.998076 
L 235.70982 -123.228848 
L 235.590438 -123.303607 
L 235.262525 -123.508006 
L 235.099672 -123.609138 
L 234.81523 -123.784963 
L 234.604607 -123.914669 
L 234.367936 -124.059746 
L 234.105191 -124.2202 
L 233.920641 -124.332385 
L 233.60137 -124.525731 
L 233.473347 -124.602906 
L 233.09309 -124.831263 
L 233.026052 -124.871337 
L 232.580296 -125.136794 
L 232.578758 -125.137705 
L 232.131463 -125.401857 
L 232.062675 -125.442325 
L 231.684168 -125.663986 
L 231.540402 -125.747856 
L 231.236874 -125.924123 
L 231.013426 -126.053387 
L 230.789579 -126.182294 
L 230.481687 -126.358918 
L 230.342285 -126.438524 
L 229.945125 -126.664449 
L 229.89499 -126.692839 
L 229.447695 -126.945153 
L 229.403513 -126.96998 
L 229.000401 -127.195468 
L 228.856746 -127.275511 
L 228.553106 -127.443934 
L 228.304951 -127.581042 
L 228.105812 -127.690574 
L 227.748064 -127.886573 
L 227.658517 -127.935413 
L 227.211222 -128.178414 
L 227.185923 -128.192104 
L 226.763928 -128.419438 
L 226.618195 -128.497635 
L 226.316633 -128.658723 
L 226.045154 -128.803166 
L 225.869339 -128.896293 
L 225.466732 -129.108697 
L 225.422044 -129.132169 
L 224.974749 -129.366164 
L 224.882504 -129.414228 
L 224.527455 -129.598402 
L 224.292558 -129.71976 
L 224.08016 -129.829005 
L 223.696994 -130.025291 
L 223.632866 -130.057996 
L 223.185571 -130.285199 
L 223.095389 -130.330822 
L 222.738277 -130.510683 
L 222.487742 -130.636353 
L 222.290982 -130.734612 
L 221.874229 -130.941884 
L 221.843687 -130.957006 
L 221.396393 -131.177586 
L 221.254211 -131.247415 
L 220.949098 -131.396601 
L 220.628023 -131.552946 
L 220.501804 -131.614137 
L 220.054509 -131.83009 
L 219.99547 -131.858477 
L 219.607214 -132.044335 
L 219.356174 -132.164008 
L 219.15992 -132.257153 
L 218.712625 -132.46856 
L 218.710544 -132.469539 
L 218.265331 -132.678174 
L 218.057689 -132.77507 
L 217.818036 -132.886414 
L 217.398306 -133.080601 
L 217.370741 -133.093298 
L 216.923447 -133.298473 
L 216.731532 -133.386132 
L 216.476152 -133.50227 
L 216.057909 -133.691663 
L 216.028858 -133.704761 
L 215.581563 -133.905577 
L 215.37662 -133.997194 
L 215.134269 -134.105063 
L 214.688254 -134.302725 
L 214.686974 -134.30329 
L 214.239679 -134.499822 
L 213.991817 -134.608257 
L 213.792385 -134.695124 
L 213.34509 -134.889113 
L 213.28795 -134.913788 
L 212.897796 -135.081538 
L 212.575935 -135.219319 
L 212.450501 -135.272782 
L 212.003206 -135.462601 
L 211.85588 -135.52485 
L 211.555912 -135.651045 
L 211.127733 -135.830381 
L 211.108617 -135.838352 
L 210.661323 -136.024075 
L 210.390772 -136.135912 
L 210.214028 -136.208657 
L 209.766733 -136.391941 
L 209.645392 -136.441443 
L 209.319439 -136.573843 
L 208.891285 -136.746974 
L 208.872144 -136.75468 
L 208.42485 -136.933978 
L 208.127818 -137.052505 
L 207.977555 -137.112208 
L 207.530261 -137.28913 
L 207.355265 -137.358036 
L 207.082966 -137.464795 
L 206.635671 -137.639365 
L 206.573378 -137.663567 
L 206.188377 -137.812508 
L 205.781728 -137.969098 
L 205.741082 -137.984683 
L 205.293788 -138.155412 
L 204.979996 -138.274629 
L 204.846493 -138.325133 
L 204.399198 -138.49357 
L 204.168183 -138.58016 
L 203.951904 -138.66088 
L 203.504609 -138.827046 
L 203.34601 -138.885691 
L 203.057315 -138.991987 
L 202.61002 -139.155903 
L 202.513191 -139.191222 
L 202.162725 -139.318514 
L 201.715431 -139.480202 
L 201.66943 -139.496754 
L 201.268136 -139.640524 
L 200.820842 -139.800005 
L 200.81442 -139.802285 
L 200.373547 -139.958077 
L 199.947746 -140.107816 
L 199.926253 -140.115342 
L 199.478958 -140.271234 
L 199.069204 -140.413347 
L 199.031663 -140.426311 
L 198.584369 -140.580054 
L 198.178486 -140.718878 
L 198.137074 -140.732982 
L 197.68978 -140.884594 
L 197.275244 -141.024409 
L 197.242485 -141.035411 
L 196.79519 -141.184914 
L 196.359119 -141.32994 
L 196.347896 -141.333657 
L 195.900601 -141.481071 
L 195.453307 -141.627744 
L 195.429629 -141.635471 
L 195.006012 -141.773121 
L 194.558717 -141.91773 
L 194.48638 -141.941002 
L 194.111423 -142.06112 
L 193.664128 -142.203685 
L 193.529022 -142.246533 
L 193.216834 -142.345124 
L 192.769539 -142.485665 
L 192.55714 -142.552064 
L 192.322244 -142.625187 
L 191.87495 -142.763723 
L 191.5703 -142.857595 
L 191.427655 -142.901364 
L 190.980361 -143.037914 
L 190.568056 -143.163126 
L 190.533066 -143.173708 
L 190.085772 -143.308291 
L 189.638477 -143.442166 
L 189.549508 -143.468657 
L 189.191182 -143.574907 
L 188.743888 -143.706839 
L 188.51435 -143.774188 
L 188.296593 -143.837814 
L 187.849299 -143.967821 
L 187.462247 -144.079719 
L 187.402004 -144.097063 
L 186.954709 -144.225165 
L 186.507415 -144.352576 
L 186.392098 -144.385251 
L 186.06012 -144.478921 
L 185.612826 -144.604449 
L 185.303529 -144.690782 
L 185.165531 -144.729139 
L 184.718236 -144.852803 
L 184.270942 -144.975787 
L 184.195888 -144.996313 
L 183.823647 -145.097687 
L 183.376353 -145.21883 
L 183.068144 -145.301844 
L 182.929058 -145.339149 
L 182.481764 -145.458469 
L 182.034469 -145.577118 
L 181.919779 -145.607375 
L 181.587174 -145.694752 
L 181.13988 -145.811602 
L 180.749886 -145.912906 
L 180.692585 -145.927728 
L 180.245291 -146.042794 
L 179.797996 -146.157202 
L 179.557227 -146.218437 
L 179.350701 -146.270744 
L 178.903407 -146.38339 
L 178.456112 -146.495384 
L 178.341299 -146.523968 
L 178.008818 -146.606399 
L 177.561523 -146.716653 
L 177.114228 -146.826261 
L 177.100938 -146.829499 
L 176.666934 -146.934806 
L 176.219639 -147.042696 
L 175.834561 -147.13503 
L 175.772345 -147.149886 
L 175.32505 -147.256076 
L 174.877756 -147.361629 
L 174.541263 -147.440561 
L 174.430461 -147.466445 
L 173.983166 -147.570318 
L 173.535872 -147.673561 
L 173.21973 -147.746092 
L 173.088577 -147.776057 
L 172.641283 -147.877642 
L 172.193988 -147.978602 
L 171.868482 -148.051623 
L 171.746693 -148.078831 
L 171.299399 -148.178154 
L 170.852104 -148.276857 
L 170.485943 -148.357154 
L 170.40481 -148.374873 
L 169.957515 -148.471959 
L 169.51022 -148.568433 
L 169.070429 -148.662685 
L 169.062926 -148.664287 
L 168.615631 -148.759164 
L 168.168337 -148.853432 
L 167.721042 -148.947094 
L 167.619531 -148.968216 
L 167.273747 -149.039869 
L 166.826453 -149.131959 
L 166.379158 -149.223448 
L 166.131642 -149.273747 
L 165.931864 -149.314178 
L 165.484569 -149.404115 
L 165.037275 -149.493456 
L 164.60472 -149.579279 
L 164.58998 -149.582191 
L 164.142685 -149.67 
L 163.695391 -149.757219 
L 163.248096 -149.843848 
L 163.035179 -149.88481 
L 162.800802 -149.929714 
L 162.353507 -150.014835 
L 161.906212 -150.099372 
L 161.458918 -150.183326 
L 161.421291 -150.190341 
L 161.011623 -150.266401 
L 160.564329 -150.348871 
L 160.117034 -150.430763 
L 159.758904 -150.495872 
L 159.669739 -150.512015 
L 159.222445 -150.592442 
L 158.77515 -150.672296 
L 158.327856 -150.751578 
L 158.044745 -150.801403 
L 157.880561 -150.830179 
L 157.433267 -150.908019 
L 156.985972 -150.985293 
L 156.538677 -151.062002 
L 156.274761 -151.106934 
L 156.091383 -151.138026 
L 155.644088 -151.213315 
L 155.196794 -151.288044 
L 154.749499 -151.362214 
L 154.444184 -151.412465 
L 154.302204 -151.435737 
L 153.85491 -151.50851 
L 153.407615 -151.580729 
L 152.960321 -151.652395 
L 152.547714 -151.717996 
L 152.513026 -151.723488 
L 152.065731 -151.79378 
L 151.618437 -151.863523 
L 151.171142 -151.93272 
L 150.723848 -152.001371 
L 150.578358 -152.023527 
L 150.276553 -152.0693 
L 149.829259 -152.136601 
L 149.381964 -152.203362 
L 148.934669 -152.269583 
L 148.529656 -152.329058 
L 148.487375 -152.335241 
L 148.04008 -152.400135 
L 147.592786 -152.464493 
L 147.145491 -152.528318 
L 146.698196 -152.591609 
L 146.391899 -152.634589 
L 146.250902 -152.654293 
L 145.803607 -152.716282 
L 145.356313 -152.777743 
L 144.909018 -152.838677 
L 144.461723 -152.899084 
L 144.155228 -152.94012 
L 144.014429 -152.958894 
L 143.567134 -153.018024 
L 143.11984 -153.076633 
L 142.672545 -153.134721 
L 142.225251 -153.192289 
L 141.806876 -153.245651 
L 141.777956 -153.249325 
L 141.330661 -153.30564 
L 140.883367 -153.361441 
L 140.436072 -153.416727 
L 139.988778 -153.471501 
L 139.541483 -153.525762 
L 139.329976 -153.551182 
L 139.094188 -153.579404 
L 138.646894 -153.632441 
L 138.199599 -153.684969 
L 137.752305 -153.736992 
L 137.30501 -153.788509 
L 136.857715 -153.839521 
L 136.705485 -153.856713 
L 136.410421 -153.889901 
L 135.963126 -153.939716 
L 135.515832 -153.98903 
L 135.068537 -154.037844 
L 134.621242 -154.086161 
L 134.173948 -154.13398 
L 133.90682 -154.162244 
L 133.726653 -154.18123 
L 133.279359 -154.227878 
L 132.832064 -154.274033 
L 132.38477 -154.319696 
L 131.937475 -154.364868 
L 131.49018 -154.409549 
L 131.042886 -154.453741 
L 130.899276 -154.467776 
L 130.595591 -154.497332 
L 130.148297 -154.540383 
L 129.701002 -154.582949 
L 129.253707 -154.625031 
L 128.806413 -154.666629 
L 128.359118 -154.707745 
L 127.911824 -154.74838 
L 127.634185 -154.773307 
L 127.464529 -154.788476 
L 127.017234 -154.827999 
L 126.56994 -154.867044 
L 126.122645 -154.905614 
L 125.675351 -154.943707 
L 125.228056 -154.981327 
L 124.780762 -155.018472 
L 124.333467 -155.055144 
L 124.040729 -155.078838 
L 123.886172 -155.091296 
L 123.438878 -155.126889 
L 122.991583 -155.162012 
L 122.544289 -155.196668 
L 122.096994 -155.230857 
L 121.649699 -155.264579 
L 121.202405 -155.297836 
L 120.75511 -155.330628 
L 120.307816 -155.362956 
L 120.007275 -155.384369 
L 119.860521 -155.394782 
L 119.413226 -155.426065 
L 118.965932 -155.456889 
L 118.518637 -155.487254 
L 118.071343 -155.51716 
L 117.624048 -155.546609 
L 117.176754 -155.575602 
L 116.729459 -155.604139 
L 116.282164 -155.632221 
L 115.83487 -155.659849 
L 115.387575 -155.687023 
L 115.339434 -155.6899 
L 114.940281 -155.713654 
L 114.492986 -155.739824 
L 114.045691 -155.765545 
L 113.598397 -155.790817 
L 113.151102 -155.815641 
L 112.703808 -155.840018 
L 112.256513 -155.863949 
L 111.809218 -155.887434 
L 111.361924 -155.910474 
L 110.914629 -155.93307 
L 110.467335 -155.955223 
L 110.02004 -155.976934 
L 109.631054 -155.995431 
L 109.572745 -155.998192 
L 109.125451 -156.018941 
L 108.678156 -156.039251 
L 108.230862 -156.059123 
L 107.783567 -156.078558 
L 107.336273 -156.097556 
L 106.888978 -156.116119 
L 106.441683 -156.134247 
L 105.994389 -156.15194 
L 105.547094 -156.1692 
L 105.0998 -156.186028 
L 104.652505 -156.202423 
L 104.20521 -156.218387 
L 103.757916 -156.23392 
L 103.310621 -156.249023 
L 102.863327 -156.263698 
L 102.416032 -156.277943 
L 101.968737 -156.291761 
L 101.661438 -156.300962 
L 101.521443 -156.305136 
L 101.074148 -156.318052 
L 100.626854 -156.330543 
L 100.179559 -156.342611 
L 99.732265 -156.354256 
L 99.28497 -156.365479 
L 98.837675 -156.376281 
L 98.390381 -156.386662 
L 97.943086 -156.396624 
L 97.495792 -156.406166 
L 97.048497 -156.415289 
L 96.601202 -156.423995 
L 96.153908 -156.432284 
L 95.706613 -156.440156 
L 95.259319 -156.447612 
L 94.812024 -156.454653 
L 94.364729 -156.461279 
L 93.917435 -156.467492 
L 93.47014 -156.473291 
L 93.022846 -156.478678 
L 92.575551 -156.483653 
L 92.128257 -156.488217 
L 91.680962 -156.49237 
L 91.233667 -156.496113 
L 90.786373 -156.499447 
L 90.339078 -156.502372 
L 89.891784 -156.504889 
L 89.444489 -156.506999 
L 88.997194 -156.508702 
L 88.5499 -156.509999 
L 88.102605 -156.510891 
L 87.655311 -156.511378 
L 87.208016 -156.51146 
L 86.760721 -156.511139 
L 86.313427 -156.510416 
L 85.866132 -156.509289 
L 85.418838 -156.507761 
L 84.971543 -156.505832 
L 84.524248 -156.503503 
L 84.076954 -156.500773 
L 83.629659 -156.497645 
L 83.182365 -156.494117 
L 82.73507 -156.490192 
L 82.287776 -156.485869 
L 81.840481 -156.481149 
L 81.393186 -156.476034 
L 80.945892 -156.470522 
L 80.498597 -156.464615 
L 80.051303 -156.458314 
L 79.604008 -156.451619 
L 79.156713 -156.444531 
L 78.709419 -156.43705 
L 78.262124 -156.429177 
L 77.81483 -156.420912 
L 77.367535 -156.412256 
L 76.92024 -156.40321 
L 76.472946 -156.393774 
L 76.025651 -156.383948 
L 75.578357 -156.373734 
L 75.131062 -156.363132 
L 74.683768 -156.352142 
L 74.236473 -156.340766 
L 73.789178 -156.329002 
L 73.341884 -156.316853 
L 72.894589 -156.304318 
L 72.778409 -156.300962 
L 72.447295 -156.291362 
L 72 -156.278008 
z
" id="m81dfda6d56" style="stroke:#000000;stroke-opacity:0.2;stroke-width:0.3;"/>
    </defs>
    <g clip-path="url(#p292eb517ef)">
     <use style="fill-opacity:0.2;stroke:#000000;stroke-opacity:0.2;stroke-width:0.3;" x="0" xlink:href="#m81dfda6d56" y="396"/>
    </g>
   </g>
   <g id="LineCollection_1">
    <path clip-path="url(#p292eb517ef)" d="M 72 239.721992 
L 82.73507 239.509808 
L 93.47014 239.526709 
L 103.757916 239.76608 
L 114.045691 240.234455 
L 123.886172 240.908704 
L 133.279359 241.772122 
L 142.225251 242.807711 
L 151.171142 244.06728 
L 159.758904 245.504128 
L 167.721042 247.052906 
L 175.834561 248.86497 
L 183.376353 250.78117 
L 190.568056 252.836874 
L 197.68978 255.115406 
L 204.399198 257.50643 
L 210.661323 259.975925 
L 216.731532 262.613868 
L 222.487742 265.363647 
L 227.748064 268.113427 
L 233.026052 271.128663 
L 237.511504 273.918517 
L 242.037476 276.973828 
L 246.602934 280.334669 
L 250.783389 283.695511 
L 254.618676 287.056353 
L 258.141551 290.417194 
L 261.660062 294.083567 
L 264.867897 297.74994 
L 267.91503 301.581887 
L 270.655159 305.388216 
L 273.230029 309.36012 
L 275.532189 313.332024 
L 277.576358 317.303928 
L 279.375381 321.275832 
L 280.9396 325.247735 
L 282.27747 329.219639 
L 283.473238 333.497074 
L 284.362197 337.468978 
L 285.086194 341.746413 
L 285.572208 346.023848 
L 285.823028 350.301283 
L 285.860541 352.44 
L 285.860541 352.44 
" style="fill:none;stroke:#000000;"/>
   </g>
   <g id="patch_3">
    <path d="M 72 352.44 
L 72 47.52 
" style="fill:none;stroke:#262626;stroke-linecap:square;stroke-linejoin:miter;stroke-width:1.25;"/>
   </g>
   <g id="patch_4">
    <path d="M 72 352.44 
L 518.4 352.44 
" style="fill:none;stroke:#262626;stroke-linecap:square;stroke-linejoin:miter;stroke-width:1.25;"/>
   </g>
   <g id="text_15">
    <!-- Region of inconsistency for Farris-generating topology -->
    <defs>
     <path d="M 39.40625 32.953125 
L 39.59375 33.046875 
C 55.203125 38.421875 55.296875 49.171875 55.296875 51.0625 
C 55.296875 60.515625 45.703125 69.578125 31.296875 69.578125 
L 8.90625 69.578125 
L 8.90625 0.5 
L 17.09375 0.5 
L 17.09375 32 
L 31.796875 32 
L 49.5 0.5 
L 57.90625 0.5 
z
M 17.09375 38.078125 
L 17.09375 64 
L 30.203125 64 
C 42.90625 64 47.40625 56.828125 47.40625 51.046875 
C 47.40625 45.65625 43.40625 38.078125 30.203125 38.078125 
z
" id="CMSS17-82"/>
     <path d="M 39.09375 21.515625 
C 39.09375 24.84375 38.90625 31.296875 35.703125 36.640625 
C 32.203125 42.390625 26.5 44 22.203125 44 
C 11.796875 44 3 34.1875 3 21.484375 
C 3 9.09375 12.09375 -1 23.59375 -1 
C 28.09375 -1 33.59375 0.296875 38.59375 3.875 
C 38.59375 4.28125 38.40625 6.46875 38.296875 6.5625 
C 38.296875 6.765625 38 9.84375 38 10.25 
C 33.203125 6.359375 27.703125 5.078125 23.703125 5.078125 
C 17.296875 5.078125 10.40625 10.421875 10.09375 21.515625 
z
M 10.90625 27 
C 12.203125 32.5625 16.59375 37.828125 22.203125 37.828125 
C 23.703125 37.828125 30.703125 37.828125 32.5 27 
z
" id="CMSS17-101"/>
     <path d="M 44.5 43.875 
C 38.796875 43.875 33.90625 42.78125 29.90625 40.890625 
C 26.59375 43.390625 23.203125 43.875 20.90625 43.875 
C 12.203125 43.875 5.59375 36.703125 5.59375 28.34375 
C 5.59375 22.9375 8.59375 18.859375 8.796875 18.671875 
C 7 16.171875 6 13.484375 6 10.5 
C 6 7 7.40625 4.515625 8.5 3.125 
C 3.296875 -0.046875 2.59375 -4.90625 2.59375 -6.796875 
C 2.59375 -14.03125 11.703125 -20 23.40625 -20 
C 35.203125 -20 44.296875 -14.03125 44.296875 -6.6875 
C 44.296875 7 29 7 24.796875 7 
L 16.703125 7 
C 15.203125 7 11.203125 7 11.203125 12.359375 
C 11.203125 14.390625 12.09375 15.6875 12.203125 15.78125 
C 13.703125 14.6875 16.796875 13 20.90625 13 
C 29.203125 13 36.09375 19.96875 36.09375 28.546875 
C 36.09375 33.3125 33.90625 36.796875 33 38 
L 33.296875 38 
C 33.59375 38 37.796875 38 39.296875 38 
C 42.5 38 42.796875 37.953125 45.59375 37.796875 
z
M 20.90625 18.46875 
C 17.5 18.46875 12.703125 20.546875 12.703125 28.484375 
C 12.703125 37.109375 18.203125 38.5 20.796875 38.5 
C 24.203125 38.5 29 36.421875 29 28.484375 
C 29 19.859375 23.5 18.46875 20.90625 18.46875 
M 24.703125 -0.15625 
C 27.09375 -0.15625 37.203125 -0.15625 37.203125 -6.90625 
C 37.203125 -11.15625 31 -14.515625 23.5 -14.515625 
C 15.90625 -14.515625 9.703125 -11.25 9.703125 -6.796875 
C 9.703125 -6.296875 9.703125 -0.15625 16.59375 -0.15625 
z
" id="CMSS17-103"/>
     <path d="M 15.296875 65.359375 
L 6.90625 65.359375 
L 6.90625 57 
L 15.296875 57 
z
M 14.796875 42.796875 
L 7.40625 42.796875 
L 7.40625 0 
L 14.796875 0 
z
" id="CMSS17-105"/>
     <path d="M 44.203125 21.1875 
C 44.203125 34 34.703125 44 23.5 44 
C 12 44 2.703125 33.703125 2.703125 21.1875 
C 2.703125 8.5 12.296875 -1 23.40625 -1 
C 34.796875 -1 44.203125 8.796875 44.203125 21.1875 
M 23.5 5.265625 
C 16.40625 5.265625 10.296875 11.078125 10.296875 22 
C 10.296875 33.609375 17.40625 37.921875 23.40625 37.921875 
C 29.90625 37.921875 36.59375 33.21875 36.59375 22 
C 36.59375 10.671875 30.09375 5.265625 23.5 5.265625 
" id="CMSS17-111"/>
     <path d="M 40.90625 29.328125 
C 40.90625 35.671875 39.40625 44 28.09375 44 
C 21.703125 44 17.5 40.71875 14.703125 37.328125 
L 14.703125 43.09375 
L 7.40625 43.09375 
L 7.40625 0 
L 15 0 
L 15 24.359375 
C 15 30.6875 17.40625 37.9375 24.203125 37.9375 
C 33 37.9375 33.296875 32 33.296875 28.578125 
L 33.296875 0 
L 40.90625 0 
z
" id="CMSS17-110"/>
     <path d="M 16.796875 37 
L 26.90625 37 
L 26.90625 42.765625 
L 16.59375 42.765625 
L 16.59375 55.609375 
C 16.59375 62.71875 22 63.9375 25.09375 63.9375 
C 26.09375 63.9375 28.90625 63.9375 32.5 62.640625 
L 32.5 69.203125 
C 30.203125 69.703125 27.40625 70 25.203125 70 
C 15.90625 70 9.40625 62.390625 9.40625 52.484375 
L 9.40625 42.765625 
L 2.5 42.765625 
L 2.5 37 
L 9.40625 37 
L 9.40625 0 
L 16.796875 0 
z
" id="CMSS17-102"/>
     <path d="M 38.5 39.703125 
C 38.5 40.390625 33.90625 42.40625 32.703125 42.796875 
C 29.40625 44 25.203125 44 24.09375 44 
C 11.09375 44 3.296875 32.703125 3.296875 21.296875 
C 3.296875 9.296875 12 -1 23.703125 -1 
C 30.40625 -1 35.203125 1.1875 39.09375 3.78125 
L 38.5 10.375 
C 34.203125 7.078125 29.203125 5.265625 23.796875 5.265625 
C 16 5.265625 10.90625 12.09375 10.90625 21.390625 
C 10.90625 28.609375 14.203125 37.71875 24.203125 37.71875 
C 29.703125 37.71875 32.796875 36.609375 37.40625 33.515625 
z
" id="CMSS17-99"/>
     <path d="M 32.203125 41.046875 
C 26.296875 43.859375 21.703125 43.859375 18.703125 43.859375 
C 11.59375 43.859375 3.09375 41.375 3.09375 31.296875 
C 3.09375 21.234375 14.09375 19.03125 17.09375 18.421875 
C 21.703125 17.53125 26.796875 16.53125 26.796875 11.5625 
C 26.796875 5.265625 19.59375 5.265625 18.296875 5.265625 
C 14.296875 5.265625 8.796875 6.359375 3.796875 9.96875 
L 2.59375 3.28125 
C 8.296875 0 13.796875 -1 18.40625 -1 
C 30.703125 -1 33.796875 6.5 33.796875 12.203125 
C 33.796875 17.09375 31 20.390625 29.09375 21.890625 
C 25.796875 24.5 24.59375 24.796875 16.40625 26.5 
C 15 26.703125 10.09375 27.796875 10.09375 32.28125 
C 10.09375 38 16.40625 38 17.796875 38 
C 24.296875 38 28.296875 35.984375 31 34.5 
z
" id="CMSS17-115"/>
     <path d="M 16.703125 37 
L 29.703125 37 
L 29.703125 42.765625 
L 16.703125 42.765625 
L 16.703125 55 
L 9.59375 55 
L 9.59375 42.765625 
L 1.703125 42.765625 
L 1.703125 37 
L 9.40625 37 
L 9.40625 11.703125 
C 9.40625 6 10.703125 -1 17.296875 -1 
C 22.296875 -1 26.90625 0.390625 31.296875 2.6875 
L 29.703125 8.5625 
C 27.296875 6.46875 24.40625 5.265625 21.296875 5.265625 
C 16.90625 5.265625 16.703125 10.875 16.703125 13.375 
z
" id="CMSS17-116"/>
     <path d="M 41.796875 43 
L 34 43 
C 25.5 20.21875 22.59375 10.96875 22.40625 5.984375 
L 22.296875 5.984375 
C 22 10.875 17.59375 22.8125 14.09375 31.359375 
L 9.40625 43 
L 1.296875 43 
L 19 0.203125 
C 17.90625 -2.78125 16.296875 -7.265625 15.796875 -8.265625 
C 13.59375 -13.828125 12.09375 -13.828125 10.5 -13.828125 
C 10.09375 -13.828125 6.90625 -13.828125 3.296875 -12.640625 
L 3.90625 -19.203125 
C 6.40625 -19.703125 8.90625 -20 10.703125 -20 
C 13.203125 -20 18.203125 -20 22.796875 -7.765625 
z
" id="CMSS17-121"/>
     <path d="M 14.90625 21.296875 
C 14.90625 30.703125 21.796875 37 30.59375 37 
L 30.59375 43.578125 
C 24.203125 43.578125 18.203125 40.390625 14.59375 35.203125 
L 14.59375 43.09375 
L 7.5 43.09375 
L 7.5 0 
L 14.90625 0 
z
" id="CMSS17-114"/>
     <path d="M 45.59375 31 
L 45.59375 37.078125 
L 17.203125 37.078125 
L 17.203125 62 
L 29.40625 62 
C 30.59375 62 31.796875 62 33 62 
L 49.5 62 
L 49.5 68.359375 
L 8.796875 68.359375 
L 8.796875 -0.5 
L 17.203125 -0.5 
L 17.203125 31 
z
" id="CMSS17-70"/>
     <path d="M 37.59375 27.984375 
C 37.59375 37.375 30.90625 43.875 21.90625 43.875 
C 17.5 43.875 12.703125 43.078125 7.203125 39.890625 
L 7.796875 33.359375 
C 10.296875 35.125 14.59375 38 21.796875 38 
C 26.90625 38 30 34.0625 30 27.84375 
L 30 24 
C 14 24 4 19.34375 4 11.34375 
C 4 7.203125 6.5 -1 14.796875 -1 
C 16.296875 -1 24.40625 -1 30.203125 3.390625 
L 30.203125 -0.296875 
L 37.59375 -0.296875 
z
M 30 12.75 
C 30 10.953125 30 8.5625 27 6.78125 
C 24.40625 5.078125 21.09375 5.078125 19.703125 5.078125 
C 14.703125 5.078125 11.296875 7.984375 11.296875 11.625 
C 11.296875 18.921875 26.90625 18.921875 30 18.921875 
z
" id="CMSS17-97"/>
     <path d="M 26 19 
L 26 24.765625 
L 1 24.765625 
L 1 19 
z
" id="CMSS17-45"/>
     <path d="M 15.09375 5.203125 
C 18.40625 2.015625 22.90625 -0.078125 27.703125 -0.078125 
C 37 -0.078125 45 9.421875 45 22.0625 
C 45 33.734375 39 44 30.40625 44 
C 25.40625 44 19.40625 42.21875 14.90625 38.625 
L 14.90625 43.203125 
L 7.5 43.203125 
L 7.5 -19 
L 15.09375 -19 
z
M 15.09375 32.8125 
C 15.90625 34 19.296875 37.734375 24.796875 37.734375 
C 31.796875 37.734375 37.40625 30.625 37.40625 22.0625 
C 37.40625 12.296875 30.59375 6 23.90625 6 
C 21.90625 6 19.796875 6.484375 17.796875 8.171875 
C 15.09375 10.53125 15.09375 12 15.09375 13.390625 
z
" id="CMSS17-112"/>
     <path d="M 14.796875 69 
L 7.40625 69 
L 7.40625 0 
L 14.796875 0 
z
" id="CMSS17-108"/>
    </defs>
    <g style="fill:#262626;" transform="translate(120.381578 41.52)scale(0.16 -0.16)">
     <use transform="scale(0.996264)" xlink:href="#CMSS17-82"/>
     <use transform="translate(60.416155 0)scale(0.996264)" xlink:href="#CMSS17-101"/>
     <use transform="translate(102.054977 0)scale(0.996264)" xlink:href="#CMSS17-103"/>
     <use transform="translate(148.8986 0)scale(0.996264)" xlink:href="#CMSS17-105"/>
     <use transform="translate(171.079324 0)scale(0.996264)" xlink:href="#CMSS17-111"/>
     <use transform="translate(217.922947 0)scale(0.996264)" xlink:href="#CMSS17-110"/>
     <use transform="translate(297.357003 0)scale(0.996264)" xlink:href="#CMSS17-111"/>
     <use transform="translate(344.200626 0)scale(0.996264)" xlink:href="#CMSS17-102"/>
     <use transform="translate(404.056398 0)scale(0.996264)" xlink:href="#CMSS17-105"/>
     <use transform="translate(426.237121 0)scale(0.996264)" xlink:href="#CMSS17-110"/>
     <use transform="translate(474.442064 0)scale(0.996264)" xlink:href="#CMSS17-99"/>
     <use transform="translate(516.080886 0)scale(0.996264)" xlink:href="#CMSS17-111"/>
     <use transform="translate(562.92451 0)scale(0.996264)" xlink:href="#CMSS17-110"/>
     <use transform="translate(611.129453 0)scale(0.996264)" xlink:href="#CMSS17-115"/>
     <use transform="translate(647.042995 0)scale(0.996264)" xlink:href="#CMSS17-105"/>
     <use transform="translate(669.223718 0)scale(0.996264)" xlink:href="#CMSS17-115"/>
     <use transform="translate(705.13726 0)scale(0.996264)" xlink:href="#CMSS17-116"/>
     <use transform="translate(738.968827 0)scale(0.996264)" xlink:href="#CMSS17-101"/>
     <use transform="translate(780.607649 0)scale(0.996264)" xlink:href="#CMSS17-110"/>
     <use transform="translate(828.812592 0)scale(0.996264)" xlink:href="#CMSS17-99"/>
     <use transform="translate(870.451414 0)scale(0.996264)" xlink:href="#CMSS17-121"/>
     <use transform="translate(944.680668 0)scale(0.996264)" xlink:href="#CMSS17-102"/>
     <use transform="translate(973.307327 0)scale(0.996264)" xlink:href="#CMSS17-111"/>
     <use transform="translate(1017.548497 0)scale(0.996264)" xlink:href="#CMSS17-114"/>
     <use transform="translate(1080.687382 0)scale(0.996264)" xlink:href="#CMSS17-70"/>
     <use transform="translate(1131.374487 0)scale(0.996264)" xlink:href="#CMSS17-97"/>
     <use transform="translate(1173.693954 0)scale(0.996264)" xlink:href="#CMSS17-114"/>
     <use transform="translate(1205.603727 0)scale(0.996264)" xlink:href="#CMSS17-114"/>
     <use transform="translate(1237.513499 0)scale(0.996264)" xlink:href="#CMSS17-105"/>
     <use transform="translate(1259.694222 0)scale(0.996264)" xlink:href="#CMSS17-115"/>
     <use transform="translate(1295.607764 0)scale(0.996264)" xlink:href="#CMSS17-45"/>
     <use transform="translate(1326.836877 0)scale(0.996264)" xlink:href="#CMSS17-103"/>
     <use transform="translate(1373.6805 0)scale(0.996264)" xlink:href="#CMSS17-101"/>
     <use transform="translate(1415.319323 0)scale(0.996264)" xlink:href="#CMSS17-110"/>
     <use transform="translate(1463.524266 0)scale(0.996264)" xlink:href="#CMSS17-101"/>
     <use transform="translate(1505.163088 0)scale(0.996264)" xlink:href="#CMSS17-114"/>
     <use transform="translate(1537.07286 0)scale(0.996264)" xlink:href="#CMSS17-97"/>
     <use transform="translate(1581.994781 0)scale(0.996264)" xlink:href="#CMSS17-116"/>
     <use transform="translate(1615.826348 0)scale(0.996264)" xlink:href="#CMSS17-105"/>
     <use transform="translate(1638.007071 0)scale(0.996264)" xlink:href="#CMSS17-110"/>
     <use transform="translate(1686.212014 0)scale(0.996264)" xlink:href="#CMSS17-103"/>
     <use transform="translate(1764.28475 0)scale(0.996264)" xlink:href="#CMSS17-116"/>
     <use transform="translate(1798.116317 0)scale(0.996264)" xlink:href="#CMSS17-111"/>
     <use transform="translate(1844.95994 0)scale(0.996264)" xlink:href="#CMSS17-112"/>
     <use transform="translate(1895.767322 0)scale(0.996264)" xlink:href="#CMSS17-111"/>
     <use transform="translate(1942.610946 0)scale(0.996264)" xlink:href="#CMSS17-108"/>
     <use transform="translate(1964.791669 0)scale(0.996264)" xlink:href="#CMSS17-111"/>
     <use transform="translate(2011.635292 0)scale(0.996264)" xlink:href="#CMSS17-103"/>
     <use transform="translate(2058.478916 0)scale(0.996264)" xlink:href="#CMSS17-121"/>
    </g>
   </g>
   <g id="legend_1">
    <g id="patch_5">
     <path d="M 370.28882 63.52 
L 390.28882 63.52 
L 390.28882 56.52 
L 370.28882 56.52 
z
" style="opacity:0.2;stroke:#000000;stroke-linejoin:miter;"/>
    </g>
    <g id="text_16">
     <!-- joint inference inconsistent -->
     <defs>
      <path d="M 17.40625 66 
L 9 66 
L 9 57.640625 
L 17.40625 57.640625 
z
M -5.796875 -16.625 
C -2.59375 -18.609375 1.296875 -20 5.5 -20 
C 11.796875 -20 17.40625 -14.609375 17.40625 -5.71875 
L 17.40625 43.234375 
L 10 43.234375 
L 10 -6.640625 
C 10 -12.734375 5.40625 -13.640625 2.796875 -13.640625 
C 0.59375 -13.640625 -2 -12.9375 -4.296875 -10.546875 
z
" id="CMSS17-106"/>
     </defs>
     <g style="fill:#262626;" transform="translate(398.28882 63.52)scale(0.1 -0.1)">
      <use transform="scale(0.996264)" xlink:href="#CMSS17-106"/>
      <use transform="translate(24.783086 0)scale(0.996264)" xlink:href="#CMSS17-111"/>
      <use transform="translate(71.626709 0)scale(0.996264)" xlink:href="#CMSS17-105"/>
      <use transform="translate(93.807432 0)scale(0.996264)" xlink:href="#CMSS17-110"/>
      <use transform="translate(142.012375 0)scale(0.996264)" xlink:href="#CMSS17-116"/>
      <use transform="translate(207.073055 0)scale(0.996264)" xlink:href="#CMSS17-105"/>
      <use transform="translate(229.253778 0)scale(0.996264)" xlink:href="#CMSS17-110"/>
      <use transform="translate(277.458721 0)scale(0.996264)" xlink:href="#CMSS17-102"/>
      <use transform="translate(306.08538 0)scale(0.996264)" xlink:href="#CMSS17-101"/>
      <use transform="translate(347.724202 0)scale(0.996264)" xlink:href="#CMSS17-114"/>
      <use transform="translate(379.633975 0)scale(0.996264)" xlink:href="#CMSS17-101"/>
      <use transform="translate(421.272797 0)scale(0.996264)" xlink:href="#CMSS17-110"/>
      <use transform="translate(469.47774 0)scale(0.996264)" xlink:href="#CMSS17-99"/>
      <use transform="translate(511.116562 0)scale(0.996264)" xlink:href="#CMSS17-101"/>
      <use transform="translate(583.984497 0)scale(0.996264)" xlink:href="#CMSS17-105"/>
      <use transform="translate(606.16522 0)scale(0.996264)" xlink:href="#CMSS17-110"/>
      <use transform="translate(654.370163 0)scale(0.996264)" xlink:href="#CMSS17-99"/>
      <use transform="translate(696.008985 0)scale(0.996264)" xlink:href="#CMSS17-111"/>
      <use transform="translate(742.852608 0)scale(0.996264)" xlink:href="#CMSS17-110"/>
      <use transform="translate(791.057552 0)scale(0.996264)" xlink:href="#CMSS17-115"/>
      <use transform="translate(826.971094 0)scale(0.996264)" xlink:href="#CMSS17-105"/>
      <use transform="translate(849.151817 0)scale(0.996264)" xlink:href="#CMSS17-115"/>
      <use transform="translate(885.065359 0)scale(0.996264)" xlink:href="#CMSS17-116"/>
      <use transform="translate(918.896925 0)scale(0.996264)" xlink:href="#CMSS17-101"/>
      <use transform="translate(960.535747 0)scale(0.996264)" xlink:href="#CMSS17-110"/>
      <use transform="translate(1008.74069 0)scale(0.996264)" xlink:href="#CMSS17-116"/>
     </g>
    </g>
   </g>
  </g>
 </g>
 <defs>
  <clipPath id="p292eb517ef">
   <rect height="304.92" width="446.4" x="72" y="47.52"/>
  </clipPath>
 </defs>
</svg>
